<svg xmlns="http://www.w3.org/2000/svg" width="728.64" height="361" viewBox="0 0 728.64 361">
  <g id="Grupo_68894" data-name="Grupo 68894" transform="translate(-435.68 -1078)">
    <g id="Grupo_68874" data-name="Grupo 68874" transform="translate(166.824 687.714)">
      <g id="Grupo_68864" data-name="Grupo 68864" transform="translate(637.514 574.612)">
        <path id="Trazado_115612" data-name="Trazado 115612" d="M396.808,454.261l168.572,7.05,3.892,63.205,33.915,20.618a2.129,2.129,0,0,1,.032,3.714l-31.549,17.2a2.359,2.359,0,0,0-1.034,2.023l1.827,59.739a2.766,2.766,0,0,1-2.867,3.123c-56.2-.844-112.855-3.924-168.226-8.1l-4.561-168.577Z" transform="translate(-396.808 -454.261)" fill="#fdfdfd" fill-rule="evenodd"/>
        <path id="Trazado_115613" data-name="Trazado 115613" d="M396.808,454.261l168.572,7.05,3.746,63.465,33.4,20.3a2.128,2.128,0,0,1,.035,3.714L571.45,565.756a2.367,2.367,0,0,0-1.037,2.023l1.769,59.7a2.764,2.764,0,0,1-2.867,3.123c-56.2-.844-112.5-3.748-167.946-7.765l-4.561-168.577Z" transform="translate(-396.808 -454.261)" fill="#fafbfb" fill-rule="evenodd"/>
        <path id="Trazado_115614" data-name="Trazado 115614" d="M396.808,454.261l168.572,7.05,3.6,63.724,32.886,19.99a2.128,2.128,0,0,1,.034,3.714l-30.673,16.723a2.355,2.355,0,0,0-1.034,2.023l1.708,59.667a2.764,2.764,0,0,1-2.867,3.123c-56.2-.844-112.149-3.576-167.667-7.436l-4.561-168.577Z" transform="translate(-396.808 -454.261)" fill="#f8f8f8" fill-rule="evenodd"/>
        <path id="Trazado_115615" data-name="Trazado 115615" d="M396.808,454.261l168.572,7.05,3.455,63.983,32.373,19.676a2.128,2.128,0,0,1,.034,3.714l-30.236,16.483a2.369,2.369,0,0,0-1.034,2.023l1.651,59.633a2.768,2.768,0,0,1-2.867,3.123c-56.2-.844-111.8-3.4-167.387-7.108l-4.561-168.577Z" transform="translate(-396.808 -454.261)" fill="#f5f5f6" fill-rule="evenodd"/>
        <path id="Trazado_115616" data-name="Trazado 115616" d="M396.808,454.261l168.572,7.05,3.308,64.243,31.863,19.362a2.128,2.128,0,0,1,.032,3.714l-29.795,16.244a2.362,2.362,0,0,0-1.034,2.023l1.59,59.6a2.768,2.768,0,0,1-2.867,3.123c-56.2-.841-111.443-3.227-167.108-6.777l-4.561-168.577Z" transform="translate(-396.808 -454.261)" fill="#f3f3f3" fill-rule="evenodd"/>
        <path id="Trazado_115617" data-name="Trazado 115617" d="M396.808,454.261l168.572,7.05,3.164,64.5,31.348,19.045a2.132,2.132,0,0,1,.035,3.717l-29.36,16a2.385,2.385,0,0,0-1.034,2.026l1.533,59.561a2.77,2.77,0,0,1-2.867,3.123c-56.2-.844-111.091-3.054-166.828-6.448l-4.561-168.577Z" transform="translate(-396.808 -454.261)" fill="#f0f0f1" fill-rule="evenodd"/>
        <path id="Trazado_115618" data-name="Trazado 115618" d="M396.808,454.261l168.572,7.05,3.017,64.761L599.231,544.8a2.13,2.13,0,0,1,.034,3.717l-28.919,15.763a2.375,2.375,0,0,0-1.037,2.022l1.475,59.529a2.773,2.773,0,0,1-2.87,3.123c-56.2-.844-110.737-2.881-166.546-6.12l-4.561-168.577Z" transform="translate(-396.808 -454.261)" fill="#edeeee" fill-rule="evenodd"/>
        <path id="Trazado_115619" data-name="Trazado 115619" d="M396.808,454.261l168.572,7.05,2.873,65.02,30.319,18.417a2.127,2.127,0,0,1,.034,3.714L570.125,563.99a2.379,2.379,0,0,0-1.034,2.023L570.5,625.5a2.769,2.769,0,0,1-2.867,3.123c-56.2-.841-110.382-2.705-166.267-5.788l-4.561-168.577Z" transform="translate(-396.808 -454.261)" fill="#ebebec" fill-rule="evenodd"/>
        <path id="Trazado_115620" data-name="Trazado 115620" d="M396.808,454.261l168.572,7.05,2.726,65.28,29.809,18.1a2.128,2.128,0,0,1,.032,3.714L569.906,563.7a2.382,2.382,0,0,0-1.037,2.023l1.354,59.457a2.77,2.77,0,0,1-2.867,3.123c-56.2-.841-110.031-2.532-165.987-5.46l-4.561-168.577Z" transform="translate(-396.808 -454.261)" fill="#e8e8e9" fill-rule="evenodd"/>
        <path id="Trazado_115621" data-name="Trazado 115621" d="M396.808,454.261l168.572,7.05,2.579,65.539,29.3,17.789a2.13,2.13,0,0,1,.035,3.714L569.684,563.4a2.379,2.379,0,0,0-1.034,2.023l1.294,59.422a2.773,2.773,0,0,1-2.867,3.123c-56.2-.844-109.679-2.36-165.708-5.132l-4.561-168.577Z" transform="translate(-396.808 -454.261)" fill="#e5e6e6" fill-rule="evenodd"/>
        <path id="Trazado_115622" data-name="Trazado 115622" d="M396.808,454.261l168.572,7.05,2.435,65.8,28.781,17.474a2.129,2.129,0,0,1,.035,3.714l-27.164,14.81a2.382,2.382,0,0,0-1.037,2.023l1.236,59.388a2.774,2.774,0,0,1-2.867,3.123c-56.2-.844-109.325-2.187-165.428-4.8l-4.561-168.577Z" transform="translate(-396.808 -454.261)" fill="#e3e3e4" fill-rule="evenodd"/>
        <path id="Trazado_115623" data-name="Trazado 115623" d="M396.808,454.261l168.572,7.05,2.288,66.058,28.268,17.158a2.13,2.13,0,0,1,.034,3.717l-26.726,14.57a2.386,2.386,0,0,0-1.034,2.023l1.175,59.35a2.774,2.774,0,0,1-2.867,3.123c-56.2-.841-108.973-2.011-165.149-4.472l-4.561-168.577Z" transform="translate(-396.808 -454.261)" fill="#e0e1e1" fill-rule="evenodd"/>
        <path id="Trazado_115624" data-name="Trazado 115624" d="M396.808,454.261l168.572,7.05,2.141,66.317,27.758,16.844a2.131,2.131,0,0,1,.032,3.717L569.024,562.52a2.389,2.389,0,0,0-1.037,2.023l1.118,59.316a2.777,2.777,0,0,1-2.867,3.123c-56.2-.841-108.619-1.838-164.869-4.143l-4.561-168.577Z" transform="translate(-396.808 -454.261)" fill="#dddedf" fill-rule="evenodd"/>
        <path id="Trazado_115625" data-name="Trazado 115625" d="M396.808,454.261l168.572,7.05,2,66.576,27.242,16.53a2.132,2.132,0,0,1,.035,3.717L568.8,562.223a2.4,2.4,0,0,0-1.034,2.026l1.057,59.281a2.78,2.78,0,0,1-2.87,3.123c-56.2-.844-108.265-1.665-164.587-3.815l-4.561-168.577Z" transform="translate(-396.808 -454.261)" fill="#dbdbdc" fill-rule="evenodd"/>
        <path id="Trazado_115626" data-name="Trazado 115626" d="M396.808,454.261l168.572,7.05,1.85,66.836,26.729,16.215a2.131,2.131,0,0,1,.035,3.717l-25.412,13.85a2.4,2.4,0,0,0-1.034,2.023l1,59.247a2.774,2.774,0,0,1-2.867,3.123c-56.2-.841-107.913-1.49-164.307-3.483l-4.561-168.577Z" transform="translate(-396.808 -454.261)" fill="#d8d9da" fill-rule="evenodd"/>
        <path id="Trazado_115627" data-name="Trazado 115627" d="M396.808,454.261l168.572,7.05,1.7,67.1,26.216,15.9a2.131,2.131,0,0,1,.034,3.717l-24.971,13.611a2.4,2.4,0,0,0-1.034,2.023l.936,59.212a2.777,2.777,0,0,1-2.867,3.123c-56.2-.841-107.559-1.317-164.028-3.155l-4.561-168.577Z" transform="translate(-396.808 -454.261)" fill="#d5d6d7" fill-rule="evenodd"/>
        <path id="Trazado_115628" data-name="Trazado 115628" d="M396.808,454.261l168.572,7.05,1.559,67.354,25.7,15.587a2.129,2.129,0,0,1,.032,3.714L568.14,561.342a2.4,2.4,0,0,0-1.034,2.023l.879,59.177a2.78,2.78,0,0,1-2.867,3.123c-56.2-.844-107.207-1.144-163.748-2.826l-4.561-168.577Z" transform="translate(-396.808 -454.261)" fill="#d3d4d5" fill-rule="evenodd"/>
        <path id="Trazado_115629" data-name="Trazado 115629" d="M396.808,454.261l168.572,7.05,1.412,67.614,25.19,15.273a2.13,2.13,0,0,1,.035,3.714l-24.1,13.135a2.4,2.4,0,0,0-1.037,2.023l.821,59.14a2.779,2.779,0,0,1-2.867,3.123c-56.2-.841-106.856-.968-163.469-2.5l-4.561-168.577Z" transform="translate(-396.808 -454.261)" fill="#d0d1d2" fill-rule="evenodd"/>
        <path id="Trazado_115630" data-name="Trazado 115630" d="M396.808,454.261l168.572,7.05,1.268,67.873,24.675,14.956a2.131,2.131,0,0,1,.034,3.717l-23.658,12.9a2.4,2.4,0,0,0-1.034,2.023l.761,59.105a2.781,2.781,0,0,1-2.867,3.123c-56.2-.841-106.5-.8-163.189-2.167l-4.561-168.577Z" transform="translate(-396.808 -454.261)" fill="#cdcfd0" fill-rule="evenodd"/>
        <path id="Trazado_115631" data-name="Trazado 115631" d="M396.808,454.261l168.572,7.05,1.121,68.132,24.162,14.642a2.131,2.131,0,0,1,.034,3.717L567.48,560.46a2.41,2.41,0,0,0-1.037,2.023l.7,59.071a2.783,2.783,0,0,1-2.867,3.123c-56.2-.841-106.15-.622-162.91-1.838l-4.561-168.577Z" transform="translate(-396.808 -454.261)" fill="#cbcccd" fill-rule="evenodd"/>
        <path id="Trazado_115632" data-name="Trazado 115632" d="M396.808,454.261l168.572,7.05.974,68.392,23.652,14.328a2.132,2.132,0,0,1,.032,3.717l-22.779,12.418a2.407,2.407,0,0,0-1.034,2.023l.642,59.036a2.788,2.788,0,0,1-2.87,3.123c-56.2-.844-105.8-.449-162.628-1.51l-4.561-168.577Z" transform="translate(-396.808 -454.261)" fill="#c8c9cb" fill-rule="evenodd"/>
        <path id="Trazado_115633" data-name="Trazado 115633" d="M396.808,454.261l168.572,7.05.83,68.651,23.136,14.014a2.131,2.131,0,0,1,.035,3.717l-22.341,12.176A2.419,2.419,0,0,0,566,561.895l.582,59a2.783,2.783,0,0,1-2.867,3.123c-56.2-.841-105.441-.274-162.348-1.178l-4.561-168.577Z" transform="translate(-396.808 -454.261)" fill="#c6c7c8" fill-rule="evenodd"/>
      </g>
      <g id="Grupo_68866" data-name="Grupo 68866" transform="translate(821.84 574.612)">
        <g id="Grupo_68865" data-name="Grupo 68865">
          <path id="Trazado_115634" data-name="Trazado 115634" d="M460.783,454.261l168.574,7.05c6.163,100.059,4.071,68.193,7.079,166.5a2.762,2.762,0,0,1-2.864,3.123c-56.2-.844-112.855-3.924-168.229-8.1l-4.561-168.577Z" transform="translate(-460.783 -454.261)" fill="#fdfdfd" fill-rule="evenodd"/>
          <path id="Trazado_115635" data-name="Trazado 115635" d="M460.783,454.261l168.574,7.05c5.93,97.161,3.893,70.936,6.791,166.174a2.764,2.764,0,0,1-2.864,3.123c-56.2-.844-112.572-3.74-167.941-7.771l-4.561-168.577Z" transform="translate(-460.783 -454.261)" fill="#fafbfb" fill-rule="evenodd"/>
          <path id="Trazado_115636" data-name="Trazado 115636" d="M460.783,454.261l168.574,7.05c5.7,94.265,3.717,73.679,6.5,165.849a2.763,2.763,0,0,1-2.867,3.123c-56.2-.844-112.287-3.558-167.65-7.445l-4.561-168.577Z" transform="translate(-460.783 -454.261)" fill="#f8f8f8" fill-rule="evenodd"/>
          <path id="Trazado_115637" data-name="Trazado 115637" d="M460.783,454.261l168.574,7.05c5.466,91.366,3.538,76.422,6.212,165.523a2.761,2.761,0,0,1-2.864,3.123c-56.2-.844-112-3.377-167.362-7.12l-4.561-168.577Z" transform="translate(-460.783 -454.261)" fill="#f5f5f6" fill-rule="evenodd"/>
          <path id="Trazado_115638" data-name="Trazado 115638" d="M460.783,454.261l168.574,7.05c5.235,88.468,3.359,79.164,5.924,165.2a2.762,2.762,0,0,1-2.864,3.123c-56.2-.844-111.722-3.192-167.074-6.794l-4.561-168.577Z" transform="translate(-460.783 -454.261)" fill="#f3f3f3" fill-rule="evenodd"/>
          <path id="Trazado_115639" data-name="Trazado 115639" d="M460.783,454.261l168.574,7.05c5,85.569,3.184,81.907,5.636,164.872a2.762,2.762,0,0,1-2.864,3.123c-56.2-.841-111.44-3.011-166.785-6.468l-4.561-168.577Z" transform="translate(-460.783 -454.261)" fill="#f0f0f1" fill-rule="evenodd"/>
          <path id="Trazado_115640" data-name="Trazado 115640" d="M460.783,454.261l168.574,7.05c4.771,82.674,3.005,84.65,5.348,164.547a2.765,2.765,0,0,1-2.864,3.123c-56.2-.841-111.158-2.826-166.5-6.143l-4.561-168.577Z" transform="translate(-460.783 -454.261)" fill="#edeeee" fill-rule="evenodd"/>
          <path id="Trazado_115641" data-name="Trazado 115641" d="M460.783,454.261l168.574,7.05c4.541,79.775,2.826,87.393,5.059,164.221a2.766,2.766,0,0,1-2.867,3.123c-56.2-.841-110.872-2.645-166.206-5.817l-4.561-168.577Z" transform="translate(-460.783 -454.261)" fill="#ebebec" fill-rule="evenodd"/>
          <path id="Trazado_115642" data-name="Trazado 115642" d="M460.783,454.261l168.574,7.05c4.307,76.877,2.651,90.136,4.768,163.9a2.764,2.764,0,0,1-2.864,3.123c-56.2-.841-110.59-2.461-165.918-5.492l-4.561-168.577Z" transform="translate(-460.783 -454.261)" fill="#e8e8e9" fill-rule="evenodd"/>
          <path id="Trazado_115643" data-name="Trazado 115643" d="M460.783,454.261l168.574,7.05c4.077,73.981,2.472,92.879,4.48,163.57A2.763,2.763,0,0,1,630.974,628c-56.2-.841-110.308-2.279-165.63-5.166l-4.561-168.577Z" transform="translate(-460.783 -454.261)" fill="#e5e6e6" fill-rule="evenodd"/>
          <path id="Trazado_115644" data-name="Trazado 115644" d="M460.783,454.261l168.574,7.05c3.846,71.083,2.293,95.622,4.192,163.247a2.767,2.767,0,0,1-2.864,3.123c-56.2-.844-110.025-2.1-165.342-4.843l-4.561-168.577Z" transform="translate(-460.783 -454.261)" fill="#e3e3e4" fill-rule="evenodd"/>
          <path id="Trazado_115645" data-name="Trazado 115645" d="M460.783,454.261l168.574,7.05c3.613,68.184,2.118,98.365,3.9,162.922a2.768,2.768,0,0,1-2.864,3.123c-56.2-.841-109.74-1.916-165.054-4.518l-4.561-168.577Z" transform="translate(-460.783 -454.261)" fill="#e0e1e1" fill-rule="evenodd"/>
          <path id="Trazado_115646" data-name="Trazado 115646" d="M460.783,454.261l168.574,7.05c3.383,65.286,1.939,101.108,3.616,162.6a2.769,2.769,0,0,1-2.867,3.123c-56.2-.841-109.455-1.734-164.763-4.192l-4.561-168.577Z" transform="translate(-460.783 -454.261)" fill="#dddedf" fill-rule="evenodd"/>
          <path id="Trazado_115647" data-name="Trazado 115647" d="M460.783,454.261l168.574,7.05c3.149,62.39,1.76,103.851,3.325,162.271a2.765,2.765,0,0,1-2.864,3.123c-56.2-.841-109.172-1.55-164.475-3.867l-4.561-168.577Z" transform="translate(-460.783 -454.261)" fill="#dbdbdc" fill-rule="evenodd"/>
          <path id="Trazado_115648" data-name="Trazado 115648" d="M460.783,454.261l168.574,7.05c2.919,59.491,1.585,106.594,3.037,161.945a2.767,2.767,0,0,1-2.864,3.123c-56.2-.841-108.89-1.369-164.187-3.541l-4.561-168.577Z" transform="translate(-460.783 -454.261)" fill="#d8d9da" fill-rule="evenodd"/>
          <path id="Trazado_115649" data-name="Trazado 115649" d="M460.783,454.261l168.574,7.05c2.688,56.593,1.406,109.337,2.749,161.619a2.768,2.768,0,0,1-2.864,3.123c-56.2-.841-108.607-1.184-163.9-3.215l-4.561-168.577Z" transform="translate(-460.783 -454.261)" fill="#d5d6d7" fill-rule="evenodd"/>
          <path id="Trazado_115650" data-name="Trazado 115650" d="M460.783,454.261l168.574,7.05c2.455,53.694,1.23,112.08,2.461,161.294a2.769,2.769,0,0,1-2.867,3.123c-56.2-.841-108.323-1-163.607-2.89l-4.561-168.577Z" transform="translate(-460.783 -454.261)" fill="#d3d4d5" fill-rule="evenodd"/>
          <path id="Trazado_115651" data-name="Trazado 115651" d="M460.783,454.261l168.574,7.05c2.224,50.8,1.052,114.822,2.17,160.968a2.766,2.766,0,0,1-2.864,3.123c-56.2-.838-108.04-.821-163.319-2.564l-4.561-168.577Z" transform="translate(-460.783 -454.261)" fill="#d0d1d2" fill-rule="evenodd"/>
          <path id="Trazado_115652" data-name="Trazado 115652" d="M460.783,454.261l168.574,7.05c1.991,47.9.873,117.565,1.881,160.643a2.766,2.766,0,0,1-2.864,3.123c-56.2-.838-107.758-.637-163.031-2.239l-4.561-168.577Z" transform="translate(-460.783 -454.261)" fill="#cdcfd0" fill-rule="evenodd"/>
          <path id="Trazado_115653" data-name="Trazado 115653" d="M460.783,454.261l168.574,7.05c1.76,45,.7,120.308,1.593,160.317a2.768,2.768,0,0,1-2.864,3.123c-56.2-.838-107.475-.455-162.743-1.913l-4.561-168.577Z" transform="translate(-460.783 -454.261)" fill="#cbcccd" fill-rule="evenodd"/>
          <path id="Trazado_115654" data-name="Trazado 115654" d="M460.783,454.261l168.574,7.05c1.53,42.106.519,123.051,1.305,159.991a2.769,2.769,0,0,1-2.864,3.123c-56.2-.838-107.193-.271-162.455-1.587l-4.561-168.577Z" transform="translate(-460.783 -454.261)" fill="#c8c9cb" fill-rule="evenodd"/>
          <path id="Trazado_115655" data-name="Trazado 115655" d="M460.783,454.261l168.574,7.05c1.3,39.208.34,125.794,1.017,159.666a2.771,2.771,0,0,1-2.867,3.123c-56.2-.839-106.908-.089-162.164-1.262l-4.561-168.577Z" transform="translate(-460.783 -454.261)" fill="#c6c7c8" fill-rule="evenodd"/>
        </g>
        <path id="Trazado_115656" data-name="Trazado 115656" d="M460.783,454.261H629.357V622.838H460.783V454.261Z" transform="translate(-460.783 -454.261)" fill="#6fe8d1" fill-rule="evenodd"/>
      </g>
      <g id="Grupo_68867" data-name="Grupo 68867" transform="translate(453.185 390.286)">
        <path id="Trazado_115657" data-name="Trazado 115657" d="M332.832,390.286l168.574,7.05c6.163,100.056,4.071,68.193,7.082,166.5a2.766,2.766,0,0,1-2.867,3.123c-19.857-.3-39.395-.931-59.287-1.665a2.97,2.97,0,0,0-2.711,1.245l-18.659,31.512a1.916,1.916,0,0,1-3.118.072l-19.5-34.961q-32.664-1.837-64.951-4.3l-4.561-168.574Z" transform="translate(-332.832 -390.286)" fill="#fdfdfd" fill-rule="evenodd"/>
        <path id="Trazado_115658" data-name="Trazado 115658" d="M332.832,390.286l168.574,7.05c5.958,98.448,3.878,69.694,6.791,166.154a2.764,2.764,0,0,1-2.867,3.123c-19.855-.3-39.285-.861-59.183-1.57a2.971,2.971,0,0,0-2.708,1.245l-18.434,31.149a1.919,1.919,0,0,1-3.117.072l-19.523-34.52c-21.71-1.173-43.481-2.559-64.972-4.129l-4.561-168.574Z" transform="translate(-332.832 -390.286)" fill="#fafbfb" fill-rule="evenodd"/>
        <path id="Trazado_115659" data-name="Trazado 115659" d="M332.832,390.286l168.574,7.05c5.757,96.838,3.682,71.192,6.5,165.814a2.768,2.768,0,0,1-2.867,3.123c-19.857-.3-39.173-.8-59.077-1.478a2.972,2.972,0,0,0-2.711,1.247l-18.2,30.78a1.921,1.921,0,0,1-3.118.075l-19.549-34.079c-21.644-1.121-43.5-2.432-64.989-3.959l-4.561-168.574Z" transform="translate(-332.832 -390.286)" fill="#f8f8f8" fill-rule="evenodd"/>
        <path id="Trazado_115660" data-name="Trazado 115660" d="M332.832,390.286l168.574,7.05c5.555,95.23,3.489,72.693,6.209,165.469a2.764,2.764,0,0,1-2.867,3.123c-19.857-.3-39.064-.723-58.973-1.38a2.972,2.972,0,0,0-2.708,1.247l-17.973,30.417a1.925,1.925,0,0,1-3.117.075L402.4,562.652c-21.58-1.069-43.518-2.313-65.009-3.792l-4.561-168.574Z" transform="translate(-332.832 -390.286)" fill="#f5f5f6" fill-rule="evenodd"/>
        <path id="Trazado_115661" data-name="Trazado 115661" d="M332.832,390.286l168.574,7.05c5.35,93.62,3.293,74.194,5.921,165.129a2.769,2.769,0,0,1-2.87,3.123c-19.854-.3-38.951-.66-58.866-1.288a2.978,2.978,0,0,0-2.711,1.248L425.135,595.6a1.928,1.928,0,0,1-3.118.075l-19.6-33.195c-21.511-1.017-43.535-2.19-65.026-3.622l-4.561-168.574Z" transform="translate(-332.832 -390.286)" fill="#f3f3f3" fill-rule="evenodd"/>
        <path id="Trazado_115662" data-name="Trazado 115662" d="M332.832,390.286l168.574,7.05c5.149,92.012,3.1,75.693,5.627,164.786a2.765,2.765,0,0,1-2.864,3.123c-19.857-.3-38.845-.591-58.765-1.193A2.979,2.979,0,0,0,442.7,565.3l-17.518,29.691a1.93,1.93,0,0,1-3.118.072l-19.624-32.748c-21.445-.968-43.553-2.069-65.044-3.455l-4.561-168.574Z" transform="translate(-332.832 -390.286)" fill="#f0f0f1" fill-rule="evenodd"/>
        <path id="Trazado_115663" data-name="Trazado 115663" d="M332.832,390.286l168.574,7.05c4.947,90.4,2.91,77.194,5.336,164.443a2.766,2.766,0,0,1-2.867,3.123c-19.855-.3-38.729-.524-58.656-1.1a2.99,2.99,0,0,0-2.711,1.248l-17.287,29.325a1.934,1.934,0,0,1-3.12.075l-19.644-32.31c-21.382-.913-43.573-1.942-65.064-3.282l-4.561-168.574Z" transform="translate(-332.832 -390.286)" fill="#edeeee" fill-rule="evenodd"/>
        <path id="Trazado_115664" data-name="Trazado 115664" d="M332.832,390.286l168.574,7.05c4.743,88.793,2.714,78.695,5.048,164.1a2.77,2.77,0,0,1-2.867,3.123c-19.857-.3-38.623-.455-58.555-1.006a2.992,2.992,0,0,0-2.708,1.247l-17.06,28.965a1.937,1.937,0,0,1-3.117.072l-19.67-31.869c-21.315-.859-43.593-1.818-65.084-3.112l-4.561-168.574Z" transform="translate(-332.832 -390.286)" fill="#ebebec" fill-rule="evenodd"/>
        <path id="Trazado_115665" data-name="Trazado 115665" d="M332.832,390.286l168.574,7.05c4.541,87.186,2.521,80.193,4.754,163.76a2.768,2.768,0,0,1-2.864,3.123c-19.855-.3-38.51-.386-58.448-.91a2.994,2.994,0,0,0-2.708,1.247l-16.832,28.6a1.939,1.939,0,0,1-3.117.069l-19.7-31.422c-21.249-.81-43.61-1.7-65.1-2.945l-4.561-168.574Z" transform="translate(-332.832 -390.286)" fill="#e8e8e9" fill-rule="evenodd"/>
        <path id="Trazado_115666" data-name="Trazado 115666" d="M332.832,390.286l168.574,7.05c4.339,85.575,2.328,81.694,4.466,163.417a2.772,2.772,0,0,1-2.867,3.123c-19.857-.3-38.4-.32-58.342-.815a3.006,3.006,0,0,0-2.711,1.248l-16.6,28.236a1.939,1.939,0,0,1-3.118.072l-19.716-30.982c-21.186-.758-43.63-1.576-65.121-2.775l-4.561-168.574Z" transform="translate(-332.832 -390.286)" fill="#e5e6e6" fill-rule="evenodd"/>
        <path id="Trazado_115667" data-name="Trazado 115667" d="M332.832,390.286l168.574,7.05c4.134,83.965,2.132,83.192,4.175,163.074a2.77,2.77,0,0,1-2.867,3.123c-19.857-.3-38.289-.248-58.238-.72a3.008,3.008,0,0,0-2.708,1.248l-16.377,27.873a1.942,1.942,0,0,1-3.117.072l-19.742-30.538c-21.119-.709-43.648-1.452-65.139-2.607l-4.561-168.574Z" transform="translate(-332.832 -390.286)" fill="#e3e3e4" fill-rule="evenodd"/>
        <path id="Trazado_115668" data-name="Trazado 115668" d="M332.832,390.286l168.574,7.05c3.933,82.357,1.939,84.693,3.884,162.731a2.77,2.77,0,0,1-2.867,3.123c-19.855-.294-38.179-.181-58.134-.622a3,3,0,0,0-2.708,1.248l-16.143,27.507a1.945,1.945,0,0,1-3.118.069L402.549,561.3c-21.05-.654-43.665-1.331-65.156-2.437l-4.561-168.574Z" transform="translate(-332.832 -390.286)" fill="#e0e1e1" fill-rule="evenodd"/>
        <path id="Trazado_115669" data-name="Trazado 115669" d="M332.832,390.286l168.574,7.05c3.731,80.749,1.743,86.195,3.593,162.391a2.769,2.769,0,0,1-2.864,3.123c-19.857-.3-38.069-.115-58.034-.527a2.988,2.988,0,0,0-2.705,1.245l-15.919,27.144a1.948,1.948,0,0,1-3.117.069l-19.791-29.654c-20.987-.6-43.685-1.2-65.176-2.267l-4.561-168.574Z" transform="translate(-332.832 -390.286)" fill="#dddedf" fill-rule="evenodd"/>
        <path id="Trazado_115670" data-name="Trazado 115670" d="M332.832,390.286l168.574,7.05c3.53,79.138,1.55,87.693,3.3,162.049a2.77,2.77,0,0,1-2.867,3.123c-19.854-.3-37.957-.049-57.924-.432a3,3,0,0,0-2.708,1.245L425.521,590.1a1.952,1.952,0,0,1-3.118.075l-19.814-29.213c-20.923-.556-43.705-1.086-65.2-2.1l-4.561-168.574Z" transform="translate(-332.832 -390.286)" fill="#dbdbdc" fill-rule="evenodd"/>
        <path id="Trazado_115671" data-name="Trazado 115671" d="M332.832,390.286l168.574,7.05c3.325,77.531,1.357,89.194,3.011,161.706a2.772,2.772,0,0,1-2.864,3.123c-19.857-.3-37.848.023-57.823-.337a3,3,0,0,0-2.705,1.245l-15.461,26.415a1.951,1.951,0,0,1-3.118.072l-19.84-28.769c-20.854-.5-43.723-.962-65.214-1.93l-4.561-168.574Z" transform="translate(-332.832 -390.286)" fill="#d8d9da" fill-rule="evenodd"/>
        <path id="Trazado_115672" data-name="Trazado 115672" d="M332.832,390.286l168.574,7.05c3.123,75.923,1.161,90.692,2.72,161.366a2.772,2.772,0,0,1-2.864,3.123c-19.857-.3-37.738.089-57.717-.245a3.009,3.009,0,0,0-2.708,1.245l-15.23,26.052a1.956,1.956,0,0,1-3.118.072l-19.863-28.325c-20.791-.452-43.743-.841-65.234-1.763l-4.561-168.574Z" transform="translate(-332.832 -390.286)" fill="#d5d6d7" fill-rule="evenodd"/>
        <path id="Trazado_115673" data-name="Trazado 115673" d="M332.832,390.286l168.574,7.05c2.922,74.312.971,92.193,2.432,161.023a2.777,2.777,0,0,1-2.867,3.123c-19.857-.3-37.626.156-57.613-.15a3.01,3.01,0,0,0-2.705,1.245l-15,25.686a1.96,1.96,0,0,1-3.118.075l-19.886-27.887c-20.728-.4-43.763-.715-65.254-1.59l-4.561-168.574Z" transform="translate(-332.832 -390.286)" fill="#d3d4d5" fill-rule="evenodd"/>
        <path id="Trazado_115674" data-name="Trazado 115674" d="M332.832,390.286l168.574,7.05c2.717,72.7.775,93.695,2.138,160.677a2.771,2.771,0,0,1-2.864,3.123c-19.857-.294-37.516.228-57.506-.052a3.013,3.013,0,0,0-2.705,1.245l-14.775,25.326a1.963,1.963,0,0,1-3.117.069l-19.915-27.441c-20.658-.349-43.777-.6-65.268-1.423l-4.561-168.574Z" transform="translate(-332.832 -390.286)" fill="#d0d1d2" fill-rule="evenodd"/>
        <path id="Trazado_115675" data-name="Trazado 115675" d="M332.832,390.286l168.574,7.05c2.515,71.094.582,95.2,1.85,160.337a2.776,2.776,0,0,1-2.867,3.123c-19.855-.294-37.4.294-57.4.04a3.01,3.01,0,0,0-2.708,1.247l-14.547,24.96a1.966,1.966,0,0,1-3.117.069l-19.935-27c-20.592-.3-43.8-.47-65.288-1.253l-4.561-168.574Z" transform="translate(-332.832 -390.286)" fill="#cdcfd0" fill-rule="evenodd"/>
        <path id="Trazado_115676" data-name="Trazado 115676" d="M332.832,390.286l168.574,7.05c2.314,69.486.389,96.694,1.559,159.994a2.774,2.774,0,0,1-2.864,3.123c-19.857-.294-37.3.363-57.3.135a3.012,3.012,0,0,0-2.705,1.248l-14.317,24.6a1.971,1.971,0,0,1-3.117.069L402.7,559.944c-20.529-.242-43.818-.349-65.309-1.083l-4.561-168.574Z" transform="translate(-332.832 -390.286)" fill="#cbcccd" fill-rule="evenodd"/>
        <path id="Trazado_115677" data-name="Trazado 115677" d="M332.832,390.286l168.574,7.05c2.109,67.876.193,98.195,1.265,159.654a2.772,2.772,0,0,1-2.864,3.123c-19.854-.3-37.182.427-57.189.228a3.017,3.017,0,0,0-2.708,1.247L425.823,585.82a1.972,1.972,0,0,1-3.12.069l-19.984-26.112c-20.463-.193-43.835-.225-65.326-.916l-4.561-168.574Z" transform="translate(-332.832 -390.286)" fill="#c8c9cb" fill-rule="evenodd"/>
        <path id="Trazado_115678" data-name="Trazado 115678" d="M332.832,390.286l168.574,7.05c1.907,66.265,0,99.693.977,159.311a2.775,2.775,0,0,1-2.864,3.123c-19.857-.3-37.076.5-57.089.323a3.018,3.018,0,0,0-2.705,1.248l-13.862,23.868a1.97,1.97,0,0,1-3.117.069l-20.007-25.672c-20.4-.141-43.855-.1-65.346-.746l-4.561-168.574Z" transform="translate(-332.832 -390.286)" fill="#c6c7c8" fill-rule="evenodd"/>
      </g>
      <g id="Grupo_68868" data-name="Grupo 68868" transform="translate(821.84 652.08)" opacity="0.1">
        <path id="Trazado_115679" data-name="Trazado 115679" d="M460.783,510.312V481.148l22.053,13.406a2.132,2.132,0,0,1,.032,3.717l-22.085,12.041Z" transform="translate(-460.783 -481.148)" fill="#892062" fill-rule="evenodd"/>
        <path id="Trazado_115680" data-name="Trazado 115680" d="M460.783,509.671v-28.4l21.393,13.006a2.132,2.132,0,0,1,.035,3.717l-21.428,11.681Z" transform="translate(-460.783 -480.922)" fill="#861f60" fill-rule="evenodd"/>
        <path id="Trazado_115681" data-name="Trazado 115681" d="M460.783,509.03V481.388l20.733,12.605a2.131,2.131,0,0,1,.034,3.717l-20.768,11.32Z" transform="translate(-460.783 -480.697)" fill="#821e5d" fill-rule="evenodd"/>
        <path id="Trazado_115682" data-name="Trazado 115682" d="M460.783,508.388V481.509l20.073,12.2a2.131,2.131,0,0,1,.034,3.717l-20.108,10.96Z" transform="translate(-460.783 -480.469)" fill="#7f1e5b" fill-rule="evenodd"/>
        <path id="Trazado_115683" data-name="Trazado 115683" d="M460.783,507.747V481.629l19.417,11.8a2.129,2.129,0,0,1,.032,3.714l-19.448,10.6Z" transform="translate(-460.783 -480.243)" fill="#7b1d58" fill-rule="evenodd"/>
        <path id="Trazado_115684" data-name="Trazado 115684" d="M460.783,507.109v-25.36l18.757,11.4a2.132,2.132,0,0,1,.035,3.717l-18.791,10.246Z" transform="translate(-460.783 -480.017)" fill="#781c56" fill-rule="evenodd"/>
        <path id="Trazado_115685" data-name="Trazado 115685" d="M460.783,506.469v-24.6l18.1,11a2.131,2.131,0,0,1,.034,3.717l-18.131,9.885Z" transform="translate(-460.783 -479.792)" fill="#751b54" fill-rule="evenodd"/>
        <path id="Trazado_115686" data-name="Trazado 115686" d="M460.783,505.828V481.989l17.437,10.6a2.131,2.131,0,0,1,.034,3.717l-17.472,9.525Z" transform="translate(-460.783 -479.566)" fill="#711b51" fill-rule="evenodd"/>
        <path id="Trazado_115687" data-name="Trazado 115687" d="M460.783,505.186V482.11l16.78,10.194a2.131,2.131,0,0,1,.032,3.717l-16.812,9.165Z" transform="translate(-460.783 -479.338)" fill="#6e1a4f" fill-rule="evenodd"/>
        <path id="Trazado_115688" data-name="Trazado 115688" d="M460.783,504.545V482.23l16.12,9.793a2.13,2.13,0,0,1,.035,3.714l-16.155,8.808Z" transform="translate(-460.783 -479.112)" fill="#6b194d" fill-rule="evenodd"/>
        <path id="Trazado_115689" data-name="Trazado 115689" d="M460.783,503.9V482.35l15.461,9.393a2.13,2.13,0,0,1,.035,3.714l-15.5,8.448Z" transform="translate(-460.783 -478.887)" fill="#67184a" fill-rule="evenodd"/>
        <path id="Trazado_115690" data-name="Trazado 115690" d="M460.783,503.264V482.47l14.8,8.989a2.13,2.13,0,0,1,.034,3.717l-14.835,8.088Z" transform="translate(-460.783 -478.661)" fill="#641848" fill-rule="evenodd"/>
        <path id="Trazado_115691" data-name="Trazado 115691" d="M460.783,502.623V482.59l14.144,8.589a2.131,2.131,0,0,1,.032,3.717l-14.176,7.727Z" transform="translate(-460.783 -478.435)" fill="#601745" fill-rule="evenodd"/>
        <path id="Trazado_115692" data-name="Trazado 115692" d="M460.783,501.983V482.711l13.484,8.186a2.132,2.132,0,0,1,.035,3.717l-13.519,7.37Z" transform="translate(-460.783 -478.208)" fill="#5d1643" fill-rule="evenodd"/>
        <path id="Trazado_115693" data-name="Trazado 115693" d="M460.783,501.343V482.831l12.824,7.785a2.13,2.13,0,0,1,.034,3.714l-12.859,7.013Z" transform="translate(-460.783 -477.982)" fill="#5a1541" fill-rule="evenodd"/>
        <path id="Trazado_115694" data-name="Trazado 115694" d="M460.783,500.7V482.951l12.165,7.385a2.128,2.128,0,0,1,.034,3.714l-12.2,6.653Z" transform="translate(-460.783 -477.756)" fill="#56153e" fill-rule="evenodd"/>
        <path id="Trazado_115695" data-name="Trazado 115695" d="M460.783,500.061V483.071l11.508,6.984a2.129,2.129,0,0,1,.032,3.714l-11.539,6.293Z" transform="translate(-460.783 -477.53)" fill="#53143c" fill-rule="evenodd"/>
        <path id="Trazado_115696" data-name="Trazado 115696" d="M460.783,499.421v-16.23l10.848,6.584a2.13,2.13,0,0,1,.035,3.714l-10.882,5.932Z" transform="translate(-460.783 -477.305)" fill="#50133a" fill-rule="evenodd"/>
        <path id="Trazado_115697" data-name="Trazado 115697" d="M460.783,498.778V483.312l10.188,6.177a2.131,2.131,0,0,1,.034,3.717l-10.223,5.572Z" transform="translate(-460.783 -477.077)" fill="#4c1237" fill-rule="evenodd"/>
        <path id="Trazado_115698" data-name="Trazado 115698" d="M460.783,498.138V483.432l9.528,5.777a2.128,2.128,0,0,1,.034,3.714l-9.563,5.215Z" transform="translate(-460.783 -476.851)" fill="#491235" fill-rule="evenodd"/>
        <path id="Trazado_115699" data-name="Trazado 115699" d="M460.783,497.5V483.552l8.871,5.376a2.129,2.129,0,0,1,.032,3.714l-8.9,4.855Z" transform="translate(-460.783 -476.626)" fill="#451132" fill-rule="evenodd"/>
        <path id="Trazado_115700" data-name="Trazado 115700" d="M460.783,496.856V483.672l8.212,4.976a2.129,2.129,0,0,1,.034,3.714l-8.246,4.495Z" transform="translate(-460.783 -476.4)" fill="#421030" fill-rule="evenodd"/>
      </g>
      <g id="Grupo_68869" data-name="Grupo 68869" transform="translate(453.185 574.612)">
        <path id="Trazado_115701" data-name="Trazado 115701" d="M332.832,454.261l168.574,7.05,3.89,63.205,33.915,20.618a2.128,2.128,0,0,1,.035,3.714L507.7,566.05a2.361,2.361,0,0,0-1.037,2.023l1.83,59.739a2.769,2.769,0,0,1-2.867,3.123c-56.2-.844-112.855-3.924-168.229-8.1l-4.561-168.577Z" transform="translate(-332.832 -454.261)" fill="#fdfdfd" fill-rule="evenodd"/>
        <path id="Trazado_115702" data-name="Trazado 115702" d="M332.832,454.261l168.574,7.05,3.746,63.465,33.4,20.3a2.127,2.127,0,0,1,.034,3.714l-31.111,16.959a2.371,2.371,0,0,0-1.034,2.026l1.769,59.7a2.764,2.764,0,0,1-2.867,3.123c-56.2-.844-112.5-3.748-167.949-7.765l-4.561-168.577Z" transform="translate(-332.832 -454.261)" fill="#fafbfb" fill-rule="evenodd"/>
        <path id="Trazado_115703" data-name="Trazado 115703" d="M332.832,454.261l168.574,7.05,3.6,63.724,32.889,19.99a2.129,2.129,0,0,1,.035,3.714l-30.676,16.723a2.362,2.362,0,0,0-1.034,2.023l1.711,59.667a2.768,2.768,0,0,1-2.87,3.123c-56.2-.844-112.146-3.576-167.667-7.436l-4.561-168.577Z" transform="translate(-332.832 -454.261)" fill="#f8f8f8" fill-rule="evenodd"/>
        <path id="Trazado_115704" data-name="Trazado 115704" d="M332.832,454.261l168.574,7.05,3.452,63.98,32.373,19.679a2.128,2.128,0,0,1,.035,3.714l-30.233,16.481A2.369,2.369,0,0,0,506,567.188l1.651,59.636a2.77,2.77,0,0,1-2.867,3.123c-56.2-.844-111.8-3.4-167.39-7.108l-4.561-168.577Z" transform="translate(-332.832 -454.261)" fill="#f5f5f6" fill-rule="evenodd"/>
        <path id="Trazado_115705" data-name="Trazado 115705" d="M332.832,454.261l168.574,7.05,3.308,64.243,31.861,19.362a2.128,2.128,0,0,1,.035,3.714l-29.8,16.244a2.376,2.376,0,0,0-1.034,2.023l1.59,59.6a2.766,2.766,0,0,1-2.867,3.123c-56.2-.841-111.443-3.227-167.108-6.777l-4.561-168.577Z" transform="translate(-332.832 -454.261)" fill="#f3f3f3" fill-rule="evenodd"/>
        <path id="Trazado_115706" data-name="Trazado 115706" d="M332.832,454.261l168.574,7.05,3.164,64.5,31.345,19.045a2.13,2.13,0,0,1,.035,3.717l-29.357,16a2.375,2.375,0,0,0-1.037,2.023l1.536,59.563a2.771,2.771,0,0,1-2.87,3.123c-56.2-.844-111.088-3.051-166.828-6.448l-4.561-168.577Z" transform="translate(-332.832 -454.261)" fill="#f0f0f1" fill-rule="evenodd"/>
        <path id="Trazado_115707" data-name="Trazado 115707" d="M332.832,454.261l168.574,7.05,3.017,64.761L535.258,544.8a2.131,2.131,0,0,1,.035,3.717l-28.919,15.766a2.364,2.364,0,0,0-1.037,2.023l1.472,59.526a2.771,2.771,0,0,1-2.867,3.123c-56.2-.844-110.737-2.881-166.549-6.12l-4.561-168.577Z" transform="translate(-332.832 -454.261)" fill="#edeeee" fill-rule="evenodd"/>
        <path id="Trazado_115708" data-name="Trazado 115708" d="M332.832,454.261l168.574,7.05,2.87,65.02L534.6,544.749a2.127,2.127,0,0,1,.034,3.714L506.149,563.99a2.386,2.386,0,0,0-1.034,2.023l1.415,59.494a2.773,2.773,0,0,1-2.867,3.123c-56.2-.844-110.382-2.708-166.269-5.791l-4.561-168.577Z" transform="translate(-332.832 -454.261)" fill="#ebebec" fill-rule="evenodd"/>
        <path id="Trazado_115709" data-name="Trazado 115709" d="M332.832,454.261l168.574,7.05,2.723,65.28,29.809,18.1a2.128,2.128,0,0,1,.035,3.714L505.93,563.7a2.373,2.373,0,0,0-1.034,2.023l1.354,59.457a2.775,2.775,0,0,1-2.87,3.123c-56.2-.844-110.028-2.53-165.987-5.46l-4.561-168.577Z" transform="translate(-332.832 -454.261)" fill="#e8e8e9" fill-rule="evenodd"/>
        <path id="Trazado_115710" data-name="Trazado 115710" d="M332.832,454.261l168.574,7.05,2.576,65.539,29.3,17.786a2.131,2.131,0,0,1,.035,3.717l-27.6,15.049a2.372,2.372,0,0,0-1.034,2.023l1.294,59.422a2.774,2.774,0,0,1-2.867,3.123c-56.2-.844-109.679-2.36-165.71-5.132l-4.561-168.577Z" transform="translate(-332.832 -454.261)" fill="#e5e6e6" fill-rule="evenodd"/>
        <path id="Trazado_115711" data-name="Trazado 115711" d="M332.832,454.261l168.574,7.05,2.432,65.8,28.783,17.477a2.129,2.129,0,0,1,.035,3.714L505.489,563.1a2.4,2.4,0,0,0-1.034,2.026l1.233,59.388a2.773,2.773,0,0,1-2.867,3.123c-56.2-.844-109.322-2.187-165.428-4.8l-4.561-168.577Z" transform="translate(-332.832 -454.261)" fill="#e3e3e4" fill-rule="evenodd"/>
        <path id="Trazado_115712" data-name="Trazado 115712" d="M332.832,454.261l168.574,7.05,2.288,66.058,28.265,17.158a2.13,2.13,0,0,1,.034,3.717l-26.723,14.57a2.382,2.382,0,0,0-1.037,2.023l1.179,59.35a2.778,2.778,0,0,1-2.87,3.123c-56.2-.841-108.974-2.011-165.149-4.472l-4.561-168.577Z" transform="translate(-332.832 -454.261)" fill="#e0e1e1" fill-rule="evenodd"/>
        <path id="Trazado_115713" data-name="Trazado 115713" d="M332.832,454.261l168.574,7.05,2.141,66.317L531.3,544.475a2.127,2.127,0,0,1,.035,3.714l-26.288,14.328a2.4,2.4,0,0,0-1.037,2.025l1.118,59.313a2.774,2.774,0,0,1-2.867,3.123c-56.2-.841-108.619-1.832-164.869-4.14l-4.561-168.577Z" transform="translate(-332.832 -454.261)" fill="#dddedf" fill-rule="evenodd"/>
        <path id="Trazado_115714" data-name="Trazado 115714" d="M332.832,454.261l168.574,7.05,1.994,66.576,27.242,16.53a2.131,2.131,0,0,1,.034,3.717l-25.85,14.092a2.4,2.4,0,0,0-1.034,2.023l1.057,59.278a2.774,2.774,0,0,1-2.867,3.123c-56.2-.841-108.268-1.663-164.59-3.812l-4.561-168.577Z" transform="translate(-332.832 -454.261)" fill="#dbdbdc" fill-rule="evenodd"/>
        <path id="Trazado_115715" data-name="Trazado 115715" d="M332.832,454.261l168.574,7.05,1.85,66.836,26.729,16.215a2.131,2.131,0,0,1,.035,3.717l-25.412,13.85a2.39,2.39,0,0,0-1.034,2.023l1,59.247a2.778,2.778,0,0,1-2.87,3.123c-56.2-.841-107.913-1.49-164.307-3.483l-4.561-168.577Z" transform="translate(-332.832 -454.261)" fill="#d8d9da" fill-rule="evenodd"/>
        <path id="Trazado_115716" data-name="Trazado 115716" d="M332.832,454.261l168.574,7.05,1.7,67.1,26.213,15.9a2.127,2.127,0,0,1,.035,3.714l-24.972,13.614a2.4,2.4,0,0,0-1.034,2.023l.939,59.212a2.779,2.779,0,0,1-2.867,3.123c-56.2-.841-107.562-1.314-164.031-3.155l-4.561-168.577Z" transform="translate(-332.832 -454.261)" fill="#d5d6d7" fill-rule="evenodd"/>
        <path id="Trazado_115717" data-name="Trazado 115717" d="M332.832,454.261l168.574,7.05,1.556,67.351,25.7,15.59a2.131,2.131,0,0,1,.034,3.717l-24.534,13.372a2.4,2.4,0,0,0-1.034,2.023l.876,59.175a2.779,2.779,0,0,1-2.867,3.123c-56.2-.841-107.207-1.141-163.748-2.824l-4.561-168.577Z" transform="translate(-332.832 -454.261)" fill="#d3d4d5" fill-rule="evenodd"/>
        <path id="Trazado_115718" data-name="Trazado 115718" d="M332.832,454.261l168.574,7.05,1.409,67.611L528.006,544.2a2.131,2.131,0,0,1,.035,3.717l-24.093,13.135a2.389,2.389,0,0,0-1.037,2.023l.821,59.14a2.784,2.784,0,0,1-2.87,3.123c-56.2-.841-106.853-.968-163.469-2.5l-4.561-168.577Z" transform="translate(-332.832 -454.261)" fill="#d0d1d2" fill-rule="evenodd"/>
        <path id="Trazado_115719" data-name="Trazado 115719" d="M332.832,454.261l168.574,7.05,1.265,67.873,24.678,14.956a2.132,2.132,0,0,1,.035,3.717l-23.658,12.9a2.407,2.407,0,0,0-1.037,2.023l.761,59.105a2.781,2.781,0,0,1-2.867,3.123c-56.2-.841-106.5-.8-163.189-2.167l-4.561-168.577Z" transform="translate(-332.832 -454.261)" fill="#cdcfd0" fill-rule="evenodd"/>
        <path id="Trazado_115720" data-name="Trazado 115720" d="M332.832,454.261l168.574,7.05,1.121,68.132,24.159,14.642a2.13,2.13,0,0,1,.034,3.717L503.5,560.46a2.408,2.408,0,0,0-1.034,2.023l.7,59.071a2.783,2.783,0,0,1-2.867,3.123c-56.2-.841-106.15-.62-162.91-1.838l-4.561-168.577Z" transform="translate(-332.832 -454.261)" fill="#cbcccd" fill-rule="evenodd"/>
        <path id="Trazado_115721" data-name="Trazado 115721" d="M332.832,454.261l168.574,7.05.974,68.392,23.649,14.328a2.132,2.132,0,0,1,.035,3.717l-22.782,12.418a2.412,2.412,0,0,0-1.034,2.023l.643,59.033a2.785,2.785,0,0,1-2.87,3.123c-56.2-.841-105.793-.447-162.628-1.507l-4.561-168.577Z" transform="translate(-332.832 -454.261)" fill="#c8c9cb" fill-rule="evenodd"/>
        <path id="Trazado_115722" data-name="Trazado 115722" d="M332.832,454.261l168.574,7.05.827,68.651,23.136,14.014a2.131,2.131,0,0,1,.034,3.717l-22.341,12.176a2.417,2.417,0,0,0-1.034,2.026l.582,59a2.784,2.784,0,0,1-2.867,3.123c-56.2-.841-105.444-.274-162.351-1.178l-4.561-168.577Z" transform="translate(-332.832 -454.261)" fill="#c6c7c8" fill-rule="evenodd"/>
      </g>
      <path id="Trazado_115723" data-name="Trazado 115723" d="M396.808,454.261H565.382V517.5l36.463,21.052L565.382,559.6v63.238H396.808V454.261Z" transform="translate(240.705 120.352)" fill="#9d7deb" fill-rule="evenodd"/>
      <g id="Grupo_68870" data-name="Grupo 68870" transform="translate(637.514 652.08)" opacity="0.1">
        <path id="Trazado_115724" data-name="Trazado 115724" d="M396.808,510.312V481.148l22.05,13.406a2.131,2.131,0,0,1,.035,3.717l-22.084,12.041Z" transform="translate(-396.808 -481.148)" fill="#d01a71" fill-rule="evenodd"/>
        <path id="Trazado_115725" data-name="Trazado 115725" d="M396.808,509.671v-28.4l21.39,13.006a2.131,2.131,0,0,1,.034,3.717l-21.425,11.681Z" transform="translate(-396.808 -480.922)" fill="#cb196e" fill-rule="evenodd"/>
        <path id="Trazado_115726" data-name="Trazado 115726" d="M396.808,509.03V481.388l20.733,12.605a2.132,2.132,0,0,1,.035,3.717l-20.768,11.32Z" transform="translate(-396.808 -480.697)" fill="#c6186b" fill-rule="evenodd"/>
        <path id="Trazado_115727" data-name="Trazado 115727" d="M396.808,508.39V481.508l20.07,12.2a2.131,2.131,0,0,1,.035,3.717l-20.105,10.96Z" transform="translate(-396.808 -480.471)" fill="#c01868" fill-rule="evenodd"/>
        <path id="Trazado_115728" data-name="Trazado 115728" d="M396.808,507.752V481.628l19.414,11.8a2.129,2.129,0,0,1,.035,3.714l-19.448,10.606Z" transform="translate(-396.808 -480.245)" fill="#bb1765" fill-rule="evenodd"/>
        <path id="Trazado_115729" data-name="Trazado 115729" d="M396.808,507.108v-25.36l18.754,11.4a2.134,2.134,0,0,1,.035,3.72l-18.788,10.24Z" transform="translate(-396.808 -480.019)" fill="#b61662" fill-rule="evenodd"/>
        <path id="Trazado_115730" data-name="Trazado 115730" d="M396.808,506.467v-24.6l18.1,10.995a2.132,2.132,0,0,1,.035,3.717l-18.132,9.885Z" transform="translate(-396.808 -479.79)" fill="#b11560" fill-rule="evenodd"/>
        <path id="Trazado_115731" data-name="Trazado 115731" d="M396.808,505.826V481.99l17.434,10.594a2.128,2.128,0,0,1,.035,3.714l-17.469,9.528Z" transform="translate(-396.808 -479.564)" fill="#ac145d" fill-rule="evenodd"/>
        <path id="Trazado_115732" data-name="Trazado 115732" d="M396.808,505.186V482.11L413.585,492.3a2.131,2.131,0,0,1,.035,3.717l-16.812,9.165Z" transform="translate(-396.808 -479.338)" fill="#a6145a" fill-rule="evenodd"/>
        <path id="Trazado_115733" data-name="Trazado 115733" d="M396.808,504.545V482.23l16.118,9.79a2.132,2.132,0,0,1,.034,3.717l-16.152,8.808Z" transform="translate(-396.808 -479.112)" fill="#a11357" fill-rule="evenodd"/>
        <path id="Trazado_115734" data-name="Trazado 115734" d="M396.808,503.9V482.35l15.461,9.393a2.13,2.13,0,0,1,.035,3.714l-15.5,8.448Z" transform="translate(-396.808 -478.887)" fill="#9c1254" fill-rule="evenodd"/>
        <path id="Trazado_115735" data-name="Trazado 115735" d="M396.808,503.264V482.47l14.8,8.989a2.13,2.13,0,0,1,.034,3.717l-14.832,8.088Z" transform="translate(-396.808 -478.661)" fill="#971151" fill-rule="evenodd"/>
        <path id="Trazado_115736" data-name="Trazado 115736" d="M396.808,502.623V482.59l14.141,8.592a2.128,2.128,0,0,1,.035,3.714l-14.175,7.727Z" transform="translate(-396.808 -478.435)" fill="#92104e" fill-rule="evenodd"/>
        <path id="Trazado_115737" data-name="Trazado 115737" d="M396.808,501.985V482.71l13.481,8.188a2.129,2.129,0,0,1,.034,3.714l-13.516,7.373Z" transform="translate(-396.808 -478.21)" fill="#8d0f4b" fill-rule="evenodd"/>
        <path id="Trazado_115738" data-name="Trazado 115738" d="M396.808,501.342V482.83l12.824,7.788a2.132,2.132,0,0,1,.035,3.717l-12.859,7.007Z" transform="translate(-396.808 -477.984)" fill="#870f48" fill-rule="evenodd"/>
        <path id="Trazado_115739" data-name="Trazado 115739" d="M396.808,500.7V482.951l12.161,7.385a2.127,2.127,0,0,1,.035,3.714l-12.2,6.653Z" transform="translate(-396.808 -477.756)" fill="#820e45" fill-rule="evenodd"/>
        <path id="Trazado_115740" data-name="Trazado 115740" d="M396.808,500.06V483.072l11.5,6.981a2.129,2.129,0,0,1,.034,3.714l-11.539,6.293Z" transform="translate(-396.808 -477.529)" fill="#7d0d43" fill-rule="evenodd"/>
        <path id="Trazado_115741" data-name="Trazado 115741" d="M396.808,499.419V483.192l10.845,6.578a2.131,2.131,0,0,1,.035,3.717l-10.879,5.932Z" transform="translate(-396.808 -477.303)" fill="#780c40" fill-rule="evenodd"/>
        <path id="Trazado_115742" data-name="Trazado 115742" d="M396.808,498.778V483.312L407,489.489a2.132,2.132,0,0,1,.035,3.717l-10.222,5.572Z" transform="translate(-396.808 -477.077)" fill="#730b3d" fill-rule="evenodd"/>
        <path id="Trazado_115743" data-name="Trazado 115743" d="M396.808,498.141V483.432l9.525,5.777a2.128,2.128,0,0,1,.034,3.714l-9.56,5.218Z" transform="translate(-396.808 -476.851)" fill="#6d0b3a" fill-rule="evenodd"/>
        <path id="Trazado_115744" data-name="Trazado 115744" d="M396.808,497.5V483.552l8.868,5.376a2.13,2.13,0,0,1,.035,3.714l-8.9,4.855Z" transform="translate(-396.808 -476.626)" fill="#680a37" fill-rule="evenodd"/>
        <path id="Trazado_115745" data-name="Trazado 115745" d="M396.808,496.856V483.672l8.209,4.976a2.129,2.129,0,0,1,.034,3.714l-8.243,4.495Z" transform="translate(-396.808 -476.4)" fill="#630934" fill-rule="evenodd"/>
      </g>
      <path id="Trazado_115746" data-name="Trazado 115746" d="M332.832,454.261H501.406V517.5l36.462,21.052L501.406,559.6v63.238H332.832V454.261Z" transform="translate(120.353 120.352)" fill="#ff4848" fill-rule="evenodd"/>
      <g id="Grupo_68871" data-name="Grupo 68871" transform="translate(529.088 574.612)" opacity="0.1">
        <path id="Trazado_115747" data-name="Trazado 115747" d="M359.176,454.261h30.109L375.406,477.7a1.916,1.916,0,0,1-3.118.072l-13.112-23.508Z" transform="translate(-359.176 -454.261)" fill="#db2c29" fill-rule="evenodd"/>
        <path id="Trazado_115748" data-name="Trazado 115748" d="M359.231,454.261h29.625l-13.6,22.969a1.893,1.893,0,0,1-3.077.072l-12.945-23.041Z" transform="translate(-359.073 -454.261)" fill="#d62b28" fill-rule="evenodd"/>
        <path id="Trazado_115749" data-name="Trazado 115749" d="M359.284,454.261H388.43l-13.329,22.5a1.863,1.863,0,0,1-3.031.069l-12.787-22.571Z" transform="translate(-358.973 -454.261)" fill="#d12926" fill-rule="evenodd"/>
        <path id="Trazado_115750" data-name="Trazado 115750" d="M359.339,454.261H388L374.952,476.3a1.845,1.845,0,0,1-2.993.069l-12.62-22.1Z" transform="translate(-358.869 -454.261)" fill="#cc2825" fill-rule="evenodd"/>
        <path id="Trazado_115751" data-name="Trazado 115751" d="M359.394,454.261h28.181L374.8,475.827a1.818,1.818,0,0,1-2.95.072l-12.455-21.638Z" transform="translate(-358.766 -454.261)" fill="#c82724" fill-rule="evenodd"/>
        <path id="Trazado_115752" data-name="Trazado 115752" d="M359.448,454.261h27.7l-12.5,21.1a1.8,1.8,0,0,1-2.913.072l-12.291-21.171Z" transform="translate(-358.664 -454.261)" fill="#c32523" fill-rule="evenodd"/>
        <path id="Trazado_115753" data-name="Trazado 115753" d="M359.5,454.261h27.219L374.5,474.9a1.77,1.77,0,0,1-2.867.066l-12.13-20.7Z" transform="translate(-358.563 -454.261)" fill="#be2421" fill-rule="evenodd"/>
        <path id="Trazado_115754" data-name="Trazado 115754" d="M359.557,454.261h26.735L374.346,474.43a1.747,1.747,0,0,1-2.826.066l-11.963-20.235Z" transform="translate(-358.459 -454.261)" fill="#b92320" fill-rule="evenodd"/>
        <path id="Trazado_115755" data-name="Trazado 115755" d="M359.611,454.261h26.254l-11.666,19.7a1.727,1.727,0,0,1-2.789.063l-11.8-19.765Z" transform="translate(-358.358 -454.261)" fill="#b4211f" fill-rule="evenodd"/>
        <path id="Trazado_115756" data-name="Trazado 115756" d="M359.665,454.261h25.772L374.045,473.5a1.7,1.7,0,0,1-2.743.061l-11.637-19.3Z" transform="translate(-358.256 -454.261)" fill="#af201d" fill-rule="evenodd"/>
        <path id="Trazado_115757" data-name="Trazado 115757" d="M359.72,454.261h25.288L373.9,473.029a1.678,1.678,0,0,1-2.706.061l-11.47-18.829Z" transform="translate(-358.153 -454.261)" fill="#aa1f1c" fill-rule="evenodd"/>
        <path id="Trazado_115758" data-name="Trazado 115758" d="M359.774,454.261h24.81l-10.839,18.3a1.651,1.651,0,0,1-2.662.06l-11.309-18.362Z" transform="translate(-358.051 -454.261)" fill="#a61d1b" fill-rule="evenodd"/>
        <path id="Trazado_115759" data-name="Trazado 115759" d="M359.829,454.261h24.326L373.6,472.1a1.631,1.631,0,0,1-2.625.06l-11.142-17.9Z" transform="translate(-357.948 -454.261)" fill="#a11c1a" fill-rule="evenodd"/>
        <path id="Trazado_115760" data-name="Trazado 115760" d="M359.883,454.261h23.845l-10.286,17.365a1.6,1.6,0,0,1-2.579.061l-10.98-17.426Z" transform="translate(-357.846 -454.261)" fill="#9c1b18" fill-rule="evenodd"/>
        <path id="Trazado_115761" data-name="Trazado 115761" d="M359.938,454.261H383.3l-10.009,16.9a1.578,1.578,0,0,1-2.538.06l-10.813-16.959Z" transform="translate(-357.743 -454.261)" fill="#971917" fill-rule="evenodd"/>
        <path id="Trazado_115762" data-name="Trazado 115762" d="M359.992,454.261h22.88l-9.73,16.432a1.556,1.556,0,0,1-2.5.06l-10.652-16.492Z" transform="translate(-357.641 -454.261)" fill="#921816" fill-rule="evenodd"/>
        <path id="Trazado_115763" data-name="Trazado 115763" d="M360.046,454.261h22.4l-9.456,15.968a1.527,1.527,0,0,1-2.452.055l-10.491-16.023Z" transform="translate(-357.539 -454.261)" fill="#8d1714" fill-rule="evenodd"/>
        <path id="Trazado_115764" data-name="Trazado 115764" d="M360.1,454.261h21.915l-9.177,15.5a1.508,1.508,0,0,1-2.414.055L360.1,454.261Z" transform="translate(-357.436 -454.261)" fill="#881513" fill-rule="evenodd"/>
        <path id="Trazado_115765" data-name="Trazado 115765" d="M360.155,454.261h21.436l-8.9,15.034a1.481,1.481,0,0,1-2.371.052l-10.162-15.086Z" transform="translate(-357.334 -454.261)" fill="#841412" fill-rule="evenodd"/>
        <path id="Trazado_115766" data-name="Trazado 115766" d="M360.21,454.261h20.952l-8.626,14.567a1.46,1.46,0,0,1-2.331.052l-9.995-14.619Z" transform="translate(-357.231 -454.261)" fill="#7f1311" fill-rule="evenodd"/>
        <path id="Trazado_115767" data-name="Trazado 115767" d="M360.264,454.261h20.471l-8.35,14.1a1.433,1.433,0,0,1-2.288.049l-9.834-14.15Z" transform="translate(-357.129 -454.261)" fill="#7a110f" fill-rule="evenodd"/>
        <path id="Trazado_115768" data-name="Trazado 115768" d="M360.318,454.261h19.99L372.235,467.9a1.41,1.41,0,0,1-2.247.049l-9.669-13.683Z" transform="translate(-357.028 -454.261)" fill="#75100e" fill-rule="evenodd"/>
      </g>
      <g id="Grupo_68872" data-name="Grupo 68872" transform="translate(268.856 390.286)">
        <path id="Trazado_115769" data-name="Trazado 115769" d="M268.856,390.286l168.575,7.05,3.892,63.205,33.912,20.618a2.127,2.127,0,0,1,.035,3.714l-31.549,17.2a2.364,2.364,0,0,0-1.034,2.025l1.827,59.736a2.763,2.763,0,0,1-2.867,3.123c-56.2-.844-112.855-3.921-168.226-8.1l-4.564-168.574Z" transform="translate(-268.856 -390.286)" fill="#fdfdfd" fill-rule="evenodd"/>
        <path id="Trazado_115770" data-name="Trazado 115770" d="M268.856,390.286l168.575,7.05,3.746,63.465,33.4,20.3a2.125,2.125,0,0,1,.035,3.711L443.5,501.778a2.364,2.364,0,0,0-1.037,2.023l1.772,59.7a2.769,2.769,0,0,1-2.867,3.123c-56.2-.844-112.5-3.748-167.949-7.768l-4.564-168.574Z" transform="translate(-268.856 -390.286)" fill="#fafbfb" fill-rule="evenodd"/>
        <path id="Trazado_115771" data-name="Trazado 115771" d="M268.856,390.286l168.575,7.05,3.6,63.724,32.889,19.99a2.129,2.129,0,0,1,.035,3.714l-30.673,16.72a2.368,2.368,0,0,0-1.037,2.023l1.711,59.667a2.764,2.764,0,0,1-2.867,3.123c-56.2-.844-112.149-3.576-167.667-7.436l-4.564-168.574Z" transform="translate(-268.856 -390.286)" fill="#f8f8f8" fill-rule="evenodd"/>
        <path id="Trazado_115772" data-name="Trazado 115772" d="M268.856,390.286l168.575,7.05,3.454,63.983,32.374,19.673a2.128,2.128,0,0,1,.035,3.714L443.058,501.19a2.369,2.369,0,0,0-1.034,2.023l1.651,59.633a2.766,2.766,0,0,1-2.867,3.123c-56.2-.844-111.8-3.4-167.387-7.108l-4.564-168.574Z" transform="translate(-268.856 -390.286)" fill="#f5f5f6" fill-rule="evenodd"/>
        <path id="Trazado_115773" data-name="Trazado 115773" d="M268.856,390.286l168.575,7.05,3.31,64.243L472.6,480.938a2.127,2.127,0,0,1,.035,3.714l-29.8,16.244a2.379,2.379,0,0,0-1.034,2.023l1.593,59.6a2.769,2.769,0,0,1-2.867,3.123c-56.2-.844-111.446-3.227-167.108-6.779l-4.564-168.574Z" transform="translate(-268.856 -390.286)" fill="#f3f3f3" fill-rule="evenodd"/>
        <path id="Trazado_115774" data-name="Trazado 115774" d="M268.856,390.286l168.575,7.05,3.164,64.5,31.348,19.045a2.128,2.128,0,0,1,.035,3.714L442.617,500.6a2.369,2.369,0,0,0-1.034,2.023l1.533,59.564a2.769,2.769,0,0,1-2.867,3.123c-56.2-.844-111.091-3.054-166.828-6.451l-4.564-168.574Z" transform="translate(-268.856 -390.286)" fill="#f0f0f1" fill-rule="evenodd"/>
        <path id="Trazado_115775" data-name="Trazado 115775" d="M268.856,390.286l168.575,7.05,3.017,64.761,30.835,18.731a2.129,2.129,0,0,1,.035,3.714L442.4,500.308a2.366,2.366,0,0,0-1.034,2.023l1.47,59.526a2.77,2.77,0,0,1-2.867,3.123c-56.2-.844-110.737-2.881-166.546-6.12l-4.564-168.574Z" transform="translate(-268.856 -390.286)" fill="#edeeee" fill-rule="evenodd"/>
        <path id="Trazado_115776" data-name="Trazado 115776" d="M268.856,390.286l168.575,7.05,2.87,65.021,30.322,18.417a2.127,2.127,0,0,1,.035,3.714l-28.481,15.527a2.385,2.385,0,0,0-1.037,2.023l1.418,59.492a2.774,2.774,0,0,1-2.867,3.123c-56.2-.844-110.385-2.705-166.27-5.791l-4.564-168.574Z" transform="translate(-268.856 -390.286)" fill="#ebebec" fill-rule="evenodd"/>
        <path id="Trazado_115777" data-name="Trazado 115777" d="M268.856,390.286l168.575,7.05,2.726,65.28,29.806,18.1A2.125,2.125,0,0,1,470,484.43l-28.04,15.288a2.378,2.378,0,0,0-1.037,2.023l1.354,59.46a2.772,2.772,0,0,1-2.867,3.123c-56.2-.844-110.031-2.533-165.987-5.463l-4.564-168.574Z" transform="translate(-268.856 -390.286)" fill="#e8e8e9" fill-rule="evenodd"/>
        <path id="Trazado_115778" data-name="Trazado 115778" d="M268.856,390.286l168.575,7.05,2.579,65.539,29.3,17.789a2.13,2.13,0,0,1,.035,3.714l-27.6,15.046a2.384,2.384,0,0,0-1.034,2.025l1.294,59.422a2.774,2.774,0,0,1-2.867,3.123c-56.2-.844-109.68-2.363-165.708-5.134l-4.564-168.574Z" transform="translate(-268.856 -390.286)" fill="#e5e6e6" fill-rule="evenodd"/>
        <path id="Trazado_115779" data-name="Trazado 115779" d="M268.856,390.286l168.575,7.05,2.432,65.8,28.783,17.475a2.126,2.126,0,0,1,.035,3.711L441.513,499.13a2.387,2.387,0,0,0-1.034,2.023l1.236,59.388a2.776,2.776,0,0,1-2.867,3.123c-56.2-.844-109.325-2.184-165.428-4.8l-4.564-168.574Z" transform="translate(-268.856 -390.286)" fill="#e3e3e4" fill-rule="evenodd"/>
        <path id="Trazado_115780" data-name="Trazado 115780" d="M268.856,390.286l168.575,7.05,2.288,66.058,28.268,17.158a2.131,2.131,0,0,1,.035,3.717l-26.726,14.567a2.384,2.384,0,0,0-1.034,2.023l1.176,59.35a2.773,2.773,0,0,1-2.867,3.123c-56.2-.841-108.974-2.008-165.149-4.472l-4.564-168.574Z" transform="translate(-268.856 -390.286)" fill="#e0e1e1" fill-rule="evenodd"/>
        <path id="Trazado_115781" data-name="Trazado 115781" d="M268.856,390.286l168.575,7.05,2.141,66.317L467.326,480.5a2.127,2.127,0,0,1,.035,3.714l-26.288,14.331a2.394,2.394,0,0,0-1.034,2.023l1.115,59.316A2.773,2.773,0,0,1,438.286,563c-56.2-.841-108.619-1.835-164.866-4.143l-4.564-168.574Z" transform="translate(-268.856 -390.286)" fill="#dddedf" fill-rule="evenodd"/>
        <path id="Trazado_115782" data-name="Trazado 115782" d="M268.856,390.286l168.575,7.05,2,66.576,27.242,16.53a2.131,2.131,0,0,1,.032,3.717l-25.847,14.089a2.4,2.4,0,0,0-1.037,2.023l1.06,59.281a2.779,2.779,0,0,1-2.867,3.123c-56.2-.841-108.271-1.665-164.59-3.815l-4.564-168.574Z" transform="translate(-268.856 -390.286)" fill="#dbdbdc" fill-rule="evenodd"/>
        <path id="Trazado_115783" data-name="Trazado 115783" d="M268.856,390.286l168.575,7.05,1.85,66.836,26.729,16.216a2.129,2.129,0,0,1,.035,3.714l-25.409,13.853a2.389,2.389,0,0,0-1.037,2.023l1,59.244a2.774,2.774,0,0,1-2.867,3.123c-56.2-.841-107.913-1.487-164.307-3.483l-4.564-168.574Z" transform="translate(-268.856 -390.286)" fill="#d8d9da" fill-rule="evenodd"/>
        <path id="Trazado_115784" data-name="Trazado 115784" d="M268.856,390.286l168.575,7.05,1.7,67.095,26.216,15.9a2.13,2.13,0,0,1,.032,3.717L440.41,497.658a2.411,2.411,0,0,0-1.034,2.023l.939,59.212a2.776,2.776,0,0,1-2.867,3.123c-56.2-.841-107.562-1.314-164.028-3.155l-4.564-168.574Z" transform="translate(-268.856 -390.286)" fill="#d5d6d7" fill-rule="evenodd"/>
        <path id="Trazado_115785" data-name="Trazado 115785" d="M268.856,390.286l168.575,7.05,1.556,67.354,25.7,15.585a2.131,2.131,0,0,1,.035,3.717l-24.534,13.375a2.393,2.393,0,0,0-1.034,2.023l.879,59.174a2.782,2.782,0,0,1-2.867,3.123c-56.2-.841-107.207-1.144-163.748-2.826l-4.564-168.574Z" transform="translate(-268.856 -390.286)" fill="#d3d4d5" fill-rule="evenodd"/>
        <path id="Trazado_115786" data-name="Trazado 115786" d="M268.856,390.286l168.575,7.05,1.412,67.614,25.19,15.27a2.128,2.128,0,0,1,.032,3.714L439.972,497.07a2.39,2.39,0,0,0-1.034,2.023l.818,59.143a2.781,2.781,0,0,1-2.867,3.123c-56.2-.841-106.856-.968-163.469-2.5l-4.564-168.574Z" transform="translate(-268.856 -390.286)" fill="#d0d1d2" fill-rule="evenodd"/>
        <path id="Trazado_115787" data-name="Trazado 115787" d="M268.856,390.286l168.575,7.05,1.268,67.873,24.675,14.956a2.131,2.131,0,0,1,.035,3.717L439.75,496.776a2.41,2.41,0,0,0-1.034,2.026l.758,59.1a2.78,2.78,0,0,1-2.867,3.123c-56.2-.841-106.5-.792-163.187-2.167l-4.564-168.574Z" transform="translate(-268.856 -390.286)" fill="#cdcfd0" fill-rule="evenodd"/>
        <path id="Trazado_115788" data-name="Trazado 115788" d="M268.856,390.286l168.575,7.05,1.121,68.129,24.162,14.645a2.127,2.127,0,0,1,.032,3.714l-23.214,12.657a2.413,2.413,0,0,0-1.037,2.023l.7,59.071a2.784,2.784,0,0,1-2.867,3.123c-56.2-.841-106.153-.62-162.91-1.838l-4.564-168.574Z" transform="translate(-268.856 -390.286)" fill="#cbcccd" fill-rule="evenodd"/>
        <path id="Trazado_115789" data-name="Trazado 115789" d="M268.856,390.286l168.575,7.05.974,68.392,23.649,14.328a2.131,2.131,0,0,1,.035,3.717l-22.779,12.415a2.419,2.419,0,0,0-1.037,2.026l.642,59.033a2.781,2.781,0,0,1-2.867,3.123c-56.2-.841-105.8-.447-162.628-1.51l-4.564-168.574Z" transform="translate(-268.856 -390.286)" fill="#c8c9cb" fill-rule="evenodd"/>
        <path id="Trazado_115790" data-name="Trazado 115790" d="M268.856,390.286l168.575,7.05.827,68.651L461.4,480a2.128,2.128,0,0,1,.032,3.714L439.09,495.894a2.41,2.41,0,0,0-1.037,2.023l.582,59a2.786,2.786,0,0,1-2.867,3.123c-56.2-.841-105.444-.274-162.348-1.181l-4.564-168.574Z" transform="translate(-268.856 -390.286)" fill="#c6c7c8" fill-rule="evenodd"/>
      </g>
      <path id="Trazado_115791" data-name="Trazado 115791" d="M501.406,390.286V558.861H438.171l-21.052,36.463-21.052-36.463H332.832V390.286Z" transform="translate(120.353 0)" fill="#f8a62a" fill-rule="evenodd"/>
      <g id="Grupo_68873" data-name="Grupo 68873" transform="translate(453.185 467.753)" opacity="0.1">
        <path id="Trazado_115792" data-name="Trazado 115792" d="M332.832,446.334V417.173l22.05,13.406a2.131,2.131,0,0,1,.035,3.717l-22.085,12.038Z" transform="translate(-332.832 -417.173)" fill="#ec8b24" fill-rule="evenodd"/>
        <path id="Trazado_115793" data-name="Trazado 115793" d="M332.832,445.7v-28.4L354.225,430.3a2.129,2.129,0,0,1,.035,3.714L332.832,445.7Z" transform="translate(-332.832 -416.947)" fill="#e78823" fill-rule="evenodd"/>
        <path id="Trazado_115794" data-name="Trazado 115794" d="M332.832,445.053v-27.64l20.733,12.605a2.132,2.132,0,0,1,.035,3.717l-20.768,11.318Z" transform="translate(-332.832 -416.721)" fill="#e28522" fill-rule="evenodd"/>
        <path id="Trazado_115795" data-name="Trazado 115795" d="M332.832,444.413V417.534l20.074,12.2a2.131,2.131,0,0,1,.035,3.717l-20.108,10.963Z" transform="translate(-332.832 -416.494)" fill="#dd8120" fill-rule="evenodd"/>
        <path id="Trazado_115796" data-name="Trazado 115796" d="M332.832,443.772V417.654l19.414,11.8a2.128,2.128,0,0,1,.035,3.714l-19.448,10.606Z" transform="translate(-332.832 -416.268)" fill="#d77e1f" fill-rule="evenodd"/>
        <path id="Trazado_115797" data-name="Trazado 115797" d="M332.832,443.132V417.774l18.757,11.4a2.131,2.131,0,0,1,.035,3.717l-18.791,10.243Z" transform="translate(-332.832 -416.042)" fill="#d27b1e" fill-rule="evenodd"/>
        <path id="Trazado_115798" data-name="Trazado 115798" d="M332.832,442.491v-24.6l18.1,11a2.13,2.13,0,0,1,.035,3.714l-18.132,9.885Z" transform="translate(-332.832 -415.817)" fill="#cd781d" fill-rule="evenodd"/>
        <path id="Trazado_115799" data-name="Trazado 115799" d="M332.832,441.853V418.014l17.437,10.6a2.128,2.128,0,0,1,.035,3.714l-17.472,9.528Z" transform="translate(-332.832 -415.591)" fill="#c8741b" fill-rule="evenodd"/>
        <path id="Trazado_115800" data-name="Trazado 115800" d="M332.832,441.208V418.135l16.777,10.194a2.129,2.129,0,0,1,.035,3.714l-16.812,9.165Z" transform="translate(-332.832 -415.363)" fill="#c3711a" fill-rule="evenodd"/>
        <path id="Trazado_115801" data-name="Trazado 115801" d="M332.832,440.567V418.255l16.12,9.793a2.13,2.13,0,0,1,.035,3.714l-16.155,8.805Z" transform="translate(-332.832 -415.138)" fill="#be6e19" fill-rule="evenodd"/>
        <path id="Trazado_115802" data-name="Trazado 115802" d="M332.832,439.929V418.375l15.461,9.393a2.127,2.127,0,0,1,.035,3.711l-15.5,8.451Z" transform="translate(-332.832 -414.912)" fill="#b96b18" fill-rule="evenodd"/>
        <path id="Trazado_115803" data-name="Trazado 115803" d="M332.832,439.286V418.5l14.8,8.989a2.131,2.131,0,0,1,.035,3.717l-14.835,8.085Z" transform="translate(-332.832 -414.686)" fill="#b36716" fill-rule="evenodd"/>
        <path id="Trazado_115804" data-name="Trazado 115804" d="M332.832,438.648V418.615l14.141,8.589a2.127,2.127,0,0,1,.035,3.714l-14.176,7.73Z" transform="translate(-332.832 -414.46)" fill="#ae6415" fill-rule="evenodd"/>
        <path id="Trazado_115805" data-name="Trazado 115805" d="M332.832,438.008V418.735l13.484,8.188a2.128,2.128,0,0,1,.032,3.714l-13.516,7.37Z" transform="translate(-332.832 -414.235)" fill="#a96114" fill-rule="evenodd"/>
        <path id="Trazado_115806" data-name="Trazado 115806" d="M332.832,437.365V418.856l12.824,7.785a2.13,2.13,0,0,1,.035,3.714l-12.859,7.01Z" transform="translate(-332.832 -414.007)" fill="#a45e13" fill-rule="evenodd"/>
        <path id="Trazado_115807" data-name="Trazado 115807" d="M332.832,436.724V418.976L345,426.358a2.13,2.13,0,0,1,.032,3.717l-12.2,6.65Z" transform="translate(-332.832 -413.781)" fill="#9f5a11" fill-rule="evenodd"/>
        <path id="Trazado_115808" data-name="Trazado 115808" d="M332.832,436.087V419.1l11.5,6.981a2.129,2.129,0,0,1,.035,3.714l-11.539,6.3Z" transform="translate(-332.832 -413.555)" fill="#9a5710" fill-rule="evenodd"/>
        <path id="Trazado_115809" data-name="Trazado 115809" d="M332.832,435.443V419.216L343.68,425.8a2.129,2.129,0,0,1,.032,3.714l-10.879,5.932Z" transform="translate(-332.832 -413.33)" fill="#95540f" fill-rule="evenodd"/>
        <path id="Trazado_115810" data-name="Trazado 115810" d="M332.832,434.805V419.336l10.188,6.18a2.129,2.129,0,0,1,.035,3.714l-10.223,5.575Z" transform="translate(-332.832 -413.104)" fill="#8f510e" fill-rule="evenodd"/>
        <path id="Trazado_115811" data-name="Trazado 115811" d="M332.832,434.163V419.457l9.528,5.777a2.125,2.125,0,0,1,.032,3.711l-9.56,5.218Z" transform="translate(-332.832 -412.876)" fill="#8a4d0c" fill-rule="evenodd"/>
        <path id="Trazado_115812" data-name="Trazado 115812" d="M332.832,433.519V419.577l8.868,5.376a2.128,2.128,0,0,1,.035,3.714l-8.9,4.852Z" transform="translate(-332.832 -412.651)" fill="#854a0b" fill-rule="evenodd"/>
        <path id="Trazado_115813" data-name="Trazado 115813" d="M332.832,432.881V419.7l8.211,4.976a2.126,2.126,0,0,1,.032,3.711l-8.243,4.5Z" transform="translate(-332.832 -412.425)" fill="#80470a" fill-rule="evenodd"/>
      </g>
      <path id="Trazado_115814" data-name="Trazado 115814" d="M268.856,390.286H437.431v63.238l36.462,21.052-36.462,21.048v63.238H268.856V390.286Z" transform="translate(0 0)" fill="#ffcf10" fill-rule="evenodd"/>
    </g>
    <path id="hand-heart-light" d="M53.689,15.337a7.559,7.559,0,0,0-3.287.739V12.051A7.664,7.664,0,0,0,39.077,5.313a7.67,7.67,0,0,0-14.6,0,7.664,7.664,0,0,0-11.325,6.737V32.975A7.67,7.67,0,0,0,1.392,42.739L16.962,66.2a8.744,8.744,0,0,0,7.3,3.916H48.992a8.794,8.794,0,0,0,8.6-7.039l2.821-14.132a48.69,48.69,0,0,0,.931-9.449V23.006A7.653,7.653,0,0,0,53.689,15.337Zm3.287,24.142a44.232,44.232,0,0,1-.849,8.6L53.305,62.211a4.372,4.372,0,0,1-4.3,3.519H24.274a4.419,4.419,0,0,1-3.656-1.958L4.98,40.233a3.284,3.284,0,0,1,5.382-3.766l5.176,7.449a1.1,1.1,0,0,0,2-.63V12.051a3.287,3.287,0,1,1,6.573,0v21.91a1.1,1.1,0,0,0,1.1,1.1H27.4a1.1,1.1,0,0,0,1.1-1.1V7.669a3.287,3.287,0,1,1,6.573,0V33.961a1.1,1.1,0,0,0,1.1,1.1h2.191a1.1,1.1,0,0,0,1.1-1.1V12.051a3.287,3.287,0,1,1,6.573,0v21.91a1.1,1.1,0,0,0,1.1,1.1h2.191a1.1,1.1,0,0,0,1.1-1.1V23.006a3.287,3.287,0,0,1,6.573,0ZM45.651,40.945A6.672,6.672,0,0,0,41.5,39.438c-1.794,0-4,.767-6.436,3.163-2.438-2.4-4.642-3.163-6.436-3.163a6.639,6.639,0,0,0-4.149,1.506,6.781,6.781,0,0,0-.507,10.161l9.942,9.764a1.67,1.67,0,0,0,2.328,0l9.942-9.764a6.8,6.8,0,0,0-.534-10.161ZM43.09,47.983l-8.025,7.888-8.025-7.888a2.436,2.436,0,0,1,1.588-4.163A5.564,5.564,0,0,1,32,45.724l3.067,3.026,3.067-3.026a5.493,5.493,0,0,1,3.369-1.9,2.436,2.436,0,0,1,1.588,4.163Z" transform="translate(480.99 1127)" fill="#ffefaf"/>
    <path id="bullseye-arrow-regular" d="M34.453,18.248l1.871,5.613L26.093,34.093a2.711,2.711,0,0,0,3.833,3.833L40.158,27.695l5.613,1.871a2.324,2.324,0,0,0,2.376-.56l7.191-7.191a2.322,2.322,0,0,0-.908-3.845l-6.286-2.1-2.1-6.285A2.322,2.322,0,0,0,42.2,8.682l-7.19,7.19A2.325,2.325,0,0,0,34.453,18.248ZM28.01,24.264a11.686,11.686,0,0,1,2.515.287l1.665-1.665-1.166-3.5c-.027-.082-.023-.166-.046-.25a17.417,17.417,0,1,0,13.9,13.893c-.081-.024-.168-.014-.248-.041l-3.494-1.164-1.665,1.665a11.739,11.739,0,1,1-11.459-9.23Zm26.7,3.287L50.7,31.56a5.854,5.854,0,0,1-.488.4A22.686,22.686,0,1,1,32.087,13.807a6,6,0,0,1,.373-.492l4.009-4.009A28.007,28.007,0,1,0,54.712,27.55Z" transform="translate(676.477 1128.667)" fill="#f6d097"/>
    <path id="lightbulb-on-regular" d="M14.705,25.209a3.151,3.151,0,0,0-3.151-3.151h-8.4a3.151,3.151,0,0,0,0,6.3h8.4A3.151,3.151,0,0,0,14.705,25.209Zm-.646,12.5-7.276,4.2a3.151,3.151,0,1,0,3.151,5.457l7.276-4.2a3.151,3.151,0,1,0-3.151-5.457ZM17.21,7.25l-7.276-4.2A3.151,3.151,0,1,0,6.782,8.506l7.277,4.2A3.151,3.151,0,1,0,17.211,7.25ZM68.4,13.13a3.125,3.125,0,0,0,1.576-.423l7.276-4.2A3.151,3.151,0,1,0,74.1,3.048l-7.276,4.2A3.151,3.151,0,0,0,68.4,13.13Zm12.481,8.928h-8.4a3.151,3.151,0,0,0,0,6.3h8.4a3.151,3.151,0,0,0,0-6.3ZM77.247,41.914l-7.276-4.2a3.151,3.151,0,1,0-3.151,5.457l7.277,4.2a3.151,3.151,0,1,0,3.151-5.457ZM42.015,0A23.1,23.1,0,0,0,24.626,38.31a37.562,37.562,0,0,1,6.881,12.1v.008h6.3V50.4a6.259,6.259,0,0,0-.28-1.847,41.442,41.442,0,0,0-8.164-14.4,16.8,16.8,0,1,1,25.3,0,41.551,41.551,0,0,0-8.152,14.372,7.455,7.455,0,0,0-.3,1.879v.011h6.3a37.571,37.571,0,0,1,6.881-12.1A23.1,23.1,0,0,0,42.015,0Zm0,10.5a12.619,12.619,0,0,0-12.6,12.6,2.1,2.1,0,1,0,4.2,0,8.413,8.413,0,0,1,8.4-8.4,2.1,2.1,0,0,0,0-4.2ZM31.519,60.29a2.1,2.1,0,0,0,.353,1.161l3.217,4.836a2.1,2.1,0,0,0,1.748.937H47.189a2.1,2.1,0,0,0,1.751-.937l3.217-4.84a2.127,2.127,0,0,0,.353-1.161l.008-5.667H31.511Z" transform="translate(662.471 1316.776)" fill="#fc8484"/>
    <path id="rocket-launch-light" d="M48.325,11.558a7.352,7.352,0,1,0,7.352,7.352A7.352,7.352,0,0,0,48.325,11.558Zm0,10.5a3.151,3.151,0,1,1,3.151-3.151,3.151,3.151,0,0,1-3.151,3.151Zm18-19.527A2.382,2.382,0,0,0,64.692.9a47.636,47.636,0,0,0-10.8-.9C40.342,0,32.218,7.247,26.152,16.8H12.475a6.912,6.912,0,0,0-5.63,3.479L.359,33.254a3.729,3.729,0,0,0-.33,1.405A3.152,3.152,0,0,0,3.179,37.81H16.824a12.6,12.6,0,0,1,12.6,12.6V64.067a3.151,3.151,0,0,0,3.15,3.151,3.747,3.747,0,0,0,1.406-.33L46.943,60.4a6.907,6.907,0,0,0,3.475-5.625V41.065c9.528-6.08,16.8-14.232,16.8-27.713A46.668,46.668,0,0,0,66.326,2.533ZM4.878,33.609,10.6,22.162a2.929,2.929,0,0,1,1.872-1.157H23.646c-1.83,3.684-4.164,8.4-6.244,12.6l.009.059C17.211,33.661,8.011,33.609,4.878,33.609ZM46.217,54.776a2.924,2.924,0,0,1-1.154,1.868L33.627,62.367c0-3.138-.053-12.35-.061-12.553l.048.006c4.2-2.078,8.9-4.41,12.586-6.242h.016Zm-13.4-9.258A16.757,16.757,0,0,0,21.7,34.417C28.533,20.764,34.8,4.2,53.891,4.2a47.171,47.171,0,0,1,8.589.55,45.692,45.692,0,0,1,.54,8.6c0,19.034-16.672,25.4-30.206,32.166ZM13.449,42.011C7.136,42.011.267,47.177.022,63.022H0v4.2H4.2v-.031c22.533-.438,24.275-15.1,17.568-21.843a12.008,12.008,0,0,0-8.32-3.339ZM20.4,56.375c-1.685,4.09-7.567,6.49-16.2,6.637.008-.467-.147-16.791,9.25-16.791a7.887,7.887,0,0,1,5.358,2.106A7.805,7.805,0,0,1,20.4,56.374Z" transform="translate(859.776 1313.441)" fill="#bfa7fb"/>
    <path id="tachometer-alt-fastest-regular" d="M54.067,60.115a4.325,4.325,0,1,0-4.325-4.325A4.326,4.326,0,0,0,54.067,60.115ZM17.3,66.6a4.325,4.325,0,1,0,4.325,4.325A4.326,4.326,0,0,0,17.3,66.6ZM38.928,53.627A4.325,4.325,0,1,0,34.6,49.3,4.326,4.326,0,0,0,38.928,53.627ZM59.917,67.748,46.147,70.5a8.627,8.627,0,0,0-14.67,9.076h14.9a8.85,8.85,0,0,0,.97-2.7l13.842-2.768a3.244,3.244,0,0,0-1.276-6.361ZM23.789,51.464a4.325,4.325,0,1,0,4.325,4.325A4.326,4.326,0,0,0,23.789,51.464ZM38.928,32A38.926,38.926,0,0,0,5.28,90.5a4.277,4.277,0,0,0,3.709,2.055H68.867A4.277,4.277,0,0,0,72.576,90.5,38.926,38.926,0,0,0,38.928,32ZM67.62,86.067H10.236a32.44,32.44,0,1,1,57.384,0Z" transform="translate(1040.275 1281.441)" fill="#affff0"/>
  </g>
</svg>
