<svg id="Grupo_17566" data-name="Grupo 17566" xmlns="http://www.w3.org/2000/svg" width="145" height="145" viewBox="0 0 145 145">
  <rect id="Rectángulo_4378" data-name="Rectángulo 4378" width="145" height="145" fill="none"/>
  <g id="Grupo_17559" data-name="Grupo 17559" transform="translate(20.54 28.242)">
    <path id="Trazado_27994" data-name="Trazado 27994" d="M746.58,188.834v-7.417H645.867v55.041H746.58V196.251" transform="translate(-643.779 -179.466)" fill="#8de0a8"/>
    <g id="Grupo_17558" data-name="Grupo 17558" transform="translate(2.087 9.759)">
      <rect id="Rectángulo_4375" data-name="Rectángulo 4375" width="100.713" height="30.236" transform="translate(0 47.235)" fill="#81cc96"/>
      <path id="Trazado_27995" data-name="Trazado 27995" d="M685.009,190.307H664.126a9.37,9.37,0,0,1-9.369,9.369v20.688a9.37,9.37,0,0,1,9.369,9.369h66.359a9.37,9.37,0,0,1,9.37-9.369V199.676a9.37,9.37,0,0,1-9.37-9.369H709.6" transform="translate(-646.949 -190.307)" fill="#81cc96"/>
    </g>
    <rect id="Rectángulo_4376" data-name="Rectángulo 4376" width="24.594" height="85.277" transform="translate(40.147 1.953)" fill="#fcd577"/>
    <rect id="Rectángulo_4377" data-name="Rectángulo 4377" width="24.594" height="30.236" transform="translate(40.147 56.994)" fill="#eac36e"/>
    <path id="Trazado_27996" data-name="Trazado 27996" d="M746.155,190.516a1.952,1.952,0,0,0,1.952-1.951v-7.418a1.952,1.952,0,0,0-1.952-1.951H645.442a1.952,1.952,0,0,0-1.952,1.951v85.277a1.952,1.952,0,0,0,1.952,1.952H746.155a1.952,1.952,0,0,0,1.952-1.952V195.981a1.952,1.952,0,1,0-3.9,0v38.255H710.047v-3.9h18.931a1.952,1.952,0,0,0,1.952-1.951,7.425,7.425,0,0,1,7.417-7.418,1.952,1.952,0,0,0,1.952-1.951V198.323a1.952,1.952,0,0,0-1.952-1.952,7.425,7.425,0,0,1-7.417-7.417A1.952,1.952,0,0,0,728.978,187H710.047v-3.9H744.2v5.465A1.952,1.952,0,0,0,746.155,190.516ZM647.394,183.1H681.55V187H662.619a1.952,1.952,0,0,0-1.952,1.951,7.426,7.426,0,0,1-7.417,7.418,1.952,1.952,0,0,0-1.952,1.951v20.688a1.952,1.952,0,0,0,1.952,1.951,7.426,7.426,0,0,1,7.417,7.418,1.953,1.953,0,0,0,1.952,1.952H681.55v3.9H647.394Zm0,70.158h7.547a1.952,1.952,0,1,0,0-3.9h-7.547V245.7H681.55v3.654h-20.1a1.952,1.952,0,1,0,0,3.9h20.1v3.657H647.394ZM681.55,241.8H647.394V238.14H681.55V241.8Zm-34.156,19.022H681.55v3.654H647.394Zm38.06,3.654V238.14h20.689v26.332ZM744.2,249.353H710.047V245.7H744.2v3.653Zm-34.156,15.119V253.257H744.2v3.657H714.535a1.952,1.952,0,0,0,0,3.9H744.2v3.654ZM744.2,238.14V241.8H710.047V238.14Zm-17.009-47.234a11.355,11.355,0,0,0,9.2,9.2v17.12a11.353,11.353,0,0,0-9.2,9.2H710.047V190.905Zm-21.051,43.331H685.454V219.9a1.952,1.952,0,1,0-3.9,0v6.531H664.4a11.354,11.354,0,0,0-9.2-9.2v-17.12a11.355,11.355,0,0,0,9.2-9.2H681.55v22.484a1.952,1.952,0,1,0,3.9,0V183.1h20.689v51.137Z" transform="translate(-643.49 -179.195)" fill="#00223d"/>
  </g>
</svg>
