<svg xmlns="http://www.w3.org/2000/svg" width="145" height="145" viewBox="0 0 145 145">
  <g id="Grupo_17565" data-name="Grupo 17565" transform="translate(-0.224)">
    <rect id="Rectángulo_4379" data-name="Rectángulo 4379" width="145" height="145" transform="translate(0.224)" fill="none"/>
    <g id="Grupo_17563" data-name="Grupo 17563" transform="translate(21.986 21.823)">
      <path id="Trazado_28012" data-name="Trazado 28012" d="M1394.116,406.838a6.8,6.8,0,0,1,.477-7.94,21.887,21.887,0,0,0-33.919-27.672,13.752,13.752,0,0,1-14.2,4.826,28.618,28.618,0,0,0-31.909,42.759h10.444a43.835,43.835,0,0,0,13.838-2.247l18.529-6.175V420.5h1.685a5.053,5.053,0,0,1,5.053,5.053v6.738a5.054,5.054,0,0,1-5.053,5.054h-1.685v10.107l-18.529-6.176a43.9,43.9,0,0,0-7.159-1.721,35.339,35.339,0,1,0,62.419-32.713Z" transform="translate(-1300.099 -361.524)" fill="#74d5e8"/>
      <path id="Trazado_28013" data-name="Trazado 28013" d="M1346.147,411.175a3.369,3.369,0,0,0,3.369-3.369v-8.423a3.369,3.369,0,0,0-3.369-3.369h-1.685a3.369,3.369,0,0,1-3.369-3.369v-5.053a3.369,3.369,0,1,0-6.738,0v5.053a3.369,3.369,0,0,1-3.369,3.369H1329.3v15.161Z" transform="translate(-1302.34 -363.995)" fill="#fff5e0"/>
      <path id="Trazado_28014" data-name="Trazado 28014" d="M1312.125,449.113l1.962,20.214a1.684,1.684,0,0,0,1.685,1.684h9.829a1.685,1.685,0,0,0,1.684-1.685,1.661,1.661,0,0,0-.02-.255l-5.034-19.958Z" transform="translate(-1300.323 -371.612)" fill="#7d7d7d"/>
      <path id="Trazado_28015" data-name="Trazado 28015" d="M1365.34,444.965a5.054,5.054,0,0,0,5.053-5.054v-6.738a5.053,5.053,0,0,0-5.053-5.053h-1.685v16.845Z" transform="translate(-1306.372 -369.148)" fill="#f2a811"/>
      <path id="Trazado_28016" data-name="Trazado 28016" d="M1310.781,446.425V426.211a10.107,10.107,0,0,0,0,20.214Z" transform="translate(-1298.979 -368.924)" fill="#7d7d7d"/>
      <path id="Trazado_28017" data-name="Trazado 28017" d="M1318.863,446.425V426.211h-6.738v20.214Z" transform="translate(-1300.323 -368.924)" fill="#f2a811"/>
      <path id="Trazado_28018" data-name="Trazado 28018" d="M1339.973,422.844a43.827,43.827,0,0,1-13.845,2.247h-6.369V445.3h6.369a44.72,44.72,0,0,1,13.845,2.247l18.529,6.176V416.669Z" transform="translate(-1301.22 -367.803)" fill="#d9d9d9"/>
      <path id="Trazado_28019" data-name="Trazado 28019" d="M1384.765,399.724a13.476,13.476,0,1,0-13.476-13.476A13.476,13.476,0,0,0,1384.765,399.724Z" transform="translate(-1307.269 -362.65)" fill="#fff5e0"/>
      <g id="Grupo_17562" data-name="Grupo 17562" transform="translate(20.224 16.86)">
        <path id="Trazado_28020" data-name="Trazado 28020" d="M1382.74,380.407v13.476l10.108-6.738Z" transform="translate(-1328.838 -380.407)" fill="#10bde0"/>
        <path id="Trazado_28021" data-name="Trazado 28021" d="M1328.406,412.52V395.675h-6.738V414.2h6.738Z" transform="translate(-1321.668 -382.199)" fill="#10bde0"/>
        <path id="Trazado_28022" data-name="Trazado 28022" d="M1395.461,430.594l-2.756,1.837-2.754-1.837a3.37,3.37,0,0,0-4.252.422l-.718.717a3.368,3.368,0,0,0,0,4.764h0l7.723,7.723,7.725-7.723a3.369,3.369,0,0,0,0-4.764h0l-.718-.717a3.37,3.37,0,0,0-4.251-.422Z" transform="translate(-1328.984 -386.232)" fill="#10bde0"/>
      </g>
      <path id="Trazado_28023" data-name="Trazado 28023" d="M1309.016,440.377l1.817,18.642a3.369,3.369,0,0,0,3.369,3.369h9.829a3.367,3.367,0,0,0,2.557-1.179,3.442,3.442,0,0,0,.742-2.864l-4.5-17.855h.842a42,42,0,0,1,5.569.4,36.991,36.991,0,0,0,33.6,21.5q1.668,0,3.369-.15a37.332,37.332,0,0,0,33.521-33.89,36.776,36.776,0,0,0-5.514-22.62,5.138,5.138,0,0,1,.355-5.981,23.577,23.577,0,0,0-36.536-29.809,12.079,12.079,0,0,1-12.437,4.274,30.237,30.237,0,0,0-11.959-.855,30.574,30.574,0,0,0-26.17,25.931,30.132,30.132,0,0,0,2.9,17.631,11.78,11.78,0,0,0-1.347,23.46Zm3.224-3.256V420.277h3.368v16.845Zm11.79,21.9-9.838-.169-1.785-18.361h6.939Zm-5.053-21.9V420.277h4.684a45.359,45.359,0,0,0,14.382-2.335l7.885-2.628v26.77l-7.885-2.628a45.361,45.361,0,0,0-14.382-2.335Zm35.374-24.615v32.386l-5.054-1.685V414.19Zm-43.551-12.78a26.938,26.938,0,0,1,33.882-22.269,15.443,15.443,0,0,0,15.949-5.38,20.2,20.2,0,1,1,31.31,25.538,8.511,8.511,0,0,0-.6,9.9,33.645,33.645,0,1,1-57.964,34.126c1.209.288,2.412.616,3.6,1.011l18.529,6.175a1.675,1.675,0,0,0,2.212-1.6v-8.423a6.737,6.737,0,0,0,6.738-6.738v-6.738a6.738,6.738,0,0,0-6.738-6.738V410.17a1.687,1.687,0,0,0-2.217-1.6l-18.53,6.176a42.072,42.072,0,0,1-13.312,2.161h-9.46a26.771,26.771,0,0,1-3.4-17.182Zm46.92,22.235a3.369,3.369,0,0,1,3.369,3.369v6.738a3.369,3.369,0,0,1-3.369,3.369Zm-48.851-1.515v16.507a8.422,8.422,0,0,1,0-16.507Z" transform="translate(-1298.754 -361.304)" fill="#00223d"/>
      <path id="Trazado_28024" data-name="Trazado 28024" d="M1325.485,439.571h6.738v3.369h-6.738Z" transform="translate(-1301.891 -370.492)" fill="#00223d"/>
      <path id="Trazado_28025" data-name="Trazado 28025" d="M1325.485,431.937h6.738v3.369h-6.738Z" transform="translate(-1301.891 -369.596)" fill="#00223d"/>
      <path id="Trazado_28026" data-name="Trazado 28026" d="M1381.722,395.144a1.685,1.685,0,0,0,1.73-.084l10.107-6.738a1.685,1.685,0,0,0,0-2.8l-10.107-6.738a1.684,1.684,0,0,0-2.62,1.4v13.476A1.684,1.684,0,0,0,1381.722,395.144Zm2.479-11.813,5.39,3.59-5.39,3.59Z" transform="translate(-1308.389 -363.323)" fill="#00223d"/>
      <path id="Trazado_28027" data-name="Trazado 28027" d="M1384.541,401.184a15.16,15.16,0,1,0-15.16-15.16A15.16,15.16,0,0,0,1384.541,401.184Zm0-26.951a11.791,11.791,0,1,1-11.791,11.792A11.791,11.791,0,0,1,1384.541,374.233Z" transform="translate(-1307.044 -362.427)" fill="#00223d"/>
      <path id="Trazado_28028" data-name="Trazado 28028" d="M1321.444,414.32h6.738a1.684,1.684,0,0,0,1.684-1.684h15.161a5.054,5.054,0,0,0,5.054-5.054V399.16a5.054,5.054,0,0,0-5.054-5.053h-1.685a1.684,1.684,0,0,1-1.684-1.685v-5.053a5.053,5.053,0,1,0-10.107,0v5.053a1.685,1.685,0,0,1-1.685,1.685,1.684,1.684,0,0,0-1.684-1.685h-6.738a1.685,1.685,0,0,0-1.685,1.685v18.53A1.685,1.685,0,0,0,1321.444,414.32Zm13.476-21.9v-5.053a1.685,1.685,0,1,1,3.369,0v5.053a5.053,5.053,0,0,0,5.053,5.054h1.685a1.684,1.684,0,0,1,1.684,1.684v8.423a1.684,1.684,0,0,1-1.684,1.684h-15.161V397.476A5.054,5.054,0,0,0,1334.92,392.422Zm-11.792,3.369h3.369v15.161h-3.369Z" transform="translate(-1301.22 -363.771)" fill="#00223d"/>
      <path id="Trazado_28029" data-name="Trazado 28029" d="M1394.3,428.962l-1.821,1.214-1.821-1.214a5.069,5.069,0,0,0-6.376.63l-.72.721a5.052,5.052,0,0,0,0,7.146l7.725,7.723a1.685,1.685,0,0,0,2.382,0l7.724-7.723a5.054,5.054,0,0,0,0-7.146l-.718-.721a5.072,5.072,0,0,0-6.376-.63Zm4,3.011.718.719a1.684,1.684,0,0,1,0,2.382l0,0-6.534,6.532-6.532-6.526a1.683,1.683,0,0,1,0-2.381l.719-.719a1.685,1.685,0,0,1,2.126-.211l2.754,1.837a1.684,1.684,0,0,0,1.869,0l2.756-1.837a1.684,1.684,0,0,1,2.124.209Z" transform="translate(-1308.536 -369.147)" fill="#00223d"/>
      <path id="Trazado_28030" data-name="Trazado 28030" d="M1371.346,419.127l1.686-6.737,3.266.817-1.686,6.738Z" transform="translate(-1307.275 -367.301)" fill="#00223d"/>
      <path id="Trazado_28031" data-name="Trazado 28031" d="M1376.162,422.147l6.738-3.368,1.507,3.013-6.738,3.369Z" transform="translate(-1307.841 -368.051)" fill="#00223d"/>
      <path id="Trazado_28032" data-name="Trazado 28032" d="M1371.345,457.1l3.267-.816,1.684,6.738-3.266.816Z" transform="translate(-1307.275 -372.454)" fill="#00223d"/>
      <path id="Trazado_28033" data-name="Trazado 28033" d="M1376.162,454.236l1.507-3.013,6.738,3.369-1.507,3.013Z" transform="translate(-1307.841 -371.86)" fill="#00223d"/>
      <path id="Trazado_28034" data-name="Trazado 28034" d="M1300.674,407.474h3.369c0-22.858,13.555-37.058,35.374-37.058v-3.369C1315.52,367.047,1300.674,382.544,1300.674,407.474Z" transform="translate(-1298.979 -361.978)" fill="#00223d"/>
    </g>
  </g>
</svg>
