<svg xmlns="http://www.w3.org/2000/svg" width="105" height="105" viewBox="0 0 105 105">
  <g id="Grupo_61420" data-name="Grupo 61420" transform="translate(-326 -504)">
    <rect id="Rectángulo_5987" data-name="Rectángulo 5987" width="105" height="105" transform="translate(326 504)" fill="none"/>
    <g id="Fill_Outline" data-name="Fill Outline" transform="translate(331.708 509.709)">
      <g id="Stroke_copy" data-name="Stroke copy" transform="translate(3.482 3.493)">
        <g id="Grupo_61608" data-name="Grupo 61608">
          <g id="Grupo_61606" data-name="Grupo 61606" transform="translate(13.204 26.875)">
            <circle id="Elipse_4327" data-name="Elipse 4327" cx="29.861" cy="29.861" r="29.861" transform="translate(0 0.025)" fill="#57b7eb"/>
            <path id="Trazado_111470" data-name="Trazado 111470" d="M52.32,67.15A29.809,29.809,0,0,1,25.466,24.3,29.849,29.849,0,1,0,68.722,62.223,29.712,29.712,0,0,1,52.32,67.15Z" transform="translate(-11.763 -19.373)" fill="#4891d3"/>
            <path id="Trazado_111471" data-name="Trazado 111471" d="M27.949,63.345A30.011,30.011,0,0,0,34,63.958c1.008,0,2-.054,2.986-.149V55l-5.972,2.986Z" transform="translate(-3.892 -4.236)" fill="#a1d51c"/>
            <path id="Trazado_111472" data-name="Trazado 111472" d="M56.981,25.266A29.773,29.773,0,0,0,13.6,40.72l5.662,5.662-1.493,4.479v5.972H12.412a29.9,29.9,0,0,0,16.74,21.118l8.027-9.173L26.727,64.3l13.437-7.465L29.713,52.354,25.234,43.4l4.479-5.972L41.658,43.4l4.479-5.972,11.944-2.986Z" transform="translate(-11.552 -21)" fill="#c4f236"/>
            <path id="Trazado_111473" data-name="Trazado 111473" d="M59.4,45.456a29.7,29.7,0,0,0-3.247-13.493L38.5,48.442l5.972,5.972L36.995,74.34A29.846,29.846,0,0,0,59.4,45.456Z" transform="translate(0.568 -15.595)" fill="#c4f236"/>
            <path id="Trazado_111474" data-name="Trazado 111474" d="M37.18,67.136,29.147,76.3A29.93,29.93,0,0,1,12.41,55.191h5.36V49.219l1.493-4.479L13.6,39.081A29.951,29.951,0,0,1,25.19,24.33a29.88,29.88,0,0,0,7.077,35.251l-5.539,3.076Z" transform="translate(-11.553 -19.358)" fill="#a1d51c"/>
            <path id="Trazado_111475" data-name="Trazado 111475" d="M56.41,49.69A29.891,29.891,0,0,1,37,65.606l4.121-11A29.482,29.482,0,0,0,56.41,49.69Z" transform="translate(0.571 -6.854)" fill="#a1d51c"/>
          </g>
          <g id="Grupo_61607" data-name="Grupo 61607">
            <path id="Trazado_111476" data-name="Trazado 111476" d="M77.185,28.382a5.956,5.956,0,0,0-4.375-5.729,4.47,4.47,0,0,0-3.091-7.709c-.07,0-.136.018-.2.021a5.924,5.924,0,0,0-.757-1.759,4.456,4.456,0,0,0-6.205-6.3,5.945,5.945,0,0,0-4.778-2.414A6.057,6.057,0,0,0,56.7,4.6a4.424,4.424,0,0,0-6.42-.414A17.054,17.054,0,0,0,44.039,3H39.025a7.871,7.871,0,0,0-1.311.109L34.83,3.6a7.965,7.965,0,0,0-6.247,10.375l.824,2.465h2.986l2.18-4.36a2.917,2.917,0,0,1,2.61-1.612h1.466a2.917,2.917,0,0,1,2.063.854l2.35,2.35a2.919,2.919,0,0,0,2.986.7,2.91,2.91,0,0,1,3.306,1.106,5.915,5.915,0,0,0,6.95,8.2c0,.073-.022.149-.022.218a4.466,4.466,0,0,0,3.849,4.415,5.911,5.911,0,0,0,6.793,8.752,4.466,4.466,0,1,0,7.846-3.91,5.948,5.948,0,0,0,2.414-4.778Z" transform="translate(9.424 -3)" fill="#93999a"/>
            <path id="Trazado_111477" data-name="Trazado 111477" d="M71.4,32.591a5.318,5.318,0,0,1-5.651-1.551,5.766,5.766,0,0,1-2.005-4.225,5.932,5.932,0,0,1,.863-2.976,4.466,4.466,0,0,1-3.849-4.415c0-.075.018-.149.022-.218-1.621.427-3.409.43-5.742-1.907A5.539,5.539,0,0,1,53.3,13.184,5.945,5.945,0,0,1,53.827,11a2.907,2.907,0,0,0-3.365-1.085,2.837,2.837,0,0,1-2.926-.726,5.038,5.038,0,0,1-1.108-5.433l.216-.539A17.01,17.01,0,0,0,44.039,3H39.025a7.871,7.871,0,0,0-1.311.109L34.83,3.6a7.965,7.965,0,0,0-6.247,10.375l.824,2.465h2.986l2.18-4.36a2.917,2.917,0,0,1,2.61-1.612h1.466a2.917,2.917,0,0,1,2.063.854l2.35,2.35a2.919,2.919,0,0,0,2.986.7,2.91,2.91,0,0,1,3.306,1.106,5.915,5.915,0,0,0,6.95,8.2c0,.073-.022.149-.022.218a4.466,4.466,0,0,0,3.849,4.415,5.911,5.911,0,0,0,6.793,8.752,4.467,4.467,0,0,0,8.767-1.223h0A4.46,4.46,0,0,1,71.4,32.591Z" transform="translate(9.424 -3)" fill="#656b76"/>
            <path id="Trazado_111478" data-name="Trazado 111478" d="M30.962,3.74a4.681,4.681,0,0,0-3.733.729l-.672.448a1.954,1.954,0,0,1-2.222.072L22.709,3.9a1.941,1.941,0,0,0-2.789.784,1.908,1.908,0,0,1-1.674,1.008h-.664a9.7,9.7,0,0,1-4.31-1.185A2.932,2.932,0,0,0,11.959,4.2,2.986,2.986,0,0,0,8.973,7.186a2.986,2.986,0,0,0-2.5,4.6,4.463,4.463,0,0,0-1.378,8.131,4.33,4.33,0,0,0,0,4.39,4.455,4.455,0,0,0,1.224,8.083A4.424,4.424,0,0,0,7.43,37.336a4.449,4.449,0,0,0-.608,8.1,2.986,2.986,0,1,0,4.3,0,4.463,4.463,0,0,0,2.329-3.907,4.213,4.213,0,0,0-.045-.437,2.937,2.937,0,0,0,2.287.34,2.986,2.986,0,0,0,1.724-4.561,2.964,2.964,0,0,0,1.523-4.425,4.461,4.461,0,0,0,.149-8.66,4.455,4.455,0,0,0,.333-1.666,4.479,4.479,0,0,0,1.666-8.63,1.272,1.272,0,0,1,.176-.853l1.4-2.107a1.288,1.288,0,0,1,2.219.125,1.217,1.217,0,0,0,1.451.7l1.151-.384a1.312,1.312,0,0,1,1.814,1.483l-.924,3.7h4.479l.988-3.952a16.961,16.961,0,0,0,.5-4.1h0A4.491,4.491,0,0,0,30.962,3.74Z" transform="translate(-2.989 -2.706)" fill="#93999a"/>
            <path id="Trazado_111479" data-name="Trazado 111479" d="M46.875,30.944H20V19H40.9l5.972,5.972Z" transform="translate(5.393 4.889)" fill="#f9e109"/>
            <rect id="Rectángulo_6132" data-name="Rectángulo 6132" width="6.853" height="11.749" transform="translate(24.952 12.213)" fill="#57b7eb"/>
            <rect id="Rectángulo_6133" data-name="Rectángulo 6133" width="5.874" height="11.749" transform="translate(37.68 12.213)" fill="#57b7eb"/>
            <path id="Trazado_111480" data-name="Trazado 111480" d="M27.4,52.465a2.964,2.964,0,0,0-2.24,1.03,2.964,2.964,0,0,0-2.24-1.03c-.091,0-.178.019-.266.027a4.464,4.464,0,0,0-4.213-3.013,4.479,4.479,0,1,0-8.958,0A4.479,4.479,0,1,0,11.2,58.091a2.986,2.986,0,0,0,5.512,0,4.47,4.47,0,0,0,4.225-.418,2.944,2.944,0,0,0,4.216-.266,2.986,2.986,0,1,0,2.24-4.942Z" transform="translate(-2.004 17.708)" fill="#93999a"/>
            <ellipse id="Elipse_4328" data-name="Elipse 4328" cx="2.937" cy="3.427" rx="2.937" ry="3.427" transform="translate(0.476 53.333)" fill="#93999a"/>
            <path id="Trazado_111481" data-name="Trazado 111481" d="M61.9,36.48a2.846,2.846,0,0,0-.393.04,2.974,2.974,0,0,0-2.593-1.533c-.091,0-.178.019-.266.027a4.46,4.46,0,0,0-8.567.448,2.964,2.964,0,0,0-4.425,1.523,2.986,2.986,0,1,0-1.672,5.468,2.932,2.932,0,0,0,.381-.061,2.961,2.961,0,0,0,5.209,0,2.715,2.715,0,0,0,.382.061,2.5,2.5,0,0,0,.261-.04,4.442,4.442,0,0,0,7.689,1.344,2.925,2.925,0,0,0,3.609-1.36,2.719,2.719,0,0,0,.385.057,2.986,2.986,0,0,0,0-5.972Z" transform="translate(15.751 11.297)" fill="#93999a"/>
            <path id="Trazado_111482" data-name="Trazado 111482" d="M71.327,49.986a2.967,2.967,0,0,0-1.493.414,2.867,2.867,0,0,0-2.5-.227,4.352,4.352,0,0,0-4.516-1.542,4.449,4.449,0,0,0-7.122.318,5.924,5.924,0,0,0-7.465,2.61,4.533,4.533,0,0,0-.791-.079,4.446,4.446,0,0,0-2.986,1.163,4.461,4.461,0,0,0-7.465,3.316,2.986,2.986,0,1,0,2.756,4.133,4.43,4.43,0,0,0,4.709-.817,4.446,4.446,0,0,0,2.986,1.163,2.986,2.986,0,0,0,5.427,1.713,5.963,5.963,0,0,0,11-3.206,6.057,6.057,0,0,0-.108-1.074,4.654,4.654,0,0,0,.469-.448h.031a2.976,2.976,0,0,0,5.58-1.465,2.632,2.632,0,0,0-.04-.393l.045-.024a2.938,2.938,0,0,0,1.489.417,2.986,2.986,0,0,0,0-5.972Z" transform="translate(12.295 18.694)" fill="#93999a"/>
            <path id="Trazado_111483" data-name="Trazado 111483" d="M63.859,35.5a2.961,2.961,0,0,1-1.956.747,2.72,2.72,0,0,1-.385-.054,2.925,2.925,0,0,1-3.609,1.36,4.442,4.442,0,0,1-7.689-1.344,2.5,2.5,0,0,1-.261.037,2.714,2.714,0,0,1-.382-.058,2.961,2.961,0,0,1-5.209,0,2.93,2.93,0,0,1-.381.058A2.961,2.961,0,0,1,42.03,35.5a2.974,2.974,0,0,0,1.956,5.226,2.932,2.932,0,0,0,.381-.061,2.961,2.961,0,0,0,5.209,0,2.715,2.715,0,0,0,.382.061,2.5,2.5,0,0,0,.261-.04,4.442,4.442,0,0,0,7.689,1.344,2.925,2.925,0,0,0,3.609-1.36,2.719,2.719,0,0,0,.385.057A2.974,2.974,0,0,0,63.859,35.5Z" transform="translate(15.747 13.024)" fill="#656b76"/>
            <path id="Trazado_111484" data-name="Trazado 111484" d="M59.385,57.863A5.951,5.951,0,0,1,54.36,55.1a2.986,2.986,0,0,1-5.427-1.713,4.446,4.446,0,0,1-2.986-1.163,4.43,4.43,0,0,1-4.709.817,2.986,2.986,0,0,1-5.226.526,2.986,2.986,0,1,0,3.733,3.954,4.43,4.43,0,0,0,4.709-.817,4.446,4.446,0,0,0,2.986,1.163,2.986,2.986,0,0,0,5.427,1.713,5.963,5.963,0,0,0,11-3.206c0-.173-.034-.336-.051-.5A5.936,5.936,0,0,1,59.385,57.863Z" transform="translate(12.293 21.268)" fill="#656b76"/>
            <path id="Trazado_111485" data-name="Trazado 111485" d="M63.5,49.95a5.892,5.892,0,0,1-8.277,2.219,5.661,5.661,0,0,1,.088.876,5.927,5.927,0,0,1-.93,3.174,2.943,2.943,0,0,0,2.423,1.3,2.986,2.986,0,0,0,2.986-2.986,2.633,2.633,0,0,0-.04-.393l.045-.024a2.938,2.938,0,0,0,1.489.417,2.986,2.986,0,0,0,2.474-4.658C63.668,49.91,63.582,49.928,63.5,49.95Z" transform="translate(22.343 20.114)" fill="#93999a"/>
            <path id="Trazado_111486" data-name="Trazado 111486" d="M27.4,52.986a2.964,2.964,0,0,1-2.24-1.03,2.944,2.944,0,0,1-4.216.266,4.47,4.47,0,0,1-4.225.418,2.986,2.986,0,0,1-5.512,0A4.454,4.454,0,0,1,5.275,50,4.422,4.422,0,0,0,5,51.493a4.479,4.479,0,0,0,6.2,4.133,2.986,2.986,0,0,0,5.512,0,4.47,4.47,0,0,0,4.225-.418,2.944,2.944,0,0,0,4.216-.266,2.971,2.971,0,0,0,4.812-3.449A2.977,2.977,0,0,1,27.4,52.986Z" transform="translate(-2.002 20.173)" fill="#656b76"/>
            <path id="Trazado_111487" data-name="Trazado 111487" d="M7.483,43.39a2.974,2.974,0,0,1-2.717-4.21,2.986,2.986,0,1,0,3.942,3.942,2.971,2.971,0,0,1-1.224.269Z" transform="translate(-2.992 14.838)" fill="#656b76"/>
            <path id="Trazado_111488" data-name="Trazado 111488" d="M12.332,44.254a2.762,2.762,0,0,1-.278-.673,2.986,2.986,0,0,1,.747-2.826,4.449,4.449,0,0,1,.608-8.1,4.424,4.424,0,0,1-1.115-4.942,4.455,4.455,0,0,1-1.23-8.083,4.33,4.33,0,0,1,0-4.39,4.463,4.463,0,0,1,1.378-8.131,2.92,2.92,0,0,1-.093-3.065A2.805,2.805,0,0,0,11.959,4,2.986,2.986,0,0,0,8.973,6.986a2.986,2.986,0,0,0-2.5,4.6,4.463,4.463,0,0,0-1.378,8.131,4.33,4.33,0,0,0,0,4.39,4.455,4.455,0,0,0,1.224,8.083A4.424,4.424,0,0,0,7.43,37.137a4.449,4.449,0,0,0-.608,8.1,2.986,2.986,0,1,0,4.3,0,4.57,4.57,0,0,0,1.209-.979Z" transform="translate(-2.989 -2.507)" fill="#656b76"/>
            <path id="Trazado_111489" data-name="Trazado 111489" d="M30.986,16.972V11H28V22.944h5.972V19.958A2.986,2.986,0,0,1,30.986,16.972Z" transform="translate(9.338 0.944)" fill="#4891d3"/>
            <path id="Trazado_111490" data-name="Trazado 111490" d="M22.986,16.972V11H20V22.944h5.972V19.958A2.986,2.986,0,0,1,22.986,16.972Z" transform="translate(5.393 0.944)" fill="#4891d3"/>
            <path id="Trazado_111491" data-name="Trazado 111491" d="M32.219,26.465A9.234,9.234,0,0,1,23.159,19H20V30.944H46.875V26.465Z" transform="translate(5.393 4.889)" fill="#fcbc04"/>
          </g>
        </g>
      </g>
      <g id="Stroke_Cut_copy_2" data-name="Stroke Cut copy 2" transform="translate(2 2)">
        <g id="Grupo_61609" data-name="Grupo 61609">
          <path id="Trazado_111492" data-name="Trazado 111492" d="M36.972,45a1.493,1.493,0,0,0-1.493,1.493,4.078,4.078,0,0,1-1.82,3.4l-1.995,1.33a1.493,1.493,0,1,0,1.657,2.484l1.995-1.33a7.058,7.058,0,0,0,3.149-5.884A1.493,1.493,0,0,0,36.972,45Z" transform="translate(12.299 19.201)" fill="#3a3c07"/>
          <path id="Trazado_111493" data-name="Trazado 111493" d="M40.2,39.322a1.493,1.493,0,0,0-2.484-1.657l-.367.551a4.7,4.7,0,0,1-5.384,1.847,1.495,1.495,0,0,0-.944,2.837,7.686,7.686,0,0,0,8.809-3.023Z" transform="translate(11.805 15.256)" fill="#3a3c07"/>
          <path id="Trazado_111494" data-name="Trazado 111494" d="M27.479,22H24.493a1.493,1.493,0,0,0,0,2.986h2.986a1.493,1.493,0,1,0,0-2.986Z" transform="translate(8.355 7.861)" fill="#3a3c07"/>
          <path id="Trazado_111495" data-name="Trazado 111495" d="M30.493,22a1.493,1.493,0,0,0,0,2.986h2.986a1.493,1.493,0,1,0,0-2.986Z" transform="translate(11.313 7.861)" fill="#3a3c07"/>
          <path id="Trazado_111496" data-name="Trazado 111496" d="M10.958,42.479a4.479,4.479,0,1,0-4.479,4.479A4.479,4.479,0,0,0,10.958,42.479Zm-5.972,0a1.493,1.493,0,1,1,1.493,1.493A1.493,1.493,0,0,1,4.986,42.479Z" transform="translate(-1.999 15.75)" fill="#3a3c07"/>
          <path id="Trazado_111497" data-name="Trazado 111497" d="M86.121,57.368a4.391,4.391,0,0,0-1.493.266,4.3,4.3,0,0,0-2.011-.233,5.765,5.765,0,0,0-4.488-1.493A5.932,5.932,0,0,0,70,56.1a7.544,7.544,0,0,0-7.73,2.761,6.431,6.431,0,0,0-3.019.814,5.909,5.909,0,0,0-2.986-.814,5.981,5.981,0,0,0-5.833,4.688,4.49,4.49,0,0,0-3,3.285l-5.269,2.634a1.5,1.5,0,0,0-.629.6l-2.505,4.384a28.637,28.637,0,0,1-3.238-1.009l6.669-7.622a1.493,1.493,0,0,0-.535-2.356l-7.653-3.285,10.777-5.987a1.493,1.493,0,0,0-.137-2.677l-9.95-4.26L31.134,39.6l3.179-4.228L45.142,40.8A1.493,1.493,0,0,0,47,40.347L51.165,34.8,62.6,31.941a1.493,1.493,0,1,0-.726-2.9L49.926,32.031a1.493,1.493,0,0,0-.832.552l-3.733,4.975L34.531,32.143a1.493,1.493,0,0,0-1.86.44l-4.479,5.972a1.493,1.493,0,0,0-.142,1.563l4.479,8.958a1.493,1.493,0,0,0,.747.7l7.653,3.285L30.152,59.054a1.541,1.541,0,0,0-.34.261,4.373,4.373,0,0,0-4.16.161,4.442,4.442,0,0,0-1.533-.554,5.972,5.972,0,0,0-3.84-2.9,5.972,5.972,0,0,0-11.646,0,5.972,5.972,0,0,0,2.4,11.7,4.479,4.479,0,0,0,6.844,0,6,6,0,0,0,3.477-.417,4.329,4.329,0,0,0,1,.366A31.2,31.2,0,0,0,62.92,73.141a4.419,4.419,0,0,0,4.57.028,7.456,7.456,0,0,0,12.564-4.155,4.418,4.418,0,0,0,1.589.3,4.488,4.488,0,0,0,4.227-2.986,4.481,4.481,0,0,0,.252-8.958ZM50.288,72.024A4.4,4.4,0,0,0,55.2,70.711a5.962,5.962,0,0,0,4.043-.72,5.972,5.972,0,0,0,1.7.67c.018.055.045.1.064.158a28.16,28.16,0,0,1-10.723,4.106ZM38.853,65.4l-5.927,6.775A28.42,28.42,0,0,1,26.3,67.483a4.4,4.4,0,0,0,5.992-4.89ZM20.6,64.326a3.008,3.008,0,0,1-2.814.278,1.493,1.493,0,0,0-1.953.8,1.493,1.493,0,0,1-2.756,0,1.5,1.5,0,0,0-1.953-.806,2.986,2.986,0,1,1-1.148-5.739,1.493,1.493,0,0,0,1.493-1.493,2.986,2.986,0,0,1,5.972,0,1.493,1.493,0,0,0,1.493,1.493,2.986,2.986,0,0,1,2.8,2.011,1.642,1.642,0,0,0,1.677.975,1.48,1.48,0,0,1,1.115.52,1.541,1.541,0,0,0,2.249,0,1.493,1.493,0,1,1,0,1.947,1.541,1.541,0,0,0-2.249,0,1.453,1.453,0,0,1-2.1.134A1.493,1.493,0,0,0,20.6,64.326ZM42.126,75.034l1.769-3.1,3.407-1.7v4.993c-.5.025-.993.057-1.493.057a28.219,28.219,0,0,1-3.683-.251Zm43.26-11.907a1.575,1.575,0,0,0-1.515,0,1.527,1.527,0,0,0-.747,1.551,1.362,1.362,0,0,1,.012.155,1.493,1.493,0,0,1-1.493,1.493,1.471,1.471,0,0,1-1.291-.77A1.539,1.539,0,0,0,78.91,64.8a1.493,1.493,0,0,0-1.014.5,3.008,3.008,0,0,1-.314.3,1.493,1.493,0,0,0-.5,1.406,4.464,4.464,0,0,1-8.161,3.207,1.493,1.493,0,0,0-1.226-.688H67.66a1.493,1.493,0,0,0-1.221.634,1.493,1.493,0,0,1-2.713-.849,1.493,1.493,0,0,0-1.493-1.493,2.955,2.955,0,0,1-1.987-.778,1.493,1.493,0,0,0-2,0,2.946,2.946,0,0,1-3.135.548,1.493,1.493,0,0,0-1.953.8,1.493,1.493,0,1,1-1.378-2.066,1.493,1.493,0,0,0,1.493-1.493,2.986,2.986,0,0,1,2.986-2.986,2.955,2.955,0,0,1,1.987.778,1.493,1.493,0,0,0,2,0,2.955,2.955,0,0,1,1.987-.778,2.854,2.854,0,0,1,.521.057,1.493,1.493,0,0,0,1.565-.739,4.533,4.533,0,0,1,5.6-1.962,1.493,1.493,0,0,0,1.8-.535,3.055,3.055,0,0,1,4.742-.209,1.493,1.493,0,0,0,1.493.5,2.862,2.862,0,0,1,3.008,1.029,1.493,1.493,0,0,0,1.666.467,1.354,1.354,0,0,1,1.245.112,1.493,1.493,0,0,0,1.5,0,1.487,1.487,0,1,1,.012,2.562Z" transform="translate(-1.017 11.312)" fill="#3a3c07"/>
          <path id="Trazado_111498" data-name="Trazado 111498" d="M5.7,24.753a1.493,1.493,0,0,0-2.111.082A5.942,5.942,0,0,0,5.04,34.059a5.8,5.8,0,0,0-.054.788,5.892,5.892,0,0,0,.723,2.837,5.923,5.923,0,0,0-.387,8.9,4.525,4.525,0,0,0-.2,2.819,4.448,4.448,0,0,0,3.41,3.261,4.557,4.557,0,0,0,.93.1,4.479,4.479,0,0,0,4.148-6.177,5.963,5.963,0,0,0,1.633-2.782,4.479,4.479,0,0,0,4.546-5.524,4.457,4.457,0,0,0,1.551-4.2,5.951,5.951,0,0,0,.573-10.03A5.972,5.972,0,0,0,23.433,13.6l.791-1.187a2.656,2.656,0,0,0,3.082,1.139l.979-.423L28,14.258a1.465,1.465,0,0,0-.623,1.18V35.664A31.072,31.072,0,0,0,15.438,60.229a1.493,1.493,0,1,0,2.986,0,28.5,28.5,0,0,1,.973-7.367l3.285,3.285-1.194,3.6a1.493,1.493,0,0,0-.078.478v2.986a1.493,1.493,0,0,0,2.986,0V60.471l1.417-4.249a1.493,1.493,0,0,0-.361-1.527l-5-5a28.148,28.148,0,0,1,6.976-10.153,1.474,1.474,0,0,0,1.448,1.278H55.75a1.493,1.493,0,0,0,1.493-1.493V33.917A28.219,28.219,0,0,1,71.17,45.851a5.914,5.914,0,0,0-2.71,2.5,4.533,4.533,0,0,0-4.2,1.551,4.479,4.479,0,0,0-4.345,7.38l-5.187,4.842a1.493,1.493,0,0,0-.037,2.147L59.17,68.75a1.493,1.493,0,1,0,2.111-2.111L57.9,63.252l4.872-4.546c.034,0,.066.013.1.016a4.44,4.44,0,0,0,6.029.6,5.92,5.92,0,0,0,8.731.879,4.434,4.434,0,0,0,3.852-1.474,4.479,4.479,0,0,0,2.157-8.179,1.493,1.493,0,0,0-1.671,2.474,1.493,1.493,0,0,1-.8,2.729h-.009l-.215-.036a1.509,1.509,0,0,0-1.493.755,1.38,1.38,0,0,1-1.8.679,1.493,1.493,0,0,0-1.666.467,2.949,2.949,0,0,1-5.115-.9,1.493,1.493,0,0,0-1.547-1l-.136.019L69,55.709a1.493,1.493,0,0,0-1.493.758,1.515,1.515,0,0,1-2.595,0,1.493,1.493,0,0,0-1.508-.76c-.088.012-.176.03-.181.048a1.493,1.493,0,1,1,.836-2.731,1.493,1.493,0,0,0,2.24-.747,1.518,1.518,0,0,1,2.205-.763,1.493,1.493,0,0,0,2.266-.917,2.959,2.959,0,0,1,2.673-2.292h.025c.067,0,.133-.018.2-.018a2.986,2.986,0,0,1,2.8,2.011,1.493,1.493,0,0,0,2.82-.982,5.972,5.972,0,0,0-4.939-3.961A31.224,31.224,0,0,0,54.342,29.829l-3.5-3.5a1.493,1.493,0,0,0-1.063-.439H48.285V15.437a1.451,1.451,0,0,0-.211-.72l.739-1.48a1.418,1.418,0,0,1,1.275-.787h1.466a1.435,1.435,0,0,1,1.008.417l2.35,2.35a4.39,4.39,0,0,0,4.513,1.066,1.386,1.386,0,0,1,1.1.09,7.294,7.294,0,0,0-.294,2.05,7.465,7.465,0,0,0,7.658,7.465,6.024,6.024,0,0,0,3.119,3.836,7.263,7.263,0,0,0-.325,2.137,7.42,7.42,0,0,0,8.26,7.416A5.959,5.959,0,0,0,90.09,36.34a5.848,5.848,0,0,0-.512-2.4,7.358,7.358,0,0,0,2.005-5.067A7.465,7.465,0,0,0,88,22.525a5.912,5.912,0,0,0,.6-2.608,5.983,5.983,0,0,0-5.091-5.908c-.033-.081-.069-.161-.1-.24a5.859,5.859,0,0,0,.717-2.81A5.953,5.953,0,0,0,74.549,6.21a1.494,1.494,0,1,0,1.805,2.38,2.949,2.949,0,0,1,1.792-.618,2.963,2.963,0,0,1,2.341,4.809,1.493,1.493,0,0,0-.078,1.729,4.412,4.412,0,0,1,.564,1.317,1.524,1.524,0,0,0,1.509,1.123c.081,0,.16-.013.142-.019a2.986,2.986,0,0,1,2.986,2.986,2.953,2.953,0,0,1-.927,2.15,1.493,1.493,0,0,0,.63,2.517,4.445,4.445,0,0,1,1.468,7.874,1.493,1.493,0,0,0-.3,2.1,2.969,2.969,0,1,1-5.218,2.6,1.493,1.493,0,0,0-1.859-1.021,4.384,4.384,0,0,1-1.26.209,4.479,4.479,0,0,1-4.479-4.479,4.406,4.406,0,0,1,.651-2.283,1.493,1.493,0,0,0-1.071-2.24,2.976,2.976,0,0,1-2.567-2.856c0-.045.021-.185.024-.231a1.493,1.493,0,0,0-1.874-1.517,4.4,4.4,0,0,1-1.136.169,4.479,4.479,0,0,1-4.479-4.479,4.433,4.433,0,0,1,.4-1.835,1.493,1.493,0,0,0-.136-1.469,4.375,4.375,0,0,0-5-1.669,1.418,1.418,0,0,1-1.459-.343l-2.35-2.35a4.379,4.379,0,0,0-3.119-1.291H50.088A4.387,4.387,0,0,0,46.142,11.9l-1.02,2.041H42.895a6.463,6.463,0,0,1,5.091-8.389l2.886-.481a6.518,6.518,0,0,1,1.057-.088h5.015a15.469,15.469,0,0,1,5.692,1.085,1.5,1.5,0,0,0,1.554-.29,3.014,3.014,0,0,1,4.273.278,1.493,1.493,0,0,0,1.406.5,4.487,4.487,0,0,1,.811-.084,1.493,1.493,0,0,0,0-2.986,4.28,4.28,0,0,0-.532.022,6.05,6.05,0,0,0-7.225-.521A18.417,18.417,0,0,0,56.944,2H51.929a9.533,9.533,0,0,0-1.554.128l-2.885.481A9.406,9.406,0,0,0,39.9,14.288a1.465,1.465,0,0,0-.578,1.15V25.889H36.34V15.437a1.471,1.471,0,0,0-.757-1.271l.208-.827a18.442,18.442,0,0,0,.549-4.464,6,6,0,0,0-4.51-5.795,6.156,6.156,0,0,0-4.927.932l-.673.448a.515.515,0,0,1-.566.072L24.041,3.45a3.309,3.309,0,0,0-2.67-.466,3.568,3.568,0,0,0-2.263,1.792.415.415,0,0,1-.369.211h-.664A8.186,8.186,0,0,1,14.43,3.957a4.384,4.384,0,0,0-1.978-.464A4.479,4.479,0,0,0,8.165,6.672a4.479,4.479,0,0,0-3.113,5.052,5.959,5.959,0,0,0-.267,10.245,1.493,1.493,0,0,0,1.6-2.523A2.971,2.971,0,0,1,7.3,14.031a1.493,1.493,0,0,0,.917-2.266,1.493,1.493,0,0,1,1.251-2.3,1.493,1.493,0,0,0,1.493-1.493,1.493,1.493,0,0,1,1.493-1.493,1.438,1.438,0,0,1,.646.149,11.008,11.008,0,0,0,4.976,1.344h.664a3.394,3.394,0,0,0,3-1.792.576.576,0,0,1,.357-.3.336.336,0,0,1,.288.052L24,7.017a3.444,3.444,0,0,0,3.882-.072L28.56,6.5a3.18,3.18,0,0,1,2.525-.526,3.014,3.014,0,0,1,2.269,2.9,15.419,15.419,0,0,1-.461,3.733l-.331,1.329h-1.4l.087-.346a2.737,2.737,0,0,0-.791-2.676,2.917,2.917,0,0,0-2.943-.587l-.873.291a2.782,2.782,0,0,0-4.718-.142l-1.408,2.114a2.744,2.744,0,0,0-.418,1.841,1.493,1.493,0,0,0,.927,1.224,2.986,2.986,0,0,1-1.106,5.753A1.493,1.493,0,0,0,18.424,22.9a2.986,2.986,0,0,1-.221,1.111,1.493,1.493,0,0,0,1,2,2.968,2.968,0,0,1-.1,5.765,1.493,1.493,0,0,0-.917,2.266,1.457,1.457,0,0,1,.242.806,1.493,1.493,0,0,1-1,1.4,1.493,1.493,0,0,0-.747,2.24,1.493,1.493,0,0,1-.863,2.278,1.439,1.439,0,0,1-1.141-.173,1.493,1.493,0,0,0-2.259,1.426l.042.3a2.986,2.986,0,0,1-1.557,2.6,1.493,1.493,0,0,0-.355,2.343,1.493,1.493,0,1,1-2.147,0,1.493,1.493,0,0,0-.355-2.343,2.956,2.956,0,0,1,.4-5.388,1.493,1.493,0,0,0,.5-2.5,2.943,2.943,0,0,1-.966-2.18,2.986,2.986,0,0,1,.221-1.111,1.493,1.493,0,0,0-1-2,2.986,2.986,0,0,1-2.211-2.865,2.951,2.951,0,0,1,.792-2.011A1.493,1.493,0,0,0,5.7,24.753ZM33.354,16.93v2.986H30.368V16.93Zm20.9,17.042v3.861H30.368V28.875H49.16ZM42.312,16.93H45.3v2.986H42.312Zm0,5.972H45.3v2.986H42.312ZM30.368,25.889V22.9h2.986v2.986Z" transform="translate(-2 -2)" fill="#3a3c07"/>
        </g>
      </g>
    </g>
  </g>
</svg>
