<svg xmlns="http://www.w3.org/2000/svg" width="145" height="145" viewBox="0 0 145 145">
  <g id="Grupo_17567" data-name="Grupo 17567" transform="translate(-0.477)">
    <rect id="Rectángulo_4374" data-name="Rectángulo 4374" width="145" height="145" transform="translate(0.477)" fill="none"/>
    <g id="Grupo_17561" data-name="Grupo 17561" transform="translate(27.381 21.823)">
      <path id="Trazado_27997" data-name="Trazado 27997" d="M1574.2,206.367a457.937,457.937,0,0,0-60.93,0A12.427,12.427,0,0,0,1501.7,217.6a245.3,245.3,0,0,0,0,45.467,12.427,12.427,0,0,0,11.57,11.228,457.927,457.927,0,0,0,60.93,0,12.426,12.426,0,0,0,11.569-11.228,245.134,245.134,0,0,0,0-45.467A12.426,12.426,0,0,0,1574.2,206.367Z" transform="translate(-1498.412 -175.698)" fill="#dd636e"/>
      <path id="Trazado_27998" data-name="Trazado 27998" d="M1515.869,264.671c.251,4.326,1.785,8.017,3.98,10.122q-3.287-.171-6.576-.39a12.428,12.428,0,0,1-11.57-11.228,245.321,245.321,0,0,1,0-45.469,12.429,12.429,0,0,1,11.57-11.228q3.287-.218,6.576-.39c-2.2,2.1-3.729,5.8-3.98,10.122A419.931,419.931,0,0,0,1515.869,264.671Z" transform="translate(-1498.412 -175.81)" fill="#da4a54"/>
      <ellipse id="Elipse_1076" data-name="Elipse 1076" cx="29.036" cy="22.94" rx="29.036" ry="22.94" transform="translate(16.29 42.64)" fill="#f9efda"/>
      <path id="Trazado_27999" data-name="Trazado 27999" d="M1569.7,191.518h-.007a5.45,5.45,0,0,0,2.37-3.637,31.983,31.983,0,0,0,0-10.805,5.436,5.436,0,0,0-5.17-4.535q-23.287-.778-46.574,0a5.436,5.436,0,0,0-5.171,4.535,32,32,0,0,0,0,10.805,5.45,5.45,0,0,0,2.37,3.637h-.007c-8.849,5.607-20.89,8.83-17,16.36s14.2-4.429,20.317-3.457-2.4,16.1,4.865,16.1,11.269-12.644,17.909-12.644,10.645,12.644,17.909,12.644-1.252-15.129,4.865-16.1,16.422,10.987,20.317,3.457S1578.546,197.125,1569.7,191.518Z" transform="translate(-1498.277 -170.671)" fill="#ffe07d"/>
      <path id="Trazado_28000" data-name="Trazado 28000" d="M1529.1,187.9c.135,1.532.585,4.2,1.208,5.007l0-1.37c-3.78,4.7-8.7,7.721-9.026,13.007a2.891,2.891,0,0,0-.448-.1c-6.118-.972-16.423,10.987-20.317,3.457s8.146-10.753,17-16.36h.006a5.45,5.45,0,0,1-2.369-3.637,31.991,31.991,0,0,1,0-10.8,5.432,5.432,0,0,1,5.171-4.535q5.138-.172,10.275-.266a10.737,10.737,0,0,0-1.493,4.8,62.569,62.569,0,0,0,0,10.8Z" transform="translate(-1498.278 -170.693)" fill="#ffd064"/>
      <path id="Trazado_28001" data-name="Trazado 28001" d="M1549.608,236.526c7.818,0,12.317-4.984,10.528-6.772s-3.742,1.687-5.263,1.687.65-3.062-.944-3.673-2.881,3.462-4.478,3.462-2.884-4.073-4.479-3.462.577,3.673-.943,3.673-3.476-3.475-5.264-1.687,2.71,6.772,10.528,6.772" transform="translate(-1504.124 -179.083)" fill="#b3e59f"/>
      <path id="Trazado_28002" data-name="Trazado 28002" d="M1549.379,236.8h-.085c-7.819,0-12.317-4.985-10.529-6.772s3.743,1.687,5.264,1.687a.639.639,0,0,0,.349-.084C1544.7,233.811,1546.577,236.8,1549.379,236.8Z" transform="translate(-1504.124 -179.357)" fill="#95d6a4"/>
      <path id="Trazado_28003" data-name="Trazado 28003" d="M1549.061,237.627c-7.325,0-13.262.118-13.262,7.442a19.833,19.833,0,0,0,.771,5.155,25.81,25.81,0,0,0,5.416,10.2q.514.564,1.06,1.06a9.078,9.078,0,0,0,6.016,2.665c3.212,0,6.157-2.261,8.452-5.417a25.5,25.5,0,0,0,4.811-13.665c0-7.325-5.938-7.443-13.263-7.443Z" transform="translate(-1503.734 -180.585)" fill="#dd636e"/>
      <path id="Trazado_28004" data-name="Trazado 28004" d="M1549.06,264.152c-7.325,0-13.262-11.757-13.262-19.082s5.937-7.443,13.262-7.443c-3.43,0-6.211.118-6.211,7.443S1545.63,264.152,1549.06,264.152Z" transform="translate(-1503.734 -180.585)" fill="#da4a54"/>
      <g id="Grupo_17560" data-name="Grupo 17560" transform="translate(0 0)">
        <path id="Trazado_28005" data-name="Trazado 28005" d="M1534.053,243.3a21.383,21.383,0,0,0,.825,5.548,27.136,27.136,0,0,0,5.748,10.808c.373.409.763.8,1.16,1.159a10.415,10.415,0,0,0,7.01,3.048c3.4,0,6.823-2.14,9.649-6.027,3.047-4.19,5.094-10.032,5.094-14.535,0-3.946-1.622-6.586-4.822-7.846-.223-.087-.455-.166-.689-.24a7.392,7.392,0,0,0,3.172-3.747,2.957,2.957,0,0,0-.671-3.028c-1.937-1.937-4.05-.453-5.173.417a2.5,2.5,0,0,0-1.551-2.738c-1.884-.721-3.208,1.017-4.083,2.168a10.088,10.088,0,0,1-.925,1.106,10.2,10.2,0,0,1-.925-1.106c-.875-1.151-2.2-2.89-4.082-2.168a2.5,2.5,0,0,0-1.553,2.738c-1.123-.871-3.235-2.353-5.173-.417a2.955,2.955,0,0,0-.67,3.028,7.391,7.391,0,0,0,3.172,3.747c-.235.075-.466.153-.689.24-3.2,1.26-4.822,3.9-4.822,7.845Zm26.525,0c0,3.866-1.862,9.127-4.528,12.794-2.254,3.1-4.83,4.807-7.253,4.807a7.58,7.58,0,0,1-5.02-2.279c-.327-.3-.651-.621-.963-.963a24.438,24.438,0,0,1-5.08-9.6,18.423,18.423,0,0,1-.719-4.761c0-5.422,3.41-5.961,11.782-5.961,3.259.005,6.621,0,8.835.871,1.457.573,2.946,1.627,2.946,5.09ZM1539.2,230.5a.481.481,0,0,1,.047-.036,5.133,5.133,0,0,1,1.33.86,4.711,4.711,0,0,0,2.8,1.337,2,2,0,0,0,1.581-.7,2.5,2.5,0,0,0,.423-2.057l.138.182c.843,1.108,1.8,2.364,3.281,2.364s2.438-1.256,3.281-2.364l.138-.181a2.5,2.5,0,0,0,.422,2.056,2,2,0,0,0,1.582.7,4.709,4.709,0,0,0,2.8-1.337,5.116,5.116,0,0,1,1.332-.859.484.484,0,0,1,.046.036c-.029.617-1.783,2.977-6.064,3.923-1.114-.038-2.25-.04-3.377-.04h-.155c-1.177,0-2.366,0-3.531.041-4.283-.946-6.038-3.308-6.066-3.924Z" transform="translate(-1503.47 -178.817)" fill="#00223d"/>
        <path id="Trazado_28006" data-name="Trazado 28006" d="M1542.75,244.653a1.48,1.48,0,0,0-1.481,1.481v1.924a1.481,1.481,0,1,0,2.961,0v-1.924A1.48,1.48,0,0,0,1542.75,244.653Z" transform="translate(-1504.563 -181.649)" fill="#00223d"/>
        <path id="Trazado_28007" data-name="Trazado 28007" d="M1551.163,244.653a1.48,1.48,0,0,0-1.481,1.481v1.924a1.481,1.481,0,1,0,2.962,0v-1.924a1.48,1.48,0,0,0-1.481-1.481Z" transform="translate(-1505.837 -181.649)" fill="#00223d"/>
        <path id="Trazado_28008" data-name="Trazado 28008" d="M1559.576,244.653a1.481,1.481,0,0,0-1.481,1.481v1.924a1.481,1.481,0,1,0,2.962,0v-1.924A1.48,1.48,0,0,0,1559.576,244.653Z" transform="translate(-1507.11 -181.649)" fill="#00223d"/>
        <path id="Trazado_28009" data-name="Trazado 28009" d="M1546.956,254.356a1.481,1.481,0,0,0-1.481,1.481v1.923a1.481,1.481,0,1,0,2.961,0v-1.923A1.48,1.48,0,0,0,1546.956,254.356Z" transform="translate(-1505.199 -183.118)" fill="#00223d"/>
        <path id="Trazado_28010" data-name="Trazado 28010" d="M1555.369,254.356a1.481,1.481,0,0,0-1.481,1.481v1.923a1.481,1.481,0,0,0,2.962,0v-1.923A1.481,1.481,0,0,0,1555.369,254.356Z" transform="translate(-1506.473 -183.118)" fill="#00223d"/>
        <path id="Trazado_28011" data-name="Trazado 28011" d="M1586.484,210.052a6.971,6.971,0,0,0,1.261-1.759c1.648-3.186,1.083-6.151-1.679-8.81-2.209-2.127-5.609-3.9-9.209-5.783-1.661-.868-3.365-1.757-4.993-2.705a6.943,6.943,0,0,0,1.394-3.13,33.654,33.654,0,0,0,0-11.3,6.943,6.943,0,0,0-6.581-5.767c-2.41-.081-4.794-.148-7.086-.2h-.034a1.481,1.481,0,0,0-.033,2.962c2.282.052,4.655.119,7.055.2a3.973,3.973,0,0,1,3.76,3.3,30.732,30.732,0,0,1,0,10.308,3.99,3.99,0,0,1-1.485,2.469,183.833,183.833,0,0,1-20.742,1.721c2.194-1.555,4.584-3.772,4.755-6.144a4.139,4.139,0,0,0-2.023-3.769,4.514,4.514,0,0,0-5.3-.193,2.234,2.234,0,1,1-4.412,0,4.512,4.512,0,0,0-5.3.193,4.137,4.137,0,0,0-2.023,3.769c.17,2.371,2.56,4.589,4.755,6.143a183.5,183.5,0,0,1-20.733-1.719,3.994,3.994,0,0,1-1.486-2.47,30.694,30.694,0,0,1,0-10.308,3.972,3.972,0,0,1,3.761-3.3c11.134-.373,22.41-.478,33.519-.311h.022a1.481,1.481,0,0,0,.022-2.962c-11.156-.166-22.481-.061-33.661.313a6.944,6.944,0,0,0-6.583,5.767,33.641,33.641,0,0,0,0,11.3,6.951,6.951,0,0,0,1.393,3.13c-1.629.948-3.333,1.838-5,2.707-3.6,1.88-7,3.657-9.206,5.783-2.762,2.659-3.326,5.623-1.679,8.809a6.989,6.989,0,0,0,1.261,1.759,13.891,13.891,0,0,0-.364,2.116,247.6,247.6,0,0,0,0,45.741,13.847,13.847,0,0,0,12.944,12.568c10.142.675,20.352,1.013,30.564,1.013s20.424-.338,30.563-1.013a13.848,13.848,0,0,0,12.946-12.568,247.881,247.881,0,0,0,0-45.74,13.759,13.759,0,0,0-.364-2.118Zm-39.31-26.128a1.488,1.488,0,0,1,.837-.277,1.961,1.961,0,0,1,1.126.419c.814.574.785.984.775,1.137-.095,1.34-2.471,3.31-4.742,4.743C1545.069,187.454,1545.688,184.905,1547.174,183.924Zm-10.414,1.28c-.011-.154-.04-.563.775-1.137a1.962,1.962,0,0,1,1.126-.419,1.488,1.488,0,0,1,.837.277c1.486.982,2.105,3.532,2,6.024C1539.232,188.518,1536.856,186.549,1536.76,185.2Zm-25.569,11.122c2.123-1.109,4.313-2.256,6.379-3.533a186.727,186.727,0,0,0,24.106,1.782,6.445,6.445,0,0,1-4.252,2.974,1.481,1.481,0,1,0,.682,2.882,5.955,5.955,0,0,1,10.46,0,1.481,1.481,0,1,0,.682-2.882,6.44,6.44,0,0,1-4.252-2.974,186.653,186.653,0,0,0,24.11-1.783c2.067,1.277,4.257,2.424,6.381,3.534,8.273,4.322,11.684,6.631,9.628,10.607a2.883,2.883,0,0,1-1.644,1.586c-1.887.582-4.99-1.089-7.991-2.705-3.275-1.763-6.661-3.587-9.6-3.12-1.39.221-3.13,1.1-3.533,4.01a23.6,23.6,0,0,0,.238,5.594c.274,2.32.615,5.207-.194,6.118-.079.089-.321.361-1.144.361-3.037,0-5.69-3.063-8.254-6.024-2.819-3.254-5.734-6.621-9.656-6.621s-6.836,3.366-9.655,6.621c-2.563,2.962-5.215,6.024-8.252,6.024-.823,0-1.065-.272-1.145-.361-.81-.911-.468-3.8-.194-6.119a23.583,23.583,0,0,0,.238-5.594c-.4-2.913-2.143-3.788-3.532-4.009-2.938-.466-6.325,1.357-9.6,3.12-3,1.617-6.1,3.287-7.99,2.705a2.887,2.887,0,0,1-1.645-1.586c-2.055-3.976,1.355-6.285,9.627-10.607Zm37.024,15.555a38.238,38.238,0,0,0-9.754,0c1.6-1.617,3.192-2.786,4.877-2.786S1546.616,210.262,1548.215,211.88Zm35.684,45.756a10.9,10.9,0,0,1-10.194,9.888,458.712,458.712,0,0,1-60.733,0,10.9,10.9,0,0,1-10.191-9.888,244.5,244.5,0,0,1,0-45.194c.029-.318.077-.635.134-.95,2.946.56,6.371-1.284,9.689-3.071,2.841-1.53,5.782-3.113,7.73-2.8.37.059.877.139,1.063,1.488a21.823,21.823,0,0,1-.245,4.841c-.3,2.571-.615,5.212.144,7.141-5.473,4.559-8.471,10.516-8.471,16.9,0,6.652,3.271,12.865,9.212,17.5a1.481,1.481,0,0,0,1.82-2.336c-5.2-4.056-8.071-9.441-8.071-15.16,0-5.517,2.654-10.7,7.5-14.7a4.9,4.9,0,0,0,2.148.451c4.057,0,7.014-3.06,9.806-6.258a35,35,0,0,1,16.2,0c2.793,3.2,5.751,6.258,9.808,6.258a4.908,4.908,0,0,0,2.148-.45c4.843,4,7.5,9.183,7.5,14.7,0,11.833-12.361,21.46-27.555,21.46a33.365,33.365,0,0,1-14.716-3.324,1.481,1.481,0,0,0-1.312,2.655,36.345,36.345,0,0,0,16.029,3.63,34.612,34.612,0,0,0,21.45-7.038c5.847-4.62,9.067-10.793,9.067-17.383,0-6.383-3-12.338-8.47-16.9.759-1.929.447-4.57.143-7.141a21.841,21.841,0,0,1-.246-4.841c.186-1.349.693-1.43,1.063-1.489,1.95-.309,4.889,1.273,7.73,2.8,3.319,1.787,6.743,3.632,9.689,3.071.058.315.105.632.135.951a245,245,0,0,1,0,45.192Z" transform="translate(-1498.013 -170.407)" fill="#00223d"/>
      </g>
    </g>
  </g>
</svg>
