<svg xmlns="http://www.w3.org/2000/svg" width="105" height="105" viewBox="0 0 105 105">
  <g id="Grupo_61421" data-name="Grupo 61421" transform="translate(-326 -504)">
    <rect id="Rectángulo_5987" data-name="Rectángulo 5987" width="105" height="105" transform="translate(326 504)" fill="none"/>
    <g id="XMLID_1215_" transform="translate(333.474 511.369)">
      <path id="XMLID_3115_" d="M21.952,90.61a6.616,6.616,0,1,0-9.258,9.258,8.617,8.617,0,1,0,9.258-9.258Z" transform="translate(-8.268 -72.376)" fill="#cbe558"/>
      <path id="XMLID_3114_" d="M190.92,16.551a9.78,9.78,0,0,0-18.371,0A8.812,8.812,0,1,0,181.735,30.4a8.812,8.812,0,1,0,9.186-13.849Z" transform="translate(-136.708 -8.242)" fill="#cbe558"/>
      <path id="XMLID_3113_" d="M59.351,219.439a34.587,34.587,0,1,1,69.175,0c0,19.1-12.814,20.432-31.916,20.432s-37.259-1.33-37.259-20.432Z" transform="translate(-48.912 -152.234)" fill="#80b6ff"/>
      <g id="Grupo_61610" data-name="Grupo 61610" transform="translate(10.439 40.326)">
        <path id="XMLID_3112_" d="M72.9,277.617a8.617,8.617,0,0,1,3.488-6.924,6.1,6.1,0,0,0-3.63-11H66.785a34.44,34.44,0,0,0-7.434,21.424c0,6,1.792,10.246,4.842,13.249L72.9,278.622v-1.006Z" transform="translate(-59.351 -254.236)" fill="#89df8f"/>
        <path id="XMLID_3111_" d="M324.14,228.753a13.836,13.836,0,0,0-1.434-.077,10.549,10.549,0,0,0-5.714,19.416l3.658,2.357a6.783,6.783,0,0,1,.363,11.152,6.845,6.845,0,0,0-2.771,5.5,5.046,5.046,0,0,0,5.046,5.046,11.435,11.435,0,0,0,10.221-6.321,36.909,36.909,0,0,0,3.358-10.2c0-.024,0-.047,0-.072A34.517,34.517,0,0,0,324.14,228.753Z" transform="translate(-267.692 -228.676)" fill="#89df8f"/>
        <path id="XMLID_3110_" d="M218.609,301.5a5.727,5.727,0,0,0-5.877-1.247,6.537,6.537,0,0,0-4.339,6.157V309.2a5.067,5.067,0,0,0,9.509,2.437l1.776-3.238A5.726,5.726,0,0,0,218.609,301.5Z" transform="translate(-182.179 -287.388)" fill="#89df8f"/>
      </g>
      <path id="XMLID_3106_" d="M53.268,295.091v0a20.736,20.736,0,0,0-6.073-14.662,14.517,14.517,0,0,0-10.265-4.252l-8-8a4.76,4.76,0,0,0-6.732,6.732l9.271,9.271.709.709L21.931,274.647a11.68,11.68,0,0,1-3.421-8.259V255.222a4.255,4.255,0,0,0-8.51,0v10a27.379,27.379,0,0,0,8.019,19.36l10.509,10.509Z" transform="translate(-8.241 -206.72)" fill="#f2d2bd"/>
      <path id="XMLID_3103_" d="M256,295.091v0a20.736,20.736,0,0,1,6.073-14.662,14.517,14.517,0,0,1,10.265-4.252l8-8a4.76,4.76,0,0,1,6.732,6.732l-9.271,9.271-.709.709,10.249-10.249a11.68,11.68,0,0,0,3.421-8.259V255.222a4.255,4.255,0,0,1,8.51,0v10a27.379,27.379,0,0,1-8.019,19.36l-10.509,10.509Z" transform="translate(-210.972 -206.72)" fill="#f2d2bd"/>
      <path id="XMLID_1630_" d="M396.948,90.61a6.616,6.616,0,1,1,9.258,9.258,8.617,8.617,0,1,1-9.258-9.258Z" transform="translate(-320.579 -72.376)" fill="#cbe558"/>
      <g id="XMLID_638_" transform="translate(0 0.127)">
        <path id="XMLID_665_" d="M211.582,291.961a7.447,7.447,0,0,0-7.682-1.63,8.314,8.314,0,0,0-5.506,7.813v2.792a6.826,6.826,0,0,0,12.81,3.283l1.776-3.238A7.494,7.494,0,0,0,211.582,291.961Zm-1.686,7.328-1.776,3.238a3.308,3.308,0,0,1-6.209-1.591v-2.792a4.789,4.789,0,0,1,3.171-4.5,3.968,3.968,0,0,1,4.813,5.645Z" transform="translate(-163.499 -238.924)" fill="#3a3c07"/>
        <path id="XMLID_673_" d="M392.082,464.427l-4.912,4.912a1.759,1.759,0,1,0,2.487,2.488l4.912-4.912a1.759,1.759,0,1,0-2.487-2.488Z" transform="translate(-318.648 -382.339)" fill="#3a3c07"/>
        <path id="XMLID_682_" d="M87.91,43.9a6.014,6.014,0,0,0-9.885,4.6V51.96A36.426,36.426,0,0,0,69.1,39.971l3.122-3.962a10.311,10.311,0,0,0,4.82,1.192A10.426,10.426,0,0,0,87.293,28.4,8.374,8.374,0,1,0,75.466,16.569a10.368,10.368,0,0,0-6.039,17.3l-3.076,3.9A36.311,36.311,0,0,0,46.785,30.9V26.021A10.575,10.575,0,1,0,55.518,6.863a11.539,11.539,0,0,0-20.984,0,10.574,10.574,0,1,0,8.733,19.158V30.9A36.312,36.312,0,0,0,23.7,37.771l-3.075-3.9a10.368,10.368,0,0,0-6.039-17.3A8.374,8.374,0,1,0,2.76,28.4,10.426,10.426,0,0,0,13.015,37.2a10.311,10.311,0,0,0,4.82-1.192l3.122,3.962a36.426,36.426,0,0,0-8.93,11.988V48.5A6.014,6.014,0,1,0,0,48.5v10a28.947,28.947,0,0,0,8.534,20.6L19.043,89.615a1.759,1.759,0,0,0,2.487-2.488L11.022,76.619A25.453,25.453,0,0,1,3.518,58.5v-10a2.5,2.5,0,0,1,4.992,0V59.669a13.352,13.352,0,0,0,3.936,9.5l9.54,9.54.709.709a1.759,1.759,0,1,0,2.488-2.488l-9.98-9.98a3,3,0,0,1,4.245-4.245l8,8a1.759,1.759,0,0,0,1.244.515,12.674,12.674,0,0,1,9.021,3.737,18.852,18.852,0,0,1,5.558,13.419,1.759,1.759,0,0,0,3.518,0,18.852,18.852,0,0,1,5.558-13.419,12.674,12.674,0,0,1,9.021-3.737,1.759,1.759,0,0,0,1.244-.515l8-8a3,3,0,1,1,4.245,4.245l-9.98,9.98a1.759,1.759,0,1,0,2.487,2.488l.709-.709,9.54-9.54a13.352,13.352,0,0,0,3.936-9.5V48.5a2.5,2.5,0,0,1,4.992,0v10A25.7,25.7,0,0,1,83.456,70.68a1.759,1.759,0,1,0,3.1,1.672,29.232,29.232,0,0,0,3.5-13.849v-10a6,6,0,0,0-2.143-4.6ZM76.5,19.988a1.759,1.759,0,0,0,1.274-.7,4.857,4.857,0,1,1,6.8,6.8,1.759,1.759,0,0,0-.7,1.274,6.858,6.858,0,1,1-7.37-7.37ZM30.936,16.856a7.04,7.04,0,0,1,5.333-6.841,1.759,1.759,0,0,0,1.225-1.1,8.021,8.021,0,0,1,15.067,0,1.759,1.759,0,0,0,1.225,1.1,7.053,7.053,0,1,1-6.661,11.872L50.308,18.7a1.759,1.759,0,1,0-2.488-2.488L46.785,17.25V11.333a1.759,1.759,0,1,0-3.518,0v7.691l-2.8-2.8a1.759,1.759,0,1,0-2.488,2.488l3.979,3.979a7.055,7.055,0,0,1-11.021-5.833ZM6.179,27.358a1.759,1.759,0,0,0-.7-1.274,4.857,4.857,0,1,1,6.8-6.8,1.758,1.758,0,0,0,1.274.7,6.858,6.858,0,1,1-7.37,7.37ZM13,59.95a32.532,32.532,0,0,1,5.764-12.411h5.077a4.341,4.341,0,0,1,2.584,7.829,10.414,10.414,0,0,0-3.808,5.539l-.687-.687A6.527,6.527,0,0,0,13,59.95Zm47.615,7.77a16.158,16.158,0,0,0-10.763,4.75,22.465,22.465,0,0,0-4.83,7.158A22.466,22.466,0,0,0,40.2,72.47a16.159,16.159,0,0,0-10.763-4.75l-3.686-3.686v-.327A6.885,6.885,0,0,1,28.524,58.2a7.859,7.859,0,0,0-4.677-14.174H21.83a32.68,32.68,0,0,1,40.085-4.934A12.307,12.307,0,0,0,58.786,61.22l3.658,2.357a5.022,5.022,0,0,1,1.214,1.1Zm7.5-7.5-1.963,1.963a8.536,8.536,0,0,0-1.806-1.564l-3.658-2.357a8.79,8.79,0,0,1,4.762-16.179h.655A32.772,32.772,0,0,1,77.048,59.95,6.527,6.527,0,0,0,68.118,60.221Z" transform="translate(0 -0.127)" fill="#3a3c07"/>
        <path id="XMLID_1075_" d="M448.166,432.1a1.756,1.756,0,1,0,1.243.514A1.772,1.772,0,0,0,448.166,432.1Z" transform="translate(-367.89 -356.12)" fill="#3a3c07"/>
      </g>
    </g>
  </g>
</svg>
