<svg xmlns="http://www.w3.org/2000/svg" width="44.333" height="39.406" viewBox="0 0 44.333 39.406">
  <path id="leaf-heart-regular" d="M30.573,16.855a4.109,4.109,0,0,0-5.388.369l-.57.562-.57-.562a4.111,4.111,0,0,0-5.388-.369,3.811,3.811,0,0,0-.285,5.711l5.588,5.488a.939.939,0,0,0,1.308,0l5.588-5.488a3.823,3.823,0,0,0-.285-5.711ZM42.026.747A1.2,1.2,0,0,0,40.925,0a1.246,1.246,0,0,0-1.078.654A13.2,13.2,0,0,1,28.311,7.389H22.153A14.743,14.743,0,0,0,7.907,26.053,28.242,28.242,0,0,0,.088,36.959a1.85,1.85,0,0,0,1.139,2.347,1.832,1.832,0,0,0,.608.1,1.857,1.857,0,0,0,1.747-1.239,24.82,24.82,0,0,1,5.857-8.5,14.739,14.739,0,0,0,14.285,7.189c12.091-.87,20.6-11.706,20.6-24.983A27.987,27.987,0,0,0,42.026.747ZM23.339,33.187a11.084,11.084,0,1,1-1.185-22.1h6.157A16.755,16.755,0,0,0,40.009,6.4a25.289,25.289,0,0,1,.616,5.48C40.625,23.5,33.406,32.456,23.339,33.187Z" transform="translate(0.014)" fill="#529ad9"/>
</svg>
