<svg xmlns="http://www.w3.org/2000/svg" xmlns:xlink="http://www.w3.org/1999/xlink" width="640.179" height="564.068" viewBox="0 0 640.179 564.068">
  <defs>
    <linearGradient id="linear-gradient" x1="0.5" y1="1" x2="0.5" gradientUnits="objectBoundingBox">
      <stop offset="0" stop-color="#ff8094"/>
      <stop offset="0.004" stop-color="#ff8093"/>
      <stop offset="0.317" stop-color="#ff9d68"/>
      <stop offset="0.598" stop-color="#ffb348"/>
      <stop offset="0.835" stop-color="#ffc035"/>
      <stop offset="1" stop-color="#ffc52f"/>
    </linearGradient>
    <clipPath id="clip-path">
      <path id="Trazado_111429" data-name="Trazado 111429" d="M3556.881,792.984V896.747h-51.863a6.1,6.1,0,0,1-6.1-6.1V792.984Z" transform="translate(-3498.916 -792.984)" fill="none"/>
    </clipPath>
  </defs>
  <g id="Grupo_68922" data-name="Grupo 68922" transform="translate(-524.057 -7437.875)">
    <g id="Grupo_61605" data-name="Grupo 61605" transform="translate(-7005.236 8184.857) rotate(-90)">
      <g id="Grupo_61604" data-name="Grupo 61604" transform="translate(222.5 7741)">
        <path id="Trazado_111469" data-name="Trazado 111469" d="M2565.2,546.355c-13.489-32.313-36.246-60.306-63.342-82.484-108.175-88.539-283.142-76.674-366.115,40.488-29.446,41.576-43.692,94.356-35.923,144.708,6.423,41.641,27.388,80.265,55.7,111.468,35.179,38.772,83.207,67.208,135.255,72.857,28.483,3.09,60.6-2.213,78.665-24.447,12.994-15.994,16.308-37.665,26.214-55.732a85.554,85.554,0,0,1,54.52-41.54c29.651-7.036,63.269,1.783,89.593-13.573,17.424-10.165,27.933-29.251,33.349-48.683,9.412-33.773,5.617-70.578-7.865-102.94Z" transform="translate(-2097.729 -405.727)" fill="#f3f9ff"/>
        <circle id="Elipse_4326" data-name="Elipse 4326" cx="41.519" cy="41.519" r="41.519" transform="translate(332.031 318.933)" fill="#f3f9ff"/>
      </g>
    </g>
    <g id="Grupo_61589" data-name="Grupo 61589" transform="translate(511.492 7432.7)">
      <path id="Trazado_111382" data-name="Trazado 111382" d="M260.7,402.584a3.246,3.246,0,0,1-3.395,3.247A264.667,264.667,0,0,1,48.821,285.483a3.247,3.247,0,0,1,1.115-4.567l106.217-61.335a3.236,3.236,0,0,1,4.259.947,134.973,134.973,0,0,0,11.23,13.725,138.7,138.7,0,0,0,11.494,10.988l3.653,3.116a3.239,3.239,0,0,0,3.722.34l22.938-13.247a3.239,3.239,0,0,1,4.858,2.8V264.73a3.24,3.24,0,0,0,2.143,3.048l4.493,1.616a133.752,133.752,0,0,0,32.8,7.342,3.238,3.238,0,0,1,2.956,3.215Z" transform="translate(18.102 147.458)" fill="#f8a62a"/>
      <path id="Trazado_111383" data-name="Trazado 111383" d="M180.34,279.961a3.249,3.249,0,0,1,2.967-3.226q1.746-.164,3.483-.373a133.941,133.941,0,0,0,29.308-6.969l4.493-1.62a3.239,3.239,0,0,0,2.139-3.046v-26.47a3.24,3.24,0,0,1,4.861-2.8L250.5,248.689a3.237,3.237,0,0,0,3.713-.333l3.655-3.1a135.821,135.821,0,0,0,22.762-24.731,3.241,3.241,0,0,1,4.261-.949l106.218,61.333a3.253,3.253,0,0,1,1.113,4.574c-42.406,65.291-112.372,109.33-189.687,118.735-6.2.755-12.49,1.3-18.8,1.615a3.249,3.249,0,0,1-3.4-3.25Z" transform="translate(118.539 147.458)" fill="#ffcf10"/>
      <path id="Trazado_111384" data-name="Trazado 111384" d="M252.586,288.379a3.24,3.24,0,0,1-1.3-4.168,133.832,133.832,0,0,0,10.022-32.1l.842-4.7a3.235,3.235,0,0,0-1.572-3.377l-18.945-10.918-3.981-2.3a3.24,3.24,0,0,1,0-5.61l22.933-13.242a3.243,3.243,0,0,0,1.569-3.382l-.85-4.7a134.664,134.664,0,0,0-10.025-32.066,3.237,3.237,0,0,1,1.306-4.166L358.812,106.31a3.247,3.247,0,0,1,4.511,1.315,264.424,264.424,0,0,1,28.949,120.383c0,3.2-.053,6.3-.162,9.2a264.623,264.623,0,0,1-28.785,111.177,3.252,3.252,0,0,1-4.516,1.317Z" transform="translate(160.901 61.29)" fill="#ff4848"/>
      <path id="Trazado_111385" data-name="Trazado 111385" d="M284.884,211.561a3.237,3.237,0,0,1-4.256-.945,136.892,136.892,0,0,0-11.24-13.737,134.9,134.9,0,0,0-11.5-11l-3.652-3.1a3.24,3.24,0,0,0-3.715-.336L227.59,195.684a3.24,3.24,0,0,1-4.859-2.8V166.407a3.238,3.238,0,0,0-2.141-3.048l-4.493-1.618a134.061,134.061,0,0,0-32.8-7.342,3.237,3.237,0,0,1-2.956-3.213V28.554a3.247,3.247,0,0,1,3.395-3.248A263.6,263.6,0,0,1,363.6,109.032a267,267,0,0,1,28.62,36.626,3.246,3.246,0,0,1-1.113,4.571Z" transform="translate(118.539 0.001)" fill="#bcd533"/>
      <path id="Trazado_111386" data-name="Trazado 111386" d="M49.926,150.217a3.244,3.244,0,0,1-1.109-4.562q1.416-2.184,2.852-4.3A264.152,264.152,0,0,1,238.508,26.917c6.2-.757,12.492-1.3,18.8-1.613a3.25,3.25,0,0,1,3.395,3.25V151.178a3.25,3.25,0,0,1-2.965,3.226q-1.748.164-3.488.373a134.493,134.493,0,0,0-29.3,6.948l-4.5,1.618a3.238,3.238,0,0,0-2.143,3.048V192.87a3.239,3.239,0,0,1-4.858,2.8l-22.91-13.223a3.237,3.237,0,0,0-3.712.335l-3.65,3.092a136.482,136.482,0,0,0-22.774,24.732,3.237,3.237,0,0,1-4.256.944Z" transform="translate(18.099 0)" fill="#9d7deb"/>
      <path id="Trazado_111387" data-name="Trazado 111387" d="M57.973,349.713a3.245,3.245,0,0,1-4.507-1.312q-2.755-5.374-5.271-10.881A262.094,262.094,0,0,1,24.508,228.007c0-3.27.053-6.277.16-9.2a264.429,264.429,0,0,1,28.8-111.18,3.252,3.252,0,0,1,4.516-1.317l106.208,61.328a3.239,3.239,0,0,1,1.306,4.168,133.71,133.71,0,0,0-10.022,32.08l-.843,4.7a3.241,3.241,0,0,0,1.569,3.377l22.929,13.24a3.239,3.239,0,0,1,0,5.61l-3.991,2.306-18.934,10.913a3.237,3.237,0,0,0-1.571,3.377l.84,4.7a134.248,134.248,0,0,0,10,32.062l.012.028a3.253,3.253,0,0,1-1.308,4.189Z" transform="translate(0 61.291)" fill="#6fe8d1"/>
    </g>
    <text id="Idea" transform="translate(865 7529)" fill="#12263f" font-size="20" font-family="Roboto-Bold, Roboto" font-weight="700"><tspan x="0" y="21">Idea</tspan></text>
    <text id="Producto" transform="translate(865 7882)" fill="#12263f" font-size="20" font-family="Roboto-Bold, Roboto" font-weight="700"><tspan x="0" y="21">Producto</tspan></text>
    <text id="Construir" transform="translate(960 7710)" fill="#12263f" font-size="20" font-family="Roboto-Bold, Roboto" font-weight="700"><tspan x="0" y="21">Construir</tspan></text>
    <text id="Datos" transform="translate(556 7710)" fill="#12263f" font-size="20" font-family="Roboto-Bold, Roboto" font-weight="700"><tspan x="-51.777" y="21">Datos</tspan></text>
    <text id="Aprender" transform="translate(664 7529)" fill="#12263f" font-size="20" font-family="Roboto-Bold, Roboto" font-weight="700"><tspan x="-83.398" y="21">Aprender</tspan></text>
    <text id="Medir" transform="translate(664 7878)" fill="#12263f" font-size="20" font-family="Roboto-Bold, Roboto" font-weight="700"><tspan x="-52.197" y="21">Medir</tspan></text>
    <g id="Grupo_61596" data-name="Grupo 61596" transform="translate(-2762.678 6943.071)">
      <g id="Grupo_61597" data-name="Grupo 61597" transform="translate(3541.686 674.032)">
        <path id="Trazado_111388" data-name="Trazado 111388" d="M3572.7,739.088a1.529,1.529,0,0,1-1.36-2.214,13.394,13.394,0,0,0,1.528-6.6h-.769a16,16,0,0,1-15.987-15.985v-7.156a16.007,16.007,0,0,1,15.987-15.991h31.891a16.007,16.007,0,0,1,15.987,15.991v7.156a16,16,0,0,1-15.987,15.985h-18.879c-.23.27-.465.551-.705.838a20.831,20.831,0,0,1-3.8,3.79,37.335,37.335,0,0,1-7.311,4.071A1.541,1.541,0,0,1,3572.7,739.088Zm-.6-46.38a14.437,14.437,0,0,0-14.417,14.421v7.156A14.433,14.433,0,0,0,3572.1,728.7h2.168l.093.68a14.52,14.52,0,0,1-1.61,8.2,43.27,43.27,0,0,0,6.94-3.959,19.362,19.362,0,0,0,3.508-3.524c.334-.393.654-.776.97-1.132l.234-.264h19.588a14.433,14.433,0,0,0,14.416-14.414v-7.156a14.437,14.437,0,0,0-14.416-14.421Z" transform="translate(-3556.115 -691.138)" fill="#e8eaff"/>
        <path id="Trazado_111389" data-name="Trazado 111389" d="M3593.348,704.007a4.869,4.869,0,1,1-4.869-4.868A4.869,4.869,0,0,1,3593.348,704.007Z" transform="translate(-3556.993 -691.394)" fill="#e8eaff"/>
        <path id="Trazado_111390" data-name="Trazado 111390" d="M3572.019,725a6.051,6.051,0,1,1,6.047-6.051A6.059,6.059,0,0,1,3572.019,725Zm0-9.739a3.689,3.689,0,1,0,3.684,3.688A3.691,3.691,0,0,0,3572.019,715.265Z" transform="translate(-3556.43 -691.834)" fill="#e8eaff"/>
        <path id="Trazado_111391" data-name="Trazado 111391" d="M3606.793,718.856h-29.211c-1.015,0-.908,1.57.1,1.57h29.212C3607.908,720.426,3607.8,718.856,3606.793,718.856Z" transform="translate(-3556.778 -692.025)" fill="#e8eaff"/>
        <path id="Trazado_111392" data-name="Trazado 111392" d="M3607.292,702.638h-38.561c-1.031,0-.922,1.571.1,1.571h38.562C3608.425,704.209,3608.316,702.638,3607.292,702.638Z" transform="translate(-3556.495 -691.506)" fill="#e8eaff"/>
      </g>
      <path id="Trazado_111393" data-name="Trazado 111393" d="M3532.388,719.945c-1.328.42-2.755-.366-3.961-.831l-4.6-1.786q-4.51-1.74-9.021-3.495c-1.525-.588-3.036-1.244-4.609-1.687a26.144,26.144,0,0,0-4.609-.771c-.839-.083-1.678-.152-2.519-.252a2.212,2.212,0,0,1-1.3-.435.46.46,0,0,0-.344.191c-.7.679-1.862-.313-1.16-.993,2.167-2.1,3.5-5.089,6.159-6.662a5.317,5.317,0,0,1,6.013.115,6.3,6.3,0,0,1,6.151-1.183,3.051,3.051,0,0,1,1.351,1.023c.153.2.336.641.549.764.3.175.519-.023.81-.077a1.932,1.932,0,0,1,1.954.817,5.429,5.429,0,0,1,5.074.9,4.971,4.971,0,0,1,1.672,4.342,5.827,5.827,0,0,1,3.06,2.74,3.271,3.271,0,0,1-.083,2.754A2.536,2.536,0,0,1,3532.388,719.945Z" transform="translate(-3.976 0.49)" fill="#1a1a1a"/>
      <path id="Trazado_111394" data-name="Trazado 111394" d="M3532.1,725.018c-1.709,11.817-9.389,23.642-21.329,23.642a21.617,21.617,0,0,1,0-43.235C3522.712,705.425,3533.763,713.523,3532.1,725.018Z" transform="translate(-3.314 0.27)" fill="#1a1a1a" style="mix-blend-mode: darken;isolation: isolate"/>
      <path id="Trazado_111395" data-name="Trazado 111395" d="M3530.516,736.085a19.478,19.478,0,0,1-25.613,10.081,20.376,20.376,0,0,0,2.092-1.489,10.688,10.688,0,0,0,3.052-3.167,2.866,2.866,0,0,0,3.29-2.122,7.987,7.987,0,0,0-.185-3.549c-.258-1.327-.564-2.648-.907-3.96a60.219,60.219,0,0,0-2.762-7.983c-.252-.58-.664-1.122-.466-1.74.176-.542.5-1.053.7-1.6a12.26,12.26,0,0,0,.633-3.046q5.918-.641,11.836-1.267a38.15,38.15,0,0,0,5.144-.763A19.5,19.5,0,0,1,3530.516,736.085Z" transform="translate(-4.271 -0.342)" fill="#ffc89e"/>
      <path id="Trazado_111396" data-name="Trazado 111396" d="M3530.516,736.05a19.478,19.478,0,0,1-25.613,10.081,20.386,20.386,0,0,0,2.092-1.489,10.687,10.687,0,0,0,3.052-3.167,2.866,2.866,0,0,0,3.29-2.122,7.987,7.987,0,0,0-.185-3.549c-.258-1.327-.564-2.647-.907-3.96a60.219,60.219,0,0,0-2.762-7.983c-.252-.58-.664-1.122-.466-1.74.176-.542.5-1.053.7-1.6a12.258,12.258,0,0,0,.633-3.046q5.918-.641,11.836-1.267a68.381,68.381,0,0,0,6.821-1.313C3533.8,720.389,3533.622,728.921,3530.516,736.05Z" transform="translate(-4.271 -0.306)" fill="#ffc89e"/>
      <path id="Trazado_111397" data-name="Trazado 111397" d="M3536.22,750.218a39.989,39.989,0,0,1-13.913,13.79,42.647,42.647,0,0,1-28.923,5.013,47.419,47.419,0,0,1-6.495-1.587c10.066-5.815,21.337-12.172,21.337-12.172l11.562-3.466s11.607-.968,16.2-1.549C3536.067,750.24,3536.143,750.225,3536.22,750.218Z" transform="translate(-3.175 -2.455)" fill="#ffc89e"/>
      <path id="Trazado_111398" data-name="Trazado 111398" d="M3528.793,739.167l-1.167,5.723-2.076,10.218-.991,4.885-22.75,7.708,1.282-13.027c.152,0,.3-.015.443-.015a4.51,4.51,0,0,0,1.359-.076,1.351,1.351,0,0,0,.839-.969c.314-.969.6-1.947.908-2.924.161-.526.329-1.053.489-1.579.138-.428.268-.863.405-1.29.045-.152.1-.305.144-.465a4.094,4.094,0,0,0,.138-2.435c-.321-.931-1.5-1.075-2.366-1.045a4.14,4.14,0,0,0-1.32.275l.374-3.824Z" transform="translate(-4.083 -1.782)" fill="#ffc89e"/>
      <path id="Trazado_111399" data-name="Trazado 111399" d="M3527.971,745.248l-2.076,10.218a28.116,28.116,0,0,1-10.638-1.427,18.772,18.772,0,0,1-7.784-4.571c.138-.428.268-.863.405-1.291.045-.152.1-.305.144-.465a.643.643,0,0,1,.283-.046c2.519.107,4.213-1.748,6.594-2.183a42.873,42.873,0,0,1,7.342-.427C3524.14,745.05,3526.078,745.065,3527.971,745.248Z" transform="translate(-4.428 -2.141)" fill="#ff7e64"/>
      <path id="Trazado_111400" data-name="Trazado 111400" d="M3507.615,748.125c-.3.954-.6,1.916-.893,2.869-.305.977-.594,1.954-.908,2.924a1.35,1.35,0,0,1-.839.969,4.508,4.508,0,0,1-1.359.076c-.145,0-.29.015-.442.015l1.038-10.523a4.141,4.141,0,0,1,1.319-.275c.863-.03,2.046.115,2.367,1.045A4.8,4.8,0,0,1,3507.615,748.125Z" transform="translate(-4.166 -2.087)" fill="#1a1a1a"/>
      <path id="Trazado_111401" data-name="Trazado 111401" d="M3531.956,736.486a17.546,17.546,0,0,1-23.1,9.066,17.938,17.938,0,0,1-1.725-.862,10.693,10.693,0,0,0,3.053-3.167,2.865,2.865,0,0,0,3.29-2.122,8,8,0,0,0-.184-3.549q-.389-1.991-.907-3.96a60.255,60.255,0,0,0-2.763-7.983c-.252-.581-.665-1.122-.466-1.74.176-.542.5-1.053.7-1.6a12.238,12.238,0,0,0,.633-3.046q5.919-.641,11.837-1.267c1.435-.152,2.931-.3,4.373-.587A17.557,17.557,0,0,1,3531.956,736.486Z" transform="translate(-4.407 -0.353)" fill="#ffc89e"/>
      <path id="Trazado_111402" data-name="Trazado 111402" d="M3525.449,722.415a14.845,14.845,0,0,1,7.673,19.543c-3.278,7.515-12.888,11.082-20.4,7.8s-10.09-12.16-6.812-19.676A14.846,14.846,0,0,1,3525.449,722.415Z" transform="translate(-4.247 -0.688)" fill="#ffc89e"/>
      <path id="Trazado_111403" data-name="Trazado 111403" d="M3528.25,714.45c-.252.061-2.187.672-2.448.726-1.442.29-2.938.435-4.373.587q-5.919.63-11.836,1.267a12.249,12.249,0,0,1-.633,3.046c-.2.549-.527,1.06-.7,1.6-.2.618.214,1.16.466,1.74a60.359,60.359,0,0,1,2.763,7.983q.514,1.968.907,3.96a8,8,0,0,1,.185,3.549,2.866,2.866,0,0,1-3.29,2.122,10.687,10.687,0,0,1-3.052,3.167,20.37,20.37,0,0,1-2.092,1.489,19.49,19.49,0,0,1-10.1-25.657c4.3-9.86,17.618-15.233,27.486-10.929A19.5,19.5,0,0,1,3528.25,714.45Z" transform="translate(-3.512 0.137)" fill="#1a1a1a"/>
      <path id="Trazado_111404" data-name="Trazado 111404" d="M3619.121,771.319a21.04,21.04,0,0,1-1.657,8.631c-1.12,3.013-2.371,5.952-3.3,9.03a76.459,76.459,0,0,0-2.225,9.338c-.544,3.134-.812,6.317-1.316,9.459-.787,4.945-2.346,11.392-8.241,12.163-2.834.365-5.806-.519-8.5-1.307-2.648-.771-5.8-1.543-7.763-3.6a9.426,9.426,0,0,1-2.176-6.788,33.025,33.025,0,0,1,1.478-8.648c1.762-6.016,4.619-11.644,7.275-17.295,2.728-5.782,5.326-11.644,8.242-17.328a48.127,48.127,0,0,1,7.016-10.581c.479-.357.974-.682,1.478-.991a8.74,8.74,0,0,1,3.751-1.364,2.689,2.689,0,0,1,.828.926,20.867,20.867,0,0,1,1.4,4.254c.479,1.592.959,3.174,1.438,4.766C3617.756,765.026,3618.917,768.127,3619.121,771.319Z" transform="translate(-9.078 -2.566)" fill="#ffc89e"/>
      <path id="Trazado_111405" data-name="Trazado 111405" d="M3584.481,800.735s-16.462-40-23.948-45.281a17.459,17.459,0,0,0-12.295-5.037c-.129,0-.26,0-.382.008a46.752,46.752,0,0,0-12.959-.435c-.6.053-1.22.121-1.854.2a39.985,39.985,0,0,1-13.913,13.79,42.646,42.646,0,0,1-28.923,5.013,47.406,47.406,0,0,1-6.495-1.587c-.588.344-1.175.68-1.748,1.016-9.638,5.591-19.179,8.672-23.135,19.9-4.282,12.156-8.746,24.215-13.232,36.293-4.2,11.311-10.922,25.592-10.922,37.811a17.544,17.544,0,0,0,17.545,17.544c8.516,0,19.856-5.3,21.45-13.346,4.794-10.552,13.254-32.347,13.254-32.347Z" transform="translate(0 -2.426)" fill="#5950ee"/>
      <path id="Trazado_111406" data-name="Trazado 111406" d="M3559.47,772.708q-.966,4.308-1.929,8.615c-.433,1.931-1.48,4.734.34,6.279a.764.764,0,0,0,.995-1.159c-.686-.581-.524-1.614-.375-2.4.223-1.18.52-2.349.783-3.52q.841-3.76,1.685-7.521C3561.183,772.04,3559.684,771.75,3559.47,772.708Z" transform="translate(-7.431 -3.787)" fill="#e8eaff"/>
      <path id="Trazado_111407" data-name="Trazado 111407" d="M3611.412,812.345a17.545,17.545,0,1,1-17.545-17.545A17.545,17.545,0,0,1,3611.412,812.345Z" transform="translate(-8.615 -5.166)" fill="#ffc89e"/>
      <path id="Trazado_111408" data-name="Trazado 111408" d="M3507.935,734.5a5.977,5.977,0,1,1-7.869,3.089A5.976,5.976,0,0,1,3507.935,734.5Z" transform="translate(-3.947 -1.468)" fill="#ffc89e"/>
      <path id="Trazado_111409" data-name="Trazado 111409" d="M3665.791,792.984v97.661a6.1,6.1,0,0,1-6.1,6.1h-99.054V792.984Z" transform="translate(-7.661 -5.056)" fill="#e8eaff"/>
      <path id="Trazado_111410" data-name="Trazado 111410" d="M3588.621,884.308l-12.288-.181a8.35,8.35,0,0,1,.247-16.7l12.288.181a8.35,8.35,0,0,1-.247,16.7Z" transform="translate(-8.115 -9.584)" fill="#d4d4ff"/>
      <path id="Trazado_111411" data-name="Trazado 111411" d="M3588.081,882.192l-11.114-.164a6.25,6.25,0,1,1,.184-12.5l11.114.163a6.251,6.251,0,0,1-.184,12.5Z" transform="translate(-8.28 -9.712)" fill="#fff"/>
      <path id="Trazado_111412" data-name="Trazado 111412" d="M3588.8,882.2a6.251,6.251,0,1,1,6.342-6.158A6.25,6.25,0,0,1,3588.8,882.2Z" transform="translate(-9 -9.722)" fill="#a2a0eb"/>
      <g id="Grupo_61590" data-name="Grupo 61590" transform="translate(3557.282 796.653)">
        <path id="Trazado_111413" data-name="Trazado 111413" d="M3586.847,833.892l-.783.119c-2.517-10.2-4.711-20.581-6.517-30.806a.884.884,0,0,0-.766-.888,11.949,11.949,0,0,0-3.609.238.831.831,0,0,0-.546.431.912.912,0,0,0-.063.753.932.932,0,0,0,1.112.57c.079-.017.158-.032.238-.047-2.71,7.865-5.139,15.847-7.221,23.736-.579,2.191-1.155,4.474-1.715,6.788h-.875a.854.854,0,0,0-.622.278.934.934,0,0,0-.257.693.922.922,0,0,0,.947.855h3.632a.85.85,0,0,0,.623-.279.912.912,0,0,0-.691-1.547h-.876c1.086-4.463,2.294-9.006,3.591-13.511h8.8c.946,4.373,1.956,8.746,3.006,13.012l-.258.039a.929.929,0,0,0-.819.983.991.991,0,0,0,.375.667.8.8,0,0,0,.626.167l1.1-.167a1,1,0,0,0,.376-.058l1.376-.209a.928.928,0,0,0,.82-.983.993.993,0,0,0-.374-.667A.833.833,0,0,0,3586.847,833.892Zm-5.992-14.442h-7.878c1.512-5.14,3.158-10.279,4.9-15.285C3578.781,809.264,3579.783,814.4,3580.854,819.451Z" transform="translate(-3565.222 -802.274)" fill="#d4d4ff"/>
        <path id="Trazado_111414" data-name="Trazado 111414" d="M3600.866,834.826a.874.874,0,0,0-.894.048.291.291,0,0,1-.239.035.988.988,0,0,1-.551-.426,3.09,3.09,0,0,1-.182-1.8,14.5,14.5,0,0,0,.016-2.8,5.63,5.63,0,0,0-.608-2.3,3.6,3.6,0,0,0-4.039-1.385c-1.549.388-3.22,1.352-3.262,2.9a.822.822,0,0,0,.828.872.947.947,0,0,0,1-.918c0-.134.2-.381,1.188-.826a2.943,2.943,0,0,1,1.7-.32,1.384,1.384,0,0,1,1.128.864,5.612,5.612,0,0,1,.28,1.636,8.691,8.691,0,0,0-3.55-.255,4.537,4.537,0,0,0-3.414,2.327,3.352,3.352,0,0,0,.5,3.828,4.417,4.417,0,0,0,3.228,1.184c.112,0,.227,0,.343-.009a8.091,8.091,0,0,0,3.955-1.311,2.293,2.293,0,0,0,2.688.234.851.851,0,0,0,.411-.767A.977.977,0,0,0,3600.866,834.826Zm-3.58-.2a6.116,6.116,0,0,1-2.329.942,3.676,3.676,0,0,1-2.6-.312,1.453,1.453,0,0,1-.518-1.824,2.614,2.614,0,0,1,2.059-1.477,7.522,7.522,0,0,1,3.281.311A6.716,6.716,0,0,0,3597.286,834.63Z" transform="translate(-3566.722 -803.721)" fill="#d4d4ff"/>
      </g>
      <path id="Trazado_111415" data-name="Trazado 111415" d="M3656.648,797.624h-43.893a6.155,6.155,0,0,0-6.155,6.157v43.89a6.157,6.157,0,0,0,6.155,6.157h43.893a6.156,6.156,0,0,0,6.154-6.157v-43.89A6.155,6.155,0,0,0,3656.648,797.624Z" transform="translate(-10.457 -5.338)" fill="url(#linear-gradient)"/>
      <g id="Grupo_61593" data-name="Grupo 61593" transform="translate(3495.009 787.928)">
        <g id="Grupo_61592" data-name="Grupo 61592" clip-path="url(#clip-path)">
          <path id="Trazado_111416" data-name="Trazado 111416" d="M3638.835,762.208a36.553,36.553,0,0,1,6.188,5.537,26.077,26.077,0,0,1,4.006,6.05c6.132,12.821,1.595,29.567-2.439,43.231-.186,2.065-.226,4.126-.226,6.21v64.242c-.32,10.656,3.862,24.6-1.714,31.218-4.532,4.88-16.031-4.531-25.442-4.182-7.667.348-14.288,7.319-22.653,5.925-11.153-2.44-21.609-7.668-32.848-4.754a35.558,35.558,0,0,1-5.288,4.457,30.815,30.815,0,0,1-17.043,5.335,48.693,48.693,0,0,1-8-.492c-14.889-1.061-29.177-11.517-44.086-7.5a27.824,27.824,0,0,0-5.045,2.212c-4.791,2.658-9.322,6.143-14.55,8.06-10.106,3.484-24.047,0-27.881-6.971-6.621-10.8-2.091-26.488-1.148-40.387a13.366,13.366,0,0,1,1.5-4.276c1.737-3.083,3.829-6.22,2.434-9.705q-1.15-3.24-2.021-6.522c-.585-2.186-1.084-4.385-1.462-6.493a229.043,229.043,0,0,1-2.874-40.424c-.014-2.3-.06-4.556-.125-6.8s-.149-4.488-.266-6.724q-.276-2.933-.572-5.873c-.7-4.183-2.09-9.411.7-11.851,1.4-1.742,5.925-.348,9.062-1.045a124.318,124.318,0,0,1,14.577-2.979q3.632-.52,7.25-.828c1.687.168,3.346.359,4.96.552a60.019,60.019,0,0,0,6.77.711c2.24.116,4.462.129,6.649.1q3.367,0,6.767-.05a62.256,62.256,0,0,1,6.549.166c6.074.583,10.954,4.069,16.182,6.508,1.045.7,2.788,1.395,3.833.7a77.188,77.188,0,0,1,7.036-4.016,58.458,58.458,0,0,1,20.836-4.622,11.882,11.882,0,0,1,7.009,1.646c17.048,16.75,44.58,16.053,62.355,1.764,4.879-4.182-3.137-10.8-3.137-16.38.348-8.016,11.152-5.576,16.523-3.413C3636.186,761.626,3638.835,762.208,3638.835,762.208Z" transform="translate(-3495.108 -790.882)" fill="#d4d4ff"/>
          <g id="Grupo_61591" data-name="Grupo 61591" transform="translate(-58.4 -30.318)">
            <path id="Trazado_111417" data-name="Trazado 111417" d="M3439.635,912.62c6.911,4.393,15.625,10.317,23.99,7.181,2.091-.813,4.182-1.782,6.279-2.8s4.209-2.055,6.408-2.924c15.891-8.222,31.226.839,46.56,6.067,2.091,1.045,4.531.349,6.622-.348,7.842-3.776,13.989-10.456,22.073-12.9a20.828,20.828,0,0,1,5.119-.883c8.705.19,16.721,4.72,25.434,6.115,6.622.7,14.638,2.787,19.517-2.44,3.834-3.834,3.137-10.106,8.365-13.592a13.761,13.761,0,0,1,17.774,2.091c5.576,5.228,11.153,10.456,18.82,11.85,0-.7,0-1.394-.349-1.394-10.106-2.789-15.683-11.5-24.047-16.38-9.759-5.228-17.774,9.409-24.744,15.335-8.016,7.318-19.517,5.227-28.23-1.046a24.429,24.429,0,0,0-14.156-5.294,8.592,8.592,0,0,0-6.406,1.46c-8.713,7.319-19.168,20.563-30.67,13.941-12.547-7.667-27.184-6.971-40.351-5.055a28.506,28.506,0,0,0-6.129,2.051c-1.946.907-3.88,1.914-5.8,3-8.713,4.879-18.471-.348-25.971-5.861Z" transform="translate(-3436.91 -768.637)" fill="#e8eaff"/>
            <path id="Trazado_111418" data-name="Trazado 111418" d="M3440,904.045c8.662,5.7,19.466,10.928,29.572,5.352a19.116,19.116,0,0,1,5.727-2.177c15.532-2.7,31.216-.263,46.55,4.616,11.153,3.485,15.335-12.2,24.047-17.775,1.742-1.394,5.228,0,8.071,1.319,11.447,3.561,22.6,15.061,34.8,7.4,9.062-5.577,14.289-13.941,23.35-18.82,9.41-5.227,17.078,6.622,23.35,12.547,3.137,2.44,6.971,5.577,10.457,4.53,1.393-.348.7-3.834.7-6.273-11.5,0-15.335-14.289-24.745-18.472-13.244-6.621-24.4,10.8-34.155,18.82-6.969,5.924-16.032,4.879-23.35,1.045-4.531-2.439-6.971-7.319-8.719-11.834-.691-1.41-2.434-1.41-4.139-1.549a15.271,15.271,0,0,0-8.005,2.474,17.5,17.5,0,0,0-5.625,6.03c-3.485,6.274-6.622,15.683-12.895,14.638-17.426-2.44-34.5-4.183-51.984-3.413a23.482,23.482,0,0,0-6.915,1.67c-9.062,3.834-17.426-3.485-25.827-7.359Z" transform="translate(-3436.932 -767.643)" fill="#e8eaff"/>
            <path id="Trazado_111419" data-name="Trazado 111419" d="M3440.4,888.894c6.211,3.03,12.469,7.511,19.473,8.533a19.85,19.85,0,0,0,7.3-.273c18.45.31,36.574.31,55.393,3.1,1.744.348,3.137-.7,4.532-1.742,7.666-8.364,9.41-20.214,19.167-26.139a6.421,6.421,0,0,1,5.822-1.478,6.744,6.744,0,0,1,4.635,2.873c3.135,7.318,6.62,21.956,16.728,17.774,9.41-3.834,16.729-10.8,25.441-15.683,8.365-4.531,18.472-14.289,27.533-6.622,4.183,3.485,5.925,8.365,9.066,12.792a14.5,14.5,0,0,0,4.836,4.24,54.949,54.949,0,0,0,6.283.519v-2.628s-1.956,0-5.5-.214a13.414,13.414,0,0,1-3.9-2.9,35.995,35.995,0,0,1-3.695-4.481c-1.075-1.832-2.252-4.013-3.571-6.122-2.637-4.219-5.84-8.152-9.927-8.447-2.075-.161-4.372.589-7.123,2.594-13.654,9.522-27.595,18.932-43.974,23.463-7.32,2.091-7.668-9.41-11.173-14.8a17.868,17.868,0,0,0-3.3-4.289,12.126,12.126,0,0,0-4.849-2.752,6.448,6.448,0,0,0-6.5,2.954c-6.584,6.337-7.629,16.1-14.252,21.324-18.123,14.638-43.216,4.531-63.967,3.361q-3.223-.331-6.379-.956a63.848,63.848,0,0,1-18.088-6.518Z" transform="translate(-3436.957 -766.862)" fill="#e8eaff"/>
            <path id="Trazado_111420" data-name="Trazado 111420" d="M3441.151,881.052c8.276,1.979,12.807,10,20.126,13.828a11.357,11.357,0,0,0,4.53,1.395c26.487,5.3,59.265,1.473,69.35-27.907a24.651,24.651,0,0,1,2.08-4.642,15.571,15.571,0,0,1,7.683-4.235c3.486.19,6.971.19,9.062,3.326.93,1.337,1.917,2.672,2.964,3.964a46.837,46.837,0,0,0,3.322,3.7c6.261,9.061,18.459,10.456,27.171,2.788,6.273-5.924,12.2-13.243,20.78-16.162a38.629,38.629,0,0,1,7.8-1.612c1.743-.349,1.394-3.137,1.743-5.228.349-2.439,2.789-3.834,4.531-2.091,6.971,8.016,7.668,19.516,15.249,26.425a14.5,14.5,0,0,0,4.064,3.075c3.258.03,5.055.03,5.055.03v-8.6s-1.509,0-4.271-.015a17.677,17.677,0,0,1-4.363-2.54,22.483,22.483,0,0,1-3.526-3.592c-6.632-8.162-5.936-22.1-15.694-25.588-7.144-2.439-11.326,2.092-14.812,8.364-1.162,2.092-2.246,4.377-3.337,6.661-4.5,10.416-14.612,21.569-27.158,19.827-4.183-.348-7.319-3.137-9.8-6.622-1.2-1.307-2.32-2.7-3.447-4.073s-2.26-2.723-3.479-3.943c-5.228-5.227-12.9-6.622-20.039-4.363a17.569,17.569,0,0,0-5.461,3.416,14.917,14.917,0,0,0-3.722,5.458,27.712,27.712,0,0,1-2.648,5.119c-4.259,6.48-11.463,11.514-17.271,16.858-1.046.7-1.046,2.787-2.44,3.485-11.849,5.924-25.79,5.924-38.449,1.257-2.453-.855-4.758-1.718-6.877-2.617a32.419,32.419,0,0,1-11.58-8.238c-1.643-.636-3.312-1.155-4.921-1.626Z" transform="translate(-3437.002 -765.325)" fill="#e8eaff"/>
            <path id="Trazado_111421" data-name="Trazado 111421" d="M3444.065,873.155c1.478.713,2.988,1.358,4.5,1.96,2.96,1.724,5.835,4.242,8.928,6.155a26.442,26.442,0,0,0,4.978,2.45c12.578,3.209,27.214,1.815,37.322-6.55,6.1-5.054,12.024-9.933,18.346-13.841a57.023,57.023,0,0,1,6.525-3.52c4.489-.719,8.914-1.662,13.322-2.666,2.206-.5,4.405-1.018,6.754-1.332,6.633.1,13.952-.946,20.226,2.888a21.524,21.524,0,0,1,5.268,5.042c2.748,4.368,7.975,7.853,13.552,5.413a21.559,21.559,0,0,0,11.34-11.148c.5-1.649.956-3.376,1.47-5.132,2.44-8.774,6.219-18.258,12.156-21.915a10.112,10.112,0,0,1,4.657-1.536c3.513-.347,6.157,1.162,8.344,3.7,4.374,5.071,6.807,14.245,9.924,20.856a27.4,27.4,0,0,0,2.649,4.043,21,21,0,0,0,3.479,3.45c5.845,2.448,9.033,2.448,9.033,2.448v-3.506a33.721,33.721,0,0,1-8.635-1.684,27.6,27.6,0,0,1-3.6-3.592,35.373,35.373,0,0,1-2.9-4.042c-3.046-4.563-5.178-11.463-8.335-16.828a22.583,22.583,0,0,0-3.527-4.711c-3.29-2.572-7.124-3.966-10.878-2.9a12.44,12.44,0,0,0-6.789,3.99,20.147,20.147,0,0,0-4.094,7.144,61.83,61.83,0,0,0-2.08,6.769c-.656,2.519-1.3,5.223-2.012,7.883-2.182,6.609-5.317,17.761-13.682,16.715-5.576-1.045-8.714-6.273-13.277-9.242-1.779-1.31-3.585-2.579-5.437-3.7-5.557-3.356-11.531-5.362-18.425-3.1a56.645,56.645,0,0,0-6.172,1.794,36.182,36.182,0,0,1-11.32,2.175,28.985,28.985,0,0,0-6.471,2.814c-5.726,3.331-11.389,6.643-17.663,8.908-1.743.7-3.834.349-5.576,1.045-3.833,1.743-4.88,6.274-8.364,9.061-1.395,1.046-3.485.348-4.531,1.046-8.016,4.531-16.729,3.137-24.313-.14a29.864,29.864,0,0,1-9.416-6.412c-1.816-.763-3.558-1.532-5.243-2.386Z" transform="translate(-3437.179 -764.692)" fill="#e8eaff"/>
            <path id="Trazado_111422" data-name="Trazado 111422" d="M3439.621,921.779c8.662,3.268,17.723,10.936,26.785,6.056,1.684-.871,3.388-1.877,5.108-2.926s3.456-2.139,5.206-3.178c5.717-3.653,12.34-5.744,18.613-4.35,17.425,4.879,35.548,12.9,52.994,5.468a33.8,33.8,0,0,0,6.322-3.647,53.393,53.393,0,0,0,5.89-5.245,7.572,7.572,0,0,1,6.24-.41c16.729,5.576,35.549,13.592,49.141-3.485,2.092-2.439,6.622-2.788,9.759-.7,6.622,3.834,12.2,9.41,20.214,9.758,2.44.348-.7-2.091.7-2.788-5.227-.7-10.106-3.485-13.94-6.622-5.577-4.531-14.638-10.455-19.169-3.834-13.244,20.562-35.549,8.364-53.176,5.589a17.3,17.3,0,0,0-6.029,1.575c-10.149,4.337-18.165,16.535-30.363,11.656-15.335-5.925-32.064-14.987-47.954-5.731-1.969.987-3.921,2.042-5.86,3.083s-3.866,2.066-5.783,3c-8.364,3.834-17.077-2.44-24.784-6.492Z" transform="translate(-3436.903 -769.353)" fill="#e8eaff"/>
            <path id="Trazado_111423" data-name="Trazado 111423" d="M3439.8,849.863c1.25.837,2.6,1.681,4.013,2.435a38.765,38.765,0,0,0,4.418,2.372c1.449.629,2.844,1.674,4.586,1.674,18.6-1.829,36.67-11.931,55.373-7.891a34.9,34.9,0,0,1,8.253,2.9,26.3,26.3,0,0,0,15.043-.414,50.18,50.18,0,0,0,4.751-1.761,51.526,51.526,0,0,0,9.476-3.644c1.521-.734,3.023-1.507,4.528-2.283,7.13-2.241,15.146-10.257,21.593-4.331,2.353,1.306,4.705,2.787,7.493,2.787,1.046,0,2.44-.348,2.788-1.045,9.759-14.985,28.927-13.941,41.449-5.344a59.273,59.273,0,0,1,5.446,3.368,49.942,49.942,0,0,1,5.035,4.068,9.642,9.642,0,0,0,4.594,1.693h7.925V842h-4.358c-1.409,0-3.137,0-5.145-.178a40.951,40.951,0,0,0-9.88-7.707,46.593,46.593,0,0,0-5.651-2.653,18.53,18.53,0,0,0-14.177-3.483,35.313,35.313,0,0,0-7.067,1.429c-7.017,2.108-13.988,5.855-20.958,7.772a23.17,23.17,0,0,1-5.629.826,28.065,28.065,0,0,1-5.485-.341c-8.4-2.228-16.418,1.258-23.388,5.44a14.478,14.478,0,0,1-5.74,3.266c-2.169.739-4.5,1.259-6.725,1.951a30.15,30.15,0,0,1-5.485,1.3,23.884,23.884,0,0,1-11.328-1.131,35.8,35.8,0,0,0-7.734-3.049c-17.1-4.336-33.259,2.068-49.42,8.471-4.88,1.743-9.759-1.394-14.12-3.76-1.621-.889-3.179-1.8-4.646-2.723Z" transform="translate(-3436.91 -764.777)" fill="#e8eaff"/>
            <path id="Trazado_111424" data-name="Trazado 111424" d="M3439.188,838.211a87.115,87.115,0,0,0,7.3,5.2c13.6,7.99,26.5-5.95,39.395-9.435,6.273-1.83,11.762-.131,17.2,2.156,1.814.763,3.622,1.59,5.457,2.393a19.673,19.673,0,0,0,10.755,2.989,20.8,20.8,0,0,0,5.461-.8,24.191,24.191,0,0,1,7.729-3.182c10.9-1.116,20.311-5.995,31.115-8.783a15.869,15.869,0,0,1,6.046.163,22.5,22.5,0,0,1,5.736,2.177c2.506.449,5.294,1.844,6.688.8,1.627-1.335,3.282-2.652,4.966-3.927s3.4-2.508,5.141-3.676c1.569-.882,3.241-1.83,5.037-2.774,8.207-4.261,18.313-9.489,27.375-4.261,1.742,1.045,2.787,2.962,3.934,4.939s2.394,4.013,4.54,5.3a42.639,42.639,0,0,1,6.511,5.446c.7.349,1.743,0,2.457.044h4.486v-9.123a57.464,57.464,0,0,1-5.937-.437c-5.721-3.58-3.622-8.983-3.1-14.4a13.828,13.828,0,0,0-.348-5.357c-16.38,5.925-34.852,5.576-49.6,15.758a32.566,32.566,0,0,1-3.94,2.958,13.475,13.475,0,0,1-4.314,1.846c-4.53,1.044-9.061-2.092-13.94-1.743-2.482.479-4.95,1.008-7.4,1.552-17.177,3.812-33.72,8.424-50.8,2.631-2.439-1.045-4.878,0-7.275.234q-3.528.551-7.024,1.3c-11.654,2.474-23.035,6.395-34.145,10.316-5.576,1.742-10.8-2.788-15.116-6.616-1.677-1.269-3.268-2.62-4.748-3.839a49.891,49.891,0,0,0,.174,5.023C3439.091,835.62,3439.188,838.211,3439.188,838.211Z" transform="translate(-3436.861 -763.315)" fill="#e8eaff"/>
            <path id="Trazado_111425" data-name="Trazado 111425" d="M3439.376,826.632c2.344,2.1,5.172,2.278,8.068,2.018,16.254,1.3,28.692-8.412,42.521-14.6a31.557,31.557,0,0,1,6.191-2.025c2.973-.716,6.11-1.064,8.9.331,13.94,6.273,29.623,12.547,45.306,8.364a20.559,20.559,0,0,0,6.3-3.114c3.808-2.115,7.294-3.857,11.476-4.554,2.266-.349,3.56-1.584,5.028-2.761,2.29-2.119,5.776-3.163,8.913-3.513,19.866-1.045,43.565.349,57.854-16.032.348-.7,2.092-.7,3.137,0,2.092,2.092,2.092,4.879,1.743,7.667-.7,4.531-3.485,9.41-1.395,13.243,2.091,3.485,5.577,1.046,5.577-2.787-.7,0-2.092,0-2.092-.348-1.742-7.319,2.789-16.032-3.485-21.609a3.345,3.345,0,0,0-4.524.987c-12.9,18.53-39.738,16.439-59.6,15.743-5.924,0-11.5,2.091-16.851,4.755-1.5.9-3.03,1.762-4.528,2.691a37.907,37.907,0,0,0-4.347,3.066,44.46,44.46,0,0,1-5.124,2.733,18.678,18.678,0,0,1-5.742,1.393,62.729,62.729,0,0,1-39.035-9.409c-3.485-2.44-8.016-1.395-12.217-.391a51.913,51.913,0,0,0-5.711,1.976,84.258,84.258,0,0,0-21.454,12.7c-4.53,3.833-10.107.347-15.246.561a31.421,31.421,0,0,0-7.059.833c-1.394.349-1.742-1.743-3.049-2.253Z" transform="translate(-3436.867 -762.266)" fill="#e8eaff"/>
            <path id="Trazado_111426" data-name="Trazado 111426" d="M3438.105,812.464a23.029,23.029,0,0,0,6.425,1.408,34.177,34.177,0,0,0,6.657-.2c3.933.054,7.418-.294,10.9-2.036a101.954,101.954,0,0,1,19.451-7.439q3.316-.9,6.675-1.6c4.2-.72,8.726-1.417,12.211.326,12.2,6.621,23.7,13.94,38.336,10.455,1.743-.436,3.725-.959,5.692-1.627,4.764-1.859,13.477-2.9,12.431-9.526-.348-3.136-3.486-5.576-2.44-9.061a2.262,2.262,0,0,1,3.485-1.045c12.2,5.576,25.093,11.5,39.034,10.106,2.788-.348,5.228-2.439,8.016-2.439,14.289-.348,27.881-5.925,34.5-19.517.7-1.045,2.789.348,4.531,1.045a12.706,12.706,0,0,1,4.749,7.406,36.47,36.47,0,0,1,.828,8.974c0,.348,1.394,1.395,1.394,1.046,2.092-6.971,3.486-14.638-.7-20.562a15.534,15.534,0,0,0-4.433-3.6c-5.326-1.28-13.341-8.947-15.781-4.417-3.137,5.925,1.394,16.73-6.97,20.215-9.409,3.834-19.167,3.834-28.927,6.97-13.94,4.879-27.185-5.227-39.771-11.172a12.035,12.035,0,0,0-5.587.472c-7.151,2.065-13.425,7.331-17.375,13.837a10.577,10.577,0,0,1-3.988,4.3c-7.406,4.123-18.2-5.751-26.333-11.27-3.833-2.788-8.364-1.394-12.9-1.258-2.035.243-4.071.49-6.108.717a102.868,102.868,0,0,1-18.387.745c-2.259-.021-4.544-.088-6.867-.2-4.531-.348-8.364,3.834-13.3,4.187a54.758,54.758,0,0,1-6.213.344c0,2.091.335,4.206.472,6.59C3437.925,808.534,3438.105,812.464,3438.105,812.464Z" transform="translate(-3436.77 -761.191)" fill="#e8eaff"/>
            <path id="Trazado_111427" data-name="Trazado 111427" d="M3436.968,784.811c-.007,1.59-.7,4.029.341,5.075s3.485.7,5.229,0q3.212-1.089,6.436-2.028a116.5,116.5,0,0,1,28.693-4.16c2.419-.068,4.784-.05,7.079.038q3.654.347,7.294.7c10.79.222,15.67,9.98,24.034,14.86,3.136,2.091,7.667,2.439,9.41-.7a40.81,40.81,0,0,1,4.022-6.563,30.638,30.638,0,0,1,20.91-11.312c1.978-.182,4,.6,6.146,1.94,9.349,6.873,20.153,14.192,32.351,12.45a294.729,294.729,0,0,0,29.624-5.577c13.593-3.136,3.834-17.077,5.925-24.4,2.091-6.274,13.592,3.833,21.259,4.181-5.229-6.273-13.941-7.318-21.608-8.364-2.44-.7-8.365,0-7.319,2.44,3.485,6.971,10.455,17.426,1.046,21.608-20.911,9.759-45.308,12.2-62.028-6.138a10.364,10.364,0,0,0-7.441-1.4,41.228,41.228,0,0,0-20.319,9.6c-1.948,1.688-3.845,3.46-5.705,5.26a5.75,5.75,0,0,1-6.969,0c-6.274-4.182-10.456-11.5-18.5-12.183-2.5-.3-5.011-.572-7.524-.85-2.058-.153-4.121-.271-6.187-.337a83.433,83.433,0,0,0-18.735,1.31c-2,.28-4.018.6-6.035.952-6.05,1.05-12.09,2.348-18.116,3.694C3438.146,784.893,3436.968,784.811,3436.968,784.811Z" transform="translate(-3436.733 -760.702)" fill="#e8eaff"/>
            <path id="Trazado_111428" data-name="Trazado 111428" d="M3441.548,863.808q2.4,1.3,4.926,2.6c13.024,13.063,33.587,14.108,45.436-1.923a6.075,6.075,0,0,1,4.182-2.091,25.792,25.792,0,0,0,15.115-2.285,36.064,36.064,0,0,0,6.231-3.858c4.487-2.33,9-4.716,13.6-6.605a45.33,45.33,0,0,1,4.689-1.659c13.684-3.367,26.927,2.209,40.52,5.346,6.621,1.743,13.94,1.743,18.819-3.834a190.039,190.039,0,0,1,16.032-17.425c1.394-1.742,2.513-4.522,4.293-5.219,2.858-.7,5.131,2.431,7.208,4.522a40.737,40.737,0,0,1,3.771,6.042c3.274,6.236,5.587,12.752,11.7,16.86a11.042,11.042,0,0,0,4.746.844h3.8v-4s-2.833,0-7.838-.015c-5.863-3.819-8.5-9.87-11.812-15.6a43.624,43.624,0,0,0-3.673-5.526c-2.787-6.273-9.758-8.015-14.845-3.466a28.885,28.885,0,0,0-4.107,4.47c-3.874,5.1-7.36,11.543-11.019,15.028-4.183,4.531-10.108,6.971-16.032,5.577-15.683-3.834-30.67-11.85-46.767-5.119q-3.3,1.152-6.544,2.476t-6.391,2.752a34.462,34.462,0,0,1-5.949,2.667c-3.937,1.1-8.236.129-13.115-4.518-.348-.7-2.09,1.044-3.136,2.091-5.576,7.667-10.456,15.683-19.517,19.168-10.8,4.182-22.654-1.046-30.682-8.269-1.636-.95-3.171-1.865-4.644-2.777Z" transform="translate(-3436.966 -764.55)" fill="#e8eaff"/>
          </g>
        </g>
      </g>
      <path id="Trazado_111430" data-name="Trazado 111430" d="M3662.037,790.019v2.414h-163.12v-2.414a6.1,6.1,0,0,1,6.1-6.1h150.917A6.1,6.1,0,0,1,3662.037,790.019Z" transform="translate(-3.907 -4.504)" fill="#a2a0eb"/>
      <g id="Grupo_61594" data-name="Grupo 61594" transform="translate(3498.236 781.716)">
        <path id="Trazado_111431" data-name="Trazado 111431" d="M3504.422,786.369a2.071,2.071,0,1,0,2.071,2.071A2.07,2.07,0,0,0,3504.422,786.369Z" transform="translate(-3502.351 -786.369)" fill="#fff"/>
        <path id="Trazado_111432" data-name="Trazado 111432" d="M3510.24,786.369a2.071,2.071,0,1,0,2.071,2.071A2.071,2.071,0,0,0,3510.24,786.369Z" transform="translate(-3502.706 -786.369)" fill="#fff"/>
        <path id="Trazado_111433" data-name="Trazado 111433" d="M3516.057,786.369a2.071,2.071,0,1,0,2.071,2.071A2.071,2.071,0,0,0,3516.057,786.369Z" transform="translate(-3503.06 -786.369)" fill="#fff"/>
      </g>
      <path id="Trazado_111434" data-name="Trazado 111434" d="M3640.672,753.086a3.992,3.992,0,0,1-2.205-1.054,5.1,5.1,0,0,1-3.4.138,14.278,14.278,0,0,1-4.143-2.511,32.363,32.363,0,0,0-4.22-2.381c-.764-.412-2.061-1.129-2.39-2.076-.114.069-.236.122-.35.2-.825.534-1.679-.733-.855-1.267,3.313-2.137,7.357-2.015,11.042-1.06a14.042,14.042,0,0,1,4.1,1.61c.694.229,1.381.466,2.068.7,1.953.656,4.121,1.885,4.3,4.19A3.452,3.452,0,0,1,3640.672,753.086Z" transform="translate(-11.441 -1.98)" fill="#ff7e64"/>
      <path id="Trazado_111435" data-name="Trazado 111435" d="M3673.272,757.593V769.73c-4.5,1.487-9.544,3.581-13.26,6.333-8.526,6.316-14.109,15.068-28.418,14.21A19.475,19.475,0,0,0,3617.071,795v-37.4a6.154,6.154,0,0,1,6.154-6.158h43.892A6.155,6.155,0,0,1,3673.272,757.593Z" transform="translate(-11.094 -2.529)" fill="#d4d4ff"/>
      <path id="Trazado_111436" data-name="Trazado 111436" d="M3673.272,770.915v31.753a6.157,6.157,0,0,1-6.155,6.158h-43.892a6.156,6.156,0,0,1-6.154-6.158v-6.485a19.475,19.475,0,0,1,14.523-4.725c14.309.858,19.892-7.894,28.418-14.21C3663.728,774.5,3668.77,772.4,3673.272,770.915Z" transform="translate(-11.094 -3.714)" fill="#a2a0eb"/>
      <path id="Trazado_111437" data-name="Trazado 111437" d="M3646.883,768.7a11.209,11.209,0,1,1-11.209-11.21A11.209,11.209,0,0,1,3646.883,768.7Z" transform="translate(-11.544 -2.897)" fill="#fff"/>
      <path id="Trazado_111438" data-name="Trazado 111438" d="M3532.2,728.824a1.6,1.6,0,0,0-.094-.306c-.913-2.152-3.41.726-2.3,2.393C3530.943,732.615,3532.509,730.331,3532.2,728.824Z" transform="translate(-5.769 -1.088)" fill="#1a1a1a"/>
      <path id="Trazado_111439" data-name="Trazado 111439" d="M3533,735.73c-.71.672-1.87-.321-1.16-.993.565-.534-.839-1.206-1.175-1.434a7.688,7.688,0,0,1-1.656-1.526,7.5,7.5,0,0,1-1.678-4.182,7.766,7.766,0,0,1,.435-3.152,2.189,2.189,0,0,0,1.419.549,2.464,2.464,0,0,0-.091.282,6.093,6.093,0,0,0,.291,4.267,7.408,7.408,0,0,0,2.9,3C3533.276,733.219,3534.062,734.722,3533,735.73Z" transform="translate(-5.634 -0.887)" fill="#ff7e64"/>
      <path id="Trazado_111440" data-name="Trazado 111440" d="M3530.079,740.192a.784.784,0,0,0-.967-.481,5.514,5.514,0,0,1-1.05.141,4.481,4.481,0,0,1-.982-.047,5.339,5.339,0,0,1-2.037-.693.768.768,0,0,0-1.019.356.783.783,0,0,0,.357,1.02,7.2,7.2,0,0,0,5.217.671A.767.767,0,0,0,3530.079,740.192Z" transform="translate(-5.43 -1.774)" fill="#ff7e64"/>
      <path id="Trazado_111441" data-name="Trazado 111441" d="M3521.658,729.671a1.584,1.584,0,0,0-.094-.306c-.913-2.151-3.411.726-2.3,2.393C3520.4,733.462,3521.963,731.178,3521.658,729.671Z" transform="translate(-5.128 -1.14)" fill="#1a1a1a"/>
      <path id="Trazado_111442" data-name="Trazado 111442" d="M3522.847,723.326a6.289,6.289,0,0,0-7.974.644.767.767,0,0,0,.083,1.076.782.782,0,0,0,1.076-.082,4.831,4.831,0,0,1,5.821-.48.789.789,0,0,0,1.077-.082A.77.77,0,0,0,3522.847,723.326Z" transform="translate(-4.867 -0.75)" fill="#1a1a1a"/>
      <path id="Trazado_111443" data-name="Trazado 111443" d="M3532.191,722.09c-1.481-.374-2.542,1.412-2.977,2.663a2.19,2.19,0,0,1-1.419-.549,7.492,7.492,0,0,1,.762-1.55c.84-1.3,2.282-2.48,3.923-2.061C3533.435,720.83,3533.144,722.326,3532.191,722.09Z" transform="translate(-5.664 -0.647)" fill="#1a1a1a"/>
      <path id="Trazado_111444" data-name="Trazado 111444" d="M3509.123,739.734a6.058,6.058,0,0,0-2.67-.464,18.273,18.273,0,0,0-2.565.657.771.771,0,0,0-.482.967.782.782,0,0,0,.968.481l1.112-.314c.183-.051.365-.1.548-.153.1-.026.194-.051.291-.075a4.4,4.4,0,0,1,2.137.276.785.785,0,0,0,1.018-.357A.771.771,0,0,0,3509.123,739.734Z" transform="translate(-4.178 -1.787)" fill="#ff7e64"/>
      <path id="Trazado_111445" data-name="Trazado 111445" d="M3503.5,839.452c.618,2.144-1.29,3.907-2.763,5.144-1.656,1.4-3.6,2.564-4.876,4.357-.748,1.061-1.038,2.336-1.694,3.442a6,6,0,0,1-.679.923,40.765,40.765,0,0,1-8.677,10.547c-3.687,3.2-8.594,6.052-13.554,4.1a7.006,7.006,0,0,1-4.342-4.671c-.68-2.6.115-5.281,1.046-7.708,3.953-10.325,10.577-19.308,15.461-29.183a36.565,36.565,0,0,1,4.617-9.86,35.143,35.143,0,0,1,4.67-5.624c1.481-1.45,3.077-2.607,5.343-2.34,2.35.267,3.166,1.722,2.815,3.76-.374,2.2-2.4,3.786-3.755,5.5-.519.656-1.512,2.741-2.025,3.4,1.55-.61,4.407-2.139,5.987-1.605a3.922,3.922,0,0,1,2.266,5.174,5.637,5.637,0,0,1-1.06,1.84,4.75,4.75,0,0,1,.656.649c1.45,1.747.151,3.573-1.269,5.076-.984,1.053-2.23,2.383-3.253,3.4-.519.511-1.543,1.908-2.024,2.458a17.308,17.308,0,0,1,2.929-1.332A3.984,3.984,0,0,1,3503.5,839.452Z" transform="translate(-1.945 -6.002)" fill="#ffc89e"/>
      <path id="Trazado_111446" data-name="Trazado 111446" d="M3477.156,872.385c-.244.236-.481.472-.725.7l-.45.427c-3.885,3.679-8,7.4-12.829,9.768a18.858,18.858,0,0,1-14.927,1.076,18.262,18.262,0,0,1-10.662-10.173c-1.13-2.725-.794-5.289-1.038-8.226-.229-2.794,5.716-11.348,13.3-15.232,4.824-2.473,11.7-4.922,17.439-7.212.779-.313,1.526-.618,2.251-.923a32.446,32.446,0,0,0-3.686,9.1,20.612,20.612,0,0,0-.283,9.715,10.914,10.914,0,0,0,1.977,4.12,17.646,17.646,0,0,0,3.8,3.259A38.862,38.862,0,0,0,3477.156,872.385Z" transform="translate(-0.112 -8.073)" fill="#5950ee"/>
      <path id="Trazado_111447" data-name="Trazado 111447" d="M3488.668,858.972c-2.213,4.938-5.808,9.089-9.661,12.822a38.8,38.8,0,0,1-5.83-3.6,17.659,17.659,0,0,1-3.8-3.259,10.933,10.933,0,0,1-1.977-4.12,20.615,20.615,0,0,1,.283-9.715,32.465,32.465,0,0,1,3.686-9.1,38.622,38.622,0,0,0,6.517-3.251c2.175-1.5,4.541-4.563,6.869-5.586,2.937-1.282.091,1.839-.687,2.816.153-.191,3.388,2.381,3.7,2.748a13.242,13.242,0,0,1,2.275,4.609A22.389,22.389,0,0,1,3488.668,858.972Z" transform="translate(-1.962 -7.481)" fill="#ffc89e"/>
      <path id="Trazado_111448" data-name="Trazado 111448" d="M3503.762,838.516c-2.169-1.133-4.547-.076-6.355,1.24a28.469,28.469,0,0,0-6.122,6.116c-.58.784.573,1.786,1.158.994a26.616,26.616,0,0,1,6.037-6,5.32,5.32,0,0,1,3.685-1.275,2.052,2.052,0,0,1,1.929,2.37,4.963,4.963,0,0,1-2.366,2.985,22.789,22.789,0,0,0-3.053,2.322,20.7,20.7,0,0,0-4.377,6.971c-.367.905,1,1.577,1.375.663a20,20,0,0,1,3.979-6.456c1.673-1.723,4.141-2.555,5.383-4.7A3.637,3.637,0,0,0,3503.762,838.516Z" transform="translate(-3.433 -7.796)" fill="#ff7e64"/>
      <path id="Trazado_111449" data-name="Trazado 111449" d="M3502.485,834.812c-1.984,1.77-4.105,3.182-5.189,5.708-.39.908-1.763.244-1.374-.656,1.168-2.724,3.374-4.243,5.51-6.136.961-.862,2.251-2.068,2.273-3.457a1.684,1.684,0,0,0-.709-1.4,2.617,2.617,0,0,0-1.03-.45,2.809,2.809,0,0,0-.611-.061,6.981,6.981,0,0,0-3.74,1.625,35.482,35.482,0,0,0-8.975,9.028c-.564.81-1.717-.2-1.16-.992a37.407,37.407,0,0,1,5.869-6.6c1.808-1.6,3.885-3.426,6.2-4.243a5.246,5.246,0,0,1,3.35-.069,3.566,3.566,0,0,1,1.359.825,3.116,3.116,0,0,1,.648.9C3506.018,831.118,3504.088,833.385,3502.485,834.812Z" transform="translate(-3.202 -7.116)" fill="#ff7e64"/>
      <path id="Trazado_111450" data-name="Trazado 111450" d="M3503.966,826.79a4.593,4.593,0,0,1-1.161.9,5.2,5.2,0,0,0-1.129-.412.609.609,0,0,1,.282-.855,3.292,3.292,0,0,0,.649-.458,3.168,3.168,0,0,0,.45-4.45,3.385,3.385,0,0,0-2.6-1.144,6.76,6.76,0,0,0-3.159,1.381,31.274,31.274,0,0,0-9.617,9.783c-.51.832-1.892.167-1.374-.664a32.755,32.755,0,0,1,5.5-6.754,33.235,33.235,0,0,1,3.457-2.832c.076-.054.153-.107.222-.16.145-3.228,3.075-4.655,4.822-7.005.749-1.008,1.321-2.648.367-3.71-1.068-1.2-2.93-.763-4.144-.076a19.213,19.213,0,0,0-5.746,5.4c-3.167,4.288-5.014,9.416-6.793,14.393-.328.923-1.7.252-1.373-.664a84.326,84.326,0,0,1,3.937-9.661,31.106,31.106,0,0,1,4.824-7.182c1.893-2.037,4.639-4.632,7.624-4.487s4.334,2.938,3.289,5.564c-.977,2.434-4.2,3.838-5.068,6.289a10.02,10.02,0,0,1,1.657-.825,4.834,4.834,0,0,1,6.036,2.458A4.771,4.771,0,0,1,3503.966,826.79Z" transform="translate(-2.913 -5.977)" fill="#ff7e64"/>
      <path id="Trazado_111451" data-name="Trazado 111451" d="M3634.567,749.855a5.628,5.628,0,0,1-4.482,1.161,11.465,11.465,0,0,1-1.43-.236c-.276.552-.429,1.439-.933,1.846-1.242.99-5.157,1.136-6.651,1.518-4.531,1.153-6.576,7.868-7.591,12.074,1.965-2.062,6.634-6.96,9.387-7.943,1.729-.616,4.279-1.145,5.8.22,1.844,1.648.471,4.043-.835,5.481a44.309,44.309,0,0,0-4.913,6.357c-1.316,2.12-2.258,4.45-3.59,6.554a7.66,7.66,0,0,1-5.083,3.808,5.239,5.239,0,0,1-5.96-5.384,3.442,3.442,0,0,1-2.517-2.265c-.074.634-.138,1.267-.2,1.892-.089,1.04-1.68.716-1.591-.317a66.857,66.857,0,0,1,1.274-8.542c-.528.114-1.145-.236-.974-.9a39.921,39.921,0,0,1,5.4-12.586c4.3-6.3,11.92-10.7,19.7-8.916C3631.822,744.236,3637.9,746.663,3634.567,749.855Z" transform="translate(-10.297 -2.032)" fill="#ffc89e"/>
      <path id="Trazado_111452" data-name="Trazado 111452" d="M3628.17,746.047c-2.644-2.1-6.408-2.213-9.5-1.149-3.932,1.357-6.865,4.551-9.321,7.773-.592.778.562,1.779,1.159.995,1.986-2.605,4.217-5.163,7.171-6.692,2.789-1.444,6.582-1.828,9.269.066,1.181.832,2.377,2.483,1.687,3.977s-2.617,1.792-4.051,1.937a12.163,12.163,0,0,0-4.682,1.047,8.438,8.438,0,0,0-2.868,2.647c-2.011,2.873-3.4,7.877-4.543,11.148-.319.918,1.529.163,1.852-.766,1.146-3.286,2.032-7.137,4.242-9.913a6.424,6.424,0,0,1,4.337-2.466c1.759-.239,3.53-.2,5.143-1.045C3631.277,751.93,3630.719,748.068,3628.17,746.047Z" transform="translate(-10.614 -2.091)" fill="#ff7e64"/>
      <path id="Trazado_111453" data-name="Trazado 111453" d="M3621.11,759.448a46.193,46.193,0,0,0-4.543,4.731l-4.935,5.314c-.668.719.489,1.714,1.158.995q3.819-4.112,7.637-8.223a8.272,8.272,0,0,1,3.932-2.716c1.176-.334,4.087-1.056,4.371.847.145.966,1.669.874,1.524-.1C3629.626,756.08,3623.352,757.643,3621.11,759.448Z" transform="translate(-10.751 -2.904)" fill="#ff7e64"/>
      <path id="Trazado_111454" data-name="Trazado 111454" d="M3631.554,743.5c-5.882-1.7-12.419-.635-16.9,3.694-.705.682.456,1.673,1.158.995a15.187,15.187,0,0,1,12.738-3.776c1.894.271,4.9.723,6.064,2.453a1.79,1.79,0,0,1-.771,2.824,5.962,5.962,0,0,1-3.643-.15c-.958-.226-1.248,1.272-.292,1.5a7.334,7.334,0,0,0,4.42.1,3.359,3.359,0,0,0,2.216-2.621C3636.932,745.589,3633.85,744.165,3631.554,743.5Z" transform="translate(-10.933 -1.999)" fill="#ff7e64"/>
      <path id="Trazado_111455" data-name="Trazado 111455" d="M3479.545,830.722c-1.179,3.133-2.528,6.25-5.39,8.2-2.638,1.8-5.831,2.631-8.784,3.758a115.364,115.364,0,0,0-19.025,9.372c-.839.513.016,1.778.853,1.266a113.024,113.024,0,0,1,19.971-9.683c2.939-1.081,6.08-2.005,8.571-3.984,2.651-2.107,4.017-5.172,5.18-8.265C3481.262,830.474,3479.891,829.8,3479.545,830.722Z" transform="translate(-0.689 -7.324)" fill="#e8eaff"/>
      <path id="Trazado_111456" data-name="Trazado 111456" d="M3658.734,863.991H3610.92c-.986,0-.881,1.523.1,1.523h47.813C3659.816,865.514,3659.711,863.991,3658.734,863.991Z" transform="translate(-10.678 -9.375)" fill="#d4d4ff"/>
      <path id="Trazado_111457" data-name="Trazado 111457" d="M3624.776,870.149H3610.51c-.985,0-.881,1.523.1,1.523h14.267C3625.858,871.672,3625.754,870.149,3624.776,870.149Z" transform="translate(-10.653 -9.749)" fill="#d4d4ff"/>
      <path id="Trazado_111458" data-name="Trazado 111458" d="M3659.572,870.149h-28.534c-.986,0-.881,1.523.1,1.523h28.533C3660.653,871.672,3660.55,870.149,3659.572,870.149Z" transform="translate(-11.901 -9.749)" fill="#d4d4ff"/>
      <path id="Trazado_111459" data-name="Trazado 111459" d="M3657.6,876.718H3611.33c-.985,0-.881,1.524.1,1.524H3657.7C3658.683,878.242,3658.58,876.718,3657.6,876.718Z" transform="translate(-10.703 -10.149)" fill="#d4d4ff"/>
      <path id="Trazado_111460" data-name="Trazado 111460" d="M3657.91,883.492h-46.271c-.986,0-.881,1.524.1,1.524h46.271C3658.991,885.016,3658.887,883.492,3657.91,883.492Z" transform="translate(-10.722 -10.561)" fill="#d4d4ff"/>
      <path id="Trazado_111461" data-name="Trazado 111461" d="M3597.811,846.952h-31.232c-.985,0-.881,1.523.1,1.523h31.233C3598.894,848.475,3598.791,846.952,3597.811,846.952Z" transform="translate(-7.981 -8.338)" fill="#d4d4ff"/>
      <path id="Trazado_111462" data-name="Trazado 111462" d="M3576.122,853.419h-9.543c-.985,0-.881,1.523.1,1.523h9.543C3577.2,854.942,3577.1,853.419,3576.122,853.419Z" transform="translate(-7.981 -8.732)" fill="#d4d4ff"/>
      <path id="Trazado_111463" data-name="Trazado 111463" d="M3598.692,853.727h-17.641c-.985,0-.881,1.523.1,1.523h17.641C3599.773,855.25,3599.671,853.727,3598.692,853.727Z" transform="translate(-8.861 -8.75)" fill="#d4d4ff"/>
      <path id="Trazado_111464" data-name="Trazado 111464" d="M3598.39,860.39h-31.812c-.985,0-.881,1.523.1,1.523h31.812C3599.472,861.913,3599.368,860.39,3598.39,860.39Z" transform="translate(-7.981 -9.156)" fill="#d4d4ff"/>
      <g id="Grupo_61595" data-name="Grupo 61595" transform="translate(3650.715 724.515)">
        <path id="Trazado_111465" data-name="Trazado 111465" d="M3669.221,727.507a2.2,2.2,0,0,0-.622-1.32,2.547,2.547,0,0,0-2.5-.612,2.022,2.022,0,0,0-.623.314.9.9,0,0,0-.35.508c-.021.074-.034.15-.052.225a.747.747,0,0,0-.159.207,2.317,2.317,0,0,0,.512,2.595,2.078,2.078,0,0,0,2.582.364A2.448,2.448,0,0,0,3669.221,727.507Zm-1.517.237a1.615,1.615,0,0,1-.135.4,1.839,1.839,0,0,1-.142.181c-1-.06-1.04-.11-1.073-.164a1.094,1.094,0,0,1-.094-.224c.076-.267.163-.391.2-.549l.081-.347c.669.025.722.049.772.074.069.036.231.165.019,0,.053.04.107.076.157.12.066.057.186.234.024.01.039.053.081.1.116.159C3667.7,727.731,3667.7,727.738,3667.7,727.743Z" transform="translate(-3664.706 -725.464)" fill="#e8eaff"/>
      </g>
      <path id="Trazado_111466" data-name="Trazado 111466" d="M3648.843,733.388a17.11,17.11,0,0,0-1.639,7.957.764.764,0,0,0,1.524-.1,15.427,15.427,0,0,1,1.49-7.2A.764.764,0,0,0,3648.843,733.388Z" transform="translate(-12.926 -1.405)" fill="#e8eaff"/>
      <path id="Trazado_111467" data-name="Trazado 111467" d="M3654.683,739.042a.778.778,0,0,0-1.076.082l-2.862,3.209a.763.763,0,0,0,1.158.994q1.432-1.6,2.862-3.208A.772.772,0,0,0,3654.683,739.042Z" transform="translate(-13.131 -1.764)" fill="#e8eaff"/>
      <path id="Trazado_111468" data-name="Trazado 111468" d="M3662.052,744.733l-9.252.606a.764.764,0,0,0,.1,1.524l9.253-.607A.764.764,0,0,0,3662.052,744.733Z" transform="translate(-13.225 -2.121)" fill="#e8eaff"/>
    </g>
    <g id="Grupo_61598" data-name="Grupo 61598" transform="translate(834.057 7437.875)">
      <circle id="Elipse_4038" data-name="Elipse 4038" cx="21.943" cy="21.943" r="21.943" fill="#fff"/>
      <g id="Grupo_53722" data-name="Grupo 53722" transform="translate(5.684 5.684)">
        <circle id="Elipse_4039" data-name="Elipse 4039" cx="16.26" cy="16.26" r="16.26" fill="#bcd533"/>
        <g id="Grupo_53721" data-name="Grupo 53721" transform="translate(10.477 2.758)">
          <text id="_1" data-name="1" transform="translate(0 18)" fill="#12263f" font-size="19" font-family="Roboto-Black, Roboto" font-weight="800"><tspan x="0" y="0">1</tspan></text>
        </g>
      </g>
    </g>
    <g id="Grupo_61599" data-name="Grupo 61599" transform="translate(1031.057 7623.875)">
      <circle id="Elipse_4038-2" data-name="Elipse 4038" cx="21.943" cy="21.943" r="21.943" fill="#fff"/>
      <g id="Grupo_53722-2" data-name="Grupo 53722" transform="translate(5.684 5.684)">
        <circle id="Elipse_4039-2" data-name="Elipse 4039" cx="16.26" cy="16.26" r="16.26" fill="#ff4848"/>
        <g id="Grupo_53721-2" data-name="Grupo 53721" transform="translate(10.477 2.758)">
          <text id="_2" data-name="2" transform="translate(0 18)" fill="#12263f" font-size="19" font-family="Roboto-Black, Roboto" font-weight="800"><tspan x="0" y="0">2</tspan></text>
        </g>
      </g>
    </g>
    <g id="Grupo_61600" data-name="Grupo 61600" transform="translate(974.057 7880.057)">
      <circle id="Elipse_4038-3" data-name="Elipse 4038" cx="21.943" cy="21.943" r="21.943" fill="#fff"/>
      <g id="Grupo_53722-3" data-name="Grupo 53722" transform="translate(5.684 5.684)">
        <circle id="Elipse_4039-3" data-name="Elipse 4039" cx="16.26" cy="16.26" r="16.26" fill="#ffcf10"/>
        <g id="Grupo_53721-3" data-name="Grupo 53721" transform="translate(10.477 2.758)">
          <text id="_3" data-name="3" transform="translate(0 18)" fill="#12263f" font-size="19" font-family="Roboto-Black, Roboto" font-weight="800"><tspan x="0" y="0">3</tspan></text>
        </g>
      </g>
    </g>
    <g id="Grupo_61601" data-name="Grupo 61601" transform="translate(524.057 7776.057)">
      <circle id="Elipse_4038-4" data-name="Elipse 4038" cx="21.943" cy="21.943" r="21.943" fill="#fff"/>
      <g id="Grupo_53722-4" data-name="Grupo 53722" transform="translate(5.684 5.684)">
        <circle id="Elipse_4039-4" data-name="Elipse 4039" cx="16.26" cy="16.26" r="16.26" fill="#6fe8d1"/>
        <g id="Grupo_53721-4" data-name="Grupo 53721" transform="translate(10.477 2.758)">
          <text id="_5" data-name="5" transform="translate(0 18)" fill="#12263f" font-size="19" font-family="Roboto-Black, Roboto" font-weight="800"><tspan x="0" y="0">5</tspan></text>
        </g>
      </g>
    </g>
    <g id="Grupo_61603" data-name="Grupo 61603" transform="translate(587.057 7515.057)">
      <circle id="Elipse_4038-5" data-name="Elipse 4038" cx="21.943" cy="21.943" r="21.943" fill="#fff"/>
      <g id="Grupo_53722-5" data-name="Grupo 53722" transform="translate(5.684 5.684)">
        <circle id="Elipse_4039-5" data-name="Elipse 4039" cx="16.26" cy="16.26" r="16.26" fill="#9d7deb"/>
        <g id="Grupo_53721-5" data-name="Grupo 53721" transform="translate(10.477 2.758)">
          <text id="_6" data-name="6" transform="translate(0 18)" fill="#12263f" font-size="19" font-family="Roboto-Black, Roboto" font-weight="800"><tspan x="0" y="0">6</tspan></text>
        </g>
      </g>
    </g>
    <g id="Grupo_61602" data-name="Grupo 61602" transform="translate(727.057 7958.057)">
      <circle id="Elipse_4038-6" data-name="Elipse 4038" cx="21.943" cy="21.943" r="21.943" fill="#fff"/>
      <g id="Grupo_53722-6" data-name="Grupo 53722" transform="translate(5.684 5.684)">
        <circle id="Elipse_4039-6" data-name="Elipse 4039" cx="16.26" cy="16.26" r="16.26" fill="#f8a62a"/>
        <g id="Grupo_53721-6" data-name="Grupo 53721" transform="translate(10.477 2.758)">
          <text id="_4" data-name="4" transform="translate(0 18)" fill="#12263f" font-size="19" font-family="Roboto-Black, Roboto" font-weight="800"><tspan x="0" y="0">4</tspan></text>
        </g>
      </g>
    </g>
  </g>
</svg>
