<svg xmlns="http://www.w3.org/2000/svg" width="167" height="167" viewBox="0 0 167 167">
  <g id="Grupo_68920" data-name="Grupo 68920" transform="translate(-249 -3467)">
    <rect id="Rectángulo_6159" data-name="Rectángulo 6159" width="167" height="167" transform="translate(249 3467)" fill="none"/>
    <g id="store" transform="translate(259.996 3475.169)">
      <g id="Color" transform="translate(6.447 4.746)">
        <g id="Grupo_68886" data-name="Grupo 68886">
          <path id="Trazado_115844" data-name="Trazado 115844" d="M8,23H125.436v92.97H8Z" transform="translate(-0.66 25.198)" fill="#e9f1f2"/>
          <path id="Trazado_115845" data-name="Trazado 115845" d="M88.737,98.844a58.711,58.711,0,0,1-58.7-58.165,7.309,7.309,0,0,0,12.218-5.446,7.34,7.34,0,1,0,14.68,0,7.34,7.34,0,0,0,14.68,0,7.34,7.34,0,1,0,14.68,0,7.34,7.34,0,1,0,14.68,0,7.34,7.34,0,1,0,14.68,0,7.339,7.339,0,0,0,7.34,7.34,7.246,7.246,0,0,0,2.447-.45V23H8v92.97H125.436V98.844Z" transform="translate(-0.66 25.198)" fill="#d0d8da"/>
          <path id="Trazado_115846" data-name="Trazado 115846" d="M13,43H42.359V87.039H13Z" transform="translate(6.573 54.129)" fill="#ade8f4"/>
          <path id="Trazado_115847" data-name="Trazado 115847" d="M30,37H83.825V85.932H30Z" transform="translate(31.165 45.45)" fill="#ade8f4"/>
          <path id="Trazado_115848" data-name="Trazado 115848" d="M13,37H42.359V51.68H13Z" transform="translate(6.573 45.45)" fill="#ff7373"/>
          <path id="Trazado_115849" data-name="Trazado 115849" d="M42.359,54.964V87.039H13V43H32.157A59.636,59.636,0,0,0,42.359,54.964Z" transform="translate(6.573 54.129)" fill="#48cae4"/>
          <path id="Trazado_115850" data-name="Trazado 115850" d="M83.825,57.862V65.2H30V51.33a58.166,58.166,0,0,0,26.912,6.532Z" transform="translate(31.165 66.179)" fill="#48cae4"/>
          <path id="Trazado_115851" data-name="Trazado 115851" d="M32.157,51.68H13V37H25.355A57.33,57.33,0,0,0,32.157,51.68Z" transform="translate(6.573 45.45)" fill="#ef5350"/>
          <path id="Trazado_115852" data-name="Trazado 115852" d="M120.543,15H12.893A4.892,4.892,0,0,0,8,19.893v4.893H125.436V19.893A4.892,4.892,0,0,0,120.543,15Z" transform="translate(-0.66 13.625)" fill="#d0d8da"/>
          <path id="Trazado_115853" data-name="Trazado 115853" d="M96.527,15H36.909a7.316,7.316,0,0,1-6.89,4.893H8v4.893H125.436V19.893H103.417A7.316,7.316,0,0,1,96.527,15Z" transform="translate(-0.66 13.625)" fill="#b8bebf"/>
          <g id="Grupo_68884" data-name="Grupo 68884" transform="translate(36.699)">
            <g id="Grupo_68883" data-name="Grupo 68883">
              <path id="Trazado_115854" data-name="Trazado 115854" d="M43.58,30.09l-4.957,8.438a19.575,19.575,0,0,1-6.965-26.79L36.615,3.3A19.572,19.572,0,0,1,43.58,30.09Z" transform="translate(-7.038 -3.3)" fill="#52b788"/>
              <path id="Trazado_115855" data-name="Trazado 115855" d="M32.619,11.514a9.713,9.713,0,0,1-2.9-2.6A19.56,19.56,0,0,0,38.613,31.15l4.957-8.438A19.486,19.486,0,0,0,45.747,8.4a9.771,9.771,0,0,1-13.128,3.112Z" transform="translate(-7.025 4.08)" fill="#40916c"/>
              <path id="Trazado_115856" data-name="Trazado 115856" d="M41.786,30.573H32A19.574,19.574,0,0,1,51.573,11h9.786A19.574,19.574,0,0,1,41.786,30.573Z" transform="translate(-2.641 7.839)" fill="#95d5b2"/>
              <path id="Trazado_115857" data-name="Trazado 115857" d="M44.233,20.786A9.729,9.729,0,0,1,37,17.54a19.48,19.48,0,0,0-5,13.033h9.786A19.574,19.574,0,0,0,61.359,11h-.193A19.55,19.55,0,0,1,44.233,20.786Z" transform="translate(-2.641 7.839)" fill="#52b788"/>
              <path id="Trazado_115858" data-name="Trazado 115858" d="M44.466,33.466h9.786A24.465,24.465,0,0,0,29.786,9H20A24.465,24.465,0,0,0,44.466,33.466Z" transform="translate(-20 4.946)" fill="#95d5b2"/>
              <path id="Trazado_115859" data-name="Trazado 115859" d="M54.2,31.826c-.25-5.661-5.38-9.463-11-8.766a9.3,9.3,0,0,1-1.2.076A24.44,24.44,0,0,1,20.019,9.376,24.448,24.448,0,0,0,44.438,32.922h9.786C54.225,32.555,54.217,32.19,54.2,31.826Z" transform="translate(-19.973 5.489)" fill="#52b788"/>
            </g>
          </g>
          <path id="Trazado_115860" data-name="Trazado 115860" d="M137.116,28.786H5V23.893A4.892,4.892,0,0,1,9.893,19H132.222a4.892,4.892,0,0,1,4.893,4.893Z" transform="translate(-5 19.411)" fill="#e9f1f2"/>
          <circle id="Elipse_7956" data-name="Elipse 7956" cx="4.893" cy="4.893" r="4.893" transform="translate(39.145 114.256)" fill="#d0d8da"/>
          <path id="Trazado_115861" data-name="Trazado 115861" d="M52.088,47.289l-18.007,7.67,1.857,1.074A21.184,21.184,0,0,1,46.253,71.048h9l-.157-.511A69.827,69.827,0,0,1,52.088,47.289Z" transform="translate(37.068 60.334)" fill="#52b788"/>
          <path id="Trazado_115862" data-name="Trazado 115862" d="M55.1,70.536a69.954,69.954,0,0,1-3.012-23.247l-18.007,7.67,1.857,1.074A21.283,21.283,0,0,1,38.8,58.059a4.83,4.83,0,0,0,3.76.015,4.713,4.713,0,0,0,.555-.313,4.867,4.867,0,0,0,3,1.054,4.554,4.554,0,0,0,.734-.083,21.157,21.157,0,0,1,1.725,4.891c-1.781-.076-3.55-.206-5.287-.433a21.156,21.156,0,0,1,2.965,7.856h9Z" transform="translate(37.068 60.334)" fill="#40916c"/>
          <path id="Trazado_115863" data-name="Trazado 115863" d="M51.078,49.137a4.883,4.883,0,0,0-9.439-2.442,4.871,4.871,0,0,0-4.974,8.34,4.885,4.885,0,1,0,5.862,6.227,4.833,4.833,0,0,0,6.753-2.877,4.877,4.877,0,1,0,1.8-9.248Z" transform="translate(35.502 54.581)" fill="#95d5b2"/>
          <path id="Trazado_115864" data-name="Trazado 115864" d="M58.573,49H39l1.287,1.718a21.187,21.187,0,0,1,3.606,17.855H53.68a21.187,21.187,0,0,1,3.606-17.855Z" transform="translate(44.184 62.809)" fill="#95d5b2"/>
          <path id="Trazado_115865" data-name="Trazado 115865" d="M39,49l1.287,1.715a21.194,21.194,0,0,1,3.606,17.858H53.68a20.414,20.414,0,0,1-.431-2.381,21.431,21.431,0,0,1-.071-4.959H48.192a6.012,6.012,0,0,1,.049-2.7l.546-2.192a4.857,4.857,0,0,0,3.67-1.688A4.951,4.951,0,0,0,54.426,56a21.1,21.1,0,0,1,2.86-5.285L58.573,49Z" transform="translate(44.184 62.809)" fill="#52b788"/>
          <path id="Trazado_115866" data-name="Trazado 115866" d="M19.68,19H9.893A4.892,4.892,0,0,0,5,23.893v4.893H137.116V23.893H24.573A4.892,4.892,0,0,1,19.68,19Z" transform="translate(-5 19.411)" fill="#d0d8da"/>
          <g id="Grupo_68885" data-name="Grupo 68885" transform="translate(0 48.198)">
            <path id="Trazado_115867" data-name="Trazado 115867" d="M12.34,37.68A7.339,7.339,0,0,1,5,30.34V23H19.68v7.34A7.339,7.339,0,0,1,12.34,37.68Z" transform="translate(-5 -23)" fill="#48cae4"/>
            <path id="Trazado_115868" data-name="Trazado 115868" d="M18.34,37.68A7.339,7.339,0,0,1,11,30.34V23H25.68v7.34A7.339,7.339,0,0,1,18.34,37.68Z" transform="translate(3.68 -23)" fill="#ff7373"/>
            <path id="Trazado_115869" data-name="Trazado 115869" d="M24.34,37.68A7.339,7.339,0,0,1,17,30.34V23H31.68v7.34A7.339,7.339,0,0,1,24.34,37.68Z" transform="translate(12.359 -23)" fill="#48cae4"/>
            <path id="Trazado_115870" data-name="Trazado 115870" d="M30.34,37.68A7.339,7.339,0,0,1,23,30.34V23H37.68v7.34A7.339,7.339,0,0,1,30.34,37.68Z" transform="translate(21.039 -23)" fill="#ff7373"/>
            <path id="Trazado_115871" data-name="Trazado 115871" d="M36.34,37.68A7.339,7.339,0,0,1,29,30.34V23H43.68v7.34A7.339,7.339,0,0,1,36.34,37.68Z" transform="translate(29.718 -23)" fill="#48cae4"/>
            <path id="Trazado_115872" data-name="Trazado 115872" d="M42.34,37.68A7.339,7.339,0,0,1,35,30.34V23H49.68v7.34A7.339,7.339,0,0,1,42.34,37.68Z" transform="translate(38.398 -23)" fill="#ff7373"/>
            <path id="Trazado_115873" data-name="Trazado 115873" d="M48.34,37.68A7.339,7.339,0,0,1,41,30.34V23H55.68v7.34A7.339,7.339,0,0,1,48.34,37.68Z" transform="translate(47.077 -23)" fill="#48cae4"/>
            <path id="Trazado_115874" data-name="Trazado 115874" d="M54.34,37.68A7.339,7.339,0,0,1,47,30.34V23H61.68v7.34A7.339,7.339,0,0,1,54.34,37.68Z" transform="translate(55.757 -23)" fill="#ff7373"/>
            <path id="Trazado_115875" data-name="Trazado 115875" d="M60.34,37.68A7.339,7.339,0,0,1,53,30.34V23H67.68v7.34A7.339,7.339,0,0,1,60.34,37.68Z" transform="translate(64.436 -23)" fill="#48cae4"/>
            <path id="Trazado_115876" data-name="Trazado 115876" d="M65.233,35.233a7.339,7.339,0,0,1-7.34-7.34H67.68V23H53v7.34a7.314,7.314,0,0,0,12.825,4.834C65.624,35.189,65.436,35.233,65.233,35.233Z" transform="translate(64.436 -23)" fill="#00b4d8"/>
            <path id="Trazado_115877" data-name="Trazado 115877" d="M59.233,35.233a7.339,7.339,0,0,1-7.34-7.34H61.68V23H47v7.34a7.314,7.314,0,0,0,12.825,4.834C59.624,35.189,59.436,35.233,59.233,35.233Z" transform="translate(55.757 -23)" fill="#ef5350"/>
            <path id="Trazado_115878" data-name="Trazado 115878" d="M53.233,35.233a7.339,7.339,0,0,1-7.34-7.34H55.68V23H41v7.34a7.314,7.314,0,0,0,12.825,4.834C53.624,35.189,53.436,35.233,53.233,35.233Z" transform="translate(47.077 -23)" fill="#00b4d8"/>
            <path id="Trazado_115879" data-name="Trazado 115879" d="M47.233,35.233a7.339,7.339,0,0,1-7.34-7.34H49.68V23H35v7.34a7.314,7.314,0,0,0,12.825,4.834C47.624,35.189,47.436,35.233,47.233,35.233Z" transform="translate(38.398 -23)" fill="#ef5350"/>
            <path id="Trazado_115880" data-name="Trazado 115880" d="M41.233,35.233a7.339,7.339,0,0,1-7.34-7.34H43.68V23H29v7.34a7.314,7.314,0,0,0,12.825,4.834C41.624,35.189,41.436,35.233,41.233,35.233Z" transform="translate(29.718 -23)" fill="#00b4d8"/>
            <path id="Trazado_115881" data-name="Trazado 115881" d="M35.233,35.233a7.339,7.339,0,0,1-7.34-7.34H37.68V23H23v7.34a7.314,7.314,0,0,0,12.825,4.834C35.624,35.189,35.436,35.233,35.233,35.233Z" transform="translate(21.039 -23)" fill="#ef5350"/>
            <path id="Trazado_115882" data-name="Trazado 115882" d="M29.233,35.233a7.339,7.339,0,0,1-7.34-7.34H31.68V23H17v7.34a7.314,7.314,0,0,0,12.825,4.834C29.624,35.189,29.436,35.233,29.233,35.233Z" transform="translate(12.359 -23)" fill="#00b4d8"/>
            <path id="Trazado_115883" data-name="Trazado 115883" d="M17.233,35.233a7.339,7.339,0,0,1-7.34-7.34H19.68V23H5v7.34a7.314,7.314,0,0,0,12.825,4.834C17.624,35.189,17.436,35.233,17.233,35.233Z" transform="translate(-5 -23)" fill="#00b4d8"/>
            <path id="Trazado_115884" data-name="Trazado 115884" d="M23.233,35.233a7.339,7.339,0,0,1-7.34-7.34H25.68V23H11v7.34a7.314,7.314,0,0,0,12.825,4.834C23.624,35.189,23.436,35.233,23.233,35.233Z" transform="translate(3.68 -23)" fill="#ef5350"/>
          </g>
          <circle id="Elipse_7957" data-name="Elipse 7957" cx="2.447" cy="2.447" r="2.447" transform="translate(41.592 116.702)" fill="#b8bebf"/>
          <path id="Trazado_115885" data-name="Trazado 115885" d="M55.9,51.3a4.881,4.881,0,0,0-4.825-2.946,4.865,4.865,0,0,0-1.473-4.5,4.8,4.8,0,0,1-2.126,2.3,5.077,5.077,0,0,1-1.549.5,4.25,4.25,0,0,0-2.953,2.028,4.827,4.827,0,0,1-8.137.276,4.782,4.782,0,0,0,1.828,5.3,4.885,4.885,0,1,0,5.862,6.227,4.833,4.833,0,0,0,6.753-2.877,4.874,4.874,0,0,0,6.62-6.3Z" transform="translate(35.505 55.362)" fill="#52b788"/>
          <path id="Trazado_115886" data-name="Trazado 115886" d="M59.18,51.633a4.881,4.881,0,0,0-7.724-5.945,4.872,4.872,0,0,0-7.846,5.725,4.592,4.592,0,0,0-.717-.073,4.893,4.893,0,1,0,3.67,8.1,4.833,4.833,0,0,0,7.34,0,4.877,4.877,0,1,0,5.277-7.8Z" transform="translate(42.737 55.576)" fill="#bbefc1"/>
          <path id="Trazado_115887" data-name="Trazado 115887" d="M61.761,55.423a4.913,4.913,0,0,1-5.275-.039,5.041,5.041,0,0,1-1.2-1.106A4.239,4.239,0,0,0,52.078,52.7a4.856,4.856,0,0,1-3.924-2.173,4.92,4.92,0,0,1-.069-5.3l1-1.025a4.813,4.813,0,0,0-1.294-.2,4.87,4.87,0,0,0-4.176,7.413,4.592,4.592,0,0,0-.717-.073,4.893,4.893,0,1,0,3.67,8.1,4.833,4.833,0,0,0,7.34,0,4.836,4.836,0,0,0,8.362-4.463,4.909,4.909,0,0,1-.5.448Z" transform="translate(42.737 55.576)" fill="#95d5b2"/>
          <path id="Trazado_115888" data-name="Trazado 115888" d="M30,37v4.893H78.932V85.932h4.893V37Z" transform="translate(31.165 45.45)" fill="#48cae4"/>
        </g>
      </g>
      <g id="Outline_copy" transform="translate(4 2.3)">
        <g id="Grupo_68887" data-name="Grupo 68887">
          <path id="Trazado_115889" data-name="Trazado 115889" d="M133.669,40.711V38.264a7.349,7.349,0,0,0-7.34-7.34h-23.3a21.863,21.863,0,0,0,1.284-7.34,2.447,2.447,0,1,0-4.893,0A17.146,17.146,0,0,1,82.291,40.711h-.137l8.737-5.243a2.447,2.447,0,0,0-2.518-4.2l-9.3,5.581a26.668,26.668,0,0,0-1.054-3.379,16.937,16.937,0,0,1,14.061-7.443,2.447,2.447,0,0,0,0-4.893,21.786,21.786,0,0,0-7.293,1.306A22.094,22.094,0,0,0,73.963,2.637a2.447,2.447,0,0,0-3.349.871l-4.957,8.438A21.747,21.747,0,0,0,63.2,18.29a26.739,26.739,0,0,0-10.263-2.045H43.145A2.447,2.447,0,0,0,40.7,18.692a26.737,26.737,0,0,0,2.97,12.233H18.68a7.349,7.349,0,0,0-7.34,7.34v2.447A7.349,7.349,0,0,0,4,48.051V60.284a9.778,9.778,0,0,0,7.34,9.439v76.192a2.447,2.447,0,0,0,2.447,2.447H131.222a2.446,2.446,0,0,0,2.447-2.447V77.41a2.447,2.447,0,1,0-4.893,0v66.058H57.825V87.2a2.447,2.447,0,0,0-2.447-2.447H26.019A2.447,2.447,0,0,0,23.573,87.2v48.932a2.447,2.447,0,0,0,4.893,0V104.322H52.932v12.683a7.257,7.257,0,0,0-2.447-.45,7.34,7.34,0,1,0,0,14.68,7.258,7.258,0,0,0,2.447-.45v12.683h-36.7V69.723a9.727,9.727,0,0,0,4.893-3.034,9.657,9.657,0,0,0,14.68,0,9.657,9.657,0,0,0,14.68,0,9.657,9.657,0,0,0,14.68,0,9.657,9.657,0,0,0,14.68,0,9.657,9.657,0,0,0,14.68,0,9.657,9.657,0,0,0,14.68,0,9.657,9.657,0,0,0,14.68,0,9.746,9.746,0,0,0,17.126-6.405V48.051A7.349,7.349,0,0,0,133.669,40.711ZM28.466,99.429V89.643H52.932v9.786Zm22.019,26.912a2.447,2.447,0,1,1,2.447-2.447A2.451,2.451,0,0,1,50.485,126.341Zm50.1-90.524h25.743a2.449,2.449,0,0,1,2.447,2.447v2.447H96.1A22.167,22.167,0,0,0,100.586,35.818ZM69.877,14.425,73.5,8.25a17.171,17.171,0,0,1,6.011,16.9,22.322,22.322,0,0,0-2.006,1.588l-.093-6.523a2.447,2.447,0,0,0-4.893.069l.066,4.546A27.109,27.109,0,0,0,67.724,20.7a16.82,16.82,0,0,1,2.153-6.273ZM52.932,21.138a22.032,22.032,0,0,1,20.04,12.952,33.271,33.271,0,0,0-16.583-7.924l-.609-.1a2.447,2.447,0,0,0-.8,4.827l.609.1A28.365,28.365,0,0,1,72.6,40.711H67.611A22.051,22.051,0,0,1,45.727,21.138ZM8.893,48.051A2.451,2.451,0,0,1,11.34,45.6H30.912a2.447,2.447,0,1,0,0-4.893H16.233V38.264a2.451,2.451,0,0,1,2.447-2.447H46.867a27.162,27.162,0,0,0,5.319,4.893H40.7a2.447,2.447,0,1,0,0,4.893h92.97a2.449,2.449,0,0,1,2.447,2.447V50.5H8.893Zm4.893,17.126a4.9,4.9,0,0,1-4.893-4.893V55.39H18.68v4.893A4.9,4.9,0,0,1,13.786,65.177Zm14.68,0a4.9,4.9,0,0,1-4.893-4.893V55.39h9.786v4.893A4.9,4.9,0,0,1,28.466,65.177Zm14.68,0a4.9,4.9,0,0,1-4.893-4.893V55.39h9.786v4.893A4.9,4.9,0,0,1,43.145,65.177Zm14.68,0a4.9,4.9,0,0,1-4.893-4.893V55.39h9.786v4.893A4.9,4.9,0,0,1,57.825,65.177Zm14.68,0a4.9,4.9,0,0,1-4.893-4.893V55.39H77.4v4.893A4.9,4.9,0,0,1,72.5,65.177Zm14.68,0a4.9,4.9,0,0,1-4.893-4.893V55.39h9.786v4.893A4.9,4.9,0,0,1,87.184,65.177Zm14.68,0a4.9,4.9,0,0,1-4.893-4.893V55.39h9.786v4.893A4.9,4.9,0,0,1,101.863,65.177Zm14.68,0a4.9,4.9,0,0,1-4.893-4.893V55.39h9.786v4.893A4.9,4.9,0,0,1,116.543,65.177Zm19.573-4.893a4.893,4.893,0,0,1-9.786,0V55.39h9.786Z" transform="translate(-4 -2.3)" fill="#3a3c07"/>
          <path id="Trazado_115890" data-name="Trazado 115890" d="M31.447,45.786A2.447,2.447,0,0,0,29,48.233V87.378a2.447,2.447,0,0,0,2.447,2.447H85.271a2.446,2.446,0,0,0,2.447-2.447V38.447A2.446,2.446,0,0,0,85.271,36H31.447a2.447,2.447,0,0,0,0,4.893H82.825V84.932H70.164a18.755,18.755,0,0,1,1.267-9.872,7.3,7.3,0,0,0,3.851-12.876,7.324,7.324,0,0,0-10.807-8.059,7.153,7.153,0,0,0-6.951-.188,7.335,7.335,0,0,0-8.345-1.906A7.257,7.257,0,0,0,46.2,54.389a7.327,7.327,0,0,0-7.643,10.146c.054.127.113.254.174.379a7.295,7.295,0,0,0,7.024,12.421,18.746,18.746,0,0,1,4.737,7.6h-16.6v-36.7a2.447,2.447,0,0,0-2.447-2.447ZM61.28,84.932a23.612,23.612,0,0,0-1.267-10.608,7.377,7.377,0,0,0,6.476,0,23.612,23.612,0,0,0-1.267,10.608Zm1.353-26.061a2.525,2.525,0,0,0,3.685,0,2.416,2.416,0,0,1,1.828-.851,2.449,2.449,0,0,1,2.447,2.447,2.423,2.423,0,0,1-.418,1.368,2.449,2.449,0,0,0,1.218,3.682,2.434,2.434,0,0,1-.8,4.737,2.416,2.416,0,0,1-1.828-.851,2.446,2.446,0,0,0-3.685,0,2.387,2.387,0,0,1-3.655,0,2.525,2.525,0,0,0-3.685,0,2.416,2.416,0,0,1-1.828.851,2.449,2.449,0,0,1-2.447-2.447,2.378,2.378,0,0,1,2.794-2.4,2.445,2.445,0,0,0,2.464-3.68,2.425,2.425,0,0,1,2.082-3.7,2.416,2.416,0,0,1,1.828.851ZM41.429,71.29a2.45,2.45,0,0,1,1.294-3.21,3.41,3.41,0,0,1,.357-.1,2.446,2.446,0,0,0,.8-4.35,2.406,2.406,0,0,1-.825-1.01,2.425,2.425,0,0,1,3.305-3.141,2.446,2.446,0,0,0,3.389-1.446,2.429,2.429,0,0,1,1.348-1.5,2.387,2.387,0,0,1,2.975,1.025,7.28,7.28,0,0,0-.609,2.911c0,.139,0,.276.012.413a7.357,7.357,0,0,0-4.905,6.926,7.272,7.272,0,0,0,.215,1.691,2.393,2.393,0,0,0-1.434.1,2.439,2.439,0,0,0-1.368,1.49,2.428,2.428,0,0,1-4.558.208Zm8.59,3.433a7.2,7.2,0,0,0,2.684-.35,7.252,7.252,0,0,0,2.371.687,18.752,18.752,0,0,1,1.267,9.872h-.749a23.607,23.607,0,0,0-5.573-10.21Z" transform="translate(32.165 46.449)" fill="#3a3c07"/>
        </g>
      </g>
    </g>
  </g>
</svg>
