<svg xmlns="http://www.w3.org/2000/svg" width="34.48" height="39.406" viewBox="0 0 34.48 39.406">
  <path id="shopping-bag-regular" d="M27.092,9.852a9.852,9.852,0,1,0-19.7,0H0v23.4a6.157,6.157,0,0,0,6.157,6.157H28.323a6.157,6.157,0,0,0,6.157-6.157V9.852ZM17.24,3.694A6.164,6.164,0,0,1,23.4,9.852H11.083A6.164,6.164,0,0,1,17.24,3.694ZM30.786,33.249a2.466,2.466,0,0,1-2.463,2.463H6.157a2.466,2.466,0,0,1-2.463-2.463v-19.7H7.389v3.079a1.847,1.847,0,1,0,3.694,0V13.546H23.4v3.079a1.847,1.847,0,1,0,3.694,0V13.546h3.694Z" fill="#529ad9"/>
</svg>
