<svg xmlns="http://www.w3.org/2000/svg" width="105" height="105" viewBox="0 0 105 105">
  <g id="Grupo_61545" data-name="Grupo 61545" transform="translate(-582 -3161)">
    <rect id="Rectángulo_6027" data-name="Rectángulo 6027" width="105" height="105" transform="translate(582 3161)" fill="none"/>
    <g id="rocket" transform="translate(589.333 3155.129)">
      <g id="Grupo_61570" data-name="Grupo 61570" transform="translate(1.323 17.966)">
        <path id="Trazado_111253" data-name="Trazado 111253" d="M116.882,151.79H51.824a4.243,4.243,0,0,0-4.243,4.243v52.33h73.544v-52.33a4.243,4.243,0,0,0-4.243-4.243Z" transform="translate(-40.509 -129.771)" fill="#c3ddff"/>
        <path id="Trazado_111254" data-name="Trazado 111254" d="M133.859,221.1h-59.4a2.829,2.829,0,0,1-2.829-2.829v-39.6a2.829,2.829,0,0,1,2.829-2.829h59.4a2.829,2.829,0,0,1,2.829,2.829v39.6A2.828,2.828,0,0,1,133.859,221.1Z" transform="translate(-60.314 -149.577)" fill="#dbeaff"/>
        <path id="Trazado_111255" data-name="Trazado 111255" d="M168.293,191.871l-7.464,8.708a4.243,4.243,0,0,0-1.021,2.761v4.088l12.729-7.072Z" transform="translate(-132.935 -162.78)" fill="#ff8086"/>
        <path id="Trazado_111256" data-name="Trazado 111256" d="M186.8,203.563l5.771-3.206-4.243-8.486-4.195,4.894A37.888,37.888,0,0,0,186.8,203.563Z" transform="translate(-152.966 -162.78)" fill="#e5646e"/>
        <path id="Trazado_111257" data-name="Trazado 111257" d="M284.291,191.871l7.464,8.708a4.243,4.243,0,0,1,1.021,2.761v4.088l-12.729-7.072Z" transform="translate(-231.961 -162.78)" fill="#ff8086"/>
        <path id="Trazado_111258" data-name="Trazado 111258" d="M7.5,456.4v2.829a2.829,2.829,0,0,0,2.829,2.829h82.03a2.829,2.829,0,0,0,2.829-2.829V456.4Z" transform="translate(-7.5 -380.64)" fill="#dad8db"/>
        <path id="Trazado_111259" data-name="Trazado 111259" d="M210.806,27.431a1.4,1.4,0,0,0-2.038,0,34.277,34.277,0,0,0-3.55,41.379h9.139a34.277,34.277,0,0,0-3.55-41.379Z" transform="translate(-165.943 -26.991)" fill="#ffe07d"/>
        <path id="Trazado_111260" data-name="Trazado 111260" d="M208.941,114.534a1.461,1.461,0,0,1-1.32-.893,32.723,32.723,0,0,1-.19-25.979H202.31a34.357,34.357,0,0,0-2.423,12.729,34.005,34.005,0,0,0,5.331,18.386h9.139a33.488,33.488,0,0,0,2.3-4.243h-7.713Z" transform="translate(-165.943 -76.957)" fill="#ffd064"/>
        <path id="Trazado_111261" data-name="Trazado 111261" d="M235.25,269.673H223.935l1.088-5.657h9.139Z" transform="translate(-185.749 -222.197)" fill="#c8c5c9"/>
        <circle id="Elipse_4324" data-name="Elipse 4324" cx="4.243" cy="4.243" r="4.243" transform="translate(39.601 17.776)" fill="#c3ddff"/>
        <path id="Trazado_111262" data-name="Trazado 111262" d="M213.619,37.694h14.955a33.1,33.1,0,0,0-6.458-10.264,1.4,1.4,0,0,0-2.038,0A33.1,33.1,0,0,0,213.619,37.694Z" transform="translate(-177.253 -26.99)" fill="#ff8086"/>
        <path id="Trazado_111263" data-name="Trazado 111263" d="M218.744,37.694a31.777,31.777,0,0,1,5.052-8.275c-.538-.684-1.091-1.355-1.679-1.989a1.4,1.4,0,0,0-2.038,0,33.087,33.087,0,0,0-6.458,10.264Z" transform="translate(-177.254 -26.99)" fill="#e5646e"/>
        <path id="Trazado_111264" data-name="Trazado 111264" d="M137.162,338.044a9.866,9.866,0,0,0-3.237.552,7,7,0,0,0-11.189-3.116,5.6,5.6,0,0,0,.282-1.679,5.657,5.657,0,0,0-11.315,0,5.6,5.6,0,0,0,.282,1.679A7,7,0,0,0,100.8,338.6a9.889,9.889,0,0,0-12.722,12.177h58.57a9.893,9.893,0,0,0-9.485-12.729Z" transform="translate(-73.518 -275.01)" fill="#fff"/>
        <path id="Trazado_111265" data-name="Trazado 111265" d="M237.12,127.742a4.229,4.229,0,0,0-4.045,3.027,4.2,4.2,0,0,1,1.216-.2,4.185,4.185,0,0,1,4.045,5.459,4.231,4.231,0,0,0-1.216-8.287Z" transform="translate(-193.276 -109.966)" fill="#a4ccff"/>
      </g>
      <g id="Grupo_61571" data-name="Grupo 61571" transform="translate(0 16.033)">
        <path id="Trazado_111266" data-name="Trazado 111266" d="M89.011,198.035H83.262V149.857a5.572,5.572,0,0,0-5.566-5.566H60.725a1.323,1.323,0,0,0,0,2.647H77.7a2.923,2.923,0,0,1,2.92,2.92v48.178H76.087a11.118,11.118,0,0,0,.1-1.505,11.236,11.236,0,0,0-11.223-11.223,11.068,11.068,0,0,0-2.482.283,8.369,8.369,0,0,0-7.418-4.526,8.17,8.17,0,0,0-2.962.551,6.981,6.981,0,0,0-13.876,0,8.17,8.17,0,0,0-2.962-.551,8.369,8.369,0,0,0-7.418,4.526,11.059,11.059,0,0,0-2.482-.283A11.236,11.236,0,0,0,14.143,196.53a11.117,11.117,0,0,0,.1,1.505H9.718V149.857a2.923,2.923,0,0,1,2.92-2.92H29.609a1.323,1.323,0,0,0,0-2.647H12.638a5.572,5.572,0,0,0-5.566,5.566v48.178H1.323A1.323,1.323,0,0,0,0,199.358v2.829a4.157,4.157,0,0,0,4.152,4.152h82.03a4.157,4.157,0,0,0,4.152-4.152v-2.829A1.323,1.323,0,0,0,89.011,198.035Zm-1.323,4.152a1.507,1.507,0,0,1-1.505,1.505H4.152a1.507,1.507,0,0,1-1.505-1.505v-1.505H19.709a1.323,1.323,0,1,0,0-2.646H16.925a8.494,8.494,0,0,1-.135-1.505,8.557,8.557,0,0,1,11.38-8.1,1.323,1.323,0,0,0,1.685-.822,5.735,5.735,0,0,1,5.412-3.9,5.659,5.659,0,0,1,3.674,1.369,1.323,1.323,0,0,0,2.114-1.408,4.252,4.252,0,0,1-.222-1.284,4.334,4.334,0,1,1,8.668,0,4.252,4.252,0,0,1-.222,1.284,1.323,1.323,0,0,0,2.114,1.408,5.661,5.661,0,0,1,3.674-1.369,5.735,5.735,0,0,1,5.412,3.9,1.323,1.323,0,0,0,1.685.822,8.563,8.563,0,0,1,11.245,9.6H25.367a1.323,1.323,0,1,0,0,2.646h62.32Z" transform="translate(0 -121.662)" fill="#3a3c07"/>
        <path id="Trazado_111267" data-name="Trazado 111267" d="M153.6,54.929a5.577,5.577,0,0,0-1.29,3.563v4.121a1.323,1.323,0,0,0,1.974,1.152l9.423-5.317q.539.983,1.142,1.934l-1.185,4.738a1.323,1.323,0,0,0,1.284,1.644h11.315a1.323,1.323,0,0,0,1.284-1.644l-1.185-4.738q.6-.95,1.142-1.934l9.423,5.317a1.323,1.323,0,0,0,1.974-1.152V58.493a5.577,5.577,0,0,0-1.29-3.563l-6.282-7.536a36.112,36.112,0,0,0,.5-5.995,35.513,35.513,0,0,0-2.777-13.864,34.084,34.084,0,0,0-7.518-11.123,1.323,1.323,0,0,0-1.857,0,34.081,34.081,0,0,0-7.518,11.123A35.513,35.513,0,0,0,159.379,41.4a36.115,36.115,0,0,0,.5,5.985Zm1.356,5.418V58.493a2.925,2.925,0,0,1,.677-1.869l4.96-5.952a35.084,35.084,0,0,0,1.93,5.407Zm11.686,3.771.753-3.011h6.42l.753,3.011Zm18.934-7.5a2.925,2.925,0,0,1,.677,1.869v1.855l-7.566-4.269a35.1,35.1,0,0,0,1.929-5.407ZM170.6,19.254a31.6,31.6,0,0,1,5.448,8.093h-10.9A31.6,31.6,0,0,1,170.6,19.254Zm-6.551,10.74h13.1A33.16,33.16,0,0,1,179.179,41.4a32.718,32.718,0,0,1-4.741,17.063h-7.672A32.718,32.718,0,0,1,162.025,41.4,33.165,33.165,0,0,1,164.051,29.993Z" transform="translate(-125.435 -16.033)" fill="#3a3c07"/>
        <path id="Trazado_111268" data-name="Trazado 111268" d="M235.584,125.808a5.566,5.566,0,1,0-5.566,5.566A5.572,5.572,0,0,0,235.584,125.808Zm-8.486,0a2.92,2.92,0,1,1,2.92,2.92A2.923,2.923,0,0,1,227.1,125.808Z" transform="translate(-184.851 -101.856)" fill="#3a3c07"/>
      </g>
    </g>
  </g>
</svg>
