<svg xmlns="http://www.w3.org/2000/svg" width="105" height="105" viewBox="0 0 105 105">
  <g id="Grupo_61568" data-name="Grupo 61568" transform="translate(-582 -3161)">
    <rect id="Rectángulo_6027" data-name="Rectángulo 6027" width="105" height="105" transform="translate(582 3161)" fill="none"/>
    <g id="filled_outlind" data-name="filled outlind" transform="translate(571.25 3118.125)">
      <path id="Trazado_111223" data-name="Trazado 111223" d="M401.45,272H392v6.3h7.875a3.15,3.15,0,0,1,0,6.3H392v6.3h9.45a9.45,9.45,0,1,0,0-18.9Z" transform="translate(-301.975 -173.475)" fill="#cbcbcb"/>
      <path id="Trazado_111224" data-name="Trazado 111224" d="M77.8,203.85H43.15L40,144H80.95Z" transform="translate(-19.275 -70.675)" fill="#ea9d2d"/>
      <path id="Trazado_111225" data-name="Trazado 111225" d="M40,144H80.95v4.725H40Z" transform="translate(-19.275 -70.675)" fill="#c38325"/>
      <path id="Trazado_111226" data-name="Trazado 111226" d="M32,192H76.1v31.5H32Z" transform="translate(-12.85 -109.225)" fill="#8f6934"/>
      <path id="Trazado_111227" data-name="Trazado 111227" d="M24,112H71.25v6.3H24Z" transform="translate(-6.425 -44.975)" fill="#027226"/>
      <path id="Trazado_111228" data-name="Trazado 111228" d="M80.95,73.45H40L43.15,64,77.8,67.15Z" transform="translate(-19.275 -6.425)" fill="#027e2a"/>
      <ellipse id="Elipse_4323" data-name="Elipse 4323" cx="9.233" cy="9.776" rx="9.233" ry="9.776" transform="translate(32.293 88.586)" fill="#cbcbcb"/>
      <path id="Trazado_111229" data-name="Trazado 111229" d="M176,264h47.25v11.025a23.625,23.625,0,0,1-47.25,0Z" transform="translate(-128.5 -167.05)" fill="#eaeae8"/>
      <path id="Trazado_111230" data-name="Trazado 111230" d="M185.45,264v6.054a36.511,36.511,0,0,0,4.811,18.115l1.489,2.606H180.725l-.859-2A47.815,47.815,0,0,1,176,269.936V264Z" transform="translate(-128.5 -167.05)" fill="#fbfdff"/>
      <path id="Trazado_111231" data-name="Trazado 111231" d="M134,400h63.788v2.756a6.694,6.694,0,0,1-6.694,6.694h-50.4A6.694,6.694,0,0,1,134,402.756Z" transform="translate(-94.769 -276.275)" fill="#cbcbcb"/>
      <path id="Trazado_111232" data-name="Trazado 111232" d="M143.875,400a11.407,11.407,0,0,0,3.341,8.066l1.384,1.384h-9.45l-.529-.794A15.605,15.605,0,0,1,136,400Z" transform="translate(-96.375 -276.275)" fill="#eaeae8"/>
      <g id="Grupo_61567" data-name="Grupo 61567" transform="translate(67.188 76.475)">
        <path id="Trazado_111233" data-name="Trazado 111233" d="M279.15,174.175a1.575,1.575,0,0,1-1.575-1.575,3.317,3.317,0,0,0-.58-1.975,6.786,6.786,0,0,1,0-7.075,3.315,3.315,0,0,0,.58-1.975,1.575,1.575,0,0,1,3.15,0,6.344,6.344,0,0,1-1,3.538,3.652,3.652,0,0,0,0,3.95,6.344,6.344,0,0,1,1,3.538A1.575,1.575,0,0,1,279.15,174.175Z" transform="translate(-276 -160)" fill="#fbb540"/>
        <path id="Trazado_111234" data-name="Trazado 111234" d="M327.15,174.175a1.575,1.575,0,0,1-1.575-1.575,3.317,3.317,0,0,0-.58-1.975,6.786,6.786,0,0,1,0-7.075,3.316,3.316,0,0,0,.58-1.975,1.575,1.575,0,0,1,3.15,0,6.344,6.344,0,0,1-.995,3.538,3.652,3.652,0,0,0,0,3.95,6.344,6.344,0,0,1,.995,3.538A1.575,1.575,0,0,1,327.15,174.175Z" transform="translate(-314.55 -160)" fill="#fbb540"/>
        <path id="Trazado_111235" data-name="Trazado 111235" d="M375.15,174.175a1.575,1.575,0,0,1-1.575-1.575,3.317,3.317,0,0,0-.58-1.975,6.787,6.787,0,0,1,0-7.075,3.315,3.315,0,0,0,.58-1.975,1.575,1.575,0,0,1,3.15,0,6.345,6.345,0,0,1-1,3.538,3.652,3.652,0,0,0,0,3.95,6.345,6.345,0,0,1,1,3.538A1.575,1.575,0,0,1,375.15,174.175Z" transform="translate(-353.1 -160)" fill="#fbb540"/>
      </g>
      <path id="Trazado_111236" data-name="Trazado 111236" d="M99.475,96.95h-3.15a1.575,1.575,0,0,0-1.575-1.575H64.825v-12.6A1.575,1.575,0,0,0,63.25,81.2h-.412l.332-6.3h1.656A1.575,1.575,0,0,0,66.4,73.325v-6.3a1.575,1.575,0,0,0-1.575-1.575H62.648L59.934,60.02a1.575,1.575,0,0,0-1.266-.864l-34.65-3.15a1.573,1.573,0,0,0-1.637,1.07L19.59,65.45H17.575A1.575,1.575,0,0,0,16,67.025v6.3A1.575,1.575,0,0,0,17.575,74.9h1.656l.332,6.3H19.15a1.575,1.575,0,0,0-1.575,1.575v31.5a1.575,1.575,0,0,0,1.575,1.575h2.236l.916,17.408a1.575,1.575,0,0,0,1.573,1.492h72.45a8.278,8.278,0,0,0,8.269-8.269v-2.756a1.575,1.575,0,0,0-1.575-1.575H91.961A25.166,25.166,0,0,0,93.788,119h5.687a11.025,11.025,0,1,0,0-22.05Zm-74.5-37.693,32.534,2.957,1.618,3.236H22.91ZM19.15,71.75V68.6h44.1v3.15ZM60.015,74.9l-.332,6.3H22.717l-.332-6.3Zm-39.29,37.8V84.35h40.95V95.375H51.768a11.029,11.029,0,1,0-5.837,13.108,25.228,25.228,0,0,0,.44,4.217ZM48.419,95.375H47.5a1.575,1.575,0,0,0-1.575,1.575v7.875a7.875,7.875,0,1,1,2.494-9.45ZM25.369,131.6l-.829-15.75H47.185a25.132,25.132,0,0,0,3.1,6.3H39.231a1.575,1.575,0,0,0-1.575,1.575v2.756a8.226,8.226,0,0,0,1.782,5.119Zm76.074-6.3v1.181a5.124,5.124,0,0,1-5.119,5.119h-50.4a5.124,5.124,0,0,1-5.119-5.119V125.3Zm-8.269-17.325a22.009,22.009,0,0,1-5.161,14.175H54.236a22.009,22.009,0,0,1-5.161-14.175v-9.45h44.1Zm3.15,0V106.4H97.9a1.575,1.575,0,1,1,0,3.15H96.275C96.307,109.027,96.325,108.5,96.325,107.975Zm3.15,7.875h-4.41a25.146,25.146,0,0,0,.813-3.15H97.9a4.725,4.725,0,0,0,0-9.45H96.325V100.1h3.15a7.875,7.875,0,0,1,0,15.75Z" transform="translate(0)" fill="#3a3c07"/>
      <path id="Trazado_111237" data-name="Trazado 111237" d="M280.725,161.575a1.575,1.575,0,0,0-3.15,0,3.317,3.317,0,0,1-.58,1.975,6.786,6.786,0,0,0,0,7.075,3.315,3.315,0,0,1,.58,1.975,1.575,1.575,0,1,0,3.15,0,6.344,6.344,0,0,0-1-3.538,3.652,3.652,0,0,1,0-3.95A6.344,6.344,0,0,0,280.725,161.575Z" transform="translate(-208.813 -83.526)" fill="#3a3c07"/>
      <path id="Trazado_111238" data-name="Trazado 111238" d="M328.725,161.575a1.575,1.575,0,0,0-3.15,0,3.317,3.317,0,0,1-.58,1.975,6.786,6.786,0,0,0,0,7.075,3.316,3.316,0,0,1,.58,1.975,1.575,1.575,0,1,0,3.15,0,6.344,6.344,0,0,0-1-3.538,3.652,3.652,0,0,1,0-3.95A6.344,6.344,0,0,0,328.725,161.575Z" transform="translate(-247.363 -83.526)" fill="#3a3c07"/>
      <path id="Trazado_111239" data-name="Trazado 111239" d="M376.725,161.575a1.575,1.575,0,0,0-3.15,0,3.317,3.317,0,0,1-.58,1.975,6.787,6.787,0,0,0,0,7.075,3.315,3.315,0,0,1,.58,1.975,1.575,1.575,0,1,0,3.15,0,6.345,6.345,0,0,0-.995-3.538,3.652,3.652,0,0,1,0-3.95A6.345,6.345,0,0,0,376.725,161.575Z" transform="translate(-285.913 -83.526)" fill="#3a3c07"/>
    </g>
  </g>
</svg>
