<svg xmlns="http://www.w3.org/2000/svg" width="49.258" height="39.406" viewBox="0 0 49.258 39.406">
  <path id="conveyor-belt-regular" d="M41.869,24.629H7.389a7.389,7.389,0,0,0,0,14.777h34.48a7.389,7.389,0,0,0,0-14.777Zm0,11.083H7.389a3.694,3.694,0,0,1,0-7.389h34.48a3.694,3.694,0,0,1,0,7.389ZM9.852,29.555a2.463,2.463,0,1,0,2.463,2.463A2.46,2.46,0,0,0,9.852,29.555Zm29.555,0a2.463,2.463,0,1,0,2.463,2.463A2.46,2.46,0,0,0,39.406,29.555Zm-14.777,0a2.463,2.463,0,1,0,2.463,2.463A2.46,2.46,0,0,0,24.629,29.555ZM11.083,22.166H38.175a1.235,1.235,0,0,0,1.231-1.231V1.231A1.235,1.235,0,0,0,38.175,0H11.083A1.235,1.235,0,0,0,9.852,1.231v19.7A1.235,1.235,0,0,0,11.083,22.166ZM13.546,3.694H19.7v8.62l4.926-2.463,4.926,2.463V3.694h6.157V18.472H13.546Z" fill="#529ad9"/>
</svg>
