<svg xmlns="http://www.w3.org/2000/svg" width="399" height="234" viewBox="0 0 399 234">
  <g id="Grupo_68887" data-name="Grupo 68887" transform="translate(-181 -4731)">
    <g id="Grupo_68886" data-name="Grupo 68886">
      <rect id="Rectángulo_6139" data-name="Rectángulo 6139" width="399" height="177" rx="10" transform="translate(181 4788)" fill="#d3e6f6"/>
      <g id="Grupo_68848" data-name="Grupo 68848" transform="translate(-848 4019)">
        <rect id="Rectángulo_6149" data-name="Rectángulo 6149" width="213" height="213" transform="translate(1117 712)" fill="none"/>
        <g id="Grupo_68850" data-name="Grupo 68850" transform="translate(1122.318 719.469)">
          <g id="Grupo_68820" data-name="Grupo 68820">
            <g id="Grupo_68805" data-name="Grupo 68805" transform="translate(139.107 146.725)">
              <path id="Trazado_115512" data-name="Trazado 115512" d="M3782.735-99.572a13.151,13.151,0,0,1-11.179,14.862,13.15,13.15,0,0,1-14.862-11.179,13.149,13.149,0,0,1,11.179-14.862A13.151,13.151,0,0,1,3782.735-99.572Z" transform="translate(-3756.563 110.882)" fill="#ffb743"/>
            </g>
            <g id="Grupo_68806" data-name="Grupo 68806" transform="translate(2.151 56.953)">
              <path id="Trazado_115513" data-name="Trazado 115513" d="M3602.346-217.812a13.149,13.149,0,0,1-11.178,14.861,13.149,13.149,0,0,1-14.863-11.178,13.151,13.151,0,0,1,11.179-14.863A13.151,13.151,0,0,1,3602.346-217.812Z" transform="translate(-3576.174 229.123)" fill="#ffb743"/>
            </g>
            <g id="Grupo_68810" data-name="Grupo 68810" transform="translate(49.532)">
              <g id="Grupo_68809" data-name="Grupo 68809" transform="translate(0)">
                <g id="Grupo_68808" data-name="Grupo 68808">
                  <g id="Grupo_68807" data-name="Grupo 68807">
                    <circle id="Elipse_7941" data-name="Elipse 7941" cx="61.705" cy="61.705" r="61.705" transform="translate(0 42.167) rotate(-19.979)" fill="#ffb743"/>
                  </g>
                </g>
              </g>
            </g>
            <rect id="Rectángulo_6152" data-name="Rectángulo 6152" width="106.589" height="179.881" rx="14.995" transform="translate(128.607 197.566) rotate(180)" fill="#fff"/>
            <path id="Trazado_115514" data-name="Trazado 115514" d="M3697.387-100.624h-83.819a11.9,11.9,0,0,1-11.883-11.882V-269.617a11.9,11.9,0,0,1,11.883-11.881h83.819a11.9,11.9,0,0,1,11.882,11.881v157.111A11.9,11.9,0,0,1,3697.387-100.624ZM3613.568-280.5a10.9,10.9,0,0,0-10.889,10.888v157.111a10.9,10.9,0,0,0,10.889,10.888h83.819a10.9,10.9,0,0,0,10.888-10.888V-269.617a10.9,10.9,0,0,0-10.888-10.888Z" transform="translate(-3580.166 298.687)"/>
            <rect id="Rectángulo_6153" data-name="Rectángulo 6153" width="152.88" height="92.488" rx="10.149" transform="translate(121.556 24.736) rotate(90)" fill="#fd5f2f"/>
            <path id="Rectángulo_6154" data-name="Rectángulo 6154" d="M0,0H6.26a5.624,5.624,0,0,1,5.624,5.624V34.67A5.624,5.624,0,0,1,6.26,40.293H0a0,0,0,0,1,0,0V0A0,0,0,0,1,0,0Z" transform="translate(95.459 23.352) rotate(90)" fill="#fff"/>
            <path id="Trazado_115515" data-name="Trazado 115515" d="M3611.628-216.709v-33.9a20.758,20.758,0,0,1,9.562-.636,16.441,16.441,0,0,1,9.446,5.328c1.648,1.848,3.407,3.8,5.878,4.5,3.248.909,6.091-1.51,9.2-2.02a18.566,18.566,0,0,1,7.073.132c4.126.907,7.523,4.429,7.523,8.728a8.248,8.248,0,0,1-3.637,6.806c-.446.3-1.362.537-1.659.944-.328.448-.384,1.344-.721,1.878-2.35,3.727-6.851,1.745-6.851,1.745-3.829,3.644-12.392-1.55-17.112.38-1.937.793-3.709,1.934-5.57,2.893C3620.831-217.912,3615.958-215.864,3611.628-216.709Z" transform="translate(-3582.559 291.473)"/>
            <path id="Trazado_115516" data-name="Trazado 115516" d="M3611.628-162.462V-188.5c.235-.32.461-.624.671-.91,4.16-5.683,18.232-19.427,36-19.427l5.273.032,3.569-.032c18.106,0,33.543,13.744,37.7,19.427,4.232,5.782,14.535,18.521,1.172,26.663-11.687,7.122-28.262-7.232-28.262-7.232h-28.364S3623.281-156.036,3611.628-162.462Z" transform="translate(-3582.559 281.193)"/>
            <path id="Trazado_115517" data-name="Trazado 115517" d="M3647.871-207.656a25.793,25.793,0,0,1,9.152-1.193l8.385.051a47.717,47.717,0,0,1,9.308.907C3672.336-206.086,3660.2-197.877,3647.871-207.656Z" transform="translate(-3591.286 281.201)" fill="#fff"/>
            <path id="Trazado_115518" data-name="Trazado 115518" d="M3670.6-53.883a6.1,6.1,0,0,1-6.094-6.094,6.1,6.1,0,0,1,6.094-6.093,6.1,6.1,0,0,1,6.093,6.093A6.1,6.1,0,0,1,3670.6-53.883Zm0-11.193a5.106,5.106,0,0,0-5.1,5.1,5.105,5.105,0,0,0,5.1,5.1,5.106,5.106,0,0,0,5.1-5.1A5.106,5.106,0,0,0,3670.6-65.076Z" transform="translate(-3595.292 246.817)"/>
            <path id="Trazado_115519" data-name="Trazado 115519" d="M3618.4-160.413a14.634,14.634,0,0,1-7.172-1.772.5.5,0,0,1-.257-.435v-26.042a.5.5,0,0,1,.1-.3l.144-.194c.183-.248.36-.487.526-.714,4-5.46,18.328-19.631,36.4-19.631l5.276.033,3.56-.033c9.986,0,18.753,4.164,24.35,7.658a52.808,52.808,0,0,1,13.76,11.972c.185.253.382.519.587.8,3.145,4.255,8.408,11.378,7.094,18.088-.656,3.347-2.893,6.206-6.651,8.495-4.929,3-11.495,2.685-18.988-.922a50.631,50.631,0,0,1-9.715-6.237h-28C3638.031-168.476,3628.126-160.413,3618.4-160.413Zm-6.435-2.5c11.2,5.841,26.781-7.463,26.938-7.6a.5.5,0,0,1,.325-.121h28.364a.5.5,0,0,1,.325.121c.164.14,16.438,14.032,27.678,7.182,3.51-2.138,5.594-4.775,6.194-7.837,1.231-6.281-3.871-13.183-6.918-17.307-.206-.28-.4-.547-.59-.8-4.409-6.021-19.922-19.224-37.3-19.224l-3.563.032-5.281-.032c-17.654,0-31.68,13.876-35.594,19.224-.167.229-.344.468-.528.717C3611.967-188.5,3611.967-162.917,3611.967-162.917Z" transform="translate(-3582.402 281.351)"/>
            <g id="Grupo_68811" data-name="Grupo 68811" transform="translate(82.052 45.437)">
              <path id="Trazado_115520" data-name="Trazado 115520" d="M3707.844-188.647l6.27-.168a2.1,2.1,0,0,0,1.894-2.876l-7.486-18.787a2.1,2.1,0,0,0-2.006-1.322l-6.271.169a2.1,2.1,0,0,0-1.894,2.876l7.487,18.786A2.1,2.1,0,0,0,3707.844-188.647Z" transform="translate(-3685.456 236.468)"/>
              <path id="Trazado_115521" data-name="Trazado 115521" d="M3688.595-234.542l50.233-8.3.839,31.249-50.6-5.591Z" transform="translate(-3683.143 243.941)" fill="#fff"/>
              <path id="Trazado_115522" data-name="Trazado 115522" d="M3739.509-211.251c-.055,0-50.66-5.594-50.66-5.594a.5.5,0,0,1-.442-.481l-.466-17.361a.5.5,0,0,1,.416-.5l50.232-8.3a.5.5,0,0,1,.4.107.5.5,0,0,1,.18.37l.839,31.249a.5.5,0,0,1-.16.379A.5.5,0,0,1,3739.509-211.251Zm-50.121-6.534L3739-212.3l-.807-30.109-49.243,8.133Z" transform="translate(-3682.985 244.099)"/>
              <path id="Trazado_115523" data-name="Trazado 115523" d="M3745.368-212.187l8.7.962-.87-32.412-8.641,1.289Z" transform="translate(-3696.618 244.134)" fill="#fff"/>
              <path id="Trazado_115524" data-name="Trazado 115524" d="M3753.912-210.886c-.055,0-8.757-.963-8.757-.963a.5.5,0,0,1-.442-.481l-.809-30.161a.5.5,0,0,1,.423-.5l8.641-1.288a.5.5,0,0,1,.393.11.5.5,0,0,1,.177.367l.87,32.412a.494.494,0,0,1-.16.378A.5.5,0,0,1,3753.912-210.886Zm-8.217-1.9,7.705.851-.84-31.281-7.651,1.142Z" transform="translate(-3696.46 244.291)"/>
              <path id="Trazado_115525" data-name="Trazado 115525" d="M3687.49-214.532l-.467-17.366a5.092,5.092,0,0,0-4.953,5.227l.193,7.186A5.092,5.092,0,0,0,3687.49-214.532Z" transform="translate(-3681.572 241.307)" fill="#fff"/>
              <path id="Trazado_115526" data-name="Trazado 115526" d="M3687.192-214.191a5.549,5.549,0,0,1-3.841-1.532,5.554,5.554,0,0,1-1.743-3.906l-.193-7.186a5.553,5.553,0,0,1,1.531-3.994,5.551,5.551,0,0,1,3.906-1.742.493.493,0,0,1,.51.484l.466,17.366a.5.5,0,0,1-.137.355.5.5,0,0,1-.347.154C3687.294-214.191,3687.243-214.191,3687.192-214.191Zm-.809-17.329a4.557,4.557,0,0,0-2.716,1.393,4.566,4.566,0,0,0-1.259,3.284l.193,7.186a4.6,4.6,0,0,0,4.22,4.457Z" transform="translate(-3681.414 241.465)"/>
            </g>
            <path id="Trazado_115527" data-name="Trazado 115527" d="M3763.172-236.536a.5.5,0,0,1-.439-.263.5.5,0,0,1,.2-.673l11.1-5.927a.5.5,0,0,1,.672.2.5.5,0,0,1-.2.672l-11.1,5.927A.5.5,0,0,1,3763.172-236.536Z" transform="translate(-3618.927 289.527)"/>
            <path id="Trazado_115528" data-name="Trazado 115528" d="M3774.267-199.414a.488.488,0,0,1-.233-.058l-11.1-5.927a.5.5,0,0,1-.2-.673.5.5,0,0,1,.673-.2l11.1,5.927a.5.5,0,0,1,.2.672A.5.5,0,0,1,3774.267-199.414Z" transform="translate(-3618.927 280.589)"/>
            <path id="Trazado_115529" data-name="Trazado 115529" d="M3782.2-220.369h-13.58a.5.5,0,0,1-.5-.5.5.5,0,0,1,.5-.5h13.58a.5.5,0,0,1,.5.5A.5.5,0,0,1,3782.2-220.369Z" transform="translate(-3620.24 284.208)"/>
            <path id="Trazado_115530" data-name="Trazado 115530" d="M3711.042-204.5l1.051,2.638s-3.522,2.556-4.588,3.64a16.46,16.46,0,0,1-2.008,1.748s-3.23-1-3.719,2.367,1.026,5.576,3.719,5.465c0,0,.54,3.4,3.41,2.915,0,0-.749,4.261,3.186,4.1,0,0,.733,1.578,3.329,1.148s5.126-3.672,5.741-4.681c1.048-1.721.939-4.03-.469-4.582,0,0,1.474-4.085-1.154-4.582,0,0,.472-4.527-2.541-5.024C3717-199.356,3717.925-202.973,3711.042-204.5Z" transform="translate(-3604.243 280.149)" fill="#fff"/>
            <path id="Trazado_115531" data-name="Trazado 115531" d="M3714.4-180.073a3.231,3.231,0,0,1-2.734-1.218,3.311,3.311,0,0,1-2.589-1.052,4.37,4.37,0,0,1-.878-3,2.9,2.9,0,0,1-1.729-.546,4.452,4.452,0,0,1-1.528-2.417,3.792,3.792,0,0,1-2.743-1.233,5.817,5.817,0,0,1-1.072-4.8,3.3,3.3,0,0,1,1.415-2.464,3.745,3.745,0,0,1,2.688-.37,16.933,16.933,0,0,0,1.762-1.559,51.559,51.559,0,0,1,4.338-3.465l-.909-2.28a.5.5,0,0,1,.083-.506.5.5,0,0,1,.486-.163c2.925.651,4.882,1.754,5.819,3.278a3.664,3.664,0,0,1,.567,1.972c2.438.745,2.564,3.88,2.525,5.035a2.134,2.134,0,0,1,1.157.973,5.367,5.367,0,0,1,.073,3.737,2.349,2.349,0,0,1,.887,1.228,4.831,4.831,0,0,1-.591,3.855c-.687,1.127-3.278,4.448-6.084,4.912A5.761,5.761,0,0,1,3714.4-180.073Zm-2.464-2.216a.5.5,0,0,1,.451.287c.022.044.64,1.224,2.8.867,2.235-.37,4.643-3.21,5.4-4.449a3.863,3.863,0,0,0,.5-3.021,1.27,1.27,0,0,0-.724-.84.5.5,0,0,1-.286-.631c.217-.605.664-2.383.128-3.321a1.24,1.24,0,0,0-.907-.6.5.5,0,0,1-.4-.539c0-.041.387-4.068-2.127-4.482a.5.5,0,0,1-.335-.219.5.5,0,0,1-.065-.4,2.453,2.453,0,0,0-.415-1.742c-.5-.787-1.632-1.833-4.24-2.565l.692,1.736a.5.5,0,0,1-.169.585c-.035.026-3.5,2.545-4.526,3.587a16.806,16.806,0,0,1-2.076,1.805.494.494,0,0,1-.433.069,2.918,2.918,0,0,0-2.123.2,2.36,2.36,0,0,0-.957,1.763,4.869,4.869,0,0,0,.825,3.993,2.91,2.91,0,0,0,2.381.9.5.5,0,0,1,.511.418,3.779,3.779,0,0,0,1.225,2.187,2.052,2.052,0,0,0,1.612.317.493.493,0,0,1,.435.14.494.494,0,0,1,.137.436,3.892,3.892,0,0,0,.589,2.807,2.5,2.5,0,0,0,2.087.706Z" transform="translate(-3604.086 280.306)"/>
            <path id="Trazado_115532" data-name="Trazado 115532" d="M3706.24-185.761a.5.5,0,0,1-.388-.187c-2.338-2.925-.163-8.118-.069-8.338a.5.5,0,0,1,.651-.262.5.5,0,0,1,.263.651c-.021.049-2.035,4.867-.069,7.328a.5.5,0,0,1-.078.7A.493.493,0,0,1,3706.24-185.761Z" transform="translate(-3604.986 277.761)"/>
            <path id="Trazado_115533" data-name="Trazado 115533" d="M3706.548-186.674a.5.5,0,0,1-.364-.159.5.5,0,0,1,.025-.7l11.5-10.709a.5.5,0,0,1,.7.025.5.5,0,0,1-.025.7l-11.5,10.709A.5.5,0,0,1,3706.548-186.674Z" transform="translate(-3605.294 278.673)"/>
            <path id="Trazado_115534" data-name="Trazado 115534" d="M3711.018-182.049a.5.5,0,0,1-.385-.182.5.5,0,0,1,.07-.7l10.649-8.717a.5.5,0,0,1,.7.07.5.5,0,0,1-.069.7l-10.649,8.717A.5.5,0,0,1,3711.018-182.049Z" transform="translate(-3606.37 277.08)"/>
            <path id="Trazado_115535" data-name="Trazado 115535" d="M3715.235-176.617a.493.493,0,0,1-.361-.156.5.5,0,0,1,.021-.7l8.6-8.115a.5.5,0,0,1,.7.02.5.5,0,0,1-.021.7l-8.6,8.115A.5.5,0,0,1,3715.235-176.617Z" transform="translate(-3607.385 275.627)"/>
            <path id="Trazado_115536" data-name="Trazado 115536" d="M3658.684-214.643l.088-4.715c2.857-2.153,2.992-7.335,2.992-7.335,3.054-1.654,4.99-6.32,5.729-8.413a.647.647,0,0,1,1.092-.216c1.117,1.247,3.1,3.549,3.2,4.316.834,6.113,2.067,12.647-3.775,12.647v3.715Z" transform="translate(-3593.889 287.621)" fill="#fff"/>
            <path id="Trazado_115537" data-name="Trazado 115537" d="M3670.812-214.126a.5.5,0,0,1-.5-.5v-3.716a.5.5,0,0,1,.5-.5,3.652,3.652,0,0,0,2.931-1.09c1.623-1.865,1.045-6.017.485-10.03l-.133-.963c-.015-.111-.193-.813-2.207-3.76a.5.5,0,0,1,.129-.691.5.5,0,0,1,.691.13c2.249,3.29,2.341,3.965,2.371,4.186l.133.96c.591,4.234,1.2,8.613-.72,10.82a4.413,4.413,0,0,1-3.183,1.416v3.234A.5.5,0,0,1,3670.812-214.126Z" transform="translate(-3596.689 287.601)"/>
            <path id="Trazado_115538" data-name="Trazado 115538" d="M3669.764-212.742a10.8,10.8,0,0,1-3.479-.569.5.5,0,0,1-.291-.639.5.5,0,0,1,.638-.292,10,10,0,0,0,3.132.506.5.5,0,0,1,.5.5A.5.5,0,0,1,3669.764-212.742Z" transform="translate(-3595.642 282.501)"/>
            <path id="Trazado_115539" data-name="Trazado 115539" d="M3669.875-210.336a1.86,1.86,0,0,1-2.2.181c-1.108-.773-1.247-3.463-1.247-3.463l3.45.538Z" transform="translate(-3595.753 282.343)"/>
            <path id="Trazado_115540" data-name="Trazado 115540" d="M3673-222.247a.5.5,0,0,1-.493-.439l-.448-3.812a.5.5,0,0,1,.435-.551.493.493,0,0,1,.552.435l.448,3.812a.5.5,0,0,1-.435.551A.386.386,0,0,1,3673-222.247Z" transform="translate(-3597.109 285.578)"/>
            <path id="Trazado_115541" data-name="Trazado 115541" d="M3667.993-225.475a.562.562,0,0,0,.561.562.561.561,0,0,0,.562-.562.561.561,0,0,0-.562-.561A.562.562,0,0,0,3667.993-225.475Z" transform="translate(-3596.13 285.333)"/>
            <path id="Trazado_115542" data-name="Trazado 115542" d="M3673.976-225.475a.561.561,0,0,0,.561.562.561.561,0,0,0,.562-.562.561.561,0,0,0-.562-.561A.561.561,0,0,0,3673.976-225.475Z" transform="translate(-3597.571 285.333)"/>
            <g id="Grupo_68812" data-name="Grupo 68812" transform="translate(65.326 58.853)">
              <path id="Trazado_115543" data-name="Trazado 115543" d="M3659.429-223.744a2.413,2.413,0,0,0,2.83,1.908,2.413,2.413,0,0,0,1.908-2.831,2.413,2.413,0,0,0-2.83-1.908A2.414,2.414,0,0,0,3659.429-223.744Z" transform="translate(-3659.384 226.62)" fill="#fff"/>
              <path id="Trazado_115544" data-name="Trazado 115544" d="M3662.738-222.985a.5.5,0,0,1-.342-.136l-1.1-1.045a.5.5,0,0,1-.02-.7.5.5,0,0,1,.7-.019l1.1,1.045a.5.5,0,0,1,.019.7A.5.5,0,0,1,3662.738-222.985Z" transform="translate(-3659.806 226.236)"/>
            </g>
            <path id="Trazado_115545" data-name="Trazado 115545" d="M3695.191-217.351a2.284,2.284,0,0,0,2.283,2.285,2.284,2.284,0,0,0,2.285-2.285,2.284,2.284,0,0,0-2.285-2.284A2.284,2.284,0,0,0,3695.191-217.351Z" transform="translate(-3602.679 283.792)" fill="#fd5f2f"/>
            <path id="Trazado_115546" data-name="Trazado 115546" d="M3704.124-217.351a2.285,2.285,0,0,0,2.285,2.285,2.284,2.284,0,0,0,2.284-2.285,2.284,2.284,0,0,0-2.284-2.284A2.284,2.284,0,0,0,3704.124-217.351Z" transform="translate(-3604.83 283.792)" fill="#ffb743"/>
            <g id="Grupo_68814" data-name="Grupo 68814" transform="translate(158.022 95.793)">
              <g id="Grupo_68813" data-name="Grupo 68813">
                <path id="Trazado_115547" data-name="Trazado 115547" d="M3781.972-170.081a.494.494,0,0,1-.351-.146.5.5,0,0,1,0-.7l6.892-6.892a.5.5,0,0,1,.7,0,.5.5,0,0,1,0,.7l-6.891,6.891A.494.494,0,0,1,3781.972-170.081Z" transform="translate(-3781.476 177.966)"/>
                <path id="Trazado_115548" data-name="Trazado 115548" d="M3788.864-170.081a.5.5,0,0,1-.351-.146l-6.892-6.891a.5.5,0,0,1,0-.7.5.5,0,0,1,.7,0l6.891,6.892a.5.5,0,0,1,0,.7A.5.5,0,0,1,3788.864-170.081Z" transform="translate(-3781.476 177.966)"/>
              </g>
            </g>
            <g id="Grupo_68815" data-name="Grupo 68815" transform="translate(87.753 84.698)">
              <path id="Trazado_115549" data-name="Trazado 115549" d="M3689.321-185.684a.4.4,0,0,1-.4-.4v-6.1a.4.4,0,0,1,.4-.4.4.4,0,0,1,.4.4v6.1A.4.4,0,0,1,3689.321-185.684Z" transform="translate(-3688.923 192.58)" fill="#fff"/>
              <path id="Trazado_115550" data-name="Trazado 115550" d="M3689.321-159.934a.4.4,0,0,1-.4-.4v-8.029a.4.4,0,0,1,.4-.4.4.4,0,0,1,.4.4v8.029A.4.4,0,0,1,3689.321-159.934Z" transform="translate(-3688.923 186.845)" fill="#fff"/>
            </g>
            <g id="Grupo_68816" data-name="Grupo 68816" transform="translate(50.443 84.698)">
              <path id="Trazado_115551" data-name="Trazado 115551" d="M3640.179-176.552a.4.4,0,0,1-.4-.4v-15.232a.4.4,0,0,1,.4-.4.4.4,0,0,1,.4.4v15.232A.4.4,0,0,1,3640.179-176.552Z" transform="translate(-3639.781 192.58)" fill="#fff"/>
            </g>
            <path id="Trazado_115552" data-name="Trazado 115552" d="M3689.322-171.764a.4.4,0,0,1-.4-.4.4.4,0,0,1,.4-.4,5.6,5.6,0,0,0,5.595-5.595,5.6,5.6,0,0,0-5.595-5.595.4.4,0,0,1-.4-.4.4.4,0,0,1,.4-.4,6.4,6.4,0,0,1,6.391,6.39A6.4,6.4,0,0,1,3689.322-171.764Z" transform="translate(-3601.169 275.343)" fill="#fff"/>
            <path id="Trazado_115553" data-name="Trazado 115553" d="M3639.663-166.7a.4.4,0,0,1-.327-.169,14.61,14.61,0,0,0-6.067-4.492c-5.331-2.158-11.773-1.236-18.632,2.664a.4.4,0,0,1-.543-.15.4.4,0,0,1,.149-.542c8.965-5.1,15.48-4.278,19.365-2.693a15.124,15.124,0,0,1,6.379,4.757.4.4,0,0,1-.1.553A.4.4,0,0,1,3639.663-166.7Z" transform="translate(-3583.14 272.633)" fill="#fff"/>
            <g id="Grupo_68818" data-name="Grupo 68818" transform="translate(0 111.039)">
              <rect id="Rectángulo_6155" data-name="Rectángulo 6155" width="148.726" height="53.089" transform="translate(149.222 53.586) rotate(180)" fill="#fff"/>
              <path id="Trazado_115554" data-name="Trazado 115554" d="M3722.563-103.8H3573.837a.5.5,0,0,1-.5-.5v-53.089a.5.5,0,0,1,.5-.5h148.725a.5.5,0,0,1,.5.5V-104.3A.5.5,0,0,1,3722.563-103.8Zm-148.229-.994h147.732v-52.1H3574.334Z" transform="translate(-3573.341 157.885)"/>
              <g id="Grupo_68817" data-name="Grupo 68817" transform="translate(9.182 15.965)">
                <path id="Trazado_115555" data-name="Trazado 115555" d="M3740.874-136.856l-3.6,7.292-8.047,1.169,5.823,5.676-1.375,8.014,7.2-3.784,7.2,3.784-1.375-8.014,5.823-5.676-8.047-1.169Z" transform="translate(-3620.056 136.856)" fill="#ffb743"/>
                <path id="Trazado_115556" data-name="Trazado 115556" d="M3704.925-136.856l-3.6,7.292-8.047,1.169,5.823,5.676-1.375,8.014,7.2-3.784,7.2,3.784-1.375-8.014,5.823-5.676-8.047-1.169Z" transform="translate(-3611.401 136.856)" fill="#ffb743"/>
                <path id="Trazado_115557" data-name="Trazado 115557" d="M3668.977-136.856l-3.6,7.292-8.047,1.169,5.823,5.676-1.375,8.014,7.2-3.784,7.2,3.784-1.375-8.014,5.823-5.676-8.047-1.169Z" transform="translate(-3602.746 136.856)" fill="#ffb743"/>
                <path id="Trazado_115558" data-name="Trazado 115558" d="M3633.029-136.856l-3.6,7.292-8.047,1.169,5.823,5.676-1.374,8.014,7.2-3.784,7.2,3.784-1.374-8.014,5.823-5.676-8.047-1.169Z" transform="translate(-3594.09 136.856)" fill="#ffb743"/>
                <path id="Trazado_115559" data-name="Trazado 115559" d="M3597.081-136.856l-3.6,7.292-8.047,1.169,5.823,5.676-1.375,8.014,7.2-3.784,7.2,3.784-1.375-8.014,5.823-5.676-8.047-1.169Z" transform="translate(-3585.435 136.856)" fill="#ffb743"/>
              </g>
            </g>
            <g id="Grupo_68819" data-name="Grupo 68819" transform="translate(34.198 103.945)">
              <path id="Trazado_115560" data-name="Trazado 115560" d="M3627.876-165.52s2.564-2.068,4.854.043c0,0,1.751-2.136,5.395-.426a3.273,3.273,0,0,1,4.264.3,40.792,40.792,0,0,1,4.884,6.432c1.617,3.2-.578,4.995-2.316,4.208s-4.09-4.284-4.09-4.284,1.291,5.139-1.068,5.511c-1.725.273-3.151-2.548-3.792-4.082.532,1.559,1.244,4.528-.836,5.028-2.774.667-4.339-5.192-4.413-5.472.071.273,1.146,4.614-1.335,5.107-2.56.509-4.856-6.694-4.856-6.694l-5.53-.083S3623.134-166.806,3627.876-165.52Z" transform="translate(-3618.541 167.069)" fill="#fff"/>
              <path id="Trazado_115561" data-name="Trazado 115561" d="M3634.566-152.4c-1.429,0-2.508-1.349-3.247-2.764a3.509,3.509,0,0,1-.462,1.312,2.21,2.21,0,0,1-1.493,1.024c-2.656.53-4.771-5.1-5.315-6.69l-5.176-.077a.5.5,0,0,1-.426-.254.5.5,0,0,1,.007-.5c.172-.29,4.213-6.966,9.154-5.876a4.188,4.188,0,0,1,4.943-.082c.716-.585,2.488-1.573,5.36-.333a3.769,3.769,0,0,1,4.65.5,40.85,40.85,0,0,1,5,6.58c.87,1.723.817,3.351-.144,4.353a2.458,2.458,0,0,1-2.822.531,10.474,10.474,0,0,1-3.069-2.811,5.4,5.4,0,0,1-.508,3.232,1.871,1.871,0,0,1-1.3.844c-1.088.171-2.032-.548-2.813-1.6a3.219,3.219,0,0,1-.352,1.474,2.114,2.114,0,0,1-1.424,1.06A2.41,2.41,0,0,1,3634.566-152.4Zm-3.965-6.52a.5.5,0,0,1,.48.371c.411,1.578,1.9,5.568,3.815,5.115a1.147,1.147,0,0,0,.786-.572c.391-.711.281-2.1-.3-3.813a.5.5,0,0,1,.294-.624.5.5,0,0,1,.634.273c1.055,2.524,2.272,3.94,3.256,3.783a.87.87,0,0,0,.624-.41c.692-1.046.263-3.6.039-4.491a.5.5,0,0,1,.28-.574.5.5,0,0,1,.614.176c.633.941,2.563,3.512,3.883,4.109a1.476,1.476,0,0,0,1.694-.313c.656-.685.646-1.887-.026-3.218a41.126,41.126,0,0,0-4.77-6.285,2.775,2.775,0,0,0-3.625-.285.5.5,0,0,1-.521.061c-3.22-1.512-4.739.219-4.8.294a.5.5,0,0,1-.35.176.489.489,0,0,1-.368-.129c-1.94-1.789-4.115-.094-4.207-.021a.5.5,0,0,1-.44.091c-3.428-.928-6.6,2.952-7.79,4.629l4.618.069a.5.5,0,0,1,.467.346c.9,2.815,2.815,6.64,4.287,6.359a1.237,1.237,0,0,0,.846-.579c.624-.992.341-3,.1-3.918a.5.5,0,0,1,.356-.6A.509.509,0,0,1,3630.6-158.915Z" transform="translate(-3618.384 167.228)"/>
              <path id="Trazado_115562" data-name="Trazado 115562" d="M3646.761-158.695a.5.5,0,0,1-.459-.307l-2.742-6.658a.5.5,0,0,1,.271-.648.5.5,0,0,1,.648.27l2.741,6.658a.5.5,0,0,1-.27.649A.5.5,0,0,1,3646.761-158.695Z" transform="translate(-3624.436 167.016)"/>
              <path id="Trazado_115563" data-name="Trazado 115563" d="M3640.191-157.13a.5.5,0,0,1-.457-.3l-3.276-7.661a.5.5,0,0,1,.261-.652.5.5,0,0,1,.653.261l3.276,7.661a.5.5,0,0,1-.261.652A.493.493,0,0,1,3640.191-157.13Z" transform="translate(-3622.726 166.881)"/>
              <path id="Trazado_115564" data-name="Trazado 115564" d="M3633.4-157.588a.5.5,0,0,1-.463-.314l-2.882-7.261a.5.5,0,0,1,.279-.645.5.5,0,0,1,.645.278l2.883,7.261a.5.5,0,0,1-.279.645A.5.5,0,0,1,3633.4-157.588Z" transform="translate(-3621.187 166.895)"/>
            </g>
            <path id="Trazado_115565" data-name="Trazado 115565" d="M3654.242-243.15a.415.415,0,0,1-.2-.049c-.057-.03-5.675-2.941-11.021-1.108-4.66,1.6-8.975-.423-12.828-6.006-4.816-6.979-15.144-5.219-18.538-4.64a.456.456,0,0,1-.584-.333.425.425,0,0,1,.349-.49c3.618-.617,14.348-2.446,19.474,4.98,3.66,5.305,7.536,7.165,11.851,5.685,5.7-1.955,11.453,1.033,11.695,1.161a.424.424,0,0,1,.177.574A.424.424,0,0,1,3654.242-243.15Z" transform="translate(-3582.424 292.651)"/>
            <path id="Trazado_115566" data-name="Trazado 115566" d="M3658.642-209.33a.5.5,0,0,1-.5-.5v-5.212a.5.5,0,0,1,.5-.5.5.5,0,0,1,.5.5v5.212A.5.5,0,0,1,3658.642-209.33Z" transform="translate(-3593.76 282.805)"/>
          </g>
          <path id="Trazado_115567" data-name="Trazado 115567" d="M3672.038-219.373a2.3,2.3,0,0,1-1.532-1.263.5.5,0,0,1,.263-.651.5.5,0,0,1,.651.261,1.261,1.261,0,0,0,.73.673.5.5,0,0,1,.371.6A.5.5,0,0,1,3672.038-219.373Z" transform="translate(-3596.726 284.199)"/>
        </g>
      </g>
    </g>
  </g>
</svg>
