<svg xmlns="http://www.w3.org/2000/svg" width="145" height="145" viewBox="0 0 145 145">
  <g id="Grupo_68796" data-name="Grupo 68796" transform="translate(-0.155)">
    <rect id="Rectángulo_4380" data-name="Rectángulo 4380" width="145" height="145" transform="translate(0.155)" fill="none"/>
    <g id="coke" transform="translate(-22.546 -13.734)">
      <ellipse id="Elipse_7938" data-name="Elipse 7938" cx="46.212" cy="45.749" rx="46.212" ry="45.749" transform="translate(40 32.167)" fill="#edebdc"/>
      <g id="Grupo_68788" data-name="Grupo 68788" transform="translate(98.212 29.083)">
        <path id="Trazado_115441" data-name="Trazado 115441" d="M238.007,74.029A2.007,2.007,0,0,1,236,72.022V68.007a2.007,2.007,0,1,1,4.015,0v4.015A2.007,2.007,0,0,1,238.007,74.029Z" transform="translate(-195.854 -51.003)" fill="#3a3c07"/>
        <path id="Trazado_115442" data-name="Trazado 115442" d="M238.007,98.029A2.007,2.007,0,0,1,236,96.022V92.007a2.007,2.007,0,1,1,4.015,0v4.015A2.007,2.007,0,0,1,238.007,98.029Z" transform="translate(-195.854 -62.959)" fill="#3a3c07"/>
        <path id="Trazado_115443" data-name="Trazado 115443" d="M226.022,86.015h-4.015a2.007,2.007,0,1,1,0-4.015h4.015a2.007,2.007,0,1,1,0,4.015Z" transform="translate(-187.883 -58.974)" fill="#3a3c07"/>
        <path id="Trazado_115444" data-name="Trazado 115444" d="M250.022,86.015h-4.015a2.007,2.007,0,1,1,0-4.015h4.015a2.007,2.007,0,1,1,0,4.015Z" transform="translate(-199.839 -58.974)" fill="#3a3c07"/>
        <path id="Trazado_115445" data-name="Trazado 115445" d="M163.026,84.051a7.026,7.026,0,1,1,7.026-7.026A7.034,7.034,0,0,1,163.026,84.051Zm0-10.037a3.011,3.011,0,1,0,3.011,3.011A3.014,3.014,0,0,0,163.026,74.015Z" transform="translate(-156 -52.996)" fill="#3a3c07"/>
        <circle id="Elipse_7939" data-name="Elipse 7939" cx="2.146" cy="2.146" r="2.146" transform="translate(21.01)" fill="#3a3c07"/>
      </g>
      <g id="Grupo_68789" data-name="Grupo 68789" transform="translate(54.077 22)">
        <path id="Trazado_115446" data-name="Trazado 115446" d="M74.508,26H91.677a2.456,2.456,0,0,1,2.456,2.456V37.6a2.456,2.456,0,0,1-2.456,2.456H74.508A2.456,2.456,0,0,1,72.052,37.6V28.456A2.456,2.456,0,0,1,74.508,26Z" transform="translate(-70.045 -23.993)" fill="#e66353" fill-rule="evenodd"/>
        <path id="Trazado_115447" data-name="Trazado 115447" d="M89.684,40.066H72.515A4.468,4.468,0,0,1,68.052,35.6V26.464A4.468,4.468,0,0,1,72.515,22H89.684a4.469,4.469,0,0,1,4.464,4.464V35.6a4.469,4.469,0,0,1-4.464,4.463ZM72.515,26.015a.449.449,0,0,0-.448.449V35.6a.449.449,0,0,0,.448.449H89.684a.449.449,0,0,0,.449-.449V26.464a.449.449,0,0,0-.449-.449Z" transform="translate(-68.052 -22)" fill="#3a3c07"/>
      </g>
      <g id="Grupo_68790" data-name="Grupo 68790" transform="translate(52.731 36.051)">
        <path id="Trazado_115448" data-name="Trazado 115448" d="M97.919,74.28l-1.8-2.828a27.491,27.491,0,0,1-3.046-7.315L90.788,54H72.722L70.55,64.137a23,23,0,0,1-1.182,3.639C77.968,70.788,88.342,73.654,97.919,74.28Z" transform="translate(-67.361 -51.993)" fill="#fff" fill-rule="evenodd"/>
        <path id="Trazado_115449" data-name="Trazado 115449" d="M95.927,74.295c-.043,0-.087,0-.131,0-8.327-.545-18.113-2.77-29.083-6.612a2.008,2.008,0,0,1-1.195-2.652,20.892,20.892,0,0,0,1.076-3.3l2.173-10.138A2.008,2.008,0,0,1,70.731,50H88.8a2.008,2.008,0,0,1,1.958,1.565L93.042,61.7a25.731,25.731,0,0,0,2.782,6.68l1.8,2.828a2.007,2.007,0,0,1-1.694,3.084ZM69.97,64.553A114.7,114.7,0,0,0,92.051,69.9a30.175,30.175,0,0,1-2.927-7.314l-1.934-8.572H72.354l-1.833,8.551A19.885,19.885,0,0,1,69.97,64.553Z" transform="translate(-65.369 -50)" fill="#3a3c07"/>
      </g>
      <g id="Grupo_68791" data-name="Grupo 68791" transform="translate(44.015 49.829)">
        <path id="Trazado_115450" data-name="Trazado 115450" d="M92.146,104.858c1.228-2.935,2.1-9.08,2.1-9.08l-4.974-7.823c-9.577-.626-19.952-3.492-28.551-6.5a23.52,23.52,0,0,1-1.821,3.64l-6.87,10.686s.815,6.031,1.981,8.839V156L52,164.027v8.488a5.563,5.563,0,0,0,5.563,5.563H88.591a5.563,5.563,0,0,0,5.563-5.563v-8.488L92.147,156v-51.14Z" transform="translate(-49.993 -79.446)" fill="#5e424e" fill-rule="evenodd"/>
        <path id="Trazado_115451" data-name="Trazado 115451" d="M86.6,178.094H55.57a7.579,7.579,0,0,1-7.57-7.57v-8.489a2.053,2.053,0,0,1,.06-.487l1.948-7.789V103a53.563,53.563,0,0,1-1.963-8.95,2.007,2.007,0,0,1,.3-1.353l6.869-10.685A21.777,21.777,0,0,0,56.866,78.7a2.01,2.01,0,0,1,2.522-1.136c10.627,3.723,20.054,5.874,28.018,6.394a2.009,2.009,0,0,1,1.562.926l4.975,7.823a2,2,0,0,1,.294,1.357,54.941,54.941,0,0,1-2.076,9.184v50.508l1.948,7.789a2.049,2.049,0,0,1,.06.487v8.489a7.579,7.579,0,0,1-7.57,7.57ZM52.015,162.282v8.242a3.559,3.559,0,0,0,3.555,3.555H86.6a3.559,3.559,0,0,0,3.555-3.555v-8.242l-1.948-7.789a2.052,2.052,0,0,1-.06-.487V102.867a1.993,1.993,0,0,1,.156-.774,43.758,43.758,0,0,0,1.851-7.862l-4.031-6.339a111.818,111.818,0,0,1-26.309-5.934,21.317,21.317,0,0,1-1.221,2.228L52.128,94.241a42.193,42.193,0,0,0,1.741,7.615,2,2,0,0,1,.154.769v51.381a2.053,2.053,0,0,1-.06.487Z" transform="translate(-48 -77.454)" fill="#3a3c07"/>
      </g>
      <g id="Grupo_68792" data-name="Grupo 68792" transform="translate(46.022 82.219)">
        <path id="Trazado_115452" data-name="Trazado 115452" d="M56,146H94.139v30.11H56Z" transform="translate(-53.993 -143.993)" fill="#e66353" fill-rule="evenodd"/>
        <path id="Trazado_115453" data-name="Trazado 115453" d="M92.146,176.124H54.007A2.007,2.007,0,0,1,52,174.117v-30.11A2.007,2.007,0,0,1,54.007,142H92.146a2.007,2.007,0,0,1,2.007,2.007v30.11A2.007,2.007,0,0,1,92.146,176.124ZM56.015,172.11H90.139v-26.1H56.015Z" transform="translate(-52 -142)" fill="#3a3c07"/>
      </g>
      <g id="Grupo_68793" data-name="Grupo 68793" transform="translate(52.044 96.271)">
        <path id="Trazado_115454" data-name="Trazado 115454" d="M68,178.015S86.066,180.022,94.1,174" transform="translate(-65.993 -171.993)" fill="#e66353" fill-rule="evenodd"/>
        <path id="Trazado_115455" data-name="Trazado 115455" d="M72.852,178.356a69.008,69.008,0,0,1-7.066-.339,2.007,2.007,0,0,1,.442-3.99c.174.02,17.375,1.847,24.67-3.625a2.007,2.007,0,1,1,2.409,3.211C88.033,177.57,79.109,178.356,72.852,178.356Z" transform="translate(-64.001 -170.001)" fill="#fff"/>
      </g>
      <path id="Trazado_115456" data-name="Trazado 115456" d="M138.1,274.015H114.007a2.007,2.007,0,0,1,0-4.015H138.1a2.007,2.007,0,1,1,0,4.015Z" transform="translate(-35.868 -123.546)" fill="#4c241d"/>
      <path id="Trazado_115457" data-name="Trazado 115457" d="M206.11,274.015h-28.1a2.007,2.007,0,0,1,0-4.015h28.1a2.007,2.007,0,1,1,0,4.015Z" transform="translate(-67.751 -123.546)" fill="#4c241d"/>
      <g id="Grupo_68794" data-name="Grupo 68794" transform="translate(72.117 72.183)">
        <path id="Trazado_115458" data-name="Trazado 115458" d="M148.146,132.022V126H114.022v6.022L108,140.051v54.2l6.022,6.022h34.124l6.022-6.022v-54.2Z" transform="translate(-105.993 -123.993)" fill="#e66353"/>
        <path id="Trazado_115459" data-name="Trazado 115459" d="M146.154,200.285H112.029a2.007,2.007,0,0,1-1.419-.588l-6.022-6.022a2.008,2.008,0,0,1-.588-1.419v-54.2a2.007,2.007,0,0,1,.4-1.2l5.62-7.494v-5.353A2.007,2.007,0,0,1,112.029,122h34.124a2.007,2.007,0,0,1,2.007,2.007v5.353l5.62,7.494a2.007,2.007,0,0,1,.4,1.2v54.2a2.007,2.007,0,0,1-.588,1.419l-6.022,6.022A2.007,2.007,0,0,1,146.154,200.285Zm-33.293-4.015h32.462l4.846-4.846v-52.7l-5.62-7.494a2.007,2.007,0,0,1-.4-1.2v-4.015h-30.11v4.015a2.007,2.007,0,0,1-.4,1.2l-5.62,7.494v52.7Z" transform="translate(-104 -122)" fill="#3a3c07"/>
      </g>
      <path id="Trazado_115460" data-name="Trazado 115460" d="M176.088,154.015h-22.08a2.007,2.007,0,1,1,0-4.015h22.08a2.007,2.007,0,1,1,0,4.015Z" transform="translate(-55.795 -63.766)" fill="#4c241d"/>
      <g id="Grupo_68795" data-name="Grupo 68795" transform="translate(82.154 116.344)">
        <path id="Trazado_115461" data-name="Trazado 115461" d="M128,218.015s18.066,2.007,26.1-4.015" transform="translate(-125.993 -211.992)" fill="#e66353" fill-rule="evenodd"/>
        <path id="Trazado_115462" data-name="Trazado 115462" d="M132.852,218.355a69.016,69.016,0,0,1-7.066-.339,2.007,2.007,0,0,1,.442-3.99c.173.021,17.376,1.846,24.67-3.625a2.007,2.007,0,1,1,2.409,3.211C148.033,217.569,139.109,218.355,132.852,218.355Z" transform="translate(-124.001 -209.999)" fill="#fff"/>
      </g>
    </g>
  </g>
</svg>
