<svg xmlns="http://www.w3.org/2000/svg" width="399" height="231" viewBox="0 0 399 231">
  <g id="Grupo_68885" data-name="Grupo 68885" transform="translate(-1020 -712)">
    <rect id="Rect치ngulo_6135" data-name="Rect치ngulo 6135" width="399" height="177" rx="10" transform="translate(1020 766)" fill="#e7e9bf"/>
    <g id="Grupo_68786" data-name="Grupo 68786" transform="translate(-4)">
      <rect id="Rect치ngulo_6149" data-name="Rect치ngulo 6149" width="213" height="213" transform="translate(1117 712)" fill="none"/>
      <g id="_4" data-name="4" transform="translate(1062.372 688.055)">
        <g id="Grupo_68761" data-name="Grupo 68761" transform="translate(57.112 102.508)">
          <g id="Grupo_68757" data-name="Grupo 68757" transform="translate(0 17.491)">
            <g id="Grupo_68755" data-name="Grupo 68755" transform="translate(72.813 38.553)">
              <path id="Trazado_115095" data-name="Trazado 115095" d="M480.4,661.049a.706.706,0,0,1,0,1.338,2.562,2.562,0,0,1-2.317,0,.706.706,0,0,1,0-1.338A2.562,2.562,0,0,1,480.4,661.049Z" transform="translate(-423.018 -594.27)" fill="#3a3c07"/>
              <path id="Trazado_115096" data-name="Trazado 115096" d="M500.344,649.533a.707.707,0,0,1,0,1.338,2.562,2.562,0,0,1-2.318,0,.707.707,0,0,1,0-1.338A2.563,2.563,0,0,1,500.344,649.533Z" transform="translate(-436.904 -586.252)" fill="#3a3c07"/>
              <path id="Trazado_115097" data-name="Trazado 115097" d="M520.29,638.018a.706.706,0,0,1,0,1.338,2.56,2.56,0,0,1-2.317,0,.706.706,0,0,1,0-1.338A2.559,2.559,0,0,1,520.29,638.018Z" transform="translate(-450.791 -578.234)" fill="#3a3c07"/>
              <path id="Trazado_115098" data-name="Trazado 115098" d="M540.236,626.5a.706.706,0,0,1,0,1.338,2.561,2.561,0,0,1-2.317,0,.706.706,0,0,1,0-1.338A2.56,2.56,0,0,1,540.236,626.5Z" transform="translate(-464.678 -570.216)" fill="#3a3c07"/>
              <path id="Trazado_115099" data-name="Trazado 115099" d="M560.182,614.985a.707.707,0,0,1,0,1.338,2.564,2.564,0,0,1-2.318,0,.707.707,0,0,1,0-1.338A2.562,2.562,0,0,1,560.182,614.985Z" transform="translate(-478.565 -562.198)" fill="#3a3c07"/>
              <path id="Trazado_115100" data-name="Trazado 115100" d="M580.128,603.47a.706.706,0,0,1,0,1.338,2.559,2.559,0,0,1-2.317,0,.706.706,0,0,1,0-1.338A2.561,2.561,0,0,1,580.128,603.47Z" transform="translate(-492.452 -554.181)" fill="#3a3c07"/>
              <path id="Trazado_115101" data-name="Trazado 115101" d="M600.074,591.953a.706.706,0,0,1,0,1.338,2.559,2.559,0,0,1-2.317,0,.706.706,0,0,1,0-1.338A2.559,2.559,0,0,1,600.074,591.953Z" transform="translate(-506.339 -546.163)" fill="#3a3c07"/>
              <path id="Trazado_115102" data-name="Trazado 115102" d="M620.02,580.438a.706.706,0,0,1,0,1.338,2.559,2.559,0,0,1-2.317,0,.706.706,0,0,1,0-1.338A2.562,2.562,0,0,1,620.02,580.438Z" transform="translate(-520.226 -538.146)" fill="#3a3c07"/>
              <path id="Trazado_115103" data-name="Trazado 115103" d="M639.966,568.922a.706.706,0,0,1,0,1.338,2.562,2.562,0,0,1-2.318,0,.706.706,0,0,1,0-1.338A2.562,2.562,0,0,1,639.966,568.922Z" transform="translate(-534.113 -530.128)" fill="#3a3c07"/>
              <path id="Trazado_115104" data-name="Trazado 115104" d="M659.912,557.406a.706.706,0,0,1,0,1.338,2.564,2.564,0,0,1-2.318,0,.706.706,0,0,1,0-1.338A2.56,2.56,0,0,1,659.912,557.406Z" transform="translate(-548 -522.111)" fill="#3a3c07"/>
              <path id="Trazado_115105" data-name="Trazado 115105" d="M679.858,545.891a.706.706,0,0,1,0,1.338,2.56,2.56,0,0,1-2.318,0,.706.706,0,0,1,0-1.338A2.564,2.564,0,0,1,679.858,545.891Z" transform="translate(-561.887 -514.093)" fill="#3a3c07"/>
              <path id="Trazado_115106" data-name="Trazado 115106" d="M440.506,661.049a.706.706,0,0,1,0,1.338,2.563,2.563,0,0,1-2.317,0,.706.706,0,0,1,0-1.338A2.561,2.561,0,0,1,440.506,661.049Z" transform="translate(-395.244 -594.27)" fill="#3a3c07"/>
              <ellipse id="Elipse_7879" data-name="Elipse 7879" cx="1.639" cy="0.946" rx="1.639" ry="0.946" transform="translate(48.524 63.004)" fill="#3a3c07"/>
              <path id="Trazado_115107" data-name="Trazado 115107" d="M480.4,638.018a.706.706,0,0,1,0,1.338,2.558,2.558,0,0,1-2.317,0,.706.706,0,0,1,0-1.338A2.56,2.56,0,0,1,480.4,638.018Z" transform="translate(-423.018 -578.234)" fill="#3a3c07"/>
              <path id="Trazado_115108" data-name="Trazado 115108" d="M500.344,626.5a.706.706,0,0,1,0,1.338,2.561,2.561,0,0,1-2.318,0,.706.706,0,0,1,0-1.338A2.56,2.56,0,0,1,500.344,626.5Z" transform="translate(-436.904 -570.216)" fill="#3a3c07"/>
              <path id="Trazado_115109" data-name="Trazado 115109" d="M520.29,614.985a.706.706,0,0,1,0,1.338,2.563,2.563,0,0,1-2.317,0,.707.707,0,0,1,0-1.338A2.561,2.561,0,0,1,520.29,614.985Z" transform="translate(-450.791 -562.198)" fill="#3a3c07"/>
              <path id="Trazado_115110" data-name="Trazado 115110" d="M540.236,603.47a.706.706,0,0,1,0,1.338,2.559,2.559,0,0,1-2.317,0,.706.706,0,0,1,0-1.338A2.562,2.562,0,0,1,540.236,603.47Z" transform="translate(-464.678 -554.181)" fill="#3a3c07"/>
              <path id="Trazado_115111" data-name="Trazado 115111" d="M560.183,591.954a.706.706,0,0,1,0,1.338,2.561,2.561,0,0,1-2.318,0,.706.706,0,0,1,0-1.338A2.562,2.562,0,0,1,560.183,591.954Z" transform="translate(-478.565 -546.164)" fill="#3a3c07"/>
              <path id="Trazado_115112" data-name="Trazado 115112" d="M580.128,580.438a.707.707,0,0,1,0,1.338,2.562,2.562,0,0,1-2.317,0,.706.706,0,0,1,0-1.338A2.562,2.562,0,0,1,580.128,580.438Z" transform="translate(-492.452 -538.146)" fill="#3a3c07"/>
              <path id="Trazado_115113" data-name="Trazado 115113" d="M600.074,568.923a.706.706,0,0,1,0,1.338,2.561,2.561,0,0,1-2.317,0,.706.706,0,0,1,0-1.338A2.559,2.559,0,0,1,600.074,568.923Z" transform="translate(-506.339 -530.128)" fill="#3a3c07"/>
              <path id="Trazado_115114" data-name="Trazado 115114" d="M620.021,557.406a.706.706,0,0,1,0,1.338,2.561,2.561,0,0,1-2.317,0,.706.706,0,0,1,0-1.338A2.559,2.559,0,0,1,620.021,557.406Z" transform="translate(-520.226 -522.111)" fill="#3a3c07"/>
              <ellipse id="Elipse_7880" data-name="Elipse 7880" cx="1.639" cy="0.946" rx="1.639" ry="0.946" transform="translate(103.056 31.52)" fill="#3a3c07"/>
              <path id="Trazado_115115" data-name="Trazado 115115" d="M659.912,534.375a.706.706,0,0,1,0,1.338,2.56,2.56,0,0,1-2.318,0,.706.706,0,0,1,0-1.338A2.562,2.562,0,0,1,659.912,534.375Z" transform="translate(-548 -506.076)" fill="#3a3c07"/>
              <path id="Trazado_115116" data-name="Trazado 115116" d="M420.561,649.533a.706.706,0,0,1,0,1.338,2.561,2.561,0,0,1-2.317,0,.706.706,0,0,1,0-1.338A2.561,2.561,0,0,1,420.561,649.533Z" transform="translate(-381.357 -586.252)" fill="#3a3c07"/>
              <path id="Trazado_115117" data-name="Trazado 115117" d="M440.507,638.018a.706.706,0,0,1,0,1.338,2.557,2.557,0,0,1-2.317,0,.706.706,0,0,1,0-1.338A2.561,2.561,0,0,1,440.507,638.018Z" transform="translate(-395.244 -578.235)" fill="#3a3c07"/>
              <path id="Trazado_115118" data-name="Trazado 115118" d="M460.453,626.5a.706.706,0,0,1,0,1.338,2.563,2.563,0,0,1-2.317,0,.706.706,0,0,1,0-1.338A2.56,2.56,0,0,1,460.453,626.5Z" transform="translate(-409.131 -570.216)" fill="#3a3c07"/>
              <path id="Trazado_115119" data-name="Trazado 115119" d="M480.4,614.986a.706.706,0,0,1,0,1.338,2.564,2.564,0,0,1-2.317,0,.706.706,0,0,1,0-1.338A2.56,2.56,0,0,1,480.4,614.986Z" transform="translate(-423.018 -562.199)" fill="#3a3c07"/>
              <path id="Trazado_115120" data-name="Trazado 115120" d="M500.344,603.47a.706.706,0,0,1,0,1.338,2.558,2.558,0,0,1-2.318,0,.706.706,0,0,1,0-1.338A2.562,2.562,0,0,1,500.344,603.47Z" transform="translate(-436.904 -554.181)" fill="#3a3c07"/>
              <ellipse id="Elipse_7881" data-name="Elipse 7881" cx="1.639" cy="0.946" rx="1.639" ry="0.946" transform="translate(66.702 45.513)" fill="#3a3c07"/>
              <path id="Trazado_115121" data-name="Trazado 115121" d="M540.236,580.438a.706.706,0,0,1,0,1.338,2.564,2.564,0,0,1-2.317,0,.707.707,0,0,1,0-1.338A2.562,2.562,0,0,1,540.236,580.438Z" transform="translate(-464.678 -538.146)" fill="#3a3c07"/>
              <path id="Trazado_115122" data-name="Trazado 115122" d="M560.183,568.923a.706.706,0,0,1,0,1.338,2.562,2.562,0,0,1-2.318,0,.706.706,0,0,1,0-1.338A2.561,2.561,0,0,1,560.183,568.923Z" transform="translate(-478.565 -530.128)" fill="#3a3c07"/>
              <path id="Trazado_115123" data-name="Trazado 115123" d="M580.128,557.407a.706.706,0,0,1,0,1.338,2.561,2.561,0,0,1-2.317,0,.706.706,0,0,1,0-1.338A2.561,2.561,0,0,1,580.128,557.407Z" transform="translate(-492.452 -522.111)" fill="#3a3c07"/>
              <path id="Trazado_115124" data-name="Trazado 115124" d="M600.074,545.891a.706.706,0,0,1,0,1.338,2.562,2.562,0,0,1-2.317,0,.707.707,0,0,1,0-1.338A2.563,2.563,0,0,1,600.074,545.891Z" transform="translate(-506.339 -514.093)" fill="#3a3c07"/>
              <path id="Trazado_115125" data-name="Trazado 115125" d="M620.021,534.375a.706.706,0,0,1,0,1.338,2.559,2.559,0,0,1-2.317,0,.706.706,0,0,1,0-1.338A2.56,2.56,0,0,1,620.021,534.375Z" transform="translate(-520.226 -506.076)" fill="#3a3c07"/>
              <path id="Trazado_115126" data-name="Trazado 115126" d="M639.967,522.859a.706.706,0,0,1,0,1.338,2.562,2.562,0,0,1-2.317,0,.706.706,0,0,1,0-1.338A2.558,2.558,0,0,1,639.967,522.859Z" transform="translate(-534.113 -498.057)" fill="#3a3c07"/>
              <path id="Trazado_115127" data-name="Trazado 115127" d="M400.615,638.018a.706.706,0,0,1,0,1.338,2.558,2.558,0,0,1-2.317,0,.706.706,0,0,1,0-1.338A2.562,2.562,0,0,1,400.615,638.018Z" transform="translate(-367.47 -578.235)" fill="#3a3c07"/>
              <path id="Trazado_115128" data-name="Trazado 115128" d="M420.561,626.5a.706.706,0,0,1,0,1.338,2.563,2.563,0,0,1-2.317,0,.706.706,0,0,1,0-1.338A2.56,2.56,0,0,1,420.561,626.5Z" transform="translate(-381.357 -570.216)" fill="#3a3c07"/>
              <path id="Trazado_115129" data-name="Trazado 115129" d="M440.507,614.986a.706.706,0,0,1,0,1.338,2.563,2.563,0,0,1-2.317,0,.706.706,0,0,1,0-1.338A2.559,2.559,0,0,1,440.507,614.986Z" transform="translate(-395.244 -562.199)" fill="#3a3c07"/>
              <path id="Trazado_115130" data-name="Trazado 115130" d="M460.453,603.47a.706.706,0,0,1,0,1.338,2.558,2.558,0,0,1-2.318,0,.706.706,0,0,1,0-1.338A2.562,2.562,0,0,1,460.453,603.47Z" transform="translate(-409.131 -554.181)" fill="#3a3c07"/>
              <path id="Trazado_115131" data-name="Trazado 115131" d="M480.4,591.954a.706.706,0,0,1,0,1.338,2.561,2.561,0,0,1-2.317,0,.706.706,0,0,1,0-1.338A2.562,2.562,0,0,1,480.4,591.954Z" transform="translate(-423.018 -546.164)" fill="#3a3c07"/>
              <path id="Trazado_115132" data-name="Trazado 115132" d="M500.344,580.438a.707.707,0,0,1,0,1.339,2.564,2.564,0,0,1-2.318,0,.706.706,0,0,1,0-1.338A2.561,2.561,0,0,1,500.344,580.438Z" transform="translate(-436.904 -538.146)" fill="#3a3c07"/>
              <path id="Trazado_115133" data-name="Trazado 115133" d="M520.291,568.923a.706.706,0,0,1,0,1.338,2.56,2.56,0,0,1-2.318,0,.706.706,0,0,1,0-1.338A2.56,2.56,0,0,1,520.291,568.923Z" transform="translate(-450.792 -530.128)" fill="#3a3c07"/>
              <path id="Trazado_115134" data-name="Trazado 115134" d="M540.237,557.407a.706.706,0,0,1,0,1.338,2.56,2.56,0,0,1-2.317,0,.706.706,0,0,1,0-1.338A2.561,2.561,0,0,1,540.237,557.407Z" transform="translate(-464.679 -522.111)" fill="#3a3c07"/>
              <path id="Trazado_115135" data-name="Trazado 115135" d="M560.183,545.891a.706.706,0,0,1,0,1.338,2.563,2.563,0,0,1-2.318,0,.707.707,0,0,1,0-1.338A2.564,2.564,0,0,1,560.183,545.891Z" transform="translate(-478.565 -514.093)" fill="#3a3c07"/>
              <path id="Trazado_115136" data-name="Trazado 115136" d="M580.129,534.375a.706.706,0,0,1,0,1.338,2.559,2.559,0,0,1-2.317,0,.706.706,0,0,1,0-1.338A2.56,2.56,0,0,1,580.129,534.375Z" transform="translate(-492.453 -506.076)" fill="#3a3c07"/>
              <path id="Trazado_115137" data-name="Trazado 115137" d="M600.074,522.859a.706.706,0,0,1,0,1.338,2.561,2.561,0,0,1-2.317,0,.706.706,0,0,1,0-1.338A2.557,2.557,0,0,1,600.074,522.859Z" transform="translate(-506.339 -498.057)" fill="#3a3c07"/>
              <path id="Trazado_115138" data-name="Trazado 115138" d="M620.021,511.343a.706.706,0,0,1,0,1.338,2.562,2.562,0,0,1-2.317,0,.706.706,0,0,1,0-1.338A2.561,2.561,0,0,1,620.021,511.343Z" transform="translate(-520.226 -490.04)" fill="#3a3c07"/>
              <path id="Trazado_115139" data-name="Trazado 115139" d="M380.669,626.5a.706.706,0,0,1,0,1.338,2.563,2.563,0,0,1-2.317,0,.707.707,0,0,1,0-1.338A2.56,2.56,0,0,1,380.669,626.5Z" transform="translate(-353.584 -570.216)" fill="#3a3c07"/>
              <path id="Trazado_115140" data-name="Trazado 115140" d="M400.616,614.986a.706.706,0,0,1,0,1.338,2.564,2.564,0,0,1-2.318,0,.706.706,0,0,1,0-1.338A2.56,2.56,0,0,1,400.616,614.986Z" transform="translate(-367.471 -562.199)" fill="#3a3c07"/>
              <path id="Trazado_115141" data-name="Trazado 115141" d="M420.561,603.471a.706.706,0,0,1,0,1.338,2.556,2.556,0,0,1-2.317,0,.706.706,0,0,1,0-1.338A2.563,2.563,0,0,1,420.561,603.471Z" transform="translate(-381.357 -554.182)" fill="#3a3c07"/>
              <ellipse id="Elipse_7882" data-name="Elipse 7882" cx="1.639" cy="0.946" rx="1.639" ry="0.946" transform="translate(42.466 45.513)" fill="#3a3c07"/>
              <path id="Trazado_115142" data-name="Trazado 115142" d="M460.453,580.439a.706.706,0,0,1,0,1.338,2.564,2.564,0,0,1-2.318,0,.706.706,0,0,1,0-1.338A2.56,2.56,0,0,1,460.453,580.439Z" transform="translate(-409.131 -538.146)" fill="#3a3c07"/>
              <path id="Trazado_115143" data-name="Trazado 115143" d="M480.4,568.923a.706.706,0,0,1,0,1.338,2.56,2.56,0,0,1-2.318,0,.706.706,0,0,1,0-1.338A2.56,2.56,0,0,1,480.4,568.923Z" transform="translate(-423.018 -530.128)" fill="#3a3c07"/>
              <path id="Trazado_115144" data-name="Trazado 115144" d="M500.344,557.407a.706.706,0,0,1,0,1.338,2.562,2.562,0,0,1-2.318,0,.706.706,0,0,1,0-1.338A2.561,2.561,0,0,1,500.344,557.407Z" transform="translate(-436.904 -522.111)" fill="#3a3c07"/>
              <ellipse id="Elipse_7883" data-name="Elipse 7883" cx="1.639" cy="0.946" rx="1.639" ry="0.946" transform="translate(66.702 31.52)" fill="#3a3c07"/>
              <path id="Trazado_115145" data-name="Trazado 115145" d="M540.237,534.375a.706.706,0,0,1,0,1.338,2.559,2.559,0,0,1-2.317,0,.706.706,0,0,1,0-1.338A2.56,2.56,0,0,1,540.237,534.375Z" transform="translate(-464.679 -506.076)" fill="#3a3c07"/>
              <path id="Trazado_115146" data-name="Trazado 115146" d="M560.183,522.859a.706.706,0,0,1,0,1.338,2.563,2.563,0,0,1-2.318,0,.706.706,0,0,1,0-1.338A2.561,2.561,0,0,1,560.183,522.859Z" transform="translate(-478.565 -498.058)" fill="#3a3c07"/>
              <path id="Trazado_115147" data-name="Trazado 115147" d="M580.129,511.343a.707.707,0,0,1,0,1.338,2.563,2.563,0,0,1-2.317,0,.706.706,0,0,1,0-1.338A2.561,2.561,0,0,1,580.129,511.343Z" transform="translate(-492.453 -490.04)" fill="#3a3c07"/>
              <path id="Trazado_115148" data-name="Trazado 115148" d="M600.075,499.828a.706.706,0,0,1,0,1.338,2.559,2.559,0,0,1-2.317,0,.706.706,0,0,1,0-1.338A2.561,2.561,0,0,1,600.075,499.828Z" transform="translate(-506.34 -482.023)" fill="#3a3c07"/>
              <path id="Trazado_115149" data-name="Trazado 115149" d="M360.724,614.986a.706.706,0,0,1,0,1.338,2.562,2.562,0,0,1-2.318,0,.706.706,0,0,1,0-1.338A2.56,2.56,0,0,1,360.724,614.986Z" transform="translate(-339.697 -562.199)" fill="#3a3c07"/>
              <path id="Trazado_115150" data-name="Trazado 115150" d="M380.669,603.471a.706.706,0,0,1,0,1.338,2.558,2.558,0,0,1-2.317,0,.706.706,0,0,1,0-1.338A2.564,2.564,0,0,1,380.669,603.471Z" transform="translate(-353.584 -554.182)" fill="#3a3c07"/>
              <path id="Trazado_115151" data-name="Trazado 115151" d="M400.616,591.954a.706.706,0,0,1,0,1.338,2.562,2.562,0,0,1-2.318,0,.706.706,0,0,1,0-1.338A2.562,2.562,0,0,1,400.616,591.954Z" transform="translate(-367.471 -546.164)" fill="#3a3c07"/>
              <path id="Trazado_115152" data-name="Trazado 115152" d="M420.561,580.439a.706.706,0,0,1,0,1.338,2.563,2.563,0,0,1-2.317,0,.706.706,0,0,1,0-1.338A2.559,2.559,0,0,1,420.561,580.439Z" transform="translate(-381.357 -538.146)" fill="#3a3c07"/>
              <path id="Trazado_115153" data-name="Trazado 115153" d="M440.507,568.923a.706.706,0,0,1,0,1.338,2.559,2.559,0,0,1-2.317,0,.706.706,0,0,1,0-1.338A2.561,2.561,0,0,1,440.507,568.923Z" transform="translate(-395.244 -530.129)" fill="#3a3c07"/>
              <path id="Trazado_115154" data-name="Trazado 115154" d="M460.453,557.407a.706.706,0,0,1,0,1.338,2.564,2.564,0,0,1-2.318,0,.706.706,0,0,1,0-1.338A2.561,2.561,0,0,1,460.453,557.407Z" transform="translate(-409.131 -522.111)" fill="#3a3c07"/>
              <path id="Trazado_115155" data-name="Trazado 115155" d="M480.4,545.891a.706.706,0,0,1,0,1.338,2.562,2.562,0,0,1-2.317,0,.706.706,0,0,1,0-1.338A2.562,2.562,0,0,1,480.4,545.891Z" transform="translate(-423.018 -514.093)" fill="#3a3c07"/>
              <path id="Trazado_115156" data-name="Trazado 115156" d="M500.345,534.375a.706.706,0,0,1,0,1.338,2.558,2.558,0,0,1-2.317,0,.706.706,0,0,1,0-1.338A2.56,2.56,0,0,1,500.345,534.375Z" transform="translate(-436.904 -506.076)" fill="#3a3c07"/>
              <ellipse id="Elipse_7884" data-name="Elipse 7884" cx="1.639" cy="0.946" rx="1.639" ry="0.946" transform="translate(66.702 24.524)" fill="#3a3c07"/>
              <path id="Trazado_115157" data-name="Trazado 115157" d="M540.237,511.343a.706.706,0,0,1,0,1.338,2.563,2.563,0,0,1-2.317,0,.706.706,0,0,1,0-1.338A2.561,2.561,0,0,1,540.237,511.343Z" transform="translate(-464.679 -490.04)" fill="#3a3c07"/>
              <path id="Trazado_115158" data-name="Trazado 115158" d="M560.183,499.828a.706.706,0,0,1,0,1.338,2.56,2.56,0,0,1-2.318,0,.706.706,0,0,1,0-1.338A2.562,2.562,0,0,1,560.183,499.828Z" transform="translate(-478.566 -482.023)" fill="#3a3c07"/>
              <path id="Trazado_115159" data-name="Trazado 115159" d="M580.129,488.312a.706.706,0,0,1,0,1.338,2.559,2.559,0,0,1-2.317,0,.706.706,0,0,1,0-1.338A2.561,2.561,0,0,1,580.129,488.312Z" transform="translate(-492.453 -474.005)" fill="#3a3c07"/>
              <path id="Trazado_115160" data-name="Trazado 115160" d="M340.777,603.471a.706.706,0,0,1,0,1.338,2.56,2.56,0,0,1-2.318,0,.706.706,0,0,1,0-1.338A2.564,2.564,0,0,1,340.777,603.471Z" transform="translate(-325.809 -554.182)" fill="#3a3c07"/>
              <path id="Trazado_115161" data-name="Trazado 115161" d="M360.724,591.955a.706.706,0,0,1,0,1.338,2.562,2.562,0,0,1-2.318,0,.706.706,0,0,1,0-1.338A2.56,2.56,0,0,1,360.724,591.955Z" transform="translate(-339.697 -546.164)" fill="#3a3c07"/>
              <path id="Trazado_115162" data-name="Trazado 115162" d="M380.67,580.439a.706.706,0,0,1,0,1.338,2.562,2.562,0,0,1-2.318,0,.706.706,0,0,1,0-1.338A2.56,2.56,0,0,1,380.67,580.439Z" transform="translate(-353.584 -538.146)" fill="#3a3c07"/>
              <path id="Trazado_115163" data-name="Trazado 115163" d="M400.616,568.923a.706.706,0,0,1,0,1.338,2.56,2.56,0,0,1-2.318,0,.706.706,0,0,1,0-1.338A2.562,2.562,0,0,1,400.616,568.923Z" transform="translate(-367.471 -530.129)" fill="#3a3c07"/>
              <path id="Trazado_115164" data-name="Trazado 115164" d="M420.562,557.407a.706.706,0,0,1,0,1.338,2.563,2.563,0,0,1-2.317,0,.706.706,0,0,1,0-1.338A2.561,2.561,0,0,1,420.562,557.407Z" transform="translate(-381.358 -522.111)" fill="#3a3c07"/>
              <path id="Trazado_115165" data-name="Trazado 115165" d="M440.507,545.891a.706.706,0,0,1,0,1.338,2.561,2.561,0,0,1-2.317,0,.706.706,0,0,1,0-1.338A2.561,2.561,0,0,1,440.507,545.891Z" transform="translate(-395.244 -514.093)" fill="#3a3c07"/>
              <path id="Trazado_115166" data-name="Trazado 115166" d="M460.453,534.376a.706.706,0,0,1,0,1.338,2.558,2.558,0,0,1-2.318,0,.706.706,0,0,1,0-1.338A2.562,2.562,0,0,1,460.453,534.376Z" transform="translate(-409.131 -506.076)" fill="#3a3c07"/>
              <ellipse id="Elipse_7885" data-name="Elipse 7885" cx="1.639" cy="0.946" rx="1.639" ry="0.946" transform="translate(54.584 24.524)" fill="#3a3c07"/>
              <path id="Trazado_115167" data-name="Trazado 115167" d="M500.345,511.344a.706.706,0,0,1,0,1.338,2.564,2.564,0,0,1-2.317,0,.706.706,0,0,1,0-1.338A2.56,2.56,0,0,1,500.345,511.344Z" transform="translate(-436.904 -490.04)" fill="#3a3c07"/>
              <path id="Trazado_115168" data-name="Trazado 115168" d="M520.291,499.828a.706.706,0,0,1,0,1.338,2.558,2.558,0,0,1-2.317,0,.706.706,0,0,1,0-1.338A2.561,2.561,0,0,1,520.291,499.828Z" transform="translate(-450.792 -482.023)" fill="#3a3c07"/>
              <path id="Trazado_115169" data-name="Trazado 115169" d="M540.237,488.312a.706.706,0,0,1,0,1.338,2.559,2.559,0,0,1-2.317,0,.706.706,0,0,1,0-1.338A2.561,2.561,0,0,1,540.237,488.312Z" transform="translate(-464.679 -474.005)" fill="#3a3c07"/>
              <path id="Trazado_115170" data-name="Trazado 115170" d="M560.183,476.8a.706.706,0,0,1,0,1.338,2.564,2.564,0,0,1-2.318,0,.707.707,0,0,1,0-1.338A2.562,2.562,0,0,1,560.183,476.8Z" transform="translate(-478.566 -465.988)" fill="#3a3c07"/>
              <path id="Trazado_115171" data-name="Trazado 115171" d="M320.832,591.955a.706.706,0,0,1,0,1.338,2.562,2.562,0,0,1-2.318,0,.706.706,0,0,1,0-1.338A2.56,2.56,0,0,1,320.832,591.955Z" transform="translate(-311.923 -546.164)" fill="#3a3c07"/>
              <ellipse id="Elipse_7886" data-name="Elipse 7886" cx="1.639" cy="0.946" rx="1.639" ry="0.946" transform="translate(12.17 42.015)" fill="#3a3c07"/>
              <path id="Trazado_115172" data-name="Trazado 115172" d="M360.724,568.923a.706.706,0,0,1,0,1.338,2.562,2.562,0,0,1-2.318,0,.707.707,0,0,1,0-1.338A2.562,2.562,0,0,1,360.724,568.923Z" transform="translate(-339.697 -530.129)" fill="#3a3c07"/>
              <path id="Trazado_115173" data-name="Trazado 115173" d="M380.67,557.407a.706.706,0,0,1,0,1.338,2.564,2.564,0,0,1-2.318,0,.706.706,0,0,1,0-1.338A2.561,2.561,0,0,1,380.67,557.407Z" transform="translate(-353.584 -522.111)" fill="#3a3c07"/>
              <path id="Trazado_115174" data-name="Trazado 115174" d="M400.616,545.891a.706.706,0,0,1,0,1.338,2.56,2.56,0,0,1-2.318,0,.706.706,0,0,1,0-1.338A2.562,2.562,0,0,1,400.616,545.891Z" transform="translate(-367.471 -514.093)" fill="#3a3c07"/>
              <path id="Trazado_115175" data-name="Trazado 115175" d="M420.562,534.376a.706.706,0,0,1,0,1.338,2.557,2.557,0,0,1-2.317,0,.706.706,0,0,1,0-1.338A2.561,2.561,0,0,1,420.562,534.376Z" transform="translate(-381.358 -506.076)" fill="#3a3c07"/>
              <path id="Trazado_115176" data-name="Trazado 115176" d="M440.508,522.859a.706.706,0,0,1,0,1.338,2.563,2.563,0,0,1-2.317,0,.706.706,0,0,1,0-1.338A2.559,2.559,0,0,1,440.508,522.859Z" transform="translate(-395.245 -498.058)" fill="#3a3c07"/>
              <path id="Trazado_115177" data-name="Trazado 115177" d="M460.453,511.344a.706.706,0,0,1,0,1.338,2.563,2.563,0,0,1-2.317,0,.706.706,0,0,1,0-1.338A2.559,2.559,0,0,1,460.453,511.344Z" transform="translate(-409.131 -490.04)" fill="#3a3c07"/>
              <path id="Trazado_115178" data-name="Trazado 115178" d="M480.4,499.828a.706.706,0,0,1,0,1.338,2.558,2.558,0,0,1-2.317,0,.706.706,0,0,1,0-1.338A2.562,2.562,0,0,1,480.4,499.828Z" transform="translate(-423.018 -482.023)" fill="#3a3c07"/>
              <path id="Trazado_115179" data-name="Trazado 115179" d="M500.345,488.312a.706.706,0,0,1,0,1.338,2.56,2.56,0,0,1-2.318,0,.706.706,0,0,1,0-1.338A2.562,2.562,0,0,1,500.345,488.312Z" transform="translate(-436.905 -474.005)" fill="#3a3c07"/>
              <ellipse id="Elipse_7887" data-name="Elipse 7887" cx="1.639" cy="0.946" rx="1.639" ry="0.946" transform="translate(66.702 10.531)" fill="#3a3c07"/>
              <ellipse id="Elipse_7888" data-name="Elipse 7888" cx="1.639" cy="0.946" rx="1.639" ry="0.946" transform="translate(72.761 7.033)" fill="#3a3c07"/>
              <path id="Trazado_115180" data-name="Trazado 115180" d="M300.714,580.317a.707.707,0,0,1,0,1.338,2.562,2.562,0,0,1-2.318,0,.706.706,0,0,1,0-1.338A2.562,2.562,0,0,1,300.714,580.317Z" transform="translate(-297.916 -538.062)" fill="#3a3c07"/>
              <path id="Trazado_115181" data-name="Trazado 115181" d="M320.659,568.8a.706.706,0,0,1,0,1.338,2.562,2.562,0,0,1-2.317,0,.706.706,0,0,1,0-1.338A2.559,2.559,0,0,1,320.659,568.8Z" transform="translate(-311.803 -530.044)" fill="#3a3c07"/>
              <path id="Trazado_115182" data-name="Trazado 115182" d="M340.605,557.286a.706.706,0,0,1,0,1.338,2.56,2.56,0,0,1-2.318,0,.706.706,0,0,1,0-1.338A2.56,2.56,0,0,1,340.605,557.286Z" transform="translate(-325.689 -522.026)" fill="#3a3c07"/>
              <path id="Trazado_115183" data-name="Trazado 115183" d="M360.551,545.769a.706.706,0,0,1,0,1.338,2.562,2.562,0,0,1-2.317,0,.706.706,0,0,1,0-1.338A2.56,2.56,0,0,1,360.551,545.769Z" transform="translate(-339.576 -514.009)" fill="#3a3c07"/>
              <path id="Trazado_115184" data-name="Trazado 115184" d="M380.5,534.254a.706.706,0,0,1,0,1.338,2.562,2.562,0,0,1-2.317,0,.706.706,0,0,1,0-1.338A2.561,2.561,0,0,1,380.5,534.254Z" transform="translate(-353.463 -505.991)" fill="#3a3c07"/>
              <path id="Trazado_115185" data-name="Trazado 115185" d="M400.443,522.738a.706.706,0,0,1,0,1.338,2.562,2.562,0,0,1-2.318,0,.706.706,0,0,1,0-1.338A2.562,2.562,0,0,1,400.443,522.738Z" transform="translate(-367.35 -497.974)" fill="#3a3c07"/>
              <path id="Trazado_115186" data-name="Trazado 115186" d="M420.389,511.223a.706.706,0,0,1,0,1.338,2.562,2.562,0,0,1-2.317,0,.706.706,0,0,1,0-1.338A2.56,2.56,0,0,1,420.389,511.223Z" transform="translate(-381.238 -489.956)" fill="#3a3c07"/>
              <ellipse id="Elipse_7889" data-name="Elipse 7889" cx="1.639" cy="0.946" rx="1.639" ry="0.946" transform="translate(42.413 17.491)" fill="#3a3c07"/>
              <path id="Trazado_115187" data-name="Trazado 115187" d="M460.281,488.191a.706.706,0,0,1,0,1.338,2.562,2.562,0,0,1-2.318,0,.706.706,0,0,1,0-1.338A2.562,2.562,0,0,1,460.281,488.191Z" transform="translate(-409.011 -473.921)" fill="#3a3c07"/>
              <path id="Trazado_115188" data-name="Trazado 115188" d="M480.227,476.675a.706.706,0,0,1,0,1.338,2.561,2.561,0,0,1-2.317,0,.706.706,0,0,1,0-1.338A2.561,2.561,0,0,1,480.227,476.675Z" transform="translate(-422.898 -465.903)" fill="#3a3c07"/>
              <path id="Trazado_115189" data-name="Trazado 115189" d="M500.172,465.16a.706.706,0,0,1,0,1.338,2.56,2.56,0,0,1-2.318,0,.706.706,0,0,1,0-1.338A2.562,2.562,0,0,1,500.172,465.16Z" transform="translate(-436.785 -457.886)" fill="#3a3c07"/>
              <path id="Trazado_115190" data-name="Trazado 115190" d="M520.118,453.644a.706.706,0,0,1,0,1.338,2.562,2.562,0,0,1-2.318,0,.706.706,0,0,1,0-1.338A2.562,2.562,0,0,1,520.118,453.644Z" transform="translate(-450.671 -449.869)" fill="#3a3c07"/>
              <path id="Trazado_115191" data-name="Trazado 115191" d="M300.714,557.286a.706.706,0,0,1,0,1.338,2.561,2.561,0,0,1-2.318,0,.706.706,0,0,1,0-1.338A2.562,2.562,0,0,1,300.714,557.286Z" transform="translate(-297.916 -522.027)" fill="#3a3c07"/>
              <path id="Trazado_115192" data-name="Trazado 115192" d="M320.659,545.769a.706.706,0,0,1,0,1.338,2.563,2.563,0,0,1-2.317,0,.706.706,0,0,1,0-1.338A2.559,2.559,0,0,1,320.659,545.769Z" transform="translate(-311.803 -514.009)" fill="#3a3c07"/>
              <ellipse id="Elipse_7890" data-name="Elipse 7890" cx="1.639" cy="0.946" rx="1.639" ry="0.946" transform="translate(12.118 27.986)" fill="#3a3c07"/>
              <ellipse id="Elipse_7891" data-name="Elipse 7891" cx="1.639" cy="0.946" rx="1.639" ry="0.946" transform="translate(18.177 24.487)" fill="#3a3c07"/>
              <path id="Trazado_115193" data-name="Trazado 115193" d="M380.5,511.223a.706.706,0,0,1,0,1.338,2.562,2.562,0,0,1-2.317,0,.706.706,0,0,1,0-1.338A2.56,2.56,0,0,1,380.5,511.223Z" transform="translate(-353.463 -489.956)" fill="#3a3c07"/>
              <path id="Trazado_115194" data-name="Trazado 115194" d="M400.443,499.707a.706.706,0,0,1,0,1.338,2.562,2.562,0,0,1-2.318,0,.706.706,0,0,1,0-1.338A2.56,2.56,0,0,1,400.443,499.707Z" transform="translate(-367.35 -481.938)" fill="#3a3c07"/>
              <path id="Trazado_115195" data-name="Trazado 115195" d="M420.389,488.191a.706.706,0,0,1,0,1.338,2.562,2.562,0,0,1-2.317,0,.707.707,0,0,1,0-1.338A2.562,2.562,0,0,1,420.389,488.191Z" transform="translate(-381.238 -473.921)" fill="#3a3c07"/>
              <ellipse id="Elipse_7892" data-name="Elipse 7892" cx="1.639" cy="0.946" rx="1.639" ry="0.946" transform="translate(42.413 10.495)" fill="#3a3c07"/>
              <path id="Trazado_115196" data-name="Trazado 115196" d="M460.281,465.16a.706.706,0,0,1,0,1.338,2.562,2.562,0,0,1-2.317,0,.706.706,0,0,1,0-1.338A2.561,2.561,0,0,1,460.281,465.16Z" transform="translate(-409.011 -457.886)" fill="#3a3c07"/>
              <path id="Trazado_115197" data-name="Trazado 115197" d="M480.227,453.644a.706.706,0,0,1,0,1.338,2.561,2.561,0,0,1-2.317,0,.706.706,0,0,1,0-1.338A2.561,2.561,0,0,1,480.227,453.644Z" transform="translate(-422.898 -449.869)" fill="#3a3c07"/>
              <path id="Trazado_115198" data-name="Trazado 115198" d="M500.173,442.128a.706.706,0,0,1,0,1.338,2.562,2.562,0,0,1-2.318,0,.706.706,0,0,1,0-1.338A2.56,2.56,0,0,1,500.173,442.128Z" transform="translate(-436.785 -441.85)" fill="#3a3c07"/>
            </g>
            <g id="Grupo_68756" data-name="Grupo 68756">
              <path id="Trazado_115199" data-name="Trazado 115199" d="M280.768,568.8a.706.706,0,0,1,0,1.338,2.562,2.562,0,0,1-2.317,0,.706.706,0,0,1,0-1.338A2.559,2.559,0,0,1,280.768,568.8Z" transform="translate(-211.216 -491.491)" fill="#3a3c07"/>
              <ellipse id="Elipse_7893" data-name="Elipse 7893" cx="1.639" cy="0.946" rx="1.639" ry="0.946" transform="translate(60.695 73.535)" fill="#3a3c07"/>
              <path id="Trazado_115200" data-name="Trazado 115200" d="M280.768,545.769a.706.706,0,0,1,0,1.338,2.563,2.563,0,0,1-2.317,0,.706.706,0,0,1,0-1.338A2.559,2.559,0,0,1,280.768,545.769Z" transform="translate(-211.216 -475.455)" fill="#3a3c07"/>
              <path id="Trazado_115201" data-name="Trazado 115201" d="M300.714,534.254a.706.706,0,0,1,0,1.338,2.562,2.562,0,0,1-2.317,0,.706.706,0,0,1,0-1.338A2.561,2.561,0,0,1,300.714,534.254Z" transform="translate(-225.103 -467.438)" fill="#3a3c07"/>
              <path id="Trazado_115202" data-name="Trazado 115202" d="M320.66,522.739a.706.706,0,0,1,0,1.338,2.562,2.562,0,0,1-2.318,0,.706.706,0,0,1,0-1.338A2.564,2.564,0,0,1,320.66,522.739Z" transform="translate(-238.99 -459.421)" fill="#3a3c07"/>
              <path id="Trazado_115203" data-name="Trazado 115203" d="M340.605,511.223a.706.706,0,0,1,0,1.338,2.564,2.564,0,0,1-2.318,0,.706.706,0,0,1,0-1.338A2.56,2.56,0,0,1,340.605,511.223Z" transform="translate(-252.877 -451.403)" fill="#3a3c07"/>
              <ellipse id="Elipse_7894" data-name="Elipse 7894" cx="1.638" cy="0.946" rx="1.638" ry="0.946" transform="translate(90.991 56.044)" fill="#3a3c07"/>
              <path id="Trazado_115204" data-name="Trazado 115204" d="M380.5,488.191a.706.706,0,0,1,0,1.338,2.561,2.561,0,0,1-2.317,0,.706.706,0,0,1,0-1.338A2.561,2.561,0,0,1,380.5,488.191Z" transform="translate(-280.651 -435.368)" fill="#3a3c07"/>
              <ellipse id="Elipse_7895" data-name="Elipse 7895" cx="1.639" cy="0.946" rx="1.639" ry="0.946" transform="translate(103.108 49.048)" fill="#3a3c07"/>
              <path id="Trazado_115205" data-name="Trazado 115205" d="M420.389,465.16a.706.706,0,0,1,0,1.338,2.56,2.56,0,0,1-2.318,0,.706.706,0,0,1,0-1.338A2.564,2.564,0,0,1,420.389,465.16Z" transform="translate(-308.424 -419.333)" fill="#3a3c07"/>
              <path id="Trazado_115206" data-name="Trazado 115206" d="M440.335,453.644a.706.706,0,0,1,0,1.338,2.562,2.562,0,0,1-2.317,0,.706.706,0,0,1,0-1.338A2.562,2.562,0,0,1,440.335,453.644Z" transform="translate(-322.311 -411.315)" fill="#3a3c07"/>
              <path id="Trazado_115207" data-name="Trazado 115207" d="M460.281,442.128a.706.706,0,0,1,0,1.338,2.561,2.561,0,0,1-2.317,0,.706.706,0,0,1,0-1.338A2.559,2.559,0,0,1,460.281,442.128Z" transform="translate(-336.199 -403.297)" fill="#3a3c07"/>
              <path id="Trazado_115208" data-name="Trazado 115208" d="M480.228,430.613a.706.706,0,0,1,0,1.338,2.559,2.559,0,0,1-2.317,0,.706.706,0,0,1,0-1.338A2.563,2.563,0,0,1,480.228,430.613Z" transform="translate(-350.086 -395.28)" fill="#3a3c07"/>
              <path id="Trazado_115209" data-name="Trazado 115209" d="M240.877,545.77a.706.706,0,0,1,0,1.338,2.563,2.563,0,0,1-2.317,0,.706.706,0,0,1,0-1.338A2.559,2.559,0,0,1,240.877,545.77Z" transform="translate(-183.443 -475.455)" fill="#3a3c07"/>
              <ellipse id="Elipse_7896" data-name="Elipse 7896" cx="1.639" cy="0.946" rx="1.639" ry="0.946" transform="translate(60.695 66.539)" fill="#3a3c07"/>
              <path id="Trazado_115210" data-name="Trazado 115210" d="M280.768,522.739a.706.706,0,0,1,0,1.338,2.561,2.561,0,0,1-2.317,0,.706.706,0,0,1,0-1.338A2.563,2.563,0,0,1,280.768,522.739Z" transform="translate(-211.216 -459.421)" fill="#3a3c07"/>
              <ellipse id="Elipse_7897" data-name="Elipse 7897" cx="1.638" cy="0.946" rx="1.638" ry="0.946" transform="translate(72.814 59.543)" fill="#3a3c07"/>
              <path id="Trazado_115211" data-name="Trazado 115211" d="M320.66,499.707a.706.706,0,0,1,0,1.338,2.561,2.561,0,0,1-2.317,0,.706.706,0,0,1,0-1.338A2.559,2.559,0,0,1,320.66,499.707Z" transform="translate(-238.99 -443.385)" fill="#3a3c07"/>
              <path id="Trazado_115212" data-name="Trazado 115212" d="M340.605,488.191a.706.706,0,0,1,0,1.338,2.562,2.562,0,0,1-2.318,0,.706.706,0,0,1,0-1.338A2.562,2.562,0,0,1,340.605,488.191Z" transform="translate(-252.877 -435.368)" fill="#3a3c07"/>
              <path id="Trazado_115213" data-name="Trazado 115213" d="M360.552,476.675a.706.706,0,0,1,0,1.338,2.561,2.561,0,0,1-2.317,0,.706.706,0,0,1,0-1.338A2.561,2.561,0,0,1,360.552,476.675Z" transform="translate(-266.764 -427.35)" fill="#3a3c07"/>
              <ellipse id="Elipse_7898" data-name="Elipse 7898" cx="1.639" cy="0.946" rx="1.639" ry="0.946" transform="translate(97.05 45.55)" fill="#3a3c07"/>
              <path id="Trazado_115214" data-name="Trazado 115214" d="M400.443,453.644a.706.706,0,0,1,0,1.338,2.563,2.563,0,0,1-2.318,0,.706.706,0,0,1,0-1.338A2.562,2.562,0,0,1,400.443,453.644Z" transform="translate(-294.537 -411.315)" fill="#3a3c07"/>
              <path id="Trazado_115215" data-name="Trazado 115215" d="M420.389,442.128a.706.706,0,0,1,0,1.338,2.562,2.562,0,0,1-2.318,0,.706.706,0,0,1,0-1.338A2.562,2.562,0,0,1,420.389,442.128Z" transform="translate(-308.424 -403.298)" fill="#3a3c07"/>
              <path id="Trazado_115216" data-name="Trazado 115216" d="M440.336,430.613a.706.706,0,0,1,0,1.338,2.56,2.56,0,0,1-2.318,0,.706.706,0,0,1,0-1.338A2.564,2.564,0,0,1,440.336,430.613Z" transform="translate(-322.312 -395.28)" fill="#3a3c07"/>
              <path id="Trazado_115217" data-name="Trazado 115217" d="M460.281,419.1a.706.706,0,0,1,0,1.338,2.559,2.559,0,0,1-2.317,0,.706.706,0,0,1,0-1.338A2.561,2.561,0,0,1,460.281,419.1Z" transform="translate(-336.199 -387.263)" fill="#3a3c07"/>
              <ellipse id="Elipse_7899" data-name="Elipse 7899" cx="1.639" cy="0.946" rx="1.639" ry="0.946" transform="translate(48.525 66.502)" fill="#3a3c07"/>
              <path id="Trazado_115218" data-name="Trazado 115218" d="M240.7,522.618a.706.706,0,0,1,0,1.338,2.561,2.561,0,0,1-2.317,0,.706.706,0,0,1,0-1.338A2.563,2.563,0,0,1,240.7,522.618Z" transform="translate(-183.322 -459.337)" fill="#3a3c07"/>
              <path id="Trazado_115219" data-name="Trazado 115219" d="M260.649,511.1a.706.706,0,0,1,0,1.338,2.56,2.56,0,0,1-2.318,0,.706.706,0,0,1,0-1.338A2.562,2.562,0,0,1,260.649,511.1Z" transform="translate(-197.209 -451.319)" fill="#3a3c07"/>
              <path id="Trazado_115220" data-name="Trazado 115220" d="M280.6,499.586a.706.706,0,0,1,0,1.338,2.56,2.56,0,0,1-2.318,0,.706.706,0,0,1,0-1.338A2.561,2.561,0,0,1,280.6,499.586Z" transform="translate(-211.096 -443.301)" fill="#3a3c07"/>
              <ellipse id="Elipse_7900" data-name="Elipse 7900" cx="1.639" cy="0.946" rx="1.639" ry="0.946" transform="translate(72.761 52.509)" fill="#3a3c07"/>
              <path id="Trazado_115221" data-name="Trazado 115221" d="M320.487,476.555a.706.706,0,0,1,0,1.338,2.561,2.561,0,0,1-2.317,0,.706.706,0,0,1,0-1.338A2.561,2.561,0,0,1,320.487,476.555Z" transform="translate(-238.87 -427.267)" fill="#3a3c07"/>
              <path id="Trazado_115222" data-name="Trazado 115222" d="M340.433,465.039a.706.706,0,0,1,0,1.338,2.56,2.56,0,0,1-2.317,0,.706.706,0,0,1,0-1.338A2.56,2.56,0,0,1,340.433,465.039Z" transform="translate(-252.757 -419.248)" fill="#3a3c07"/>
              <ellipse id="Elipse_7901" data-name="Elipse 7901" cx="1.639" cy="0.946" rx="1.639" ry="0.946" transform="translate(90.938 42.015)" fill="#3a3c07"/>
              <path id="Trazado_115223" data-name="Trazado 115223" d="M380.324,442.007a.706.706,0,0,1,0,1.338,2.562,2.562,0,0,1-2.317,0,.706.706,0,0,1,0-1.338A2.562,2.562,0,0,1,380.324,442.007Z" transform="translate(-280.53 -403.213)" fill="#3a3c07"/>
              <path id="Trazado_115224" data-name="Trazado 115224" d="M400.271,430.491a.706.706,0,0,1,0,1.338,2.564,2.564,0,0,1-2.318,0,.706.706,0,0,1,0-1.338A2.558,2.558,0,0,1,400.271,430.491Z" transform="translate(-294.418 -395.195)" fill="#3a3c07"/>
              <path id="Trazado_115225" data-name="Trazado 115225" d="M420.217,418.976a.706.706,0,0,1,0,1.338,2.559,2.559,0,0,1-2.317,0,.706.706,0,0,1,0-1.338A2.563,2.563,0,0,1,420.217,418.976Z" transform="translate(-308.305 -387.178)" fill="#3a3c07"/>
              <path id="Trazado_115226" data-name="Trazado 115226" d="M440.162,407.46a.706.706,0,0,1,0,1.338,2.56,2.56,0,0,1-2.317,0,.706.706,0,0,1,0-1.338A2.563,2.563,0,0,1,440.162,407.46Z" transform="translate(-322.191 -379.161)" fill="#3a3c07"/>
              <path id="Trazado_115227" data-name="Trazado 115227" d="M200.811,522.618a.706.706,0,0,1,0,1.338,2.562,2.562,0,0,1-2.317,0,.706.706,0,0,1,0-1.338A2.562,2.562,0,0,1,200.811,522.618Z" transform="translate(-155.548 -459.337)" fill="#3a3c07"/>
              <path id="Trazado_115228" data-name="Trazado 115228" d="M220.757,511.1a.706.706,0,0,1,0,1.338,2.558,2.558,0,0,1-2.318,0,.706.706,0,0,1,0-1.338A2.562,2.562,0,0,1,220.757,511.1Z" transform="translate(-169.435 -451.319)" fill="#3a3c07"/>
              <ellipse id="Elipse_7902" data-name="Elipse 7902" cx="1.638" cy="0.946" rx="1.638" ry="0.946" transform="translate(54.584 56.008)" fill="#3a3c07"/>
              <path id="Trazado_115229" data-name="Trazado 115229" d="M260.649,488.07a.706.706,0,0,1,0,1.338,2.564,2.564,0,0,1-2.318,0,.707.707,0,0,1,0-1.338A2.562,2.562,0,0,1,260.649,488.07Z" transform="translate(-197.209 -435.284)" fill="#3a3c07"/>
              <path id="Trazado_115230" data-name="Trazado 115230" d="M280.6,476.555a.706.706,0,0,1,0,1.338,2.562,2.562,0,0,1-2.318,0,.706.706,0,0,1,0-1.338A2.563,2.563,0,0,1,280.6,476.555Z" transform="translate(-211.096 -427.267)" fill="#3a3c07"/>
              <path id="Trazado_115231" data-name="Trazado 115231" d="M300.542,465.039a.706.706,0,0,1,0,1.338,2.56,2.56,0,0,1-2.318,0,.706.706,0,0,1,0-1.338A2.562,2.562,0,0,1,300.542,465.039Z" transform="translate(-224.984 -419.249)" fill="#3a3c07"/>
              <path id="Trazado_115232" data-name="Trazado 115232" d="M320.487,453.523a.706.706,0,0,1,0,1.338,2.56,2.56,0,0,1-2.317,0,.706.706,0,0,1,0-1.338A2.562,2.562,0,0,1,320.487,453.523Z" transform="translate(-238.87 -411.231)" fill="#3a3c07"/>
              <path id="Trazado_115233" data-name="Trazado 115233" d="M340.433,442.008a.706.706,0,0,1,0,1.338,2.562,2.562,0,0,1-2.317,0,.706.706,0,0,1,0-1.338A2.56,2.56,0,0,1,340.433,442.008Z" transform="translate(-252.757 -403.213)" fill="#3a3c07"/>
              <path id="Trazado_115234" data-name="Trazado 115234" d="M360.379,430.491a.706.706,0,0,1,0,1.338,2.561,2.561,0,0,1-2.317,0,.706.706,0,0,1,0-1.338A2.557,2.557,0,0,1,360.379,430.491Z" transform="translate(-266.644 -395.195)" fill="#3a3c07"/>
              <path id="Trazado_115235" data-name="Trazado 115235" d="M380.325,418.976a.707.707,0,0,1,0,1.338,2.56,2.56,0,0,1-2.317,0,.706.706,0,0,1,0-1.338A2.564,2.564,0,0,1,380.325,418.976Z" transform="translate(-280.53 -387.178)" fill="#3a3c07"/>
              <path id="Trazado_115236" data-name="Trazado 115236" d="M400.271,407.46a.706.706,0,0,1,0,1.338,2.56,2.56,0,0,1-2.318,0,.706.706,0,0,1,0-1.338A2.564,2.564,0,0,1,400.271,407.46Z" transform="translate(-294.418 -379.161)" fill="#3a3c07"/>
              <path id="Trazado_115237" data-name="Trazado 115237" d="M420.217,395.944a.706.706,0,0,1,0,1.337,2.561,2.561,0,0,1-2.317,0,.706.706,0,0,1,0-1.337A2.557,2.557,0,0,1,420.217,395.944Z" transform="translate(-308.305 -371.143)" fill="#3a3c07"/>
              <path id="Trazado_115238" data-name="Trazado 115238" d="M180.866,511.1a.706.706,0,0,1,0,1.338,2.559,2.559,0,0,1-2.318,0,.706.706,0,0,1,0-1.338A2.564,2.564,0,0,1,180.866,511.1Z" transform="translate(-141.662 -451.32)" fill="#3a3c07"/>
              <path id="Trazado_115239" data-name="Trazado 115239" d="M200.812,499.586a.706.706,0,0,1,0,1.338,2.561,2.561,0,0,1-2.317,0,.706.706,0,0,1,0-1.338A2.56,2.56,0,0,1,200.812,499.586Z" transform="translate(-155.548 -443.301)" fill="#3a3c07"/>
              <path id="Trazado_115240" data-name="Trazado 115240" d="M220.757,488.071a.706.706,0,0,1,0,1.338,2.564,2.564,0,0,1-2.318,0,.706.706,0,0,1,0-1.338A2.56,2.56,0,0,1,220.757,488.071Z" transform="translate(-169.435 -435.284)" fill="#3a3c07"/>
              <path id="Trazado_115241" data-name="Trazado 115241" d="M240.7,476.555a.706.706,0,0,1,0,1.338,2.56,2.56,0,0,1-2.317,0,.706.706,0,0,1,0-1.338A2.562,2.562,0,0,1,240.7,476.555Z" transform="translate(-183.323 -427.267)" fill="#3a3c07"/>
              <path id="Trazado_115242" data-name="Trazado 115242" d="M260.649,465.039a.706.706,0,0,1,0,1.338,2.56,2.56,0,0,1-2.318,0,.706.706,0,0,1,0-1.338A2.562,2.562,0,0,1,260.649,465.039Z" transform="translate(-197.209 -419.249)" fill="#3a3c07"/>
              <path id="Trazado_115243" data-name="Trazado 115243" d="M280.6,453.523a.706.706,0,0,1,0,1.338,2.562,2.562,0,0,1-2.318,0,.707.707,0,0,1,0-1.338A2.564,2.564,0,0,1,280.6,453.523Z" transform="translate(-211.096 -411.231)" fill="#3a3c07"/>
              <ellipse id="Elipse_7903" data-name="Elipse 7903" cx="1.639" cy="0.946" rx="1.639" ry="0.946" transform="translate(72.761 38.517)" fill="#3a3c07"/>
              <path id="Trazado_115244" data-name="Trazado 115244" d="M320.487,430.492a.706.706,0,0,1,0,1.338,2.56,2.56,0,0,1-2.317,0,.706.706,0,0,1,0-1.338A2.559,2.559,0,0,1,320.487,430.492Z" transform="translate(-238.87 -395.196)" fill="#3a3c07"/>
              <path id="Trazado_115245" data-name="Trazado 115245" d="M340.433,418.976a.707.707,0,0,1,0,1.338,2.562,2.562,0,0,1-2.317,0,.707.707,0,0,1,0-1.338A2.564,2.564,0,0,1,340.433,418.976Z" transform="translate(-252.757 -387.178)" fill="#3a3c07"/>
              <path id="Trazado_115246" data-name="Trazado 115246" d="M360.379,407.46a.706.706,0,0,1,0,1.338,2.559,2.559,0,0,1-2.317,0,.706.706,0,0,1,0-1.338A2.561,2.561,0,0,1,360.379,407.46Z" transform="translate(-266.644 -379.161)" fill="#3a3c07"/>
              <path id="Trazado_115247" data-name="Trazado 115247" d="M380.325,395.944a.706.706,0,0,1,0,1.337,2.56,2.56,0,0,1-2.318,0,.706.706,0,0,1,0-1.337A2.558,2.558,0,0,1,380.325,395.944Z" transform="translate(-280.531 -371.143)" fill="#3a3c07"/>
              <path id="Trazado_115248" data-name="Trazado 115248" d="M400.271,384.428a.706.706,0,0,1,0,1.338,2.561,2.561,0,0,1-2.317,0,.706.706,0,0,1,0-1.338A2.562,2.562,0,0,1,400.271,384.428Z" transform="translate(-294.418 -363.125)" fill="#3a3c07"/>
              <path id="Trazado_115249" data-name="Trazado 115249" d="M160.92,499.586a.706.706,0,0,1,0,1.338,2.561,2.561,0,0,1-2.317,0,.706.706,0,0,1,0-1.338A2.559,2.559,0,0,1,160.92,499.586Z" transform="translate(-127.775 -443.301)" fill="#3a3c07"/>
              <path id="Trazado_115250" data-name="Trazado 115250" d="M180.866,488.071a.706.706,0,0,1,0,1.338,2.564,2.564,0,0,1-2.318,0,.706.706,0,0,1,0-1.338A2.561,2.561,0,0,1,180.866,488.071Z" transform="translate(-141.662 -435.284)" fill="#3a3c07"/>
              <path id="Trazado_115251" data-name="Trazado 115251" d="M200.812,476.555a.706.706,0,0,1,0,1.338,2.56,2.56,0,0,1-2.317,0,.706.706,0,0,1,0-1.338A2.562,2.562,0,0,1,200.812,476.555Z" transform="translate(-155.548 -427.267)" fill="#3a3c07"/>
              <path id="Trazado_115252" data-name="Trazado 115252" d="M220.757,465.039a.706.706,0,0,1,0,1.338,2.561,2.561,0,0,1-2.318,0,.706.706,0,0,1,0-1.338A2.562,2.562,0,0,1,220.757,465.039Z" transform="translate(-169.435 -419.249)" fill="#3a3c07"/>
              <path id="Trazado_115253" data-name="Trazado 115253" d="M240.7,453.523a.707.707,0,0,1,0,1.338,2.562,2.562,0,0,1-2.317,0,.706.706,0,0,1,0-1.338A2.562,2.562,0,0,1,240.7,453.523Z" transform="translate(-183.323 -411.231)" fill="#3a3c07"/>
              <path id="Trazado_115254" data-name="Trazado 115254" d="M260.65,442.008a.706.706,0,0,1,0,1.338,2.56,2.56,0,0,1-2.317,0,.706.706,0,0,1,0-1.338A2.56,2.56,0,0,1,260.65,442.008Z" transform="translate(-197.21 -403.213)" fill="#3a3c07"/>
              <path id="Trazado_115255" data-name="Trazado 115255" d="M280.6,430.492a.706.706,0,0,1,0,1.338,2.562,2.562,0,0,1-2.318,0,.706.706,0,0,1,0-1.338A2.56,2.56,0,0,1,280.6,430.492Z" transform="translate(-211.096 -395.196)" fill="#3a3c07"/>
              <path id="Trazado_115256" data-name="Trazado 115256" d="M300.542,418.976a.707.707,0,0,1,0,1.338,2.562,2.562,0,0,1-2.318,0,.707.707,0,0,1,0-1.338A2.564,2.564,0,0,1,300.542,418.976Z" transform="translate(-224.984 -387.178)" fill="#3a3c07"/>
              <path id="Trazado_115257" data-name="Trazado 115257" d="M320.488,407.46a.706.706,0,0,1,0,1.338,2.559,2.559,0,0,1-2.317,0,.706.706,0,0,1,0-1.338A2.561,2.561,0,0,1,320.488,407.46Z" transform="translate(-238.871 -379.161)" fill="#3a3c07"/>
              <ellipse id="Elipse_7904" data-name="Elipse 7904" cx="1.638" cy="0.946" rx="1.638" ry="0.946" transform="translate(84.879 24.524)" fill="#3a3c07"/>
              <ellipse id="Elipse_7905" data-name="Elipse 7905" cx="1.639" cy="0.946" rx="1.639" ry="0.946" transform="translate(90.938 21.026)" fill="#3a3c07"/>
              <path id="Trazado_115258" data-name="Trazado 115258" d="M380.325,372.913a.707.707,0,0,1,0,1.338,2.562,2.562,0,0,1-2.318,0,.706.706,0,0,1,0-1.338A2.564,2.564,0,0,1,380.325,372.913Z" transform="translate(-280.531 -355.108)" fill="#3a3c07"/>
              <path id="Trazado_115259" data-name="Trazado 115259" d="M140.975,488.071a.706.706,0,0,1,0,1.338,2.564,2.564,0,0,1-2.317,0,.706.706,0,0,1,0-1.338A2.56,2.56,0,0,1,140.975,488.071Z" transform="translate(-113.889 -435.284)" fill="#3a3c07"/>
              <path id="Trazado_115260" data-name="Trazado 115260" d="M160.92,476.556a.706.706,0,0,1,0,1.338,2.558,2.558,0,0,1-2.317,0,.706.706,0,0,1,0-1.338A2.562,2.562,0,0,1,160.92,476.556Z" transform="translate(-127.775 -427.267)" fill="#3a3c07"/>
              <path id="Trazado_115261" data-name="Trazado 115261" d="M180.866,465.039a.706.706,0,0,1,0,1.338,2.562,2.562,0,0,1-2.318,0,.706.706,0,0,1,0-1.338A2.562,2.562,0,0,1,180.866,465.039Z" transform="translate(-141.662 -419.249)" fill="#3a3c07"/>
              <path id="Trazado_115262" data-name="Trazado 115262" d="M200.812,453.523a.706.706,0,0,1,0,1.338,2.562,2.562,0,0,1-2.317,0,.706.706,0,0,1,0-1.338A2.56,2.56,0,0,1,200.812,453.523Z" transform="translate(-155.549 -411.231)" fill="#3a3c07"/>
              <path id="Trazado_115263" data-name="Trazado 115263" d="M220.758,442.008a.706.706,0,0,1,0,1.338,2.56,2.56,0,0,1-2.317,0,.706.706,0,0,1,0-1.338A2.56,2.56,0,0,1,220.758,442.008Z" transform="translate(-169.435 -403.213)" fill="#3a3c07"/>
              <path id="Trazado_115264" data-name="Trazado 115264" d="M240.7,430.492a.706.706,0,0,1,0,1.338,2.562,2.562,0,0,1-2.317,0,.706.706,0,0,1,0-1.338A2.56,2.56,0,0,1,240.7,430.492Z" transform="translate(-183.323 -395.196)" fill="#3a3c07"/>
              <path id="Trazado_115265" data-name="Trazado 115265" d="M260.65,418.976a.706.706,0,0,1,0,1.338,2.562,2.562,0,0,1-2.317,0,.707.707,0,0,1,0-1.338A2.564,2.564,0,0,1,260.65,418.976Z" transform="translate(-197.21 -387.178)" fill="#3a3c07"/>
              <path id="Trazado_115266" data-name="Trazado 115266" d="M280.6,407.46a.706.706,0,0,1,0,1.338,2.56,2.56,0,0,1-2.318,0,.706.706,0,0,1,0-1.338A2.562,2.562,0,0,1,280.6,407.46Z" transform="translate(-211.096 -379.161)" fill="#3a3c07"/>
              <path id="Trazado_115267" data-name="Trazado 115267" d="M300.542,395.945a.706.706,0,0,1,0,1.337,2.56,2.56,0,0,1-2.318,0,.706.706,0,0,1,0-1.337A2.56,2.56,0,0,1,300.542,395.945Z" transform="translate(-224.984 -371.143)" fill="#3a3c07"/>
              <path id="Trazado_115268" data-name="Trazado 115268" d="M320.488,384.428a.706.706,0,0,1,0,1.338,2.562,2.562,0,0,1-2.317,0,.707.707,0,0,1,0-1.338A2.561,2.561,0,0,1,320.488,384.428Z" transform="translate(-238.871 -363.125)" fill="#3a3c07"/>
              <path id="Trazado_115269" data-name="Trazado 115269" d="M340.434,372.913a.706.706,0,0,1,0,1.338,2.562,2.562,0,0,1-2.318,0,.706.706,0,0,1,0-1.338A2.562,2.562,0,0,1,340.434,372.913Z" transform="translate(-252.757 -355.108)" fill="#3a3c07"/>
              <path id="Trazado_115270" data-name="Trazado 115270" d="M360.379,361.4a.706.706,0,0,1,0,1.338,2.559,2.559,0,0,1-2.317,0,.706.706,0,0,1,0-1.338A2.559,2.559,0,0,1,360.379,361.4Z" transform="translate(-266.644 -347.09)" fill="#3a3c07"/>
              <path id="Trazado_115271" data-name="Trazado 115271" d="M121.028,476.556a.706.706,0,0,1,0,1.338,2.56,2.56,0,0,1-2.318,0,.706.706,0,0,1,0-1.338A2.564,2.564,0,0,1,121.028,476.556Z" transform="translate(-100.001 -427.267)" fill="#3a3c07"/>
              <ellipse id="Elipse_7906" data-name="Elipse 7906" cx="1.639" cy="0.946" rx="1.639" ry="0.946" transform="translate(24.289 45.513)" fill="#3a3c07"/>
              <path id="Trazado_115272" data-name="Trazado 115272" d="M160.92,453.523a.706.706,0,0,1,0,1.338,2.561,2.561,0,0,1-2.317,0,.706.706,0,0,1,0-1.338A2.559,2.559,0,0,1,160.92,453.523Z" transform="translate(-127.775 -411.231)" fill="#3a3c07"/>
              <path id="Trazado_115273" data-name="Trazado 115273" d="M180.866,442.008a.706.706,0,0,1,0,1.338,2.561,2.561,0,0,1-2.318,0,.706.706,0,0,1,0-1.338A2.562,2.562,0,0,1,180.866,442.008Z" transform="translate(-141.662 -403.214)" fill="#3a3c07"/>
              <path id="Trazado_115274" data-name="Trazado 115274" d="M200.812,430.492a.706.706,0,0,1,0,1.338,2.564,2.564,0,0,1-2.317,0,.706.706,0,0,1,0-1.338A2.56,2.56,0,0,1,200.812,430.492Z" transform="translate(-155.549 -395.196)" fill="#3a3c07"/>
              <path id="Trazado_115275" data-name="Trazado 115275" d="M220.758,418.976a.707.707,0,0,1,0,1.338,2.562,2.562,0,0,1-2.317,0,.706.706,0,0,1,0-1.338A2.562,2.562,0,0,1,220.758,418.976Z" transform="translate(-169.436 -387.178)" fill="#3a3c07"/>
              <path id="Trazado_115276" data-name="Trazado 115276" d="M240.7,407.46a.706.706,0,0,1,0,1.338,2.558,2.558,0,0,1-2.317,0,.706.706,0,0,1,0-1.338A2.562,2.562,0,0,1,240.7,407.46Z" transform="translate(-183.323 -379.161)" fill="#3a3c07"/>
              <path id="Trazado_115277" data-name="Trazado 115277" d="M260.65,395.945a.706.706,0,0,1,0,1.337,2.56,2.56,0,0,1-2.317,0,.706.706,0,0,1,0-1.337A2.56,2.56,0,0,1,260.65,395.945Z" transform="translate(-197.21 -371.143)" fill="#3a3c07"/>
              <ellipse id="Elipse_7907" data-name="Elipse 7907" cx="1.639" cy="0.946" rx="1.639" ry="0.946" transform="translate(66.702 21.026)" fill="#3a3c07"/>
              <ellipse id="Elipse_7908" data-name="Elipse 7908" cx="1.639" cy="0.946" rx="1.639" ry="0.946" transform="translate(72.761 17.528)" fill="#3a3c07"/>
              <path id="Trazado_115278" data-name="Trazado 115278" d="M320.488,361.4a.706.706,0,0,1,0,1.338,2.559,2.559,0,0,1-2.317,0,.706.706,0,0,1,0-1.338A2.561,2.561,0,0,1,320.488,361.4Z" transform="translate(-238.871 -347.09)" fill="#3a3c07"/>
              <path id="Trazado_115279" data-name="Trazado 115279" d="M340.434,349.881a.706.706,0,0,1,0,1.338,2.562,2.562,0,0,1-2.318,0,.706.706,0,0,1,0-1.338A2.562,2.562,0,0,1,340.434,349.881Z" transform="translate(-252.757 -339.073)" fill="#3a3c07"/>
              <path id="Trazado_115280" data-name="Trazado 115280" d="M101.083,465.04a.706.706,0,0,1,0,1.338,2.562,2.562,0,0,1-2.317,0,.706.706,0,0,1,0-1.338A2.56,2.56,0,0,1,101.083,465.04Z" transform="translate(-86.115 -419.249)" fill="#3a3c07"/>
              <path id="Trazado_115281" data-name="Trazado 115281" d="M121.028,453.523a.706.706,0,0,1,0,1.338,2.56,2.56,0,0,1-2.317,0,.706.706,0,0,1,0-1.338A2.56,2.56,0,0,1,121.028,453.523Z" transform="translate(-100.001 -411.231)" fill="#3a3c07"/>
              <path id="Trazado_115282" data-name="Trazado 115282" d="M140.975,442.008a.706.706,0,0,1,0,1.338,2.56,2.56,0,0,1-2.317,0,.706.706,0,0,1,0-1.338A2.562,2.562,0,0,1,140.975,442.008Z" transform="translate(-113.889 -403.214)" fill="#3a3c07"/>
              <path id="Trazado_115283" data-name="Trazado 115283" d="M160.921,430.492a.706.706,0,0,1,0,1.338,2.562,2.562,0,0,1-2.317,0,.706.706,0,0,1,0-1.338A2.559,2.559,0,0,1,160.921,430.492Z" transform="translate(-127.776 -395.196)" fill="#3a3c07"/>
              <path id="Trazado_115284" data-name="Trazado 115284" d="M180.866,418.976a.706.706,0,0,1,0,1.338,2.562,2.562,0,0,1-2.317,0,.706.706,0,0,1,0-1.338A2.562,2.562,0,0,1,180.866,418.976Z" transform="translate(-141.662 -387.178)" fill="#3a3c07"/>
              <path id="Trazado_115285" data-name="Trazado 115285" d="M200.812,407.461a.706.706,0,0,1,0,1.338,2.558,2.558,0,0,1-2.317,0,.706.706,0,0,1,0-1.338A2.564,2.564,0,0,1,200.812,407.461Z" transform="translate(-155.549 -379.161)" fill="#3a3c07"/>
              <path id="Trazado_115286" data-name="Trazado 115286" d="M220.758,395.945a.706.706,0,0,1,0,1.338,2.562,2.562,0,0,1-2.317,0,.706.706,0,0,1,0-1.338A2.56,2.56,0,0,1,220.758,395.945Z" transform="translate(-169.436 -371.143)" fill="#3a3c07"/>
              <ellipse id="Elipse_7909" data-name="Elipse 7909" cx="1.639" cy="0.946" rx="1.639" ry="0.946" transform="translate(54.584 21.026)" fill="#3a3c07"/>
              <path id="Trazado_115287" data-name="Trazado 115287" d="M260.65,372.913a.706.706,0,0,1,0,1.338,2.56,2.56,0,0,1-2.317,0,.706.706,0,0,1,0-1.338A2.561,2.561,0,0,1,260.65,372.913Z" transform="translate(-197.21 -355.108)" fill="#3a3c07"/>
              <path id="Trazado_115288" data-name="Trazado 115288" d="M280.6,361.4a.706.706,0,0,1,0,1.338,2.56,2.56,0,0,1-2.318,0,.706.706,0,0,1,0-1.338A2.562,2.562,0,0,1,280.6,361.4Z" transform="translate(-211.096 -347.09)" fill="#3a3c07"/>
              <path id="Trazado_115289" data-name="Trazado 115289" d="M300.543,349.881a.706.706,0,0,1,0,1.338,2.562,2.562,0,0,1-2.317,0,.706.706,0,0,1,0-1.338A2.562,2.562,0,0,1,300.543,349.881Z" transform="translate(-224.984 -339.073)" fill="#3a3c07"/>
              <path id="Trazado_115290" data-name="Trazado 115290" d="M320.488,338.366a.706.706,0,0,1,0,1.338,2.561,2.561,0,0,1-2.317,0,.706.706,0,0,1,0-1.338A2.559,2.559,0,0,1,320.488,338.366Z" transform="translate(-238.871 -331.055)" fill="#3a3c07"/>
              <ellipse id="Elipse_7910" data-name="Elipse 7910" cx="1.639" cy="0.946" rx="1.639" ry="0.946" transform="translate(6.112 42.015)" fill="#3a3c07"/>
              <path id="Trazado_115291" data-name="Trazado 115291" d="M101.083,442.008a.706.706,0,0,1,0,1.338,2.562,2.562,0,0,1-2.317,0,.707.707,0,0,1,0-1.338A2.562,2.562,0,0,1,101.083,442.008Z" transform="translate(-86.115 -403.214)" fill="#3a3c07"/>
              <path id="Trazado_115292" data-name="Trazado 115292" d="M121.028,430.492a.706.706,0,0,1,0,1.338,2.564,2.564,0,0,1-2.317,0,.706.706,0,0,1,0-1.338A2.559,2.559,0,0,1,121.028,430.492Z" transform="translate(-100.001 -395.196)" fill="#3a3c07"/>
              <ellipse id="Elipse_7911" data-name="Elipse 7911" cx="1.639" cy="0.946" rx="1.639" ry="0.946" transform="translate(24.289 31.52)" fill="#3a3c07"/>
              <path id="Trazado_115293" data-name="Trazado 115293" d="M160.921,407.461a.706.706,0,0,1,0,1.338,2.557,2.557,0,0,1-2.317,0,.706.706,0,0,1,0-1.338A2.562,2.562,0,0,1,160.921,407.461Z" transform="translate(-127.776 -379.161)" fill="#3a3c07"/>
              <path id="Trazado_115294" data-name="Trazado 115294" d="M180.867,395.945a.706.706,0,0,1,0,1.338,2.562,2.562,0,0,1-2.317,0,.706.706,0,0,1,0-1.338A2.56,2.56,0,0,1,180.867,395.945Z" transform="translate(-141.663 -371.143)" fill="#3a3c07"/>
              <path id="Trazado_115295" data-name="Trazado 115295" d="M200.813,384.428a.706.706,0,0,1,0,1.338,2.563,2.563,0,0,1-2.317,0,.706.706,0,0,1,0-1.338A2.56,2.56,0,0,1,200.813,384.428Z" transform="translate(-155.549 -363.125)" fill="#3a3c07"/>
              <path id="Trazado_115296" data-name="Trazado 115296" d="M220.758,372.913a.706.706,0,0,1,0,1.338,2.56,2.56,0,0,1-2.317,0,.706.706,0,0,1,0-1.338A2.562,2.562,0,0,1,220.758,372.913Z" transform="translate(-169.436 -355.108)" fill="#3a3c07"/>
              <ellipse id="Elipse_7912" data-name="Elipse 7912" cx="1.638" cy="0.946" rx="1.638" ry="0.946" transform="translate(54.584 14.03)" fill="#3a3c07"/>
              <path id="Trazado_115297" data-name="Trazado 115297" d="M260.65,349.881a.706.706,0,0,1,0,1.338,2.562,2.562,0,0,1-2.317,0,.706.706,0,0,1,0-1.338A2.562,2.562,0,0,1,260.65,349.881Z" transform="translate(-197.21 -339.073)" fill="#3a3c07"/>
              <ellipse id="Elipse_7913" data-name="Elipse 7913" cx="1.639" cy="0.946" rx="1.639" ry="0.946" transform="translate(66.702 7.033)" fill="#3a3c07"/>
              <path id="Trazado_115298" data-name="Trazado 115298" d="M300.543,326.85a.706.706,0,0,1,0,1.338,2.562,2.562,0,0,1-2.317,0,.706.706,0,0,1,0-1.338A2.56,2.56,0,0,1,300.543,326.85Z" transform="translate(-224.984 -323.037)" fill="#3a3c07"/>
              <ellipse id="Elipse_7914" data-name="Elipse 7914" cx="1.639" cy="0.946" rx="1.639" ry="0.946" transform="translate(0 38.48)" fill="#3a3c07"/>
              <path id="Trazado_115299" data-name="Trazado 115299" d="M80.964,430.37a.706.706,0,0,1,0,1.338,2.56,2.56,0,0,1-2.317,0,.706.706,0,0,1,0-1.338A2.56,2.56,0,0,1,80.964,430.37Z" transform="translate(-72.108 -395.111)" fill="#3a3c07"/>
              <path id="Trazado_115300" data-name="Trazado 115300" d="M100.909,418.855a.706.706,0,0,1,0,1.338,2.561,2.561,0,0,1-2.317,0,.706.706,0,0,1,0-1.338A2.561,2.561,0,0,1,100.909,418.855Z" transform="translate(-85.994 -387.094)" fill="#3a3c07"/>
              <path id="Trazado_115301" data-name="Trazado 115301" d="M120.856,407.339a.706.706,0,0,1,0,1.338,2.562,2.562,0,0,1-2.317,0,.706.706,0,0,1,0-1.338A2.561,2.561,0,0,1,120.856,407.339Z" transform="translate(-99.881 -379.076)" fill="#3a3c07"/>
              <path id="Trazado_115302" data-name="Trazado 115302" d="M140.8,395.823a.706.706,0,0,1,0,1.338,2.562,2.562,0,0,1-2.317,0,.707.707,0,0,1,0-1.338A2.562,2.562,0,0,1,140.8,395.823Z" transform="translate(-113.769 -371.059)" fill="#3a3c07"/>
              <path id="Trazado_115303" data-name="Trazado 115303" d="M160.748,384.308a.706.706,0,0,1,0,1.338,2.56,2.56,0,0,1-2.317,0,.706.706,0,0,1,0-1.338A2.562,2.562,0,0,1,160.748,384.308Z" transform="translate(-127.655 -363.042)" fill="#3a3c07"/>
              <ellipse id="Elipse_7915" data-name="Elipse 7915" cx="1.638" cy="0.946" rx="1.638" ry="0.946" transform="translate(36.355 17.491)" fill="#3a3c07"/>
              <path id="Trazado_115304" data-name="Trazado 115304" d="M200.64,361.276a.706.706,0,0,1,0,1.338,2.56,2.56,0,0,1-2.317,0,.706.706,0,0,1,0-1.338A2.561,2.561,0,0,1,200.64,361.276Z" transform="translate(-155.429 -347.006)" fill="#3a3c07"/>
              <path id="Trazado_115305" data-name="Trazado 115305" d="M220.586,349.76a.706.706,0,0,1,0,1.338,2.56,2.56,0,0,1-2.317,0,.706.706,0,0,1,0-1.338A2.56,2.56,0,0,1,220.586,349.76Z" transform="translate(-169.316 -338.989)" fill="#3a3c07"/>
              <path id="Trazado_115306" data-name="Trazado 115306" d="M240.532,338.245a.706.706,0,0,1,0,1.338,2.56,2.56,0,0,1-2.317,0,.706.706,0,0,1,0-1.338A2.562,2.562,0,0,1,240.532,338.245Z" transform="translate(-183.203 -330.971)" fill="#3a3c07"/>
              <path id="Trazado_115307" data-name="Trazado 115307" d="M260.477,326.729a.706.706,0,0,1,0,1.338,2.56,2.56,0,0,1-2.317,0,.706.706,0,0,1,0-1.338A2.562,2.562,0,0,1,260.477,326.729Z" transform="translate(-197.089 -322.954)" fill="#3a3c07"/>
              <path id="Trazado_115308" data-name="Trazado 115308" d="M280.424,315.213a.706.706,0,0,1,0,1.338,2.564,2.564,0,0,1-2.317,0,.706.706,0,0,1,0-1.338A2.558,2.558,0,0,1,280.424,315.213Z" transform="translate(-210.977 -314.935)" fill="#3a3c07"/>
              <path id="Trazado_115309" data-name="Trazado 115309" d="M61.018,418.855a.706.706,0,0,1,0,1.338,2.562,2.562,0,0,1-2.317,0,.706.706,0,0,1,0-1.338A2.562,2.562,0,0,1,61.018,418.855Z" transform="translate(-58.221 -387.094)" fill="#3a3c07"/>
              <path id="Trazado_115310" data-name="Trazado 115310" d="M80.964,407.339a.706.706,0,0,1,0,1.338,2.562,2.562,0,0,1-2.317,0,.706.706,0,0,1,0-1.338A2.562,2.562,0,0,1,80.964,407.339Z" transform="translate(-72.108 -379.076)" fill="#3a3c07"/>
              <ellipse id="Elipse_7916" data-name="Elipse 7916" cx="1.638" cy="0.946" rx="1.638" ry="0.946" transform="translate(12.118 24.487)" fill="#3a3c07"/>
              <path id="Trazado_115311" data-name="Trazado 115311" d="M120.856,384.308a.706.706,0,0,1,0,1.338,2.56,2.56,0,0,1-2.317,0,.706.706,0,0,1,0-1.338A2.562,2.562,0,0,1,120.856,384.308Z" transform="translate(-99.881 -363.042)" fill="#3a3c07"/>
              <path id="Trazado_115312" data-name="Trazado 115312" d="M140.8,372.792a.706.706,0,0,1,0,1.338,2.562,2.562,0,0,1-2.317,0,.707.707,0,0,1,0-1.338A2.562,2.562,0,0,1,140.8,372.792Z" transform="translate(-113.769 -355.024)" fill="#3a3c07"/>
              <path id="Trazado_115313" data-name="Trazado 115313" d="M160.748,361.276a.706.706,0,0,1,0,1.338,2.562,2.562,0,0,1-2.317,0,.706.706,0,0,1,0-1.338A2.562,2.562,0,0,1,160.748,361.276Z" transform="translate(-127.655 -347.006)" fill="#3a3c07"/>
              <ellipse id="Elipse_7917" data-name="Elipse 7917" cx="1.638" cy="0.946" rx="1.638" ry="0.946" transform="translate(36.355 10.495)" fill="#3a3c07"/>
              <path id="Trazado_115314" data-name="Trazado 115314" d="M200.64,338.245a.706.706,0,0,1,0,1.338,2.561,2.561,0,0,1-2.317,0,.706.706,0,0,1,0-1.338A2.56,2.56,0,0,1,200.64,338.245Z" transform="translate(-155.429 -330.971)" fill="#3a3c07"/>
              <path id="Trazado_115315" data-name="Trazado 115315" d="M220.586,326.729a.706.706,0,0,1,0,1.338,2.56,2.56,0,0,1-2.317,0,.706.706,0,0,1,0-1.338A2.562,2.562,0,0,1,220.586,326.729Z" transform="translate(-169.316 -322.954)" fill="#3a3c07"/>
              <path id="Trazado_115316" data-name="Trazado 115316" d="M240.532,315.213a.706.706,0,0,1,0,1.338,2.562,2.562,0,0,1-2.317,0,.706.706,0,0,1,0-1.338A2.558,2.558,0,0,1,240.532,315.213Z" transform="translate(-183.203 -314.935)" fill="#3a3c07"/>
            </g>
          </g>
          <g id="Grupo_68760" data-name="Grupo 68760" transform="translate(66.748)">
            <g id="Grupo_68758" data-name="Grupo 68758" transform="translate(72.813 38.554)">
              <ellipse id="Elipse_7918" data-name="Elipse 7918" cx="1.638" cy="0.946" rx="1.638" ry="0.946" transform="translate(54.584 45.513)" fill="#3a3c07"/>
              <path id="Trazado_115317" data-name="Trazado 115317" d="M720.073,522.859a.706.706,0,0,1,0,1.338,2.561,2.561,0,0,1-2.317,0,.706.706,0,0,1,0-1.338A2.561,2.561,0,0,1,720.073,522.859Z" transform="translate(-656.634 -480.567)" fill="#3a3c07"/>
              <path id="Trazado_115318" data-name="Trazado 115318" d="M740.019,511.343a.706.706,0,0,1,0,1.338,2.562,2.562,0,0,1-2.317,0,.706.706,0,0,1,0-1.338A2.561,2.561,0,0,1,740.019,511.343Z" transform="translate(-670.52 -472.549)" fill="#3a3c07"/>
              <path id="Trazado_115319" data-name="Trazado 115319" d="M680.182,522.859a.706.706,0,0,1,0,1.338,2.562,2.562,0,0,1-2.317,0,.706.706,0,0,1,0-1.338A2.561,2.561,0,0,1,680.182,522.859Z" transform="translate(-628.86 -480.567)" fill="#3a3c07"/>
              <path id="Trazado_115320" data-name="Trazado 115320" d="M700.128,511.344a.706.706,0,0,1,0,1.338,2.562,2.562,0,0,1-2.317,0,.706.706,0,0,1,0-1.338A2.56,2.56,0,0,1,700.128,511.344Z" transform="translate(-642.747 -472.55)" fill="#3a3c07"/>
              <path id="Trazado_115321" data-name="Trazado 115321" d="M720.074,499.828a.706.706,0,0,1,0,1.338,2.559,2.559,0,0,1-2.317,0,.706.706,0,0,1,0-1.338A2.559,2.559,0,0,1,720.074,499.828Z" transform="translate(-656.634 -464.532)" fill="#3a3c07"/>
              <path id="Trazado_115322" data-name="Trazado 115322" d="M740.019,488.312a.706.706,0,0,1,0,1.338,2.559,2.559,0,0,1-2.317,0,.706.706,0,0,1,0-1.338A2.563,2.563,0,0,1,740.019,488.312Z" transform="translate(-670.521 -456.514)" fill="#3a3c07"/>
              <path id="Trazado_115323" data-name="Trazado 115323" d="M660.236,511.344a.706.706,0,0,1,0,1.338,2.561,2.561,0,0,1-2.317,0,.706.706,0,0,1,0-1.338A2.559,2.559,0,0,1,660.236,511.344Z" transform="translate(-614.974 -472.55)" fill="#3a3c07"/>
              <path id="Trazado_115324" data-name="Trazado 115324" d="M680.182,499.828a.706.706,0,0,1,0,1.338,2.559,2.559,0,0,1-2.317,0,.706.706,0,0,1,0-1.338A2.561,2.561,0,0,1,680.182,499.828Z" transform="translate(-628.86 -464.532)" fill="#3a3c07"/>
              <ellipse id="Elipse_7919" data-name="Elipse 7919" cx="1.639" cy="0.946" rx="1.639" ry="0.946" transform="translate(54.583 31.52)" fill="#3a3c07"/>
              <path id="Trazado_115325" data-name="Trazado 115325" d="M720.074,476.8a.706.706,0,0,1,0,1.338,2.56,2.56,0,0,1-2.317,0,.706.706,0,0,1,0-1.338A2.559,2.559,0,0,1,720.074,476.8Z" transform="translate(-656.634 -448.497)" fill="#3a3c07"/>
              <path id="Trazado_115326" data-name="Trazado 115326" d="M640.29,499.828a.706.706,0,0,1,0,1.338,2.56,2.56,0,0,1-2.317,0,.706.706,0,0,1,0-1.338A2.562,2.562,0,0,1,640.29,499.828Z" transform="translate(-601.086 -464.532)" fill="#3a3c07"/>
              <path id="Trazado_115327" data-name="Trazado 115327" d="M660.236,488.312a.706.706,0,0,1,0,1.338,2.561,2.561,0,0,1-2.317,0,.707.707,0,0,1,0-1.338A2.563,2.563,0,0,1,660.236,488.312Z" transform="translate(-614.974 -456.514)" fill="#3a3c07"/>
              <path id="Trazado_115328" data-name="Trazado 115328" d="M680.182,476.8a.706.706,0,0,1,0,1.338,2.56,2.56,0,0,1-2.317,0,.706.706,0,0,1,0-1.338A2.559,2.559,0,0,1,680.182,476.8Z" transform="translate(-628.861 -448.497)" fill="#3a3c07"/>
              <ellipse id="Elipse_7920" data-name="Elipse 7920" cx="1.639" cy="0.946" rx="1.639" ry="0.946" transform="translate(54.584 24.524)" fill="#3a3c07"/>
              <ellipse id="Elipse_7921" data-name="Elipse 7921" cx="1.639" cy="0.946" rx="1.639" ry="0.946" transform="translate(30.347 31.52)" fill="#3a3c07"/>
              <ellipse id="Elipse_7922" data-name="Elipse 7922" cx="1.639" cy="0.946" rx="1.639" ry="0.946" transform="translate(36.406 28.022)" fill="#3a3c07"/>
              <path id="Trazado_115329" data-name="Trazado 115329" d="M660.236,465.28a.706.706,0,0,1,0,1.338,2.561,2.561,0,0,1-2.317,0,.706.706,0,0,1,0-1.338A2.559,2.559,0,0,1,660.236,465.28Z" transform="translate(-614.974 -440.479)" fill="#3a3c07"/>
              <path id="Trazado_115330" data-name="Trazado 115330" d="M680.182,453.765a.706.706,0,0,1,0,1.338,2.563,2.563,0,0,1-2.317,0,.707.707,0,0,1,0-1.338A2.563,2.563,0,0,1,680.182,453.765Z" transform="translate(-628.861 -432.462)" fill="#3a3c07"/>
              <path id="Trazado_115331" data-name="Trazado 115331" d="M600.4,476.8a.706.706,0,0,1,0,1.338,2.559,2.559,0,0,1-2.318,0,.706.706,0,0,1,0-1.338A2.56,2.56,0,0,1,600.4,476.8Z" transform="translate(-573.313 -448.497)" fill="#3a3c07"/>
              <ellipse id="Elipse_7923" data-name="Elipse 7923" cx="1.639" cy="0.946" rx="1.639" ry="0.946" transform="translate(30.347 24.524)" fill="#3a3c07"/>
              <path id="Trazado_115332" data-name="Trazado 115332" d="M640.29,453.765a.707.707,0,0,1,0,1.338,2.564,2.564,0,0,1-2.317,0,.706.706,0,0,1,0-1.338A2.564,2.564,0,0,1,640.29,453.765Z" transform="translate(-601.086 -432.462)" fill="#3a3c07"/>
              <path id="Trazado_115333" data-name="Trazado 115333" d="M660.237,442.249a.706.706,0,0,1,0,1.338,2.56,2.56,0,0,1-2.318,0,.706.706,0,0,1,0-1.338A2.562,2.562,0,0,1,660.237,442.249Z" transform="translate(-614.974 -424.444)" fill="#3a3c07"/>
              <path id="Trazado_115334" data-name="Trazado 115334" d="M580.453,465.28a.706.706,0,0,1,0,1.338,2.563,2.563,0,0,1-2.317,0,.706.706,0,0,1,0-1.338A2.559,2.559,0,0,1,580.453,465.28Z" transform="translate(-559.426 -440.479)" fill="#3a3c07"/>
              <path id="Trazado_115335" data-name="Trazado 115335" d="M600.4,453.765a.706.706,0,0,1,0,1.338,2.564,2.564,0,0,1-2.318,0,.706.706,0,0,1,0-1.338A2.562,2.562,0,0,1,600.4,453.765Z" transform="translate(-573.313 -432.462)" fill="#3a3c07"/>
              <path id="Trazado_115336" data-name="Trazado 115336" d="M640.29,430.733a.706.706,0,0,1,0,1.337,2.56,2.56,0,0,1-2.317,0,.706.706,0,0,1,0-1.337A2.56,2.56,0,0,1,640.29,430.733Z" transform="translate(-601.086 -416.427)" fill="#3a3c07"/>
              <path id="Trazado_115337" data-name="Trazado 115337" d="M560.508,453.765a.706.706,0,0,1,0,1.338,2.564,2.564,0,0,1-2.318,0,.706.706,0,0,1,0-1.338A2.562,2.562,0,0,1,560.508,453.765Z" transform="translate(-545.539 -432.462)" fill="#3a3c07"/>
              <path id="Trazado_115338" data-name="Trazado 115338" d="M580.453,442.249a.706.706,0,0,1,0,1.338,2.557,2.557,0,0,1-2.317,0,.706.706,0,0,1,0-1.338A2.561,2.561,0,0,1,580.453,442.249Z" transform="translate(-559.426 -424.444)" fill="#3a3c07"/>
              <path id="Trazado_115339" data-name="Trazado 115339" d="M600.4,430.733a.706.706,0,0,1,0,1.337,2.56,2.56,0,0,1-2.318,0,.706.706,0,0,1,0-1.337A2.56,2.56,0,0,1,600.4,430.733Z" transform="translate(-573.313 -416.427)" fill="#3a3c07"/>
              <ellipse id="Elipse_7924" data-name="Elipse 7924" cx="1.639" cy="0.946" rx="1.639" ry="0.946" transform="translate(30.347 10.531)" fill="#3a3c07"/>
              <path id="Trazado_115340" data-name="Trazado 115340" d="M540.389,442.128a.706.706,0,0,1,0,1.338,2.561,2.561,0,0,1-2.317,0,.706.706,0,0,1,0-1.338A2.562,2.562,0,0,1,540.389,442.128Z" transform="translate(-531.533 -424.36)" fill="#3a3c07"/>
              <path id="Trazado_115341" data-name="Trazado 115341" d="M560.334,430.613a.706.706,0,0,1,0,1.338,2.559,2.559,0,0,1-2.317,0,.706.706,0,0,1,0-1.338A2.563,2.563,0,0,1,560.334,430.613Z" transform="translate(-545.419 -416.343)" fill="#3a3c07"/>
              <path id="Trazado_115342" data-name="Trazado 115342" d="M580.28,419.1a.706.706,0,0,1,0,1.338,2.56,2.56,0,0,1-2.318,0,.706.706,0,0,1,0-1.338A2.56,2.56,0,0,1,580.28,419.1Z" transform="translate(-559.306 -408.325)" fill="#3a3c07"/>
              <path id="Trazado_115343" data-name="Trazado 115343" d="M520.443,430.613a.706.706,0,0,1,0,1.338,2.559,2.559,0,0,1-2.317,0,.706.706,0,0,1,0-1.338A2.563,2.563,0,0,1,520.443,430.613Z" transform="translate(-517.646 -416.343)" fill="#3a3c07"/>
              <ellipse id="Elipse_7925" data-name="Elipse 7925" cx="1.638" cy="0.946" rx="1.638" ry="0.946" transform="translate(6.059 10.495)" fill="#3a3c07"/>
              <path id="Trazado_115344" data-name="Trazado 115344" d="M560.335,407.581a.706.706,0,0,1,0,1.338,2.563,2.563,0,0,1-2.317,0,.707.707,0,0,1,0-1.338A2.561,2.561,0,0,1,560.335,407.581Z" transform="translate(-545.419 -400.308)" fill="#3a3c07"/>
              <path id="Trazado_115345" data-name="Trazado 115345" d="M580.28,396.065a.707.707,0,0,1,0,1.338,2.562,2.562,0,0,1-2.318,0,.706.706,0,0,1,0-1.338A2.562,2.562,0,0,1,580.28,396.065Z" transform="translate(-559.306 -392.29)" fill="#3a3c07"/>
              <path id="Trazado_115346" data-name="Trazado 115346" d="M600.227,384.549a.706.706,0,0,1,0,1.338,2.562,2.562,0,0,1-2.318,0,.706.706,0,0,1,0-1.338A2.561,2.561,0,0,1,600.227,384.549Z" transform="translate(-573.193 -384.272)" fill="#3a3c07"/>
            </g>
            <g id="Grupo_68759" data-name="Grupo 68759">
              <path id="Trazado_115347" data-name="Trazado 115347" d="M500.5,419.1a.706.706,0,0,1,0,1.338,2.559,2.559,0,0,1-2.317,0,.706.706,0,0,1,0-1.338A2.561,2.561,0,0,1,500.5,419.1Z" transform="translate(-430.946 -369.772)" fill="#3a3c07"/>
              <path id="Trazado_115348" data-name="Trazado 115348" d="M520.443,407.581a.706.706,0,0,1,0,1.338,2.562,2.562,0,0,1-2.318,0,.706.706,0,0,1,0-1.338A2.562,2.562,0,0,1,520.443,407.581Z" transform="translate(-444.833 -361.754)" fill="#3a3c07"/>
              <path id="Trazado_115349" data-name="Trazado 115349" d="M540.389,396.065a.706.706,0,0,1,0,1.338,2.562,2.562,0,0,1-2.318,0,.706.706,0,0,1,0-1.338A2.562,2.562,0,0,1,540.389,396.065Z" transform="translate(-458.72 -353.736)" fill="#3a3c07"/>
              <ellipse id="Elipse_7926" data-name="Elipse 7926" cx="1.639" cy="0.946" rx="1.639" ry="0.946" transform="translate(84.931 38.554)" fill="#3a3c07"/>
              <ellipse id="Elipse_7927" data-name="Elipse 7927" cx="1.638" cy="0.946" rx="1.638" ry="0.946" transform="translate(90.99 35.055)" fill="#3a3c07"/>
              <path id="Trazado_115350" data-name="Trazado 115350" d="M480.551,407.581a.706.706,0,0,1,0,1.338,2.562,2.562,0,0,1-2.318,0,.706.706,0,0,1,0-1.338A2.562,2.562,0,0,1,480.551,407.581Z" transform="translate(-417.059 -361.754)" fill="#3a3c07"/>
              <ellipse id="Elipse_7928" data-name="Elipse 7928" cx="1.639" cy="0.946" rx="1.639" ry="0.946" transform="translate(66.754 42.052)" fill="#3a3c07"/>
              <path id="Trazado_115351" data-name="Trazado 115351" d="M520.443,384.55a.706.706,0,0,1,0,1.338,2.562,2.562,0,0,1-2.318,0,.706.706,0,0,1,0-1.338A2.562,2.562,0,0,1,520.443,384.55Z" transform="translate(-444.833 -345.719)" fill="#3a3c07"/>
              <path id="Trazado_115352" data-name="Trazado 115352" d="M540.389,373.034a.706.706,0,0,1,0,1.338,2.56,2.56,0,0,1-2.318,0,.706.706,0,0,1,0-1.338A2.564,2.564,0,0,1,540.389,373.034Z" transform="translate(-458.72 -337.701)" fill="#3a3c07"/>
              <path id="Trazado_115353" data-name="Trazado 115353" d="M560.335,361.519a.706.706,0,0,1,0,1.338,2.559,2.559,0,0,1-2.317,0,.706.706,0,0,1,0-1.338A2.559,2.559,0,0,1,560.335,361.519Z" transform="translate(-472.607 -329.684)" fill="#3a3c07"/>
              <path id="Trazado_115354" data-name="Trazado 115354" d="M460.432,395.944a.706.706,0,0,1,0,1.338,2.558,2.558,0,0,1-2.317,0,.706.706,0,0,1,0-1.338A2.561,2.561,0,0,1,460.432,395.944Z" transform="translate(-403.052 -353.652)" fill="#3a3c07"/>
              <path id="Trazado_115355" data-name="Trazado 115355" d="M480.379,384.428a.706.706,0,0,1,0,1.338,2.562,2.562,0,0,1-2.318,0,.706.706,0,0,1,0-1.338A2.562,2.562,0,0,1,480.379,384.428Z" transform="translate(-416.939 -345.634)" fill="#3a3c07"/>
              <path id="Trazado_115356" data-name="Trazado 115356" d="M500.324,372.912a.706.706,0,0,1,0,1.338,2.564,2.564,0,0,1-2.318,0,.706.706,0,0,1,0-1.338A2.558,2.558,0,0,1,500.324,372.912Z" transform="translate(-430.825 -337.616)" fill="#3a3c07"/>
              <path id="Trazado_115357" data-name="Trazado 115357" d="M520.27,361.4a.706.706,0,0,1,0,1.338,2.56,2.56,0,0,1-2.318,0,.706.706,0,0,1,0-1.338A2.564,2.564,0,0,1,520.27,361.4Z" transform="translate(-444.712 -329.599)" fill="#3a3c07"/>
              <path id="Trazado_115358" data-name="Trazado 115358" d="M540.216,349.881a.706.706,0,0,1,0,1.338,2.559,2.559,0,0,1-2.317,0,.706.706,0,0,1,0-1.338A2.563,2.563,0,0,1,540.216,349.881Z" transform="translate(-458.599 -321.582)" fill="#3a3c07"/>
              <path id="Trazado_115359" data-name="Trazado 115359" d="M440.487,384.428a.706.706,0,0,1,0,1.338,2.56,2.56,0,0,1-2.317,0,.706.706,0,0,1,0-1.338A2.559,2.559,0,0,1,440.487,384.428Z" transform="translate(-389.165 -345.634)" fill="#3a3c07"/>
              <path id="Trazado_115360" data-name="Trazado 115360" d="M460.433,372.912a.706.706,0,0,1,0,1.338,2.56,2.56,0,0,1-2.317,0,.706.706,0,0,1,0-1.338A2.557,2.557,0,0,1,460.433,372.912Z" transform="translate(-403.052 -337.616)" fill="#3a3c07"/>
              <ellipse id="Elipse_7929" data-name="Elipse 7929" cx="1.639" cy="0.946" rx="1.639" ry="0.946" transform="translate(60.642 31.52)" fill="#3a3c07"/>
              <path id="Trazado_115361" data-name="Trazado 115361" d="M500.324,349.881a.706.706,0,0,1,0,1.338,2.56,2.56,0,0,1-2.318,0,.706.706,0,0,1,0-1.338A2.564,2.564,0,0,1,500.324,349.881Z" transform="translate(-430.825 -321.582)" fill="#3a3c07"/>
              <path id="Trazado_115362" data-name="Trazado 115362" d="M520.27,338.365a.706.706,0,0,1,0,1.338,2.564,2.564,0,0,1-2.318,0,.706.706,0,0,1,0-1.338A2.558,2.558,0,0,1,520.27,338.365Z" transform="translate(-444.712 -313.564)" fill="#3a3c07"/>
              <path id="Trazado_115363" data-name="Trazado 115363" d="M420.541,372.913a.706.706,0,0,1,0,1.338,2.562,2.562,0,0,1-2.318,0,.706.706,0,0,1,0-1.338A2.562,2.562,0,0,1,420.541,372.913Z" transform="translate(-375.278 -337.617)" fill="#3a3c07"/>
              <ellipse id="Elipse_7930" data-name="Elipse 7930" cx="1.639" cy="0.946" rx="1.639" ry="0.946" transform="translate(48.524 31.52)" fill="#3a3c07"/>
              <path id="Trazado_115364" data-name="Trazado 115364" d="M460.433,349.881a.706.706,0,0,1,0,1.338,2.558,2.558,0,0,1-2.317,0,.706.706,0,0,1,0-1.338A2.559,2.559,0,0,1,460.433,349.881Z" transform="translate(-403.052 -321.582)" fill="#3a3c07"/>
              <path id="Trazado_115365" data-name="Trazado 115365" d="M480.379,338.365a.706.706,0,0,1,0,1.338,2.562,2.562,0,0,1-2.318,0,.706.706,0,0,1,0-1.338A2.559,2.559,0,0,1,480.379,338.365Z" transform="translate(-416.939 -313.564)" fill="#3a3c07"/>
              <path id="Trazado_115366" data-name="Trazado 115366" d="M500.325,326.849a.706.706,0,0,1,0,1.338,2.561,2.561,0,0,1-2.317,0,.706.706,0,0,1,0-1.338A2.562,2.562,0,0,1,500.325,326.849Z" transform="translate(-430.826 -305.546)" fill="#3a3c07"/>
              <path id="Trazado_115367" data-name="Trazado 115367" d="M400.6,361.4a.706.706,0,0,1,0,1.338,2.562,2.562,0,0,1-2.317,0,.707.707,0,0,1,0-1.338A2.564,2.564,0,0,1,400.6,361.4Z" transform="translate(-361.392 -329.599)" fill="#3a3c07"/>
              <path id="Trazado_115368" data-name="Trazado 115368" d="M420.541,349.881a.706.706,0,0,1,0,1.338,2.56,2.56,0,0,1-2.318,0,.706.706,0,0,1,0-1.338A2.56,2.56,0,0,1,420.541,349.881Z" transform="translate(-375.278 -321.582)" fill="#3a3c07"/>
              <ellipse id="Elipse_7931" data-name="Elipse 7931" cx="1.638" cy="0.946" rx="1.638" ry="0.946" transform="translate(48.525 24.524)" fill="#3a3c07"/>
              <path id="Trazado_115369" data-name="Trazado 115369" d="M460.433,326.849a.706.706,0,0,1,0,1.338,2.561,2.561,0,0,1-2.317,0,.706.706,0,0,1,0-1.338A2.561,2.561,0,0,1,460.433,326.849Z" transform="translate(-403.052 -305.546)" fill="#3a3c07"/>
              <path id="Trazado_115370" data-name="Trazado 115370" d="M480.379,315.334a.706.706,0,0,1,0,1.338,2.561,2.561,0,0,1-2.318,0,.706.706,0,0,1,0-1.338A2.564,2.564,0,0,1,480.379,315.334Z" transform="translate(-416.939 -297.529)" fill="#3a3c07"/>
              <path id="Trazado_115371" data-name="Trazado 115371" d="M380.65,349.881a.706.706,0,0,1,0,1.338,2.56,2.56,0,0,1-2.317,0,.706.706,0,0,1,0-1.338A2.56,2.56,0,0,1,380.65,349.881Z" transform="translate(-347.505 -321.582)" fill="#3a3c07"/>
              <path id="Trazado_115372" data-name="Trazado 115372" d="M400.6,338.366a.706.706,0,0,1,0,1.338,2.562,2.562,0,0,1-2.317,0,.706.706,0,0,1,0-1.338A2.56,2.56,0,0,1,400.6,338.366Z" transform="translate(-361.392 -313.564)" fill="#3a3c07"/>
              <path id="Trazado_115373" data-name="Trazado 115373" d="M420.541,326.849a.707.707,0,0,1,0,1.338,2.564,2.564,0,0,1-2.318,0,.706.706,0,0,1,0-1.338A2.562,2.562,0,0,1,420.541,326.849Z" transform="translate(-375.278 -305.546)" fill="#3a3c07"/>
              <path id="Trazado_115374" data-name="Trazado 115374" d="M440.487,315.334a.706.706,0,0,1,0,1.338,2.559,2.559,0,0,1-2.317,0,.706.706,0,0,1,0-1.338A2.561,2.561,0,0,1,440.487,315.334Z" transform="translate(-389.166 -297.529)" fill="#3a3c07"/>
              <path id="Trazado_115375" data-name="Trazado 115375" d="M460.433,303.818a.706.706,0,0,1,0,1.338,2.558,2.558,0,0,1-2.317,0,.706.706,0,0,1,0-1.338A2.558,2.558,0,0,1,460.433,303.818Z" transform="translate(-403.052 -289.511)" fill="#3a3c07"/>
              <ellipse id="Elipse_7932" data-name="Elipse 7932" cx="1.639" cy="0.946" rx="1.639" ry="0.946" transform="translate(24.288 24.524)" fill="#3a3c07"/>
              <ellipse id="Elipse_7933" data-name="Elipse 7933" cx="1.639" cy="0.946" rx="1.639" ry="0.946" transform="translate(30.348 21.026)" fill="#3a3c07"/>
              <path id="Trazado_115376" data-name="Trazado 115376" d="M400.6,315.334a.706.706,0,0,1,0,1.338,2.56,2.56,0,0,1-2.317,0,.706.706,0,0,1,0-1.338A2.562,2.562,0,0,1,400.6,315.334Z" transform="translate(-361.392 -297.529)" fill="#3a3c07"/>
              <path id="Trazado_115377" data-name="Trazado 115377" d="M420.541,303.818a.706.706,0,0,1,0,1.338,2.56,2.56,0,0,1-2.318,0,.706.706,0,0,1,0-1.338A2.562,2.562,0,0,1,420.541,303.818Z" transform="translate(-375.278 -289.511)" fill="#3a3c07"/>
              <ellipse id="Elipse_7934" data-name="Elipse 7934" cx="1.638" cy="0.946" rx="1.638" ry="0.946" transform="translate(48.525 10.531)" fill="#3a3c07"/>
              <path id="Trazado_115378" data-name="Trazado 115378" d="M340.758,326.85a.706.706,0,0,1,0,1.338,2.564,2.564,0,0,1-2.318,0,.706.706,0,0,1,0-1.338A2.56,2.56,0,0,1,340.758,326.85Z" transform="translate(-319.731 -305.546)" fill="#3a3c07"/>
              <path id="Trazado_115379" data-name="Trazado 115379" d="M360.7,315.334a.706.706,0,0,1,0,1.338,2.557,2.557,0,0,1-2.317,0,.706.706,0,0,1,0-1.338A2.561,2.561,0,0,1,360.7,315.334Z" transform="translate(-333.618 -297.529)" fill="#3a3c07"/>
              <path id="Trazado_115380" data-name="Trazado 115380" d="M380.65,303.818a.706.706,0,0,1,0,1.338,2.56,2.56,0,0,1-2.317,0,.706.706,0,0,1,0-1.338A2.562,2.562,0,0,1,380.65,303.818Z" transform="translate(-347.505 -289.511)" fill="#3a3c07"/>
              <path id="Trazado_115381" data-name="Trazado 115381" d="M400.6,292.3a.706.706,0,0,1,0,1.338,2.562,2.562,0,0,1-2.317,0,.707.707,0,0,1,0-1.338A2.562,2.562,0,0,1,400.6,292.3Z" transform="translate(-361.392 -281.494)" fill="#3a3c07"/>
              <path id="Trazado_115382" data-name="Trazado 115382" d="M420.541,280.786a.706.706,0,0,1,0,1.338,2.562,2.562,0,0,1-2.318,0,.706.706,0,0,1,0-1.338A2.56,2.56,0,0,1,420.541,280.786Z" transform="translate(-375.278 -273.476)" fill="#3a3c07"/>
              <path id="Trazado_115383" data-name="Trazado 115383" d="M320.812,315.334a.706.706,0,0,1,0,1.338,2.559,2.559,0,0,1-2.318,0,.706.706,0,0,1,0-1.338A2.562,2.562,0,0,1,320.812,315.334Z" transform="translate(-305.844 -297.529)" fill="#3a3c07"/>
              <path id="Trazado_115384" data-name="Trazado 115384" d="M340.758,303.818a.706.706,0,0,1,0,1.338,2.56,2.56,0,0,1-2.318,0,.706.706,0,0,1,0-1.338A2.562,2.562,0,0,1,340.758,303.818Z" transform="translate(-319.731 -289.511)" fill="#3a3c07"/>
              <ellipse id="Elipse_7935" data-name="Elipse 7935" cx="1.639" cy="0.946" rx="1.639" ry="0.946" transform="translate(24.289 10.531)" fill="#3a3c07"/>
              <ellipse id="Elipse_7936" data-name="Elipse 7936" cx="1.639" cy="0.946" rx="1.639" ry="0.946" transform="translate(30.347 7.033)" fill="#3a3c07"/>
              <path id="Trazado_115385" data-name="Trazado 115385" d="M400.6,269.271a.706.706,0,0,1,0,1.338,2.562,2.562,0,0,1-2.317,0,.706.706,0,0,1,0-1.338A2.562,2.562,0,0,1,400.6,269.271Z" transform="translate(-361.392 -265.459)" fill="#3a3c07"/>
              <path id="Trazado_115386" data-name="Trazado 115386" d="M300.693,303.7a.706.706,0,0,1,0,1.338,2.561,2.561,0,0,1-2.317,0,.706.706,0,0,1,0-1.338A2.561,2.561,0,0,1,300.693,303.7Z" transform="translate(-291.837 -289.428)" fill="#3a3c07"/>
              <path id="Trazado_115387" data-name="Trazado 115387" d="M320.64,292.182a.706.706,0,0,1,0,1.338,2.56,2.56,0,0,1-2.317,0,.706.706,0,0,1,0-1.338A2.56,2.56,0,0,1,320.64,292.182Z" transform="translate(-305.724 -281.41)" fill="#3a3c07"/>
              <path id="Trazado_115388" data-name="Trazado 115388" d="M340.585,280.667a.706.706,0,0,1,0,1.337,2.56,2.56,0,0,1-2.317,0,.706.706,0,0,1,0-1.337A2.56,2.56,0,0,1,340.585,280.667Z" transform="translate(-319.611 -273.393)" fill="#3a3c07"/>
              <path id="Trazado_115389" data-name="Trazado 115389" d="M360.531,269.15a.706.706,0,0,1,0,1.338,2.562,2.562,0,0,1-2.318,0,.706.706,0,0,1,0-1.338A2.562,2.562,0,0,1,360.531,269.15Z" transform="translate(-333.498 -265.375)" fill="#3a3c07"/>
              <path id="Trazado_115390" data-name="Trazado 115390" d="M380.477,257.634a.706.706,0,0,1,0,1.338,2.564,2.564,0,0,1-2.317,0,.706.706,0,0,1,0-1.338A2.558,2.558,0,0,1,380.477,257.634Z" transform="translate(-347.385 -257.356)" fill="#3a3c07"/>
              <ellipse id="Elipse_7937" data-name="Elipse 7937" cx="1.639" cy="0.946" rx="1.639" ry="0.946" transform="translate(0 10.495)" fill="#3a3c07"/>
              <path id="Trazado_115391" data-name="Trazado 115391" d="M300.693,280.667a.706.706,0,0,1,0,1.338,2.561,2.561,0,0,1-2.317,0,.706.706,0,0,1,0-1.338A2.558,2.558,0,0,1,300.693,280.667Z" transform="translate(-291.837 -273.393)" fill="#3a3c07"/>
              <path id="Trazado_115392" data-name="Trazado 115392" d="M320.64,269.151a.706.706,0,0,1,0,1.338,2.562,2.562,0,0,1-2.317,0,.706.706,0,0,1,0-1.338A2.56,2.56,0,0,1,320.64,269.151Z" transform="translate(-305.724 -265.375)" fill="#3a3c07"/>
              <path id="Trazado_115393" data-name="Trazado 115393" d="M340.586,257.634a.706.706,0,0,1,0,1.338,2.562,2.562,0,0,1-2.318,0,.706.706,0,0,1,0-1.338A2.558,2.558,0,0,1,340.586,257.634Z" transform="translate(-319.611 -257.356)" fill="#3a3c07"/>
            </g>
          </g>
        </g>
        <g id="Grupo_68781" data-name="Grupo 68781" transform="translate(56.628 77.197)">
          <g id="Grupo_68770" data-name="Grupo 68770" transform="translate(0 18.475)">
            <g id="Grupo_68763" data-name="Grupo 68763" transform="translate(51.933)">
              <path id="Trazado_115394" data-name="Trazado 115394" d="M230.141,261.9v5.875L336.156,328.81v-5.7Z" transform="translate(-229.365 -253.687)" fill="#e88e41"/>
              <g id="Grupo_68762" data-name="Grupo 68762">
                <path id="Trazado_115395" data-name="Trazado 115395" d="M336.156,306.333,230.141,245.125l12.679-7.32,106.015,61.208Z" transform="translate(-229.365 -236.909)" fill="#e88e41"/>
                <path id="Trazado_115396" data-name="Trazado 115396" d="M341,311.92l-103.9-59.989,10.568-6.1,104.185,60.152Z" transform="translate(-234.204 -242.496)" fill="#ffeecb"/>
                <path id="Trazado_115397" data-name="Trazado 115397" d="M347.835,297.408v-.895h0l-.776-.448L241.431,235.08l-.389-.224-12.678,7.32h0l-.776.448h0V249.4L333.6,310.426l.778.448h0l.776-.447,12.679-7.305Zm-2.328-.447-3.051,1.762-8.078,4.661-37.639-21.731-66.822-38.581,11.126-6.423ZM229.14,248.5v-4.083L333.6,304.728v3.91Z" transform="translate(-227.588 -234.856)" fill="#3a3c07"/>
              </g>
            </g>
            <g id="Grupo_68765" data-name="Grupo 68765" transform="translate(34.621 9.284)">
              <path id="Trazado_115398" data-name="Trazado 115398" d="M173.152,292.465v5.875l106.015,61.033v-5.7Z" transform="translate(-172.377 -284.249)" fill="#e88e41"/>
              <g id="Grupo_68764" data-name="Grupo 68764">
                <path id="Trazado_115399" data-name="Trazado 115399" d="M279.167,336.9,173.152,275.687l12.679-7.321,106.015,61.208Z" transform="translate(-172.377 -267.471)" fill="#e88e41"/>
                <path id="Trazado_115400" data-name="Trazado 115400" d="M284.006,342.483,180.1,282.493l10.568-6.1,104.185,60.151Z" transform="translate(-177.215 -273.059)" fill="#ffeecb"/>
                <path id="Trazado_115401" data-name="Trazado 115401" d="M290.846,327.97v-.895h0l-.776-.448L184.442,265.643l-.388-.224-12.678,7.319h0l-.776.448h0v6.773l106.014,61.03.778.448h0l.775-.447,12.68-7.305Zm-2.328-.447-3.052,1.761-8.077,4.661L239.75,312.215l-66.822-38.581,11.126-6.423ZM172.151,279.061v-4.083l104.462,60.312v3.91Z" transform="translate(-170.599 -265.419)" fill="#3a3c07"/>
              </g>
            </g>
            <g id="Grupo_68767" data-name="Grupo 68767" transform="translate(17.311 19.295)">
              <path id="Trazado_115402" data-name="Trazado 115402" d="M116.169,325.421V331.3l106.015,61.033v-5.7Z" transform="translate(-115.393 -317.205)" fill="#e88e41"/>
              <g id="Grupo_68766" data-name="Grupo 68766">
                <path id="Trazado_115403" data-name="Trazado 115403" d="M222.184,369.85,116.169,308.642l12.679-7.32L234.863,362.53Z" transform="translate(-115.393 -300.426)" fill="#e88e41"/>
                <path id="Trazado_115404" data-name="Trazado 115404" d="M227.023,375.438l-103.9-59.989,10.568-6.1L237.872,369.5Z" transform="translate(-120.232 -306.014)" fill="#ffeecb"/>
                <path id="Trazado_115405" data-name="Trazado 115405" d="M233.863,360.925v-.895h0l-.776-.448L127.459,298.6l-.388-.224-12.679,7.32h0l-.776.448h0v6.773l106.014,61.03.778.448h0l.775-.447,12.68-7.305Zm-2.328-.447-3.052,1.761-8.077,4.661-37.639-21.73-66.822-38.581,11.126-6.422ZM115.168,312.016v-4.082L219.63,368.246v3.91Z" transform="translate(-113.616 -298.374)" fill="#3a3c07"/>
              </g>
            </g>
            <g id="Grupo_68769" data-name="Grupo 68769" transform="translate(0 29.335)">
              <path id="Trazado_115406" data-name="Trazado 115406" d="M59.183,358.472v5.875L165.2,425.38v-5.7Z" transform="translate(-58.407 -350.256)" fill="#e88e41"/>
              <g id="Grupo_68768" data-name="Grupo 68768">
                <path id="Trazado_115407" data-name="Trazado 115407" d="M165.2,402.9,59.183,341.695l12.679-7.32,106.015,61.208Z" transform="translate(-58.407 -333.479)" fill="#e88e41"/>
                <path id="Trazado_115408" data-name="Trazado 115408" d="M170.036,408.489,66.132,348.5,76.7,342.4,180.885,402.55Z" transform="translate(-63.245 -339.066)" fill="#ffeecb"/>
                <path id="Trazado_115409" data-name="Trazado 115409" d="M176.876,393.977v-.895h0l-.776-.448L70.472,331.65l-.389-.224-12.678,7.319h0l-.776.448h0v6.773L162.643,407l.778.448h0L164.2,407l12.68-7.305Zm-2.329-.447-3.051,1.762-8.077,4.661L125.78,378.222,58.957,339.641l11.126-6.423ZM58.181,345.068v-4.082L162.643,401.3v3.91Z" transform="translate(-56.629 -331.426)" fill="#3a3c07"/>
              </g>
            </g>
          </g>
          <g id="Grupo_68779" data-name="Grupo 68779" transform="translate(0 0)">
            <g id="Grupo_68772" data-name="Grupo 68772" transform="translate(51.933)">
              <path id="Trazado_115410" data-name="Trazado 115410" d="M230.139,201.083v5.875l106.015,61.033v-5.7Z" transform="translate(-229.364 -192.867)" fill="#e88e41"/>
              <g id="Grupo_68771" data-name="Grupo 68771">
                <path id="Trazado_115411" data-name="Trazado 115411" d="M336.154,245.513,230.139,184.305l12.679-7.32,106.015,61.208Z" transform="translate(-229.364 -176.089)" fill="#e88e41"/>
                <path id="Trazado_115412" data-name="Trazado 115412" d="M340.993,251.1l-103.9-59.989,10.568-6.1,104.185,60.151Z" transform="translate(-234.203 -181.677)" fill="#ffeecb"/>
                <path id="Trazado_115413" data-name="Trazado 115413" d="M347.834,236.588v-.895h0l-.776-.448L241.43,174.261l-.389-.224-12.678,7.32h0l-.776.448h0v6.773L333.6,249.607l.778.448h0l.776-.447,12.68-7.305Zm-2.328-.447-3.052,1.761-8.077,4.661-37.639-21.731-66.822-38.581,11.126-6.422ZM229.139,187.679V183.6L333.6,243.909v3.91Z" transform="translate(-227.587 -174.037)" fill="#3a3c07"/>
              </g>
            </g>
            <g id="Grupo_68774" data-name="Grupo 68774" transform="translate(34.621 9.284)">
              <path id="Trazado_115414" data-name="Trazado 115414" d="M173.15,231.645v5.875l106.015,61.032v-5.7Z" transform="translate(-172.375 -223.429)" fill="#e88e41"/>
              <g id="Grupo_68773" data-name="Grupo 68773" transform="translate(0)">
                <path id="Trazado_115415" data-name="Trazado 115415" d="M279.166,276.076,173.15,214.868l12.679-7.32,106.015,61.208Z" transform="translate(-172.375 -206.652)" fill="#e88e41"/>
                <path id="Trazado_115416" data-name="Trazado 115416" d="M284,281.662,180.1,221.673l10.568-6.1,104.185,60.151Z" transform="translate(-177.213 -212.239)" fill="#ffeecb"/>
                <path id="Trazado_115417" data-name="Trazado 115417" d="M290.844,267.15v-.895h0l-.776-.448L184.44,204.823l-.389-.224-12.678,7.319h0l-.776.448h0v6.773l106.014,61.03.778.448h0l.776-.447,12.68-7.305Zm-2.329-.447-3.052,1.762-8.077,4.661-37.639-21.731-66.822-38.581,11.126-6.423ZM172.149,218.241v-4.083l104.462,60.312v3.91Z" transform="translate(-170.597 -204.599)" fill="#3a3c07"/>
              </g>
            </g>
            <g id="Grupo_68776" data-name="Grupo 68776" transform="translate(17.311 19.295)">
              <path id="Trazado_115418" data-name="Trazado 115418" d="M116.167,264.6v5.875l106.015,61.032v-5.7Z" transform="translate(-115.392 -256.385)" fill="#e88e41"/>
              <g id="Grupo_68775" data-name="Grupo 68775">
                <path id="Trazado_115419" data-name="Trazado 115419" d="M222.183,309.031,116.167,247.823l12.679-7.32,106.015,61.208Z" transform="translate(-115.392 -239.607)" fill="#e88e41"/>
                <path id="Trazado_115420" data-name="Trazado 115420" d="M227.021,314.618l-103.9-59.989,10.568-6.1L237.87,308.679Z" transform="translate(-120.23 -245.194)" fill="#ffeecb"/>
                <path id="Trazado_115421" data-name="Trazado 115421" d="M233.861,300.105v-.895h0l-.776-.448L127.457,237.778l-.389-.224-12.678,7.319h0l-.776.448h0v6.773l106.014,61.03.778.448h0l.776-.447,12.68-7.305Zm-2.329-.447-3.052,1.761-8.077,4.661L182.765,284.35l-66.822-38.581,11.126-6.423ZM115.166,251.2v-4.082l104.462,60.312v3.91Z" transform="translate(-113.614 -237.554)" fill="#3a3c07"/>
              </g>
            </g>
            <g id="Grupo_68778" data-name="Grupo 68778" transform="translate(0 29.335)">
              <path id="Trazado_115422" data-name="Trazado 115422" d="M59.181,297.652v5.875L165.2,364.56v-5.7Z" transform="translate(-58.405 -289.436)" fill="#e88e41"/>
              <g id="Grupo_68777" data-name="Grupo 68777">
                <path id="Trazado_115423" data-name="Trazado 115423" d="M165.2,342.082,59.181,280.874l12.679-7.32,106.015,61.208Z" transform="translate(-58.405 -272.658)" fill="#e88e41"/>
                <path id="Trazado_115424" data-name="Trazado 115424" d="M170.035,347.669,66.13,287.68l10.568-6.1L180.884,341.73Z" transform="translate(-63.244 -278.245)" fill="#ffeecb"/>
                <path id="Trazado_115425" data-name="Trazado 115425" d="M176.875,333.157v-.895h0l-.776-.448L70.471,270.829l-.388-.224L57.4,277.925h0l-.776.448h0v6.773l106.014,61.03.778.448h0l.776-.447,12.679-7.305Zm-2.328-.447-3.051,1.762-8.077,4.661L125.779,317.4,58.956,278.821,70.083,272.4ZM58.18,284.247v-4.083l104.462,60.312v3.91Z" transform="translate(-56.628 -270.605)" fill="#3a3c07"/>
              </g>
            </g>
          </g>
          <g id="Grupo_68780" data-name="Grupo 68780" transform="translate(11.253 48.551)">
            <path id="Trazado_115426" data-name="Trazado 115426" d="M313.726,476.261V463.4l16.053,9.284v12.754Z" transform="translate(-246.88 -424.046)" fill="#e88e41"/>
            <path id="Trazado_115427" data-name="Trazado 115427" d="M339.079,475.972l-10.3-5.931v-.894l-17.605-10.182v14.662l17.605,10.061V481.9Zm-11.854,5.041-14.5-8.288V461.657l14.5,8.386Z" transform="translate(-245.101 -420.963)" fill="#3a3c07"/>
            <path id="Trazado_115428" data-name="Trazado 115428" d="M96.225,350.85V338.319l16.053,9.378v12.5Z" transform="translate(-95.45 -336.965)" fill="#e88e41"/>
            <path id="Trazado_115429" data-name="Trazado 115429" d="M121.578,350.713l-10.3-5.93v-.634l-17.6-10.287v14.332l17.6,10.245v-1.795Zm-11.853,5.028-14.5-8.441V336.568l14.5,8.471Z" transform="translate(-93.672 -333.862)" fill="#3a3c07"/>
            <path id="Trazado_115430" data-name="Trazado 115430" d="M202.4,412.077V399.546l16.053,9.378v12.5Z" transform="translate(-169.375 -379.593)" fill="#e88e41"/>
            <path id="Trazado_115431" data-name="Trazado 115431" d="M227.758,411.944l-10.3-5.931v-.634l-17.6-10.285v14.33l17.6,10.245v-1.795ZM215.9,416.972l-14.5-8.441V397.8l14.5,8.469Z" transform="translate(-167.597 -376.494)" fill="#3a3c07"/>
          </g>
        </g>
        <g id="Grupo_68782" data-name="Grupo 68782" transform="translate(79.208 34.945)">
          <path id="Trazado_115432" data-name="Trazado 115432" d="M229.741,66.185l-47.8-27.6-47.8,27.6h0v55.194l47.8,27.6V93.923Z" transform="translate(-133.176 -37.482)" fill="#ffeecb"/>
          <path id="Trazado_115433" data-name="Trazado 115433" d="M134.145,184.043l47.8,27.6V156.587l-47.8-27.738h0Z" transform="translate(-133.177 -100.324)" fill="#e88e41"/>
          <path id="Trazado_115434" data-name="Trazado 115434" d="M228.483,63.1,179.727,34.945,131.114,63.013l-.147.084h0l-.007,1.1.007,0v55.192l47.8,27.6h0l.959.553.958-.553h0L228,119.672l.479-.278V64.2h0Zm-48.756-25.94,22.464,12.971L156.3,76.619,133.84,63.649Zm-.959,107.626L132.884,118.29V65.308L178.768,91.8Zm20.414-65.876L179.726,90.139,157.26,77.17l45.886-26.491,22.464,12.97Z" transform="translate(-130.96 -34.945)" fill="#3a3c07"/>
          <path id="Trazado_115435" data-name="Trazado 115435" d="M198.936,207.694l-8.867-5.119a2.733,2.733,0,0,0-2.8-.15,3.413,3.413,0,0,0-1.452,3.1,7.677,7.677,0,0,0,3.289,6.2l8.867,5.119a3.214,3.214,0,0,0,1.6.468,2.393,2.393,0,0,0,1.2-.32,3.411,3.411,0,0,0,1.449-3.1A7.673,7.673,0,0,0,198.936,207.694Zm.881,7.642c-.269.15-.669-.028-.881-.149l-8.867-5.119a5.769,5.769,0,0,1-2.331-4.54c0-.856.264-1.311.491-1.442.273-.161.671.026.881.15l.613.354a7.093,7.093,0,0,0,3,5.142l7.568,4.368C200.252,214.809,200.034,215.21,199.817,215.336Z" transform="translate(-169.156 -151.328)" fill="#3a3c07"/>
        </g>
        <g id="Grupo_68784" data-name="Grupo 68784" transform="translate(149.656 86.942)">
          <g id="Grupo_68783" data-name="Grupo 68783" transform="translate(0)">
            <path id="Trazado_115436" data-name="Trazado 115436" d="M395.145,316.325l-29.432-16.993V265.346l29.432,16.993Z" transform="translate(-364.849 -247.354)" fill="#e88e41"/>
            <path id="Trazado_115437" data-name="Trazado 115437" d="M424.577,226.4l-29.432,16.993L365.713,226.4l29.433-16.993Z" transform="translate(-364.849 -208.407)" fill="#e88e41"/>
            <path id="Trazado_115438" data-name="Trazado 115438" d="M431.389,237.58l-26.461,15.095L375.5,235.682l26.461-15.095Z" transform="translate(-371.661 -216.191)" fill="#ffeecb"/>
            <path id="Trazado_115439" data-name="Trazado 115439" d="M393.166,206.116l-29.429,16.993-.866.533v34.952L392.3,275.589h0l.864.5.863-.5h0l29.434-16.994V223.607Zm0,2,27.7,15.994-13.906,8.03-13.8,7.967-4.343-2.507-23.357-13.488ZM364.6,257.6V225.607l27.7,16V273.59Z" transform="translate(-362.871 -206.116)" fill="#3a3c07"/>
          </g>
          <path id="Trazado_115440" data-name="Trazado 115440" d="M425.954,374.582l-4.492-2.594a3.119,3.119,0,0,1-1.3-2.488v-4.722c0-.959.583-1.4,1.3-.985l4.492,2.594a3.118,3.118,0,0,1,1.3,2.488V373.6C427.257,374.557,426.674,375,425.954,374.582Z" transform="translate(-402.757 -315.787)" fill="#3a3c07"/>
        </g>
      </g>
    </g>
  </g>
</svg>
