<svg xmlns="http://www.w3.org/2000/svg" width="105" height="105" viewBox="0 0 105 105">
  <g id="Grupo_68890" data-name="Grupo 68890" transform="translate(-344 -6089)">
    <g id="Grupo_61635" data-name="Grupo 61635" transform="translate(-238 2928)">
      <rect id="Rectángulo_6027" data-name="Rectángulo 6027" width="105" height="105" transform="translate(582 3161)" fill="none"/>
      <g id="patent" transform="translate(554.391 3167.5)">
        <path id="Trazado_111499" data-name="Trazado 111499" d="M156.909,83.215H105.331a4.009,4.009,0,0,1-4.009-4.009V7.5H152.9a4.009,4.009,0,0,1,4.009,4.009V83.215Z" transform="translate(-49.006 -6.152)" fill="#f6f1f1"/>
        <path id="Trazado_111500" data-name="Trazado 111500" d="M372.317,7.5H368.8a4.009,4.009,0,0,1,4.009,4.009V83.215h3.516V11.509A4.009,4.009,0,0,0,372.317,7.5Z" transform="translate(-268.423 -6.152)" fill="#efe7e4"/>
        <path id="Trazado_111501" data-name="Trazado 111501" d="M58.468,26.861H53.09a4.009,4.009,0,0,1-4.009-4.009V11.509A4.009,4.009,0,0,1,53.09,7.5h5.378Z" transform="translate(-6.152 -6.152)" fill="#eadfda"/>
        <path id="Trazado_111502" data-name="Trazado 111502" d="M410.677,321.123h5.378a4.009,4.009,0,0,1,4.009,4.009v11.344a4.009,4.009,0,0,1-4.009,4.009h-5.378Z" transform="translate(-302.774 -263.421)" fill="#eadfda"/>
        <path id="Trazado_111503" data-name="Trazado 111503" d="M81.552,340.022c0,2.015-3.049,3.408-3.776,5.161-.753,1.816.389,4.951-.98,6.32s-4.5.227-6.32.98c-1.752.726-3.146,3.776-5.161,3.776s-3.408-3.049-5.161-3.776c-1.816-.753-4.951.389-6.32-.98s-.227-4.5-.98-6.32c-.726-1.752-3.776-3.146-3.776-5.161s3.049-3.408,3.776-5.161c.753-1.816-.389-4.951.98-6.32s4.5-.227,6.32-.98c1.752-.727,3.146-3.776,5.161-3.776s3.408,3.049,5.161,3.776c1.816.753,4.951-.389,6.32.98s.227,4.5.98,6.32C78.5,336.613,81.552,338.007,81.552,340.022Z" transform="translate(-6.152 -265.606)" fill="#ffe07d"/>
        <path id="Trazado_111504" data-name="Trazado 111504" d="M142.858,334.862c-.753-1.816.389-4.951-.98-6.32s-4.5-.227-6.32-.98c-1.752-.727-3.146-3.776-5.161-3.776a3.071,3.071,0,0,0-1.98.936c1.085.96,2.059,2.375,3.181,2.84,1.816.753,4.951-.389,6.32.98s.227,4.5.98,6.32c.726,1.752,3.776,3.146,3.776,5.161s-3.049,3.408-3.776,5.161c-.753,1.816.389,4.951-.98,6.32s-4.5.227-6.32.98c-1.121.465-2.1,1.881-3.181,2.84a3.071,3.071,0,0,0,1.98.936c2.015,0,3.408-3.049,5.16-3.776,1.816-.753,4.951.389,6.32-.98s.227-4.5.98-6.32c.726-1.752,3.776-3.146,3.776-5.161S143.585,336.614,142.858,334.862Z" transform="translate(-71.234 -265.607)" fill="#ffd064"/>
        <circle id="Elipse_4329" data-name="Elipse 4329" cx="6.814" cy="6.814" r="6.814" transform="translate(52.35 67.602)" fill="#ff8086"/>
        <path id="Trazado_111505" data-name="Trazado 111505" d="M131.916,376.219a6.821,6.821,0,0,0-1.648.2,6.815,6.815,0,0,1,0,13.225,6.815,6.815,0,1,0,1.648-13.427Z" transform="translate(-72.751 -308.617)" fill="#e5646e"/>
        <g id="Grupo_61636" data-name="Grupo 61636" transform="translate(58.723 8.289)">
          <path id="Trazado_111506" data-name="Trazado 111506" d="M153.345,59.563H136.98V52.626a6.493,6.493,0,0,1,6.493-6.493h3.379a6.493,6.493,0,0,1,6.493,6.493Z" transform="translate(-136.98 -46.133)" fill="#ffe07d"/>
          <path id="Trazado_111507" data-name="Trazado 111507" d="M176.444,46.133h-3.39a6.493,6.493,0,0,1,6.482,6.493v6.937h3.4V52.626A6.493,6.493,0,0,0,176.444,46.133Z" transform="translate(-166.572 -46.133)" fill="#ffc250"/>
          <path id="Trazado_111508" data-name="Trazado 111508" d="M153.345,120.873H136.98v3.989a3.676,3.676,0,0,0,2.376,3.439,3.677,3.677,0,0,1,2.376,3.439v1.425a.837.837,0,0,0,.837.837h5.186a.837.837,0,0,0,.837-.837V131.74a3.676,3.676,0,0,1,2.376-3.439,3.677,3.677,0,0,0,2.376-3.439v-3.989Z" transform="translate(-136.98 -107.443)" fill="#7398d3"/>
          <path id="Trazado_111509" data-name="Trazado 111509" d="M183.608,120.873v3.989a3.676,3.676,0,0,1-2.376,3.439,3.677,3.677,0,0,0-2.376,3.439v1.425a.837.837,0,0,1-.837.837h3.4a.837.837,0,0,0,.837-.837V131.74a3.676,3.676,0,0,1,2.376-3.439,3.677,3.677,0,0,0,2.376-3.439v-3.989Z" transform="translate(-170.644 -107.443)" fill="#5986cb"/>
          <path id="Trazado_111510" data-name="Trazado 111510" d="M172.573,198.3a2.178,2.178,0,0,1-2.178-2.179v-2.179h4.357v2.179A2.178,2.178,0,0,1,172.573,198.3Z" transform="translate(-164.39 -167.379)" fill="#365e7d"/>
        </g>
        <path id="Trazado_111511" data-name="Trazado 111511" d="M191.027,252.522H156.771a.856.856,0,0,1-.856-.856v-4.437a.856.856,0,0,1,.856-.856h34.256a.856.856,0,0,1,.856.856v4.437A.856.856,0,0,1,191.027,252.522Z" transform="translate(-93.79 -202.103)" fill="#365e7d"/>
        <path id="Trazado_111512" data-name="Trazado 111512" d="M336.6,246.373h-3.225a.856.856,0,0,1,.856.856v4.437a.856.856,0,0,1-.856.856H336.6a.856.856,0,0,0,.856-.856v-4.437A.856.856,0,0,0,336.6,246.373Z" transform="translate(-239.36 -202.103)" fill="#2b4d66"/>
        <g id="Grupo_61637" data-name="Grupo 61637" transform="translate(41.581 0)">
          <path id="Trazado_111513" data-name="Trazado 111513" d="M113.281,56.354H109.25v-51A5.362,5.362,0,0,0,103.894,0H96.706a1.348,1.348,0,1,0,0,2.7h7.188a2.664,2.664,0,0,1,2.661,2.661V75.715H76.5a3.487,3.487,0,0,0,.252-1.3c0-1.749-1.3-2.969-2.446-4.045a6.388,6.388,0,0,1-1.432-1.632A6.625,6.625,0,0,1,72.7,66.46c.04-1.541.086-3.288-1.1-4.478s-2.937-1.144-4.478-1.1a6.626,6.626,0,0,1-2.279-.168,6.388,6.388,0,0,1-1.632-1.432c-1.076-1.147-2.3-2.446-4.045-2.446s-2.969,1.3-4.045,2.446a8.15,8.15,0,0,1-1.456,1.343V2.7H91.317a1.348,1.348,0,1,0,0-2.7H46.937a5.362,5.362,0,0,0-5.356,5.356V16.7a5.362,5.362,0,0,0,5.356,5.356h4.031V60.873c-1.48-.036-3.109-.018-4.237,1.109-1.189,1.189-1.144,2.936-1.1,4.478a6.622,6.622,0,0,1-.168,2.279,6.388,6.388,0,0,1-1.432,1.632c-1.147,1.076-2.446,2.3-2.446,4.045s1.3,2.969,2.446,4.045a6.388,6.388,0,0,1,1.432,1.632,6.625,6.625,0,0,1,.168,2.279c-.04,1.541-.086,3.288,1.1,4.477s2.936,1.145,4.477,1.1a6.613,6.613,0,0,1,2.279.168,6.388,6.388,0,0,1,1.632,1.432C56.2,90.7,57.416,92,59.165,92s2.969-1.3,4.045-2.446a6.388,6.388,0,0,1,1.632-1.432,6.62,6.62,0,0,1,2.279-.168c1.542.041,3.288.086,4.478-1.1s1.144-2.936,1.1-4.478a6.622,6.622,0,0,1,.168-2.279A6.388,6.388,0,0,1,74.3,78.461l.054-.051h38.925a5.362,5.362,0,0,0,5.356-5.356V61.71A5.363,5.363,0,0,0,113.281,56.354ZM46.937,19.361A2.664,2.664,0,0,1,44.276,16.7V5.356A2.664,2.664,0,0,1,46.937,2.7h4.031V19.361ZM70.38,79.06a8.26,8.26,0,0,0-.373,3.382c.026,1,.056,2.131-.315,2.5s-1.5.341-2.5.315a8.263,8.263,0,0,0-3.382.373,7.952,7.952,0,0,0-2.564,2.077c-.7.748-1.5,1.6-2.08,1.6s-1.378-.848-2.08-1.6a7.958,7.958,0,0,0-2.564-2.077,6.475,6.475,0,0,0-2.5-.388c-.3,0-.592.008-.886.015-1,.026-2.131.056-2.5-.315s-.341-1.5-.315-2.5a8.26,8.26,0,0,0-.373-3.382A7.952,7.952,0,0,0,45.872,76.5c-.748-.7-1.6-1.5-1.6-2.08s.848-1.378,1.6-2.08a7.959,7.959,0,0,0,2.077-2.564,8.26,8.26,0,0,0,.373-3.382c-.026-1-.056-2.131.315-2.5s1.5-.341,2.5-.315A8.253,8.253,0,0,0,54.52,63.2a7.952,7.952,0,0,0,2.564-2.077c.7-.748,1.5-1.6,2.08-1.6s1.378.848,2.08,1.6A7.958,7.958,0,0,0,63.809,63.2a8.252,8.252,0,0,0,3.382.373c1-.026,2.131-.056,2.5.315s.341,1.5.315,2.5a8.26,8.26,0,0,0,.373,3.382,7.952,7.952,0,0,0,2.077,2.564c.748.7,1.6,1.5,1.6,2.08s-.848,1.378-1.6,2.08A7.956,7.956,0,0,0,70.38,79.06Zm45.562-6.007a2.664,2.664,0,0,1-2.661,2.661H109.25V59.049h4.031a2.664,2.664,0,0,1,2.661,2.661Z" transform="translate(-41.581 0)" fill="#3a3c07"/>
          <path id="Trazado_111514" data-name="Trazado 111514" d="M139.009,72.245a3.53,3.53,0,0,0,3.526-3.526V67.678a2.187,2.187,0,0,0,1.252-1.975V64.278a2.34,2.34,0,0,1,1.505-2.178,5.05,5.05,0,0,0,3.247-4.7V46.475a7.849,7.849,0,0,0-7.841-7.841H137.32a7.849,7.849,0,0,0-7.841,7.841V57.4a5.05,5.05,0,0,0,3.247,4.7,2.34,2.34,0,0,1,1.505,2.178V65.7a2.187,2.187,0,0,0,1.252,1.975v1.041A3.531,3.531,0,0,0,139.009,72.245Zm.831-3.526a.831.831,0,0,1-1.662,0v-.831h1.662Zm-7.666-22.244a5.151,5.151,0,0,1,5.145-5.145H140.7a5.151,5.151,0,0,1,5.145,5.145v5.589h-5.487v-4.73a1.348,1.348,0,1,0-2.7,0v4.73h-5.487Zm1.505,13.1a2.34,2.34,0,0,1-1.505-2.178V54.759h13.67V57.4a2.34,2.34,0,0,1-1.505,2.178,5.05,5.05,0,0,0-3.247,4.7v.915h-4.165v-.915A5.05,5.05,0,0,0,133.68,59.578Z" transform="translate(-113.685 -31.692)" fill="#3a3c07"/>
          <path id="Trazado_111515" data-name="Trazado 111515" d="M172.608,136.886h1.351a1.348,1.348,0,0,0,0-2.7h-1.351a1.348,1.348,0,0,0,0,2.7Z" transform="translate(-147.958 -110.079)" fill="#3a3c07"/>
          <path id="Trazado_111516" data-name="Trazado 111516" d="M278.725,59.815H258.98a1.348,1.348,0,0,0,0,2.7h19.745a1.348,1.348,0,1,0,0-2.7Z" transform="translate(-218.81 -49.067)" fill="#3a3c07"/>
          <path id="Trazado_111517" data-name="Trazado 111517" d="M278.725,91.526H258.98a1.348,1.348,0,0,0,0,2.7h19.745a1.348,1.348,0,1,0,0-2.7Z" transform="translate(-218.81 -75.08)" fill="#3a3c07"/>
          <path id="Trazado_111518" data-name="Trazado 111518" d="M278.725,123.236H258.98a1.348,1.348,0,0,0,0,2.7h19.745a1.348,1.348,0,1,0,0-2.7Z" transform="translate(-218.81 -101.092)" fill="#3a3c07"/>
          <path id="Trazado_111519" data-name="Trazado 111519" d="M278.725,154.947H258.98a1.348,1.348,0,0,0,0,2.7h19.745a1.348,1.348,0,1,0,0-2.7Z" transform="translate(-218.81 -127.105)" fill="#3a3c07"/>
          <path id="Trazado_111520" data-name="Trazado 111520" d="M280.073,188a1.348,1.348,0,0,0-1.348-1.348H258.98a1.348,1.348,0,0,0,0,2.7h19.745A1.347,1.347,0,0,0,280.073,188Z" transform="translate(-218.81 -153.117)" fill="#3a3c07"/>
          <path id="Trazado_111521" data-name="Trazado 111521" d="M299.81,349.3a3.508,3.508,0,0,0-5.454,0c-.413.42-.51.5-.8.5s-.391-.075-.8-.5a3.577,3.577,0,0,0-2.727-1.3,1.348,1.348,0,1,0,0,2.7c.294,0,.391.075.8.5a3.507,3.507,0,0,0,5.454,0c.413-.42.51-.5.8-.5s.391.075.8.5a3.577,3.577,0,0,0,2.727,1.3,1.348,1.348,0,0,0,0-2.7C300.32,349.792,300.223,349.717,299.81,349.3Z" transform="translate(-244.274 -285.465)" fill="#3a3c07"/>
          <path id="Trazado_111522" data-name="Trazado 111522" d="M273.351,383.985h16.584a1.348,1.348,0,1,0,0-2.7H273.351a1.348,1.348,0,0,0,0,2.7Z" transform="translate(-230.599 -312.777)" fill="#3a3c07"/>
          <path id="Trazado_111523" data-name="Trazado 111523" d="M150.618,247.718h18.657a1.348,1.348,0,0,0,0-2.7H151.11v-3.454h33.272v3.454h-9.719a1.348,1.348,0,0,0,0,2.7h10.211a2.206,2.206,0,0,0,2.2-2.2v-4.438a2.206,2.206,0,0,0-2.2-2.2H150.618a2.206,2.206,0,0,0-2.2,2.2v4.438A2.206,2.206,0,0,0,150.618,247.718Z" transform="translate(-129.218 -195.951)" fill="#3a3c07"/>
          <path id="Trazado_111524" data-name="Trazado 111524" d="M102.176,368.72a8.157,8.157,0,0,0-8.035,9.589,1.348,1.348,0,1,0,2.654-.468,5.538,5.538,0,0,1-.086-.959,5.469,5.469,0,1,1,2.471,4.572,1.348,1.348,0,0,0-1.48,2.253,8.162,8.162,0,1,0,4.476-14.987Z" transform="translate(-84.592 -302.466)" fill="#3a3c07"/>
          <path id="Trazado_111525" data-name="Trazado 111525" d="M134.633,403.944v-2.27a1.348,1.348,0,1,0-2.7,0v2.27a1.348,1.348,0,0,0,2.7,0Z" transform="translate(-115.702 -328.394)" fill="#3a3c07"/>
        </g>
      </g>
    </g>
  </g>
</svg>
