<svg xmlns="http://www.w3.org/2000/svg" width="400" height="234" viewBox="0 0 400 234">
  <g id="Grupo_68888" data-name="Grupo 68888" transform="translate(-600 -4731)">
    <rect id="Rectángulo_6141" data-name="Rectángulo 6141" width="400" height="177" rx="10" transform="translate(600 4788)" fill="#b9d6f0"/>
    <g id="Grupo_68847" data-name="Grupo 68847" transform="translate(-423 4019)">
      <rect id="Rectángulo_6149" data-name="Rectángulo 6149" width="213" height="213" transform="translate(1117 712)" fill="none"/>
      <g id="Grupo_68851" data-name="Grupo 68851" transform="translate(1124.576 724.107)">
        <g id="Grupo_68822" data-name="Grupo 68822" transform="translate(0 14.887)">
          <path id="Trazado_115568" data-name="Trazado 115568" d="M3337.883-267.653c-19.055-14.322-48.463-13.956-64.683,5.585-4.447,5.356-6.762,11.294-13.769,13.975-6.389,2.444-12.756.425-19.279.938-12.748,1-23.208,10.587-26.772,22.633-5.021,16.965.683,35.064,13.388,47.105,11.74,11.125,28.809,14.751,44.515,15.307,10.623.376,21.226-.672,31.756-1.976,9.284-1.149,18.327-2.926,26.125-8.46,24.2-17.174,36.089-55.035,20.741-81.61A45.111,45.111,0,0,0,3337.883-267.653Z" transform="translate(-3211.566 280.403)" fill="#ffb743"/>
          <circle id="Elipse_7942" data-name="Elipse 7942" cx="12.248" cy="12.248" r="12.248" transform="translate(25.097 21.768) rotate(-62.699)" fill="#ffb743"/>
        </g>
        <g id="Grupo_68831" data-name="Grupo 68831" transform="translate(32.373 55.533)">
          <g id="Grupo_68829" data-name="Grupo 68829">
            <g id="Grupo_68828" data-name="Grupo 68828">
              <g id="Grupo_68823" data-name="Grupo 68823" transform="translate(0.463 0.462)">
                <rect id="Rectángulo_6156" data-name="Rectángulo 6156" width="154.184" height="121.819" transform="translate(154.184 121.819) rotate(180)" fill="#fff"/>
              </g>
              <g id="Grupo_68825" data-name="Grupo 68825">
                <g id="Grupo_68824" data-name="Grupo 68824">
                  <path id="Trazado_115569" data-name="Trazado 115569" d="M3411.15-102.3H3256.967a.463.463,0,0,1-.463-.463V-224.584a.463.463,0,0,1,.463-.462H3411.15a.462.462,0,0,1,.463.462v121.819A.463.463,0,0,1,3411.15-102.3Zm-153.721-.926h153.258V-224.122H3257.429Z" transform="translate(-3256.504 225.047)"/>
                </g>
              </g>
              <g id="Grupo_68827" data-name="Grupo 68827" transform="translate(0 12.399)">
                <g id="Grupo_68826" data-name="Grupo 68826">
                  <path id="Trazado_115570" data-name="Trazado 115570" d="M3390.023-206.909H3256.967a.463.463,0,0,1-.463-.463.463.463,0,0,1,.463-.463h133.057a.462.462,0,0,1,.462.463A.463.463,0,0,1,3390.023-206.909Z" transform="translate(-3256.504 207.835)"/>
                </g>
              </g>
            </g>
          </g>
          <g id="Grupo_68830" data-name="Grupo 68830" transform="translate(5.191 4.102)">
            <path id="Trazado_115571" data-name="Trazado 115571" d="M3267.983-217.216a2.137,2.137,0,0,1-2.136,2.137,2.137,2.137,0,0,1-2.137-2.137,2.137,2.137,0,0,1,2.137-2.137A2.137,2.137,0,0,1,3267.983-217.216Z" transform="translate(-3263.71 219.353)"/>
            <path id="Trazado_115572" data-name="Trazado 115572" d="M3289.912-217.216a2.137,2.137,0,0,1-2.137,2.137,2.137,2.137,0,0,1-2.136-2.137,2.137,2.137,0,0,1,2.136-2.137A2.137,2.137,0,0,1,3289.912-217.216Z" transform="translate(-3269.841 219.353)" fill="#ffb743"/>
            <path id="Trazado_115573" data-name="Trazado 115573" d="M3278.947-217.216a2.136,2.136,0,0,1-2.137,2.137,2.137,2.137,0,0,1-2.136-2.137,2.137,2.137,0,0,1,2.136-2.137A2.136,2.136,0,0,1,3278.947-217.216Z" transform="translate(-3266.775 219.353)" fill="#fd5f2f"/>
          </g>
        </g>
        <g id="Grupo_68832" data-name="Grupo 68832" transform="translate(92.281 24.693)">
          <circle id="Elipse_7943" data-name="Elipse 7943" cx="52.32" cy="52.32" r="52.32" transform="translate(0.463 0.463)" fill="#fff"/>
          <path id="Trazado_115574" data-name="Trazado 115574" d="M3392.446-162.291a52.843,52.843,0,0,1-52.783-52.783,52.843,52.843,0,0,1,52.783-52.784,52.843,52.843,0,0,1,52.784,52.784A52.843,52.843,0,0,1,3392.446-162.291Zm0-104.641a51.916,51.916,0,0,0-51.857,51.858,51.916,51.916,0,0,0,51.857,51.858,51.916,51.916,0,0,0,51.858-51.858A51.916,51.916,0,0,0,3392.446-266.931Z" transform="translate(-3339.663 267.857)"/>
        </g>
        <path id="Trazado_115575" data-name="Trazado 115575" d="M3392.672-147.6a52.33,52.33,0,0,0,51.759-44.649c-8.323-14.4-20.659-20.663-36.93-21.415l-18.669.076c-10.433.561-22.335,4.572-27.7,12.912-2.145,3.335-20.142-.214-20.142-.214-1.97,5.51,2.041,18.846,5.087,24.791A52.314,52.314,0,0,0,3392.672-147.6Z" transform="translate(-3247.608 277.397)"/>
        <path id="Trazado_115576" data-name="Trazado 115576" d="M3410.467-203.729c6.727.009,15.85-5.138,20.79-9.123a60.744,60.744,0,0,0-7.591-.812l-18.669.076a49.926,49.926,0,0,0-6.712.824C3399.292-209.937,3402.414-203.74,3410.467-203.729Z" transform="translate(-3263.773 277.397)" fill="#fff"/>
        <g id="Grupo_68834" data-name="Grupo 68834" transform="translate(140.006 151.372)">
          <g id="Grupo_68833" data-name="Grupo 68833" transform="translate(0 0)">
            <path id="Trazado_115577" data-name="Trazado 115577" d="M3497.152-108.744a.378.378,0,0,1-.2-.057l-9.66-6a.38.38,0,0,1-.123-.524.381.381,0,0,1,.524-.123l9.354,5.813,13.025-18.68-35.514,4.7,6.96,4.324a.381.381,0,0,1,.122.524.381.381,0,0,1-.524.122l-7.861-4.885a.381.381,0,0,1-.172-.4.381.381,0,0,1,.322-.3l37.424-4.956a.38.38,0,0,1,.375.179.381.381,0,0,1-.013.416l-13.726,19.683A.382.382,0,0,1,3497.152-108.744Z" transform="translate(-3473.074 129.189)"/>
            <path id="Trazado_115578" data-name="Trazado 115578" d="M3492.95-105.751a.379.379,0,0,1-.225-.074.379.379,0,0,1-.141-.407l2.492-9a.384.384,0,0,1,.175-.227l23.386-13.68a.381.381,0,0,1,.52.136.381.381,0,0,1-.137.521l-23.252,13.6-2.185,7.888,7.505-4.822a.381.381,0,0,1,.526.114.38.38,0,0,1-.115.526l-8.344,5.36A.382.382,0,0,1,3492.95-105.751Z" transform="translate(-3481.024 129.188)"/>
            <path id="Trazado_115579" data-name="Trazado 115579" d="M3490.413-105.751a.379.379,0,0,1-.365-.275l-3.685-12.835a.38.38,0,0,1,.246-.466l29.561-9.842a.381.381,0,0,1,.481.24.38.38,0,0,1-.241.481L3487.2-118.72l3.583,12.484a.381.381,0,0,1-.261.471A.38.38,0,0,1,3490.413-105.751Z" transform="translate(-3478.487 129.189)"/>
          </g>
        </g>
        <path id="Trazado_115580" data-name="Trazado 115580" d="M3392.49-147.318a52.6,52.6,0,0,1-47-28.75c-2.9-5.659-7.21-19.287-5.111-25.158a.463.463,0,0,1,.525-.3c6.84,1.349,18.226,2.655,19.664.419,5.7-8.87,18.235-12.6,28.063-13.124l18.691-.078c8.526.393,15.607,2.242,21.675,5.65a41.374,41.374,0,0,1,15.658,16,.465.465,0,0,1,.058.3,52.767,52.767,0,0,1-17.568,32.078A52.744,52.744,0,0,1,3392.49-147.318Zm-51.365-53.219c-1.546,5.379,2.026,17.882,5.184,24.048a51.684,51.684,0,0,0,46.181,28.246,52.122,52.122,0,0,0,51.278-44.094c-7.9-13.572-19.494-20.26-36.471-21.045l-18.645.078c-9.575.516-21.8,4.123-27.311,12.7C3359.208-197.287,3344.263-199.939,3341.125-200.537Z" transform="translate(-3247.426 277.577)"/>
        <path id="Trazado_115581" data-name="Trazado 115581" d="M3388.389-156.553a.464.464,0,0,1-.446-.338c-7.9-28.166-10.607-44.938-10.633-45.1a.462.462,0,0,1,.385-.53.463.463,0,0,1,.529.384c.027.166,2.725,16.89,10.61,45a.462.462,0,0,1-.321.571A.467.467,0,0,1,3388.389-156.553Z" transform="translate(-3257.907 274.284)" fill="#fff"/>
        <path id="Trazado_115582" data-name="Trazado 115582" d="M3457.172-150.883a.463.463,0,0,1-.443-.329l-9.226-30.44a.463.463,0,0,1,.308-.577.463.463,0,0,1,.577.308l9.227,30.44a.462.462,0,0,1-.309.577A.461.461,0,0,1,3457.172-150.883Z" transform="translate(-3277.529 268.613)" fill="#fff"/>
        <g id="Grupo_68837" data-name="Grupo 68837" transform="translate(133.706 29.166)">
          <g id="Grupo_68836" data-name="Grupo 68836">
            <path id="Trazado_115583" data-name="Trazado 115583" d="M3426.736-246.863a14.784,14.784,0,0,1-14.784,14.785,14.784,14.784,0,0,1-14.784-14.785,14.784,14.784,0,0,1,14.784-14.784A14.784,14.784,0,0,1,3426.736-246.863Z" transform="translate(-3397.167 261.647)"/>
            <path id="Trazado_115584" data-name="Trazado 115584" d="M3421.392-233.587c-4.068-1.3-7.551-7.432-7.629-7.739-.629-2.531.411-9.97.411-9.97s-9.49-2.434-12.336-1.207c-1.6.689-3.21,4.214-3.283,5.659a39.8,39.8,0,0,0-.437,9.1c.557,6.93.222,11.258,7.571,11.258l.082,4.451h15.978Z" transform="translate(-3397.404 259.187)" fill="#fff"/>
            <path id="Trazado_115585" data-name="Trazado 115585" d="M3405.556-220.241a.462.462,0,0,1-.462-.452l-.071-2.977c-6.745-.166-7.031-4.124-7.458-10.051-.039-.524-.077-1.067-.123-1.627a61.367,61.367,0,0,1-.1-8.63.462.462,0,0,1,.5-.425.462.462,0,0,1,.425.5,60.639,60.639,0,0,0,.1,8.484c.045.562.084,1.107.122,1.635.428,5.93.665,9.2,6.988,9.2a.462.462,0,0,1,.463.452l.082,3.423a.463.463,0,0,1-.452.474Z" transform="translate(-3397.187 256.826)"/>
            <path id="Trazado_115586" data-name="Trazado 115586" d="M3430.645-215.307a.461.461,0,0,1-.462-.447l-.359-10.521a.463.463,0,0,1,.447-.478.453.453,0,0,1,.478.447l.358,10.521a.462.462,0,0,1-.447.478Z" transform="translate(-3406.298 251.891)"/>
            <path id="Trazado_115587" data-name="Trazado 115587" d="M3408.491-216.442a.463.463,0,0,1-.463-.445.463.463,0,0,1,.445-.48,17.185,17.185,0,0,0,5.978-1.164.463.463,0,0,1,.615.225.463.463,0,0,1-.224.615,17.728,17.728,0,0,1-6.333,1.25Z" transform="translate(-3400.204 249.604)"/>
            <path id="Trazado_115588" data-name="Trazado 115588" d="M3408.752-214.9s.646,3.039,2.8,2.991,3.824-5.831,3.824-5.831l-6.7,1.072Z" transform="translate(-3400.383 249.372)"/>
            <path id="Trazado_115589" data-name="Trazado 115589" d="M3404.294-232.574a.474.474,0,0,1-.46-.517l.727-6.184a.459.459,0,0,1,.514-.4.461.461,0,0,1,.406.514l-.727,6.184A.463.463,0,0,1,3404.294-232.574Z" transform="translate(-3399.03 255.506)"/>
            <g id="Grupo_68835" data-name="Grupo 68835" transform="translate(15.289 15.462)">
              <circle id="Elipse_7944" data-name="Elipse 7944" cx="3.916" cy="3.916" r="3.916" fill="#fff"/>
              <path id="Trazado_115590" data-name="Trazado 115590" d="M3422.648-234.269a.458.458,0,0,1-.268-.086.463.463,0,0,1-.108-.645l1.434-2.007a.463.463,0,0,1,.646-.107.463.463,0,0,1,.107.645l-1.433,2.007A.463.463,0,0,1,3422.648-234.269Z" transform="translate(-3419.451 239.351)"/>
            </g>
          </g>
          <path id="Trazado_115591" data-name="Trazado 115591" d="M3405.793-227.356a.462.462,0,0,1-.441-.323.462.462,0,0,1,.3-.581,2.45,2.45,0,0,0,1.312-1.388.464.464,0,0,1,.592-.279.462.462,0,0,1,.28.589,3.356,3.356,0,0,1-1.9,1.96A.448.448,0,0,1,3405.793-227.356Z" transform="translate(-3399.449 252.785)"/>
        </g>
        <path id="Trazado_115592" data-name="Trazado 115592" d="M3411.933-237.429a.936.936,0,0,0,1.023.84.935.935,0,0,0,.839-1.023.935.935,0,0,0-1.022-.84A.936.936,0,0,0,3411.933-237.429Z" transform="translate(-3267.588 284.329)"/>
        <path id="Trazado_115593" data-name="Trazado 115593" d="M3401.887-237.429a.936.936,0,0,0,1.023.84.936.936,0,0,0,.84-1.023.937.937,0,0,0-1.023-.84A.936.936,0,0,0,3401.887-237.429Z" transform="translate(-3264.779 284.329)"/>
        <g id="Grupo_68839" data-name="Grupo 68839" transform="translate(67.904)">
          <circle id="Elipse_7945" data-name="Elipse 7945" cx="24.879" cy="24.879" r="24.879" transform="translate(0 23.479) rotate(-28.155)" fill="#fd5f2f"/>
          <g id="Grupo_68838" data-name="Grupo 68838" transform="translate(18.955 19.218)">
            <path id="Trazado_115594" data-name="Trazado 115594" d="M3355.086-245.123a4.635,4.635,0,0,1-4.636,4.635,4.635,4.635,0,0,1-4.635-4.635,4.636,4.636,0,0,1,4.635-4.635A4.635,4.635,0,0,1,3355.086-245.123Z" transform="translate(-3335.962 268.271)" fill="#fff"/>
            <path id="Trazado_115595" data-name="Trazado 115595" d="M3358.418-256.763a2.806,2.806,0,0,1-2.806-2.806V-265.8a8.943,8.943,0,0,0-8.485-9.011,8.805,8.805,0,0,0-9.127,8.8v6.44a2.806,2.806,0,0,1-2.806,2.806,2.381,2.381,0,0,0-2.413,2.246,2.316,2.316,0,0,0,2.316,2.388h23.417a2.317,2.317,0,0,0,2.317-2.388A2.381,2.381,0,0,0,3358.418-256.763Z" transform="translate(-3332.318 275.277)" fill="#fff"/>
            <path id="Trazado_115596" data-name="Trazado 115596" d="M3358.336-251.845h-23.418a2.757,2.757,0,0,1-2-.844,2.755,2.755,0,0,1-.783-2.021,2.851,2.851,0,0,1,2.876-2.7,2.347,2.347,0,0,0,2.344-2.343v-6.44a9.193,9.193,0,0,1,2.832-6.669,9.21,9.21,0,0,1,6.773-2.592,9.455,9.455,0,0,1,8.931,9.473v6.229a2.346,2.346,0,0,0,2.343,2.343,2.851,2.851,0,0,1,2.876,2.7,2.757,2.757,0,0,1-.783,2.021A2.759,2.759,0,0,1,3358.336-251.845Zm-11.711-22.686a8.277,8.277,0,0,0-5.791,2.339,8.275,8.275,0,0,0-2.55,6v6.44a3.273,3.273,0,0,1-3.269,3.269,1.919,1.919,0,0,0-1.951,1.8,1.845,1.845,0,0,0,.522,1.349,1.844,1.844,0,0,0,1.332.563h23.418a1.843,1.843,0,0,0,1.331-.563,1.838,1.838,0,0,0,.523-1.349,1.919,1.919,0,0,0-1.951-1.8,3.273,3.273,0,0,1-3.268-3.269v-6.229a8.524,8.524,0,0,0-8.039-8.549C3346.829-274.53,3346.727-274.531,3346.625-274.531Z" transform="translate(-3332.138 275.456)" fill="#fd5f2f"/>
          </g>
        </g>
        <g id="Grupo_68841" data-name="Grupo 68841" transform="translate(25.284 97.67)">
          <path id="Trazado_115597" data-name="Trazado 115597" d="M3329.428-165.912h-53.9a28.221,28.221,0,0,0-28.222,28.222,28.221,28.221,0,0,0,28.222,28.222h17.513l9.437,14.511,9.437-14.511h17.514a28.222,28.222,0,0,0,28.222-28.222A28.222,28.222,0,0,0,3329.428-165.912Z" transform="translate(-3246.843 166.375)" fill="#fd5f2f"/>
          <path id="Trazado_115598" data-name="Trazado 115598" d="M3302.3-94.675a.463.463,0,0,1-.387-.21l-9.3-14.3h-17.262a28.717,28.717,0,0,1-28.685-28.685,28.717,28.717,0,0,1,28.685-28.685h53.9a28.717,28.717,0,0,1,28.685,28.685,28.717,28.717,0,0,1-28.685,28.685h-17.262l-9.3,14.3A.463.463,0,0,1,3302.3-94.675Zm-26.95-70.954a27.791,27.791,0,0,0-27.759,27.759,27.791,27.791,0,0,0,27.759,27.759h17.513a.462.462,0,0,1,.388.21l9.049,13.915,9.05-13.915a.463.463,0,0,1,.388-.21h17.513a27.79,27.79,0,0,0,27.76-27.759,27.79,27.79,0,0,0-27.76-27.759Z" transform="translate(-3246.663 166.555)"/>
          <g id="Grupo_68840" data-name="Grupo 68840" transform="translate(21.824 22.759)">
            <path id="Trazado_115599" data-name="Trazado 115599" d="M3327.517-129.037a5.926,5.926,0,0,1-5.926,5.926,5.926,5.926,0,0,1-5.925-5.926,5.926,5.926,0,0,1,5.925-5.926A5.926,5.926,0,0,1,3327.517-129.037Z" transform="translate(-3287.78 134.963)" fill="#fff"/>
            <path id="Trazado_115600" data-name="Trazado 115600" d="M3288.81-129.037a5.926,5.926,0,0,1-5.926,5.926,5.926,5.926,0,0,1-5.926-5.926,5.926,5.926,0,0,1,5.926-5.926A5.926,5.926,0,0,1,3288.81-129.037Z" transform="translate(-3276.958 134.963)" fill="#fff"/>
            <path id="Trazado_115601" data-name="Trazado 115601" d="M3366.225-129.037a5.926,5.926,0,0,1-5.926,5.926,5.925,5.925,0,0,1-5.925-5.926,5.925,5.925,0,0,1,5.925-5.926A5.926,5.926,0,0,1,3366.225-129.037Z" transform="translate(-3298.603 134.963)" fill="#fff"/>
          </g>
        </g>
        <path id="Trazado_115602" data-name="Trazado 115602" d="M3348.733-197.7a13.451,13.451,0,0,0,11.56-15.75c-.372-2.044-.7-3.76-.918-4.656-1.217-5.054-4.2-8.7-10.781-8.08a35.679,35.679,0,0,0-1.6-6.284c-2.708-6.5-7.549-6.5-7.607-2.061,0,0-2.33-4.881-5.468-4.194s-2.6,5.1-2.6,5.1-2.777-5.827-6.633-4.2c-4.087,1.726.077,9.194.077,9.194s-4.551-7.635-8.437-4.557c-2.513,1.99.442,6.845,4.427,13.581,2.236,3.78,6.416,4.722,12.116,4.289l.879,6.167a13.449,13.449,0,0,0,14.987,11.448Z" transform="translate(-3240.597 284.423)" fill="#fff"/>
        <path id="Trazado_115603" data-name="Trazado 115603" d="M3346.894-197.314a13.99,13.99,0,0,1-13.786-11.949L3332.29-215c-6.277.4-10.024-1.006-12.117-4.545l-.258-.435c-3.967-6.7-6.834-11.546-4.058-13.744a3.558,3.558,0,0,1,2.954-.768,7.865,7.865,0,0,1,3.942,2.532,7.691,7.691,0,0,1-.27-4.506,3.178,3.178,0,0,1,1.842-1.958c2.906-1.229,5.185,1.221,6.359,2.944.194-1.614.948-3.433,2.953-3.872,2.415-.53,4.329,1.751,5.3,3.243a2.763,2.763,0,0,1,2.123-2.119c1.813-.35,4.426,1.186,6.183,5.405a33.278,33.278,0,0,1,1.561,5.967c5.749-.388,9.4,2.457,10.846,8.467.2.823.509,2.4.924,4.682a13.786,13.786,0,0,1-2.475,10.72,13.779,13.779,0,0,1-9.483,5.572A13.691,13.691,0,0,1,3346.894-197.314Zm-14.206-18.645a.463.463,0,0,1,.458.4l.878,6.167a13.047,13.047,0,0,0,14.471,11.054,12.869,12.869,0,0,0,8.853-5.2,12.867,12.867,0,0,0,2.309-10.007c-.411-2.266-.718-3.823-.912-4.631-1.377-5.719-4.742-8.246-10.287-7.727a.462.462,0,0,1-.5-.387,35.348,35.348,0,0,0-1.573-6.18c-1.549-3.719-3.758-5.122-5.154-4.853-.96.186-1.545,1.165-1.565,2.62a.463.463,0,0,1-.363.446.463.463,0,0,1-.517-.253c-.022-.045-2.211-4.54-4.951-3.942-2.686.589-2.242,4.554-2.237,4.594a.464.464,0,0,1-.331.5.464.464,0,0,1-.546-.245c-.027-.054-2.633-5.409-6.036-3.972a2.258,2.258,0,0,0-1.326,1.405c-.885,2.575,1.6,7.092,1.628,7.137a.463.463,0,0,1-.173.626.463.463,0,0,1-.629-.164c-.027-.045-2.712-4.5-5.54-5.015a2.633,2.633,0,0,0-2.212.583c-2.142,1.7.692,6.486,4.28,12.547l.258.436c1.938,3.276,5.54,4.531,11.683,4.063Z" transform="translate(-3240.417 284.603)"/>
        <path id="Trazado_115604" data-name="Trazado 115604" d="M3332.1-214.907a.463.463,0,0,1-.428-.288l-3.882-9.493a.463.463,0,0,1,.254-.6.462.462,0,0,1,.6.254l3.882,9.493a.463.463,0,0,1-.253.6A.458.458,0,0,1,3332.1-214.907Z" transform="translate(-3244.053 280.658)"/>
        <path id="Trazado_115605" data-name="Trazado 115605" d="M3342.313-217.83a.462.462,0,0,1-.434-.3l-5-13.506a.462.462,0,0,1,.272-.594.462.462,0,0,1,.595.273l5,13.506a.461.461,0,0,1-.273.594A.469.469,0,0,1,3342.313-217.83Z" transform="translate(-3246.598 282.597)"/>
        <path id="Trazado_115606" data-name="Trazado 115606" d="M3354.1-218.182a.464.464,0,0,1-.432-.3l-5.585-14.412a.463.463,0,0,1,.264-.6.462.462,0,0,1,.6.264l5.586,14.412a.462.462,0,0,1-.264.6A.469.469,0,0,1,3354.1-218.182Z" transform="translate(-3249.728 282.949)"/>
        <path id="Trazado_115607" data-name="Trazado 115607" d="M3351.57-205.921h-12.1a.463.463,0,0,1-.463-.463.463.463,0,0,1,.463-.463h12.1a.463.463,0,0,1,.463.463A.463.463,0,0,1,3351.57-205.921Z" transform="translate(-3247.198 275.491)"/>
        <path id="Trazado_115608" data-name="Trazado 115608" d="M3425.789-86.526A15.649,15.649,0,0,1,3420-87.575a9.2,9.2,0,0,1-5.376-4.837,17.5,17.5,0,0,1-6.12.743,8.263,8.263,0,0,1-6.835-4.4c-1.507-3.327.095-7.158,1.7-9.787a34.166,34.166,0,0,1,9.979-10.394.379.379,0,0,1,.527.1.38.38,0,0,1-.1.528,33.411,33.411,0,0,0-9.756,10.161c-1.513,2.471-3.03,6.053-1.66,9.075a7.5,7.5,0,0,0,6.213,3.958,14.6,14.6,0,0,0,5.775-.8,9.7,9.7,0,0,1,1.216-7.215,9.756,9.756,0,0,1,3.605-3.813,6.163,6.163,0,0,1,5.242-.5,3.274,3.274,0,0,1,1.786,1.523c.687,1.431-.2,3.027-.8,3.851-1.817,2.524-4.622,4.48-8.826,6.154-.4.159-.823.322-1.266.479a8.676,8.676,0,0,0,4.969,4.465c4.455,1.752,9.909,1.2,16.676-1.695a63.8,63.8,0,0,0,15.476-9.412.38.38,0,0,1,.535.052.381.381,0,0,1-.052.535,64.52,64.52,0,0,1-15.66,9.524A29.607,29.607,0,0,1,3425.789-86.526Zm-3.383-17.843a5.849,5.849,0,0,0-2.857.777,9.014,9.014,0,0,0-3.317,3.526,8.964,8.964,0,0,0-1.157,6.6c.428-.152.836-.309,1.222-.462,4.064-1.619,6.762-3.491,8.491-5.893.493-.687,1.246-2,.728-3.076a2.513,2.513,0,0,0-1.381-1.147A4.664,4.664,0,0,0,3422.407-104.369Z" transform="translate(-3303.707 275.312)" fill="#fd5f2f"/>
        <g id="Grupo_68843" data-name="Grupo 68843" transform="translate(16.819 80.201)">
          <g id="Grupo_68842" data-name="Grupo 68842">
            <path id="Trazado_115609" data-name="Trazado 115609" d="M3235.377-184.408a.461.461,0,0,1-.328-.136.462.462,0,0,1,0-.654l5.472-5.471a.462.462,0,0,1,.654,0,.462.462,0,0,1,0,.654l-5.472,5.471A.461.461,0,0,1,3235.377-184.408Z" transform="translate(-3234.914 190.805)"/>
            <path id="Trazado_115610" data-name="Trazado 115610" d="M3240.849-184.408a.459.459,0,0,1-.327-.136l-5.472-5.471a.462.462,0,0,1,0-.654.463.463,0,0,1,.655,0l5.472,5.471a.462.462,0,0,1,0,.654A.461.461,0,0,1,3240.849-184.408Z" transform="translate(-3234.914 190.805)"/>
          </g>
        </g>
        <path id="Trazado_115611" data-name="Trazado 115611" d="M3413.113-254.478s-10.62,5.342-12.33,3.54c-1.227-1.292.827-3.54.827-3.54s-5.206,2.811-6.908.891c-1.607-1.812.755-4.885,6.9-7.352,0,0-3-1.234-.93-2.854s13.8,1.809,13.8,1.809Z" transform="translate(-3262.635 291.535)"/>
      </g>
    </g>
  </g>
</svg>
