<svg xmlns="http://www.w3.org/2000/svg" xmlns:xlink="http://www.w3.org/1999/xlink" width="388.975" height="308.869" viewBox="0 0 388.975 308.869">
  <defs>
    <clipPath id="clip-path">
      <path id="Trazado_111317" data-name="Trazado 111317" d="M2982.8,840.075v26.74c-10.118.051-19.337,6.379-22.312,16a23.45,23.45,0,0,0,22.227,30.826c.085,0,.085,26.74.085,26.74-.05.051-89.645.051-89.645.051a10.71,10.71,0,0,1-10.709-10.709V840.148c.051-.05,31.126-.05,31.126-.05.022-.022,10.416-18.03,10.416-18.03a9.958,9.958,0,0,1,17.25,0l10.395,18.007c.021.022,31.083.022,31.083.022C2982.716,840.075,2982.8,840.075,2982.8,840.075Z" transform="translate(-2882.447 -817.088)" fill="none"/>
    </clipPath>
  </defs>
  <g id="Grupo_61581" data-name="Grupo 61581" transform="translate(-2817.471 -701.449)">
    <g id="Grupo_61576" data-name="Grupo 61576" transform="translate(3146.849 763.812)">
      <path id="Trazado_111283" data-name="Trazado 111283" d="M3068.279,745.621c3.428,0,3.066-5.3-.337-5.3h-42.769c-3.427,0-3.066,5.3.339,5.3Z" transform="translate(-3022.774 -740.32)" fill="#f9fcb9"/>
      <path id="Trazado_111284" data-name="Trazado 111284" d="M3041.936,746.592h-16.1a2.672,2.672,0,0,0-2.48,2.82,2.718,2.718,0,0,0,2.818,2.48h16.1a2.67,2.67,0,0,0,2.48-2.819A2.719,2.719,0,0,0,3041.936,746.592Z" transform="translate(-3022.43 -736.53)" fill="#f9fcb9"/>
      <path id="Trazado_111285" data-name="Trazado 111285" d="M3058.121,746.592h-16.605a2.67,2.67,0,0,0-2.48,2.82,2.718,2.718,0,0,0,2.819,2.48h16.6a2.672,2.672,0,0,0,2.482-2.819A2.719,2.719,0,0,0,3058.121,746.592Z" transform="translate(-3012.954 -736.53)" fill="#f9fcb9"/>
    </g>
    <path id="Trazado_111286" data-name="Trazado 111286" d="M3016.31,733.875V867.686h-2.278V734.058C3014.227,732.591,3016.277,732.5,3016.31,733.875Z" transform="translate(118.792 19.007)" fill="#f9fcb9"/>
    <path id="Trazado_111287" data-name="Trazado 111287" d="M3151.141,741.177H2908.982v-5.354a12.834,12.834,0,0,1,12.823-12.812H3138.32a12.832,12.832,0,0,1,12.822,12.812Zm-239.5-2.658h236.844v-2.7a10.171,10.171,0,0,0-10.165-10.154H2921.8a10.17,10.17,0,0,0-10.164,10.154Z" transform="translate(55.305 13.031)" fill="#f9fcb9"/>
    <path id="Trazado_111288" data-name="Trazado 111288" d="M3138.32,869.146H2921.8a12.832,12.832,0,0,1-12.823-12.811V732.677h242.159V856.336A12.83,12.83,0,0,1,3138.32,869.146ZM2911.64,735.335v121A10.171,10.171,0,0,0,2921.8,866.49H3138.32a10.171,10.171,0,0,0,10.165-10.154v-121Z" transform="translate(55.305 18.873)" fill="#f9fcb9"/>
    <path id="Trazado_111289" data-name="Trazado 111289" d="M3167.549,841.306c-5.073-11.908-13.775-21.89-22.7-31.076-19.958-20.544-39.76-42.418-66.924-53.908-18.3-7.741-36.168-5.6-55.72-4.94-17.78.6-35.378,1.7-52.884,4.887-14.547,2.647-29.408,12.389-42.02,20.035a302.943,302.943,0,0,0-54.893,42.605c-14.828,14.529-34.818,30.8-29.3,54,3.757,15.793,18.36,29.737,34.809,31.047,14.221,1.133,28.5-5.325,39.2-14.323,2.912-2.45,27.108-16.514,26.523-18.136l28.679,72.956,116.229,5.031,18.663-31.582c1.237.672,3.13,1.576,5.906,2.777a40.463,40.463,0,0,0,11.263,4.545c27.522,9.928,44.721-16.616,48.2-25.552C3176.1,890.616,3179.122,868.478,3167.549,841.306Z" transform="translate(14.928 29.708)" fill="#529ad9"/>
    <path id="Trazado_111290" data-name="Trazado 111290" d="M2939.165,867.962a117.914,117.914,0,0,1-40.526-59.55c-.488-1.641-3-.789-2.519.845a121.672,121.672,0,0,0,29.074,49.7,119.141,119.141,0,0,0,12.242,11.017C2938.776,871.026,2940.516,869.019,2939.165,867.962Z" transform="translate(47.494 64.108)" fill="#fee45a"/>
    <path id="Trazado_111291" data-name="Trazado 111291" d="M2928.482,811.538c-16.6.5-42.265-25.66-33.711-45.283s54.965-40.317,75.809-43.943c46.29-8.051,53.167,17.276,56.688,32.873s-5.7,18.113-16.772,26.668S2945.086,811.036,2928.482,811.538Z" transform="translate(45.688 11.676)" fill="#529ad9"/>
    <path id="Trazado_111292" data-name="Trazado 111292" d="M2928.294,784.862c3.69,1.007,54.006-24.15,61.051-30.524s6.04-26.053-15.766-25.493c-26.164.671-47.632,9.057-57.36,17.778-9.942,8.916-13.417,24.823-9.057,28.513S2928.294,784.862,2928.294,784.862Z" transform="translate(53.087 16.549)" fill="#1a1a1a"/>
    <path id="Trazado_111293" data-name="Trazado 111293" d="M2922.214,704.667a55.445,55.445,0,0,0-8.8.584c-.452.067-.9.133-1.354.226a35.827,35.827,0,0,1,7.966-.889C2920.753,704.588,2921.485,704.614,2922.214,704.667Z" transform="translate(57.163 1.897)" fill="#ffc89e"/>
    <path id="Trazado_111294" data-name="Trazado 111294" d="M2904.181,745.961a30.609,30.609,0,0,1-.266,4.94,3.536,3.536,0,0,1-4.263,2.881c-2.933-.611-5.137-3.173-6.917-5.391-1.288-1.633-1.58-3.546-.093-5.192a27.692,27.692,0,0,0,2.575-2.987c.213-.359.279-.478.346-.611a6.578,6.578,0,0,0,.423-.943,9.436,9.436,0,0,0,.332-1.646,20.435,20.435,0,0,0-.225-3.969,2.691,2.691,0,0,1,2.482-2.816,2.719,2.719,0,0,1,2.815,2.484c.041.3.079.6.106.9a2.347,2.347,0,0,1,1.156,1.407A43.014,43.014,0,0,1,2904.181,745.961Z" transform="translate(44.826 17.389)" fill="#ffc89e"/>
    <path id="Trazado_111295" data-name="Trazado 111295" d="M2952.428,761.863a36.231,36.231,0,0,1-21.761,7.263,34.593,34.593,0,0,1-3.531-.172,36.07,36.07,0,0,1-24.816-13.531,35.147,35.147,0,0,1-5.378-9.321,35.782,35.782,0,0,1-2.5-13.21,36.632,36.632,0,0,1,.464-5.816,35.91,35.91,0,0,1,2.682-8.976,3.566,3.566,0,0,0,1.316-.411,94.356,94.356,0,0,0,29.9,3.2,8.959,8.959,0,0,0-.837,5.657,8.29,8.29,0,0,0,3.067,4.686,9.078,9.078,0,0,1,2.841,2.856c1.236,2.748.982,5.763,1.3,8.458.359,3.172,1.276,6.227,3.824,8.338,1.606,1.327,4.78.172,4.382-2.192a.645.645,0,0,1,.569-.385,1.758,1.758,0,0,1,1.86.783,6.132,6.132,0,0,1,.916,1.62c.307.745.518,1.527.745,2.257a27.946,27.946,0,0,0,1.91,4.767A18.137,18.137,0,0,0,2952.428,761.863Z" transform="translate(46.519 9.815)" fill="#ffc89e"/>
    <path id="Trazado_111296" data-name="Trazado 111296" d="M2968.838,760.206l-27.67,24.657-14.593-12.083-8.962-7.423-5.564-4.593c-.065-.053,4.448-4.248,4.448-4.248l6.385-5.949,11.155-10.383,2.057-1.912c.307.745.518,1.527.744,2.257a27.984,27.984,0,0,0,1.91,4.766,18.137,18.137,0,0,0,3.041,4.13,19.821,19.821,0,0,0,12.044,6.015c3.121.319,5.75-.172,7.384-2.575Z" transform="translate(57.157 22.254)" fill="#ffc89e"/>
    <path id="Trazado_111297" data-name="Trazado 111297" d="M2900.761,774.117c3.354-.335,33.879,7.045,33.879,7.045s67.7-49.594,69.1-48.974,16.437,22.811-2.684,44.949-47.632,30.189-66.417,24.152S2897.406,774.452,2900.761,774.117Z" transform="translate(50.096 18.573)" fill="#529ad9"/>
    <path id="Trazado_111298" data-name="Trazado 111298" d="M2998.088,752.658c-8.287,7.523-18.258,12.83-28.15,17.9q-16.452,8.442-33.287,16.088c-1.544.7-.709,3.225.844,2.519q17.154-7.8,33.926-16.4c10.139-5.2,20.194-10.671,28.684-18.378C3001.364,753.243,2999.34,751.52,2998.088,752.658Z" transform="translate(71.53 30.723)" fill="#fee45a"/>
    <path id="Trazado_111299" data-name="Trazado 111299" d="M2932.045,758.922a30.518,30.518,0,0,1-3.332,6.6,33.061,33.061,0,0,1-2.005,2.682c-.133.146-9.1-7.277-9.1-7.277l-5.564-4.593a59.782,59.782,0,0,0,7.994-4.555c1.991-1.3,3.956-2.643,5.975-3.876a13.114,13.114,0,0,1,6.491-2.3,1.341,1.341,0,0,1,1.409,1.234A31.471,31.471,0,0,1,2932.045,758.922Z" transform="translate(57.157 26.685)" fill="#ff7e64"/>
    <path id="Trazado_111300" data-name="Trazado 111300" d="M2944.374,749.943c0,.544-.013,1.088-.053,1.619a24.65,24.65,0,1,1-48.08-9.108c.094-.319.2-.624.32-.943A24.645,24.645,0,0,1,2933.5,729.5c1.235,2.748.982,5.763,1.3,8.458.359,3.172,1.276,6.227,3.824,8.338,1.606,1.327,4.78.172,4.382-2.192a.645.645,0,0,1,.569-.385,23.3,23.3,0,0,1,.719,4.316C2944.347,748.668,2944.374,749.3,2944.374,749.943Z" transform="translate(46.899 14.406)" fill="#ffc89e"/>
    <path id="Trazado_111301" data-name="Trazado 111301" d="M2947.693,753.008a28.391,28.391,0,0,1-2.8,3.12,29.928,29.928,0,0,1-45.53-38.4A93.751,93.751,0,0,0,2929,720.863a8.959,8.959,0,0,0-.837,5.657,8.291,8.291,0,0,0,3.067,4.686,9.082,9.082,0,0,1,2.842,2.856c1.235,2.748.982,5.763,1.3,8.458.359,3.172,1.276,6.227,3.824,8.338,1.606,1.327,4.78.172,4.382-2.192a.645.645,0,0,1,.569-.385,1.758,1.758,0,0,1,1.86.783,6.117,6.117,0,0,1,.916,1.62c.307.744.518,1.527.745,2.257C2947.68,752.97,2947.68,752.982,2947.693,753.008Z" transform="translate(46.329 9.84)" fill="#ffc89e"/>
    <path id="Trazado_111302" data-name="Trazado 111302" d="M2907.368,733.356c-3.427,0-3.064,5.3.339,5.3C2911.135,738.657,2910.772,733.356,2907.368,733.356Z" transform="translate(52.879 19.283)" fill="#1a1a1a"/>
    <path id="Trazado_111303" data-name="Trazado 111303" d="M2922.617,785.533c-4.054,16.024-8.386,31.991-12.584,47.986a3.008,3.008,0,0,1-3.44,2.312,202.992,202.992,0,0,0-38.752-1.888,2.715,2.715,0,0,1-2.562-1.332l-.278-.278c-3.658-4.245.483-11.006,2.167-15.22q3.359-8.452,6.717-16.9c1.083-2.708,2.166-5.4,3.234-8.108.454-1.126.892-2.253,1.346-3.38.219-.555,1.01-1.961.717-2.589s-1.844-1.025-2.415-1.245a21.653,21.653,0,0,0-2.9-.833,39.17,39.17,0,0,0-6.805-.805c-10.478-.411-20.942-.382-31.405-1.2-4.918-.4-10.17-.746-14.15-4.025-3.06-2.517-5.883-8.078-2.5-11.473,1.858-1.859,4.551-1.214,6.878-.951,2.634.292,5.283.586,7.917.894.921.1,1.844.2,2.751.306a34.711,34.711,0,0,1-5.3-5.166c-3.117-3.775-6.352-9.249-5.869-14.3a7.159,7.159,0,0,1,4.492-6.175,6.567,6.567,0,0,1,3.234-.38c.542-3.879,3.043-7.391,7.346-7.508,5.209-.16,8.049,4.361,10.669,8.108a22.827,22.827,0,0,0,4.141,4.4c-.789-3.935-1.624-8.4-.906-12.4.615-3.409,3.263-6.5,6.936-6.527s5.576,3.249,6.762,6.249c2.21,5.635,1.887,12.966,6.073,17.678,3.849,4.332,28.314,7.86,34.343,8.885,6.132,1.038,11.073,3.687,13.868,9.438C2925.374,775.391,2924.271,779.064,2922.617,785.533Z" transform="translate(-0.001 15.359)" fill="#ffc89e"/>
    <g id="Grupo_61579" data-name="Grupo 61579" transform="translate(2921.715 886.974)">
      <g id="Grupo_61578" data-name="Grupo 61578" clip-path="url(#clip-path)">
        <path id="Trazado_111304" data-name="Trazado 111304" d="M3073.332,796.822a40.485,40.485,0,0,1,6.849,6.13,28.838,28.838,0,0,1,4.436,6.7c6.788,14.192,1.765,32.732-2.7,47.858-.205,2.286-.25,4.568-.25,6.875V935.5c-.354,11.8,4.276,27.229-1.9,34.559-5.015,5.4-17.748-5.015-28.166-4.63-8.487.387-15.817,8.1-25.078,6.56-12.345-2.7-23.921-8.489-36.363-5.264a39.384,39.384,0,0,1-5.854,4.935,34.12,34.12,0,0,1-18.868,5.907,53.994,53.994,0,0,1-8.856-.546c-16.482-1.174-32.3-12.75-48.8-8.3a30.742,30.742,0,0,0-5.584,2.45c-5.3,2.941-10.32,6.8-16.108,8.922-11.189,3.857-26.621,0-30.865-7.717-7.331-11.96-2.315-29.321-1.272-44.71a14.808,14.808,0,0,1,1.663-4.734c1.922-3.412,4.239-6.884,2.694-10.743-.849-2.392-1.588-4.8-2.237-7.221s-1.2-4.855-1.619-7.187a253.544,253.544,0,0,1-3.179-44.752c-.018-2.551-.068-5.042-.138-7.529s-.167-4.97-.3-7.444q-.306-3.249-.632-6.5c-.771-4.63-2.314-10.417.772-13.119,1.543-1.928,6.558-.385,10.032-1.157a137.607,137.607,0,0,1,16.138-3.3q4.018-.575,8.025-.916c1.869.186,3.7.4,5.49.61a66.261,66.261,0,0,0,7.5.788c2.478.128,4.94.143,7.359.114q3.728,0,7.494-.056a69.264,69.264,0,0,1,7.247.184c6.727.647,12.127,4.5,17.914,7.205,1.159.772,3.087,1.543,4.246.772a85.767,85.767,0,0,1,7.788-4.447,64.742,64.742,0,0,1,23.067-5.116,13.158,13.158,0,0,1,7.759,1.822c18.874,18.543,49.353,17.771,69.031,1.953,5.4-4.629-3.474-11.961-3.474-18.132.386-8.874,12.347-6.173,18.293-3.778C3070.4,796.177,3073.332,796.822,3073.332,796.822Z" transform="translate(-2902.583 -831.867)" fill="#d4d4ff"/>
        <g id="Grupo_61577" data-name="Grupo 61577" transform="translate(-53.014 -36.866)">
          <path id="Trazado_111305" data-name="Trazado 111305" d="M2851.284,902.411c7.651,4.863,17.3,11.421,26.557,7.95,2.314-.9,4.63-1.973,6.952-3.095s4.661-2.275,7.095-3.238c17.59-9.1,34.567.931,51.543,6.717,2.315,1.158,5.015.387,7.331-.385,8.681-4.181,15.486-11.575,24.434-14.282a23.079,23.079,0,0,1,5.668-.975c9.637.21,18.511,5.225,28.156,6.769,7.33.772,16.2,3.087,21.606-2.7,4.243-4.245,3.471-11.19,9.259-15.047a15.233,15.233,0,0,1,19.677,2.315c6.173,5.787,12.347,11.574,20.834,13.117,0-.772,0-1.543-.385-1.543-11.189-3.087-17.362-12.732-26.621-18.134-10.8-5.787-19.677,10.417-27.395,16.977-8.874,8.1-21.605,5.787-31.251-1.159-4.631-3.472-10.032-5.787-15.671-5.86a9.508,9.508,0,0,0-7.093,1.617c-9.644,8.1-21.219,22.763-33.951,15.432-13.89-8.487-30.095-7.715-44.671-5.594a31.593,31.593,0,0,0-6.785,2.27c-2.155,1-4.295,2.119-6.417,3.324-9.644,5.4-20.448-.385-28.75-6.488Z" transform="translate(-2848.267 -743.015)" fill="#e8eaff"/>
          <path id="Trazado_111306" data-name="Trazado 111306" d="M2851.519,900.419c9.589,6.31,21.549,12.1,32.738,5.925a21.079,21.079,0,0,1,6.339-2.41c17.2-2.992,34.557-.292,51.533,5.11,12.347,3.858,16.975-13.5,26.623-19.677,1.928-1.543,5.787,0,8.933,1.46,12.673,3.942,25.018,16.674,38.522,8.185,10.032-6.172,15.819-15.432,25.85-20.834,10.417-5.787,18.906,7.332,25.851,13.891,3.472,2.7,7.716,6.172,11.574,5.015,1.544-.387.772-4.244.772-6.945-12.732,0-16.976-15.819-27.393-20.448-14.662-7.332-27.008,11.96-37.812,20.834-7.716,6.559-17.747,5.4-25.849,1.157-5.015-2.7-7.715-8.1-9.652-13.1-.765-1.561-2.694-1.561-4.58-1.715a16.9,16.9,0,0,0-8.863,2.739,19.378,19.378,0,0,0-6.228,6.674c-3.857,6.945-7.33,17.362-14.274,16.206-19.291-2.7-38.2-4.63-57.55-3.778a25.992,25.992,0,0,0-7.654,1.848c-10.031,4.245-19.291-3.858-28.592-8.147Z" transform="translate(-2848.125 -749.416)" fill="#e8eaff"/>
          <path id="Trazado_111307" data-name="Trazado 111307" d="M2851.782,889.539c6.875,3.353,13.8,8.315,21.556,9.446a21.957,21.957,0,0,0,8.083-.3c20.425.343,40.487.343,61.322,3.43,1.93.387,3.473-.772,5.015-1.928,8.489-9.26,10.418-22.378,21.221-28.938a7.11,7.11,0,0,1,6.444-1.636c2.044.48,3.973,1.251,5.131,3.18,3.472,8.1,7.33,24.307,18.519,19.677,10.417-4.243,18.519-11.96,28.164-17.362,9.26-5.015,20.449-15.817,30.479-7.33,4.63,3.858,6.558,9.259,10.036,14.162a16.083,16.083,0,0,0,5.352,4.693,60.738,60.738,0,0,0,6.958.576v-2.91s-2.166,0-6.088-.238a14.886,14.886,0,0,1-4.319-3.205,39.813,39.813,0,0,1-4.09-4.961c-1.19-2.028-2.493-4.442-3.953-6.777-2.92-4.67-6.464-9.024-10.99-9.352-2.3-.177-4.838.651-7.885,2.872-15.116,10.542-30.549,20.959-48.682,25.974-8.1,2.315-8.487-10.417-12.368-16.38a19.79,19.79,0,0,0-3.654-4.749,13.45,13.45,0,0,0-5.368-3.047,7.137,7.137,0,0,0-7.2,3.27c-7.291,7.017-8.449,17.82-15.779,23.606-20.062,16.206-47.841,5.017-70.814,3.722q-3.569-.368-7.06-1.059a70.73,70.73,0,0,1-20.026-7.215Z" transform="translate(-2847.966 -754.445)" fill="#e8eaff"/>
          <path id="Trazado_111308" data-name="Trazado 111308" d="M2852.266,892.456c9.162,2.191,14.178,11.065,22.28,15.31a12.572,12.572,0,0,0,5.015,1.542c29.323,5.866,65.609,1.632,76.774-30.893a27.311,27.311,0,0,1,2.3-5.139,17.249,17.249,0,0,1,8.507-4.688c3.859.21,7.717.21,10.032,3.682,1.028,1.479,2.121,2.958,3.281,4.389a52.008,52.008,0,0,0,3.677,4.1c6.931,10.03,20.435,11.574,30.08,3.087,6.946-6.56,13.5-14.661,23.005-17.893a42.769,42.769,0,0,1,8.633-1.784c1.928-.385,1.543-3.472,1.928-5.787.387-2.7,3.087-4.245,5.017-2.315,7.716,8.874,8.488,21.606,16.881,29.252a16.027,16.027,0,0,0,4.5,3.4c3.606.034,5.6.034,5.6.034v-9.519s-1.672,0-4.728-.016a19.578,19.578,0,0,1-4.829-2.812,24.836,24.836,0,0,1-3.9-3.977c-7.343-9.036-6.571-24.468-17.373-28.327-7.909-2.7-12.54,2.315-16.4,9.26-1.286,2.313-2.487,4.843-3.693,7.372-4.989,11.532-16.177,23.879-30.066,21.949-4.63-.385-8.1-3.472-10.852-7.33-1.327-1.447-2.569-2.991-3.815-4.51s-2.5-3.013-3.852-4.364c-5.789-5.787-14.276-7.33-22.184-4.829a19.455,19.455,0,0,0-6.047,3.781,16.511,16.511,0,0,0-4.121,6.042,30.788,30.788,0,0,1-2.93,5.665c-4.715,7.175-12.69,12.747-19.119,18.663-1.158.772-1.158,3.085-2.7,3.858-13.117,6.559-28.552,6.559-42.563,1.391-2.717-.945-5.269-1.9-7.615-2.9a35.874,35.874,0,0,1-12.819-9.122c-1.819-.7-3.667-1.279-5.45-1.8Z" transform="translate(-2847.673 -764.343)" fill="#e8eaff"/>
          <path id="Trazado_111309" data-name="Trazado 111309" d="M2854.154,888.495c1.637.788,3.309,1.5,4.98,2.169,3.278,1.909,6.459,4.7,9.883,6.814a29.268,29.268,0,0,0,5.511,2.713c13.924,3.552,30.128,2.009,41.317-7.252,6.753-5.594,13.312-11,20.31-15.322a63.173,63.173,0,0,1,7.224-3.9c4.969-.794,9.867-1.84,14.749-2.95,2.44-.555,4.876-1.128,7.475-1.474,7.344.111,15.446-1.048,22.391,3.2,2.315,1.351,4.052,3.473,5.832,5.582,3.042,4.835,8.829,8.694,15,5.994a23.866,23.866,0,0,0,12.552-12.342c.55-1.826,1.059-3.737,1.629-5.68,2.7-9.714,6.884-20.213,13.457-24.261a11.186,11.186,0,0,1,5.156-1.7c3.887-.385,6.816,1.285,9.237,4.093,4.842,5.615,7.536,15.771,10.986,23.09a30.28,30.28,0,0,0,2.933,4.476,23.189,23.189,0,0,0,3.85,3.818c6.472,2.711,10,2.711,10,2.711v-3.883a37.334,37.334,0,0,1-9.56-1.864,30.586,30.586,0,0,1-3.988-3.976,39.16,39.16,0,0,1-3.214-4.474c-3.371-5.052-5.731-12.689-9.227-18.63a25.071,25.071,0,0,0-3.9-5.214c-3.644-2.849-7.887-4.393-12.042-3.215a13.782,13.782,0,0,0-7.516,4.418,22.274,22.274,0,0,0-4.532,7.909,67.564,67.564,0,0,0-2.3,7.492c-.727,2.788-1.44,5.782-2.226,8.726-2.415,7.316-5.888,19.661-15.147,18.5-6.173-1.158-9.645-6.945-14.7-10.231-1.969-1.452-3.97-2.856-6.02-4.094-6.153-3.714-12.766-5.935-20.4-3.43a62.675,62.675,0,0,0-6.833,1.985c-4.351,1.405-8.6,2.469-12.532,2.408a32.027,32.027,0,0,0-7.163,3.116c-6.341,3.688-12.609,7.353-19.554,9.86-1.93.772-4.245.387-6.174,1.158-4.243,1.928-5.4,6.945-9.26,10.03-1.542,1.158-3.857.387-5.015,1.158-8.874,5.015-18.519,3.472-26.914-.156a33.031,33.031,0,0,1-10.424-7.1c-2.012-.844-3.939-1.7-5.8-2.641Z" transform="translate(-2846.532 -768.42)" fill="#e8eaff"/>
          <path id="Trazado_111310" data-name="Trazado 111310" d="M2851.315,907.152c9.589,3.618,19.621,12.106,29.651,6.7,1.866-.966,3.753-2.079,5.655-3.241s3.827-2.368,5.763-3.518c6.331-4.045,13.661-6.36,20.606-4.816,19.291,5.4,39.353,14.276,58.666,6.053a37.465,37.465,0,0,0,7-4.036,58.918,58.918,0,0,0,6.519-5.808,8.39,8.39,0,0,1,6.91-.452c18.519,6.173,39.354,15.047,54.4-3.859,2.315-2.7,7.331-3.087,10.8-.772,7.33,4.244,13.5,10.417,22.377,10.8,2.7.385-.771-2.315.772-3.087-5.787-.772-11.189-3.859-15.432-7.33-6.174-5.017-16.2-11.575-21.221-4.245-14.66,22.764-39.352,9.26-58.866,6.188a19.122,19.122,0,0,0-6.676,1.744c-11.236,4.8-20.11,18.3-33.614,12.9-16.975-6.56-35.494-16.591-53.084-6.345-2.181,1.093-4.341,2.26-6.488,3.414s-4.281,2.288-6.4,3.316c-9.261,4.244-18.906-2.7-27.436-7.187Z" transform="translate(-2848.307 -738.41)" fill="#e8eaff"/>
          <path id="Trazado_111311" data-name="Trazado 111311" d="M2851.47,862.062c1.385.926,2.882,1.861,4.444,2.7a42.591,42.591,0,0,0,4.891,2.626c1.6.7,3.147,1.855,5.078,1.855,20.594-2.026,40.6-13.209,61.3-8.736a38.6,38.6,0,0,1,9.137,3.21,29.122,29.122,0,0,0,16.654-.459,55.609,55.609,0,0,0,5.26-1.949,57.026,57.026,0,0,0,10.49-4.035c1.684-.812,3.347-1.668,5.012-2.527,7.894-2.48,16.767-11.354,23.905-4.8,2.6,1.447,5.208,3.087,8.294,3.087,1.156,0,2.7-.387,3.087-1.158,10.8-16.591,32.023-15.432,45.884-5.915a65.452,65.452,0,0,1,6.029,3.729,55.146,55.146,0,0,1,5.573,4.5,10.652,10.652,0,0,0,5.086,1.874c1.866,0,3.462,0,4.761,0h4.011v-2.713h-4.826c-1.558,0-3.47,0-5.694-.2a45.35,45.35,0,0,0-10.938-8.532,51.426,51.426,0,0,0-6.254-2.938,20.514,20.514,0,0,0-15.7-3.857,39.218,39.218,0,0,0-7.823,1.582c-7.77,2.334-15.485,6.483-23.2,8.6a25.707,25.707,0,0,1-6.231.916,31.184,31.184,0,0,1-6.072-.377c-9.3-2.467-18.176,1.391-25.893,6.021a16.029,16.029,0,0,1-6.355,3.615c-2.4.818-4.981,1.394-7.444,2.159a33.345,33.345,0,0,1-6.071,1.434,26.445,26.445,0,0,1-12.542-1.251,39.539,39.539,0,0,0-8.561-3.376c-18.927-4.8-36.818,2.289-54.712,9.379-5.4,1.929-10.8-1.543-15.63-4.163-1.794-.985-3.518-1.993-5.143-3.015Z" transform="translate(-2848.269 -767.869)" fill="#e8eaff"/>
          <path id="Trazado_111312" data-name="Trazado 111312" d="M2851.159,860.2a96.7,96.7,0,0,0,8.079,5.752c15.06,8.845,29.336-6.588,43.611-10.446,6.944-2.025,13.021-.144,19.044,2.387,2.008.844,4.008,1.76,6.041,2.649a21.765,21.765,0,0,0,11.906,3.31,23.006,23.006,0,0,0,6.047-.889,26.778,26.778,0,0,1,8.554-3.522c12.068-1.234,22.485-6.636,34.445-9.722a17.563,17.563,0,0,1,6.7.178,24.951,24.951,0,0,1,6.35,2.411c2.774.5,5.86,2.041,7.4.882,1.8-1.479,3.632-2.936,5.5-4.348s3.76-2.775,5.69-4.069c1.736-.977,3.587-2.026,5.575-3.069,9.085-4.719,20.274-10.507,30.306-4.719,1.929,1.157,3.087,3.279,4.356,5.468s2.649,4.442,5.025,5.866a47.23,47.23,0,0,1,7.21,6.029c.771.385,1.928,0,2.718.05h4.967V844.3a63.562,63.562,0,0,1-6.571-.485c-6.334-3.963-4.011-9.945-3.43-15.944a15.3,15.3,0,0,0-.385-5.93c-18.134,6.559-38.581,6.173-54.909,17.444a35.909,35.909,0,0,1-4.362,3.276,14.883,14.883,0,0,1-4.774,2.042c-5.015,1.158-10.032-2.313-15.433-1.928-2.75.531-5.48,1.115-8.2,1.718-19.017,4.219-37.33,9.326-56.236,2.912-2.7-1.158-5.4,0-8.054.26-2.6.406-5.2.89-7.776,1.438-12.9,2.738-25.5,7.08-37.8,11.42-6.174,1.93-11.961-3.087-16.735-7.324-1.856-1.405-3.618-2.9-5.258-4.25a55.229,55.229,0,0,0,.192,5.559C2851.051,857.332,2851.159,860.2,2851.159,860.2Z" transform="translate(-2848.583 -777.289)" fill="#e8eaff"/>
          <path id="Trazado_111313" data-name="Trazado 111313" d="M2851.322,855.3c2.6,2.325,5.726,2.522,8.933,2.235,17.995,1.437,31.763-9.312,47.073-16.158a34.857,34.857,0,0,1,6.852-2.241c3.292-.793,6.764-1.179,9.851.364,15.432,6.945,32.795,13.891,50.157,9.26a22.773,22.773,0,0,0,6.972-3.446c4.217-2.341,8.075-4.269,12.7-5.041,2.508-.387,3.939-1.753,5.564-3.058,2.538-2.344,6.4-3.5,9.869-3.887,21.991-1.158,48.227.385,64.046-17.747.386-.773,2.315-.773,3.472,0,2.315,2.314,2.315,5.4,1.93,8.487-.772,5.017-3.858,10.417-1.543,14.661,2.315,3.858,6.172,1.158,6.172-3.085-.771,0-2.313,0-2.313-.387-1.93-8.1,3.087-17.747-3.858-23.921a3.7,3.7,0,0,0-5.009,1.093c-14.281,20.513-43.991,18.2-65.982,17.427-6.559,0-12.732,2.315-18.656,5.266-1.659.993-3.353,1.951-5.013,2.978a42.288,42.288,0,0,0-4.813,3.395,49.262,49.262,0,0,1-5.672,3.026,20.718,20.718,0,0,1-6.358,1.542,69.454,69.454,0,0,1-43.211-10.417c-3.859-2.7-8.874-1.543-13.525-.433a57.533,57.533,0,0,0-6.323,2.188,93.271,93.271,0,0,0-23.749,14.062c-5.017,4.245-11.189.387-16.879.621a34.912,34.912,0,0,0-7.813.922c-1.543.387-1.93-1.928-3.375-2.493Z" transform="translate(-2848.546 -784.04)" fill="#e8eaff"/>
          <path id="Trazado_111314" data-name="Trazado 111314" d="M2850.642,847.72a25.457,25.457,0,0,0,7.113,1.56,37.832,37.832,0,0,0,7.369-.223c4.354.061,8.213-.324,12.071-2.254a112.883,112.883,0,0,1,21.531-8.235q3.672-1,7.39-1.77c4.645-.8,9.66-1.569,13.518.359,13.5,7.33,26.236,15.432,42.44,11.575,1.928-.483,4.123-1.062,6.3-1.8,5.274-2.057,14.921-3.213,13.762-10.544-.385-3.473-3.858-6.173-2.7-10.032a2.5,2.5,0,0,1,3.859-1.157c13.5,6.174,27.778,12.732,43.211,11.189,3.087-.385,5.787-2.7,8.874-2.7,15.818-.385,30.866-6.559,38.2-21.6.771-1.158,3.085.385,5.015,1.157a14.063,14.063,0,0,1,5.256,8.2,40.348,40.348,0,0,1,.918,9.936c0,.385,1.543,1.542,1.543,1.157,2.313-7.717,3.857-16.2-.771-22.764a17.252,17.252,0,0,0-4.908-3.984c-5.9-1.417-14.769-9.905-17.471-4.89-3.472,6.56,1.543,18.521-7.716,22.379-10.417,4.244-21.221,4.244-32.023,7.715-15.434,5.4-30.094-5.787-44.029-12.368a13.335,13.335,0,0,0-6.186.521c-7.916,2.286-14.861,8.116-19.233,15.318a11.733,11.733,0,0,1-4.415,4.762c-8.2,4.563-20.149-6.369-29.151-12.477-4.245-3.087-9.26-1.543-14.28-1.392-2.253.269-4.507.544-6.762.794a113.933,113.933,0,0,1-20.354.825c-2.5-.022-5.031-.1-7.6-.226-5.016-.387-9.26,4.244-14.73,4.635a60.541,60.541,0,0,1-6.877.38c0,2.315.371,4.656.523,7.295C2850.442,843.371,2850.642,847.72,2850.642,847.72Z" transform="translate(-2849.164 -790.96)" fill="#e8eaff"/>
          <path id="Trazado_111315" data-name="Trazado 111315" d="M2849.663,820.8c-.008,1.76-.78,4.46.377,5.619s3.859.772,5.788,0q3.557-1.208,7.125-2.245a128.956,128.956,0,0,1,31.764-4.606c2.676-.074,5.3-.054,7.835.043q4.046.385,8.077.773c11.944.245,17.346,11.049,26.6,16.449,3.474,2.317,8.489,2.7,10.419-.772a45.152,45.152,0,0,1,4.452-7.265,33.922,33.922,0,0,1,23.147-12.524c2.19-.2,4.433.667,6.805,2.148,10.349,7.609,22.31,15.711,35.814,13.783a326.841,326.841,0,0,0,32.795-6.174c15.046-3.472,4.244-18.906,6.559-27.008,2.315-6.945,15.046,4.245,23.534,4.63-5.787-6.945-15.432-8.1-23.92-9.26-2.7-.772-9.259,0-8.1,2.7,3.859,7.715,11.575,19.291,1.159,23.921-23.15,10.8-50.157,13.5-68.668-6.8a11.466,11.466,0,0,0-8.236-1.551,45.633,45.633,0,0,0-22.5,10.626c-2.158,1.869-4.258,3.83-6.316,5.824-2.316,1.928-5.4,1.543-7.718,0-6.943-4.63-11.573-12.732-20.477-13.488-2.763-.327-5.548-.632-8.328-.942-2.28-.168-4.563-.3-6.851-.37a92.294,92.294,0,0,0-20.74,1.449c-2.214.31-4.449.667-6.68,1.054-6.7,1.163-13.385,2.6-20.054,4.09C2850.966,820.89,2849.663,820.8,2849.663,820.8Z" transform="translate(-2849.403 -794.109)" fill="#e8eaff"/>
          <path id="Trazado_111316" data-name="Trazado 111316" d="M2852.98,879.219q2.652,1.441,5.453,2.875c14.418,14.46,37.181,15.618,50.3-2.131a6.725,6.725,0,0,1,4.63-2.314,28.539,28.539,0,0,0,16.732-2.53,39.866,39.866,0,0,0,6.9-4.271c4.968-2.58,9.958-5.221,15.061-7.313a50.543,50.543,0,0,1,5.191-1.837c15.147-3.727,29.809,2.447,44.856,5.919,7.331,1.93,15.432,1.93,20.834-4.244a210.213,210.213,0,0,1,17.747-19.291c1.543-1.93,2.782-5.007,4.752-5.777,3.164-.78,5.681,2.689,7.981,5a44.961,44.961,0,0,1,4.172,6.69c3.626,6.905,6.185,14.118,12.955,18.665a12.215,12.215,0,0,0,5.255.935h4.208v-4.433s-3.136,0-8.678-.016c-6.49-4.227-9.414-10.926-13.076-17.268a48.376,48.376,0,0,0-4.065-6.116c-3.087-6.945-10.8-8.874-16.435-3.838a32.037,32.037,0,0,0-4.549,4.948c-4.288,5.641-8.146,12.779-12.2,16.637-4.629,5.015-11.189,7.715-17.748,6.174-17.362-4.245-33.951-13.119-51.771-5.668-2.44.85-4.856,1.771-7.245,2.74s-4.749,1.993-7.075,3.047a38.3,38.3,0,0,1-6.585,2.954c-4.359,1.214-9.117.143-14.518-5-.387-.772-2.316,1.158-3.472,2.315-6.174,8.489-11.575,17.362-21.608,21.221-11.96,4.628-25.077-1.158-33.964-9.154-1.813-1.051-3.512-2.065-5.142-3.074Z" transform="translate(-2847.908 -769.336)" fill="#e8eaff"/>
        </g>
      </g>
    </g>
    <path id="Trazado_111318" data-name="Trazado 111318" d="M2908.2,870.556a32.6,32.6,0,0,1-1.112,3.78c-6.071,16.665-28.437,17.189-42.515,12.066-8.932-3.25-16.151-10.4-20.285-18.88a54.467,54.467,0,0,1-5.007-24.673c.122-8.125,1.745-15.983,3.568-23.865,1.816-7.852,2.925-15.875,5.009-23.667a108.71,108.71,0,0,1,4.25-12.868c1.047-2.565,2.195-5.8,4.819-7.159,2.559-1.33,5.918-.223,8.514.424a66.193,66.193,0,0,0,9.541,1.847q13.062,1.3,26.122,2.6a8.472,8.472,0,0,1,3.2.749c2.362,1.261,2.188,4.8,2.49,7.061q.66,4.919,1.2,9.856,1.1,10.074,1.725,20.2c.908,14.839,1.31,29.677-.279,44.519A66.409,66.409,0,0,1,2908.2,870.556Z" transform="translate(13.173 44.248)" fill="#529ad9"/>
    <path id="Trazado_111319" data-name="Trazado 111319" d="M2897.469,753.7a9.809,9.809,0,0,1-11.394-1.9c-.031,0-8.036,8.006-8.036,8.006-.031,0-9.339-9.308-9.339-9.308,0-.021,2.278-8.535,2.278-8.535a4.228,4.228,0,0,0-5.179-5.177l-8.514,2.281c-.021,0-9.363-9.347-9.363-9.347-.032-.019,26.881-26.932,26.881-26.932a4.544,4.544,0,0,1,6.429,0l26.9,26.9c0,.03-8.028,8.059-8.028,8.059A9.964,9.964,0,0,1,2897.469,753.7Z" transform="translate(18.403 0)" fill="#a0a603"/>
    <path id="Trazado_111320" data-name="Trazado 111320" d="M3031.5,788.81c-.452,2.721-1.462,5.814-3.612,7.686-2.217,1.94-5.471,2.257-8.3,2.378-6.188.278-10.768-2.8-15.19-6.772a51.4,51.4,0,0,0-14.592-9.786c-5.338-2.23-10.9-3.982-15.164-8.086-3.957-3.836-5.854-9.7-3.717-14.964a12.39,12.39,0,0,1,3.028-4.354,2.519,2.519,0,0,1,2.071-2.164c.758-.161,1.514-.292,2.27-.412a9.65,9.65,0,0,1,3.7-.451,50.3,50.3,0,0,1,33.01,8.431C3023.834,766.422,3033.407,777.216,3031.5,788.81Z" transform="translate(92.201 30.354)" fill="#ffc89e"/>
    <path id="Trazado_111321" data-name="Trazado 111321" d="M3045.352,779.586v89.574c-.05.05-34.038.05-34.038.05-.05.051-.05,6.141-.05,6.141a9.959,9.959,0,0,1-9.958,9.96h-12.283a9.958,9.958,0,0,1-9.958-9.96v-6.09c-.05-.051-34.016-.051-34.016-.051-.051-.05-.051-26.719-.051-26.719a23.412,23.412,0,0,0,.048-46.823c-.048-.048-.048-19.544-.048-19.544a7.247,7.247,0,0,1,7.247-7.245h82.4A10.707,10.707,0,0,1,3045.352,779.586Z" transform="translate(77.071 40.752)" fill="#d4d4ff"/>
    <path id="Trazado_111322" data-name="Trazado 111322" d="M3054.19,831.48v89.574a10.709,10.709,0,0,1-10.707,10.709h-89.6c-.051-.051-.051-26.791-.051-26.791a23.462,23.462,0,0,1-22.312-30.826c2.974-9.62,12.193-15.947,22.262-15.947.05-.051.05-26.719.05-26.719.051-.05,34.017-.05,34.017-.05.05.05.05,6.119.05,6.119a9.959,9.959,0,0,0,9.958,9.96h12.283a9.958,9.958,0,0,0,9.958-9.96V831.48c.05-.05,34.038-.05,34.038-.05A.05.05,0,0,1,3054.19,831.48Z" transform="translate(68.233 78.554)" fill="#a2a0eb"/>
    <path id="Trazado_111323" data-name="Trazado 111323" d="M2920.023,704.588a35.827,35.827,0,0,0-7.966.889c.451-.093.9-.159,1.354-.226a55.445,55.445,0,0,1,8.8-.584C2921.485,704.614,2920.753,704.588,2920.023,704.588Z" transform="translate(57.163 1.897)" fill="#ffc89e"/>
    <path id="Trazado_111324" data-name="Trazado 111324" d="M2970.67,773.193a5.785,5.785,0,0,1-3.6,2.416,15.421,15.421,0,0,1-8.153,1.646,23.273,23.273,0,0,1-8.405-2.628c-1.327-.664-2.655-1.381-3.929-2.152-.093-.053-.173-.12-.253-.173-3.133-1.46-4.354-5.1-4.049-8.484a12.411,12.411,0,0,1,2.549-6.533,2.366,2.366,0,0,0-.2-.306,1.746,1.746,0,0,0-1.845-.783,1.566,1.566,0,0,0-.624.213c.438,2.535-2.735,3.69-4.342,2.363-2.549-2.111-3.465-5.166-3.824-8.338-.319-2.7-.066-5.71-1.181-8.233a9.164,9.164,0,0,0-2.962-3.08,8.29,8.29,0,0,1-3.067-4.686,8.96,8.96,0,0,1,.837-5.657,93.748,93.748,0,0,1-29.636-3.133,14.866,14.866,0,0,1-1.581.345,35.159,35.159,0,0,1,2.988-5.4,36.209,36.209,0,0,1,22.122-15.137c.451-.093.9-.159,1.354-.226a55.445,55.445,0,0,1,8.8-.584,36.2,36.2,0,0,1,27.259,57.24l7.82,7.542Z" transform="translate(47.704 1.925)" fill="#1a1a1a"/>
    <ellipse id="Elipse_4325" data-name="Elipse 4325" cx="9.56" cy="9.644" rx="9.56" ry="9.644" transform="translate(2980.04 750.593)" fill="#ffc89e"/>
    <path id="Trazado_111325" data-name="Trazado 111325" d="M2911.028,751.754a10.93,10.93,0,1,1,10.93-10.93A10.945,10.945,0,0,1,2911.028,751.754Zm0-19.2a8.273,8.273,0,1,0,8.272,8.274A8.283,8.283,0,0,0,2911.028,732.55Z" transform="translate(49.935 17.19)" fill="#529ad9"/>
    <path id="Trazado_111326" data-name="Trazado 111326" d="M3025.521,769.642c-1.169,3.214-3.865,5.351-6.387,7.489a17.357,17.357,0,0,0-3.014,3.239,32.928,32.928,0,0,1-2.469,3.36c-2.2,2.363-5.63,4.17-8.937,3.518a5.655,5.655,0,0,1-4.541-5.086c-1.355,2.018-2.71,4.009-4.9,5.285-2.988,1.739-6.918,1.766-9.428-.863a5.946,5.946,0,0,1-1.34-2.257c-1.382,2.881-3.36,5.405-6.972,5.285-3.878-.133-6.706-3.319-7.7-6.878a14.93,14.93,0,0,1-.2-6.852,76.212,76.212,0,0,0-4.834,6.8c-2.35,3.332-5.828,6.453-10.117,4.356-3.838-1.874-4.807-6.321-4.183-10.2,1.261-7.648,7.688-13.332,14.154-16.863a68.31,68.31,0,0,1,11.936-5.046c4.051-1.3,8.67-3.055,12.92-1.754a3.258,3.258,0,0,1,.916.425,31.712,31.712,0,0,1,4.368-1.208,1.941,1.941,0,0,1,1.274.226,5.7,5.7,0,0,1,3.719,2.416,8.313,8.313,0,0,1,4.142-1.128,9.882,9.882,0,0,1,2.376-.108,7.922,7.922,0,0,1,5.763,3.732,15.1,15.1,0,0,1,4.447-.239C3022.653,757.9,3027.819,763.348,3025.521,769.642Z" transform="translate(80.292 30.771)" fill="#ffc89e"/>
    <path id="Trazado_111327" data-name="Trazado 111327" d="M2931.956,735.071a1.346,1.346,0,0,0-1.682-.836,19.443,19.443,0,0,0-9,7.136,1.363,1.363,0,0,0,.145,1.872,1.341,1.341,0,0,0,1.872-.143,18.2,18.2,0,0,1,1.648-2.1q.449-.493.937-.951l.245-.226c.252-.218.423-.361.6-.5a18.207,18.207,0,0,1,2.141-1.478q.287-.168.581-.327l.3-.157c.52-.254.948-.438,1.382-.61A1.349,1.349,0,0,0,2931.956,735.071Z" transform="translate(62.551 19.766)" fill="#ff7e64"/>
    <path id="Trazado_111328" data-name="Trazado 111328" d="M3035.55,764.775c-14.253-14.818-36.378-16.8-55.281-11.332-8.66,2.509-17.765,6.267-24.1,12.918a22.5,22.5,0,0,0-5.98,11.035c-.817,4.279.359,9.14,4.543,11.213,3.785,1.874,7.425-.135,9.591-3.332,1.4-2.06,2.43-4.6,4.054-6.555-.282,5.777,1.574,11.365,7.813,12.706,3.576.77,6.229-1.023,7.948-3.663a7.126,7.126,0,0,0,9.583,3.359c3.257-1.444,5.021-4.255,6.35-7.357a7.471,7.471,0,0,0,2.36,5.285c1.858,1.516,4.6,1.447,6.733.6,4.8-1.89,7.037-6.859,9.477-11.009,1.432-2.439,3.165-4.916,5.857-6.047.975-.411,2.318-1.049,1.874-2.4a1.56,1.56,0,0,0-2.427-.7,1.334,1.334,0,0,0-.464.634,14.108,14.108,0,0,0-1.311.654,11.817,11.817,0,0,0-2.3,1.783,21.374,21.374,0,0,0-3.271,4.332c-2.018,3.319-3.587,7.229-6.924,9.486-1.484,1-3.9,1.834-5.513.639-1.4-1.035-1.519-3.262-1.489-4.839a28.244,28.244,0,0,1,3.138-11.983,29.507,29.507,0,0,1,3.942-5.914,28.647,28.647,0,0,1,2.557-2.634c.968-.873,2.132-2.049,3.486-2.159a1.329,1.329,0,0,0-.17-2.65c-2.657.218-4.816,2.475-6.591,4.293a32.053,32.053,0,0,0-4.935,6.636,33.392,33.392,0,0,0-2.916,6.9,1.174,1.174,0,0,0-.682.653c-1.983,4.43-3.138,12.456-8.877,13.7-4.221.914-5.451-2.248-5.584-5.766.024-.1.053-.193.073-.289a1.18,1.18,0,0,0-.083-.777,28.976,28.976,0,0,1,.591-5.028,30.526,30.526,0,0,1,18.686-22.214,1.261,1.261,0,0,0,.829-1.391c.985.117,1.97.244,2.949.419a45.093,45.093,0,0,1,24.733,12.795C3035,768.02,3036.727,766,3035.55,764.775Zm-71.722,16.182c-1.208,2.15-2.612,5.182-5.327,5.681a5.05,5.05,0,0,1-4.951-2.6c-1.248-2.079-1.136-4.678-.573-6.95a20.931,20.931,0,0,1,5.889-9.681c5.832-5.721,13.956-8.97,21.654-11.267,1.617-.481,3.26-.892,4.912-1.266a28.6,28.6,0,0,0-14.275,13.229,26.4,26.4,0,0,0-2.268,6.624C2966.563,776.167,2965.143,778.614,2963.827,780.956Zm21.455-8.757a30.948,30.948,0,0,0-1.938,10.938c-.571,2.169-1.619,4.523-3.77,5.455s-4.706-.087-6.25-1.7c-2.545-2.662-2.8-6.775-2.169-10.5a1.03,1.03,0,0,0,.237-1.218,24.755,24.755,0,0,1,.777-2.722,25.567,25.567,0,0,1,19.866-16.732,1.413,1.413,0,0,0,.972-2.131,59.454,59.454,0,0,1,9.51-.318A33.184,33.184,0,0,0,2985.282,772.2Z" transform="translate(80.063 29.738)" fill="#ff7e64"/>
    <path id="Trazado_111329" data-name="Trazado 111329" d="M2905.306,747.809a1.351,1.351,0,0,0-1.681-.837c-.247.082-.5.148-.754.205-.412.063-.555.079-.7.088a7.428,7.428,0,0,1-.755.019c-.343-.027-.484-.042-.629-.063a8.036,8.036,0,0,1-.843-.177c-.1-.029-.208-.059-.311-.091.308.091-.13-.05-.186-.072a6.921,6.921,0,0,1-.781-.361c-.127-.067-.249-.141-.374-.213a1.439,1.439,0,0,0-2.034.032,1.344,1.344,0,0,0,.144,1.874,9.049,9.049,0,0,0,8.065,1.277A1.342,1.342,0,0,0,2905.306,747.809Z" transform="translate(47.429 26.868)" fill="#ff7e64"/>
    <path id="Trazado_111330" data-name="Trazado 111330" d="M2900.445,730.516a1.363,1.363,0,0,0-1.409-1.242,1.342,1.342,0,0,0-1.242,1.41,13.82,13.82,0,0,1-5.883,13.34,1.328,1.328,0,0,0,1.482,2.2A16.452,16.452,0,0,0,2900.445,730.516Z" transform="translate(44.639 16.815)" fill="#ff7e64"/>
    <path id="Trazado_111331" data-name="Trazado 111331" d="M2918.2,731.09a13.792,13.792,0,0,0-14.03-3.863,1.337,1.337,0,0,0-.73,1.73,1.357,1.357,0,0,0,1.73.732,11.017,11.017,0,0,1,10.926,3.019,1.363,1.363,0,0,0,1.861.244A1.336,1.336,0,0,0,2918.2,731.09Z" transform="translate(51.903 15.237)" fill="#1a1a1a"/>
    <path id="Trazado_111332" data-name="Trazado 111332" d="M2895.316,726.4a1.328,1.328,0,0,0-1.73,2.017,8.458,8.458,0,0,1,1.073.956c.139.17.212.263.282.359.147.2.287.409.415.624.06.1.117.205.173.311a6.974,6.974,0,0,1,.3.728,7.317,7.317,0,0,1,.212.72c.044.233.063.356.077.48a1.329,1.329,0,0,0,2.652-.169A8.82,8.82,0,0,0,2895.316,726.4Z" transform="translate(45.726 14.894)" fill="#1a1a1a"/>
    <path id="Trazado_111333" data-name="Trazado 111333" d="M2855.89,771.06a13.058,13.058,0,0,1-8.257-7.414c-1.67-3.972-2.421-8.5-3.324-12.7a70.058,70.058,0,0,1-1.755-13.493c-.058-3.194.762-9.83,5.6-8.294,1.629.516,2.121-2.1.509-2.606-4.536-1.437-7.937,2.912-8.56,6.921-.8,5.161.186,10.754,1.175,15.822.549,2.814,1.2,5.6,1.879,8.391a39.557,39.557,0,0,0,2.305,7.589,15.834,15.834,0,0,0,9.918,8.386C2857.02,774.16,2857.515,771.55,2855.89,771.06Z" transform="translate(13.501 15.006)" fill="#ff7e64"/>
    <path id="Trazado_111334" data-name="Trazado 111334" d="M2859.353,771.546c-9.594,1.632-16.74-6.063-21.347-13.446a70.579,70.579,0,0,1-6.247-12.71,25.874,25.874,0,0,1-2-7.107c-.136-2.183.87-4.76,3.406-4.72,1.712.026,1.529-2.626-.17-2.65a5.771,5.771,0,0,0-5.1,3.276c-1.218,2.323-.844,5.057-.172,7.483a68.747,68.747,0,0,0,6.839,15.833c5.121,8.864,13.528,18.638,24.965,16.692C2861.193,773.91,2861.036,771.259,2859.353,771.546Z" transform="translate(5.815 17.806)" fill="#ff7e64"/>
    <path id="Trazado_111335" data-name="Trazado 111335" d="M2859.957,774.272c-5.375.776-10.43-1.373-14.821-4.319a68.2,68.2,0,0,1-11.275-9.628c-3.4-3.573-6.753-7.8-8.543-12.443-.877-2.278-1.421-5.018-.2-7.277a4.686,4.686,0,0,1,5.423-2.591c1.633.5,2.127-2.107.508-2.607-3.653-1.126-7.382,1.492-8.694,4.86-1.7,4.349.42,9.1,2.639,12.836a61.155,61.155,0,0,0,19.908,19.838c4.55,2.844,9.8,4.766,15.222,3.982C2861.811,776.679,2861.65,774.029,2859.957,774.272Z" transform="translate(2.579 20.362)" fill="#ff7e64"/>
    <path id="Trazado_111336" data-name="Trazado 111336" d="M2927.843,781.6l-16.572-7.706c-4.646-2.161-9.609-4.327-12.785-8.53-1.025-1.357-3.234.117-2.2,1.484,3.254,4.3,8.043,6.74,12.827,8.97q8.786,4.1,17.579,8.174A1.329,1.329,0,0,0,2927.843,781.6Z" transform="translate(47.468 38.304)" fill="#fee45a"/>
    <path id="Trazado_111337" data-name="Trazado 111337" d="M2885.254,808.789q-.334-8.24-.977-16.464c-.212-2.705-.427-5.411-.709-8.11a14.456,14.456,0,0,0-1.9-6.427c-.913-1.447-3.114.039-2.2,1.484,1.315,2.083,1.405,4.59,1.625,6.977q.363,3.942.657,7.889.6,8.059.9,16.138.6,15.989.056,31.991c-.057,1.71,2.593,1.524,2.651-.17Q2885.919,825.446,2885.254,808.789Z" transform="translate(37.337 45.778)" fill="#fee45a"/>
    <g id="Grupo_61580" data-name="Grupo 61580" transform="translate(2967.276 805.192)">
      <path id="Trazado_111338" data-name="Trazado 111338" d="M2940.138,775.725c-1.754,1.527-4.687,2.057-6.572.465a4.956,4.956,0,0,1-1.594-3.148,5.982,5.982,0,0,1,.027-1.38,1.067,1.067,0,0,1-.146-.533,5.2,5.2,0,0,1,4.781-5.006,5.343,5.343,0,0,1,5.177,3.518A5.458,5.458,0,0,1,2940.138,775.725Z" transform="translate(-2898.149 -766.112)" fill="#fee45a"/>
      <path id="Trazado_111339" data-name="Trazado 111339" d="M2920.423,770.959c1.328,1.567,1.726,4.316.133,5.869-1.965,1.887-4.754,1.022-6.785-.265a5.157,5.157,0,0,1-2.6-2.723,3.252,3.252,0,0,1-.08-.8,5.657,5.657,0,0,1-.24-1.407,3.465,3.465,0,0,1,.6-2.365,2.594,2.594,0,0,1,2.272-.716C2916.122,768.689,2918.764,768.981,2920.423,770.959Z" transform="translate(-2910.845 -764.64)" fill="#fee45a"/>
    </g>
    <path id="Trazado_111340" data-name="Trazado 111340" d="M2921.527,772.2a8.3,8.3,0,0,1-.066,3.239c-.239,1.62-.465,3.241-.69,4.86l-1.275,9.069q-1.334,9.4-2.656,18.789-.32,2.269-.639,4.54a18.5,18.5,0,0,1-.649,4.024,2.553,2.553,0,0,1-2.112,1.539,46.788,46.788,0,0,1-4.925.279,1.342,1.342,0,0,1-1.407-1.248,131.192,131.192,0,0,1,7.793-41.426c.053-2.058.863-4.354,2.7-5.431A2.621,2.621,0,0,1,2921.527,772.2Z" transform="translate(54.171 41.453)" fill="#fee45a"/>
    <path id="Trazado_111341" data-name="Trazado 111341" d="M2940.645,787.149q-.117,15.337-1.314,30.645a1.331,1.331,0,0,1-.876,1,23.614,23.614,0,0,1-5.683,1.462,1.333,1.333,0,0,1-1.407-1.235,456.321,456.321,0,0,1,2.257-46.1,1.292,1.292,0,0,1,.106-1.447,13.9,13.9,0,0,0,.172-1.394c.133-1.182,1.409-1.274,2.138-.664a3.541,3.541,0,0,1,1.672-.451c1.726.013,2.657,1.474,2.8,3.027A143.81,143.81,0,0,1,2940.645,787.149Z" transform="translate(68.831 40.8)" fill="#fee45a"/>
    <path id="Trazado_111342" data-name="Trazado 111342" d="M2992.5,733.659c-9.8,8.994-20.5,16.689-31.465,24.168q-8.4,5.73-16.8,11.462-4.337,2.955-8.673,5.914c-1.266.863-2.523,1.736-3.794,2.588a5.784,5.784,0,0,1-5.189.857,62.888,62.888,0,0,1-19.744-8.063c-1.45-.9-2.6,1.5-1.152,2.392a65.44,65.44,0,0,0,18.068,7.727c2.93.756,5.8,1.54,8.564-.1,3.127-1.85,6.066-4.112,9.066-6.158,11.731-8,23.694-15.745,35.12-24.176a218.508,218.508,0,0,0,18.018-14.884C2995.77,734.237,2993.747,732.513,2992.5,733.659Z" transform="translate(52.906 19.238)" fill="#1a1a1a"/>
  </g>
</svg>
