<svg xmlns="http://www.w3.org/2000/svg" width="105" height="105" viewBox="0 0 105 105">
  <g id="Grupo_61575" data-name="Grupo 61575" transform="translate(-582 -3161)">
    <rect id="Rectángulo_6027" data-name="Rectángulo 6027" width="105" height="105" transform="translate(582 3161)" fill="none"/>
    <g id="planet-earth" transform="translate(591.797 3170.764)">
      <path id="Trazado_111270" data-name="Trazado 111270" d="M104.541,159.678A27.64,27.64,0,1,0,76.9,187.391,27.677,27.677,0,0,0,104.541,159.678Zm0,0" transform="translate(-41.038 -109.935)" fill="#97c9e8"/>
      <path id="Trazado_111271" data-name="Trazado 111271" d="M194,131.965a27.789,27.789,0,0,0-4.173.314,27.728,27.728,0,0,1,0,54.8A27.709,27.709,0,1,0,194,131.965Zm0,0" transform="translate(-158.138 -109.935)" fill="#60b6ff"/>
      <g id="Grupo_61574" data-name="Grupo 61574" transform="translate(8.224 22.085)">
        <path id="Trazado_111272" data-name="Trazado 111272" d="M163.98,143.01c-4.258,2.668-7.451,6.937-5.056,11.74s7.717,2.935,12.64,2.268,1.2,14.541,4.125,18.277,11.176-3.736,10.378-8.539c-1.182-7.11-1.6-9.605,7.984-14.675l.026-.009A27.671,27.671,0,0,0,169.3,132.3v.042s-1.064,8-5.322,10.673Zm0,0" transform="translate(-139.933 -132.296)" fill="#baeb6c"/>
        <path id="Trazado_111273" data-name="Trazado 111273" d="M318.566,168.6l.005,0Zm0,0" transform="translate(-273.609 -162.538)" fill="#baeb6c"/>
        <path id="Trazado_111274" data-name="Trazado 111274" d="M338.809,187.961h0Zm0,0" transform="translate(-290.473 -178.668)" fill="#baeb6c"/>
        <path id="Trazado_111275" data-name="Trazado 111275" d="M58.54,262.322c-1.279-1.95,2.261-6.537,3.06-10.005s-3.992-3.2-5.455-4.4-3.459-6.4-4.923-7.6l-.234-.185a27.791,27.791,0,0,0,9.54,31.984l.008-.581a12.757,12.757,0,0,0-2-9.206Zm0,0" transform="translate(-49.262 -222.124)" fill="#baeb6c"/>
        <path id="Trazado_111276" data-name="Trazado 111276" d="M314.071,338.21c-.006-.035-.012-.068-.017-.1a27.581,27.581,0,0,1-2.3,6.083C313.331,342.334,314.381,340.071,314.071,338.21Zm0,0" transform="translate(-267.937 -303.748)" fill="#baeb6c"/>
      </g>
      <path id="Trazado_111277" data-name="Trazado 111277" d="M223.608,132.3v.042s-.089.668-.318,1.682a27.723,27.723,0,0,1,17.764,23.388c1.221-1.671,3.455-3.29,7.3-5.326l.026-.009A27.672,27.672,0,0,0,223.608,132.3Zm0,0" transform="translate(-186.013 -110.212)" fill="#96d629"/>
      <path id="Trazado_111278" data-name="Trazado 111278" d="M60.994,38.01c-13.367-2.268-21.658-19.1-21.658-19.1S52.715,5.761,66.081,8.029s21.657,19.1,21.657,19.1S74.36,40.278,60.994,38.01Zm0,0" transform="translate(-32.769 -6.469)" fill="#49cb5c"/>
      <path id="Trazado_111279" data-name="Trazado 111279" d="M161.8,8.034a20.75,20.75,0,0,0-7.564.19C167.045,11.1,174.946,27.13,174.946,27.13s-8.758,8.608-19.181,10.694c.314.071.631.136.951.19C170.081,40.283,183.46,27.13,183.46,27.13S175.168,10.3,161.8,8.034Zm0,0" transform="translate(-128.49 -6.475)" fill="#07b128"/>
      <path id="Trazado_111280" data-name="Trazado 111280" d="M378.42,34.49c3.586-8.484,16.009-11.341,16.009-11.341s6.61,10.9,3.025,19.384-16.009,11.341-16.009,11.341-6.61-10.9-3.025-19.384Zm0,0" transform="translate(-314.359 -19.284)" fill="#49cb5c"/>
      <path id="Trazado_111281" data-name="Trazado 111281" d="M408.977,23.148a33.241,33.241,0,0,0-6.17,2.25c1.716,3.635,4.436,11.013,1.849,17.134-1.876,4.438-6.17,7.336-9.84,9.091.663,1.4,1.176,2.25,1.176,2.25S408.416,51.017,412,42.533s-3.024-19.384-3.024-19.384Zm0,0" transform="translate(-328.907 -19.284)" fill="#07b128"/>
      <path id="Trazado_111282" data-name="Trazado 111282" d="M84.12,9.962A34.389,34.389,0,0,0,81.14,3.181a1.277,1.277,0,0,0-1.351-.571A34.419,34.419,0,0,0,72.851,5.2c-4.921,2.457-8.359,5.737-9.943,9.485a18.371,18.371,0,0,0-.573,11.15,35.516,35.516,0,0,0-6.676-5.81,51.71,51.71,0,0,0-5.8-8.894,1.253,1.253,0,0,0-1.943,1.579,50.091,50.091,0,0,1,4.62,6.8L41.128,17.282,30.292,2.5a17.7,17.7,0,0,1,3.159.323,21.619,21.619,0,0,1,9.781,5.041,1.253,1.253,0,0,0,1.624-1.906A24.087,24.087,0,0,0,33.932.366C28.195-.757,21.5.717,14.58,4.629a49.964,49.964,0,0,0-8.756,6.254A1.325,1.325,0,0,0,5.676,12.6a51.1,51.1,0,0,0,5.616,8.815A39.156,39.156,0,0,0,17.211,27.5q-.874.733-1.7,1.538a28.947,28.947,0,0,0,9.365,47.511,1.253,1.253,0,0,0,.942-2.32A26.433,26.433,0,0,1,20.4,71.251a14.107,14.107,0,0,0-2.126-9.875c-.4-.618.79-3.046,1.5-4.5a23.513,23.513,0,0,0,1.839-4.495,3.427,3.427,0,0,0-1.218-3.753,9.24,9.24,0,0,0-2.977-1.319,6.393,6.393,0,0,1-1.635-.64,16.661,16.661,0,0,1-2.12-3.45,21.417,21.417,0,0,0-2.288-3.761,26.626,26.626,0,0,1,7.9-10.414,21.9,21.9,0,0,0,10.55,3.92C25.4,36.4,23.972,40.774,26.018,44.98c2.389,4.911,7.307,4.126,11.646,3.435.751-.12,1.527-.244,2.271-.336.279-.035.363.041.419.091.95.845.922,4.882.9,7.829-.028,4.077-.054,7.928,1.465,9.9a3.822,3.822,0,0,0,3.144,1.523,6.315,6.315,0,0,0,2.472-.559c3.776-1.617,7.7-6.484,7.1-10.336-.524-3.367-.87-5.591-.053-7.384.755-1.66,2.58-3.2,6.173-5.156A26.44,26.44,0,0,1,32.828,76a1.253,1.253,0,0,0-.274,2.489A29.1,29.1,0,0,0,55.99,70.41a28.927,28.927,0,0,0-4.454-44.93c1.654-1.18,2.887-2.2,3.57-2.792A33.244,33.244,0,1,1,2.957,44.309,1.253,1.253,0,0,0,.487,43.9a35.738,35.738,0,0,0,29.44,41.085,36.191,36.191,0,0,0,5.9.486A35.762,35.762,0,0,0,68.532,35.46a36.038,36.038,0,0,0,5.773-2.274c4.921-2.457,8.359-5.737,9.943-9.485s1.54-8.5-.128-13.74ZM11.447,44.39a15.589,15.589,0,0,0,2.728,4.2A7.175,7.175,0,0,0,16.681,49.7c2.447.753,2.732,1.122,2.5,2.089a21.867,21.867,0,0,1-1.654,3.985c-1.293,2.646-2.514,5.144-1.357,6.949a11.907,11.907,0,0,1,1.9,6.644,26.687,26.687,0,0,1-7.717-27c.368.631.756,1.365,1.1,2.02Zm60.58-24.606-3.559-8.623a23.435,23.435,0,0,1,5.452-3.7A33.454,33.454,0,0,1,77.876,5.8ZM80.185,6.77a33.47,33.47,0,0,1,1.566,4,23.936,23.936,0,0,1,1.134,6.036l-8.339,3.44Zm-14.97,8.889a11.9,11.9,0,0,1,1.4-2.43l4.051,9.815-3.635,8.692a33.309,33.309,0,0,1-1.622-4.123c-1.024-3.237-1.888-7.939-.191-11.954Zm8.021,15.262A33.3,33.3,0,0,1,69.4,32.543l3.772-9.019,9.6-3.962a12.093,12.093,0,0,1-.837,3.165c-1.7,4.014-5.67,6.672-8.706,8.194Zm-45.149-.713c-.443-.087-.879-.192-1.309-.313L40.635,19.737l11.41,2.224c-4.156,3.275-14.272,10.145-23.959,8.247ZM15.421,22.374a48.753,48.753,0,0,1-6.383-8.8l14.521,2.831ZM17.986,5.669l6.076,8.287L9.447,11.107a49.327,49.327,0,0,1,8.539-5.438Zm9.7,8.993L20.319,4.615a28.164,28.164,0,0,1,7-1.937l10.189,13.9Zm-.779,2.4,10.385,2.024-13.328,9.77a25.9,25.9,0,0,1-6.754-4.685ZM60.88,41.512c-4.514,2.4-6.724,4.294-7.773,6.6-1.126,2.474-.713,5.13-.142,8.806.337,2.168-2.239,6.2-5.614,7.649-1.249.535-2.138.471-2.645-.188-1-1.294-.968-5.214-.946-8.362.029-4.356.055-8.118-1.742-9.717a2.952,2.952,0,0,0-2.392-.7c-.787.1-1.586.225-2.357.348-4.6.734-7.5,1.027-9-2.057-2.431-5,2.49-8.7,4.719-10.056a7.927,7.927,0,0,0,1.266-.966,36.4,36.4,0,0,0,15.011-5.849,26.577,26.577,0,0,1,11.615,14.5Zm0,0" transform="translate(0)" fill="#3a3c07"/>
    </g>
  </g>
</svg>
