<svg xmlns="http://www.w3.org/2000/svg" width="145" height="145" viewBox="0 0 145 145">
  <g id="Grupo_17564" data-name="Grupo 17564" transform="translate(-0.155)">
    <rect id="Rectángulo_4380" data-name="Rectángulo 4380" width="145" height="145" transform="translate(0.155)" fill="none"/>
    <g id="Grupo_17557" data-name="Grupo 17557" transform="translate(21.892 21.823)">
      <g id="Grupo_17555" data-name="Grupo 17555" transform="translate(1.481 1.481)">
        <g id="Grupo_17554" data-name="Grupo 17554">
          <path id="Trazado_27962" data-name="Trazado 27962" d="M1814.709,53.426h5.816v13.48h-5.816Z" transform="translate(-1789.027 -36.246)" fill="#eef5f6"/>
          <path id="Trazado_27963" data-name="Trazado 27963" d="M1818.54,53.426h3.649v13.48h-3.649Z" transform="translate(-1789.208 -36.246)" fill="#deecf1"/>
          <path id="Trazado_27964" data-name="Trazado 27964" d="M1856.127,53.426h5.816v13.48h-5.816Z" transform="translate(-1790.986 -36.246)" fill="#eef5f6"/>
          <path id="Trazado_27965" data-name="Trazado 27965" d="M1805.085,79.716h61.744v49.953h-61.744Z" transform="translate(-1788.572 -37.488)" fill="#aee4a4"/>
          <path id="Trazado_27966" data-name="Trazado 27966" d="M1867.1,79.716h6.009v49.953H1867.1Z" transform="translate(-1791.505 -37.488)" fill="#8dd5a7"/>
          <path id="Trazado_27967" data-name="Trazado 27967" d="M1860.922,121.466H1852.6l-.964-1.974-2,1.974H1837.57a.988.988,0,0,1-.988-.987v-9.725l1.974-1.914-1.974-1.047V98.067a.988.988,0,0,1,.988-.987h12.071l1.482,1.975,1.48-1.975h8.319a.987.987,0,0,1,.987.987v22.412a.987.987,0,0,1-.987.987Z" transform="translate(-1790.061 -38.309)" fill="#a4ccff"/>
          <path id="Trazado_27968" data-name="Trazado 27968" d="M1865.774,97.08h-5.923a.987.987,0,0,1,.987.987v22.412a.987.987,0,0,1-.987.987h5.923a.987.987,0,0,0,.987-.987v-9.725l-1.975-1.993,1.975-.968V98.067A.987.987,0,0,0,1865.774,97.08Z" transform="translate(-1791.162 -38.309)" fill="#8bb3ea"/>
          <path id="Trazado_27969" data-name="Trazado 27969" d="M1827.727,130.455l-16.333-1.975V98.067a.987.987,0,0,1,.987-.987h14.359a.987.987,0,0,1,.987.987Z" transform="translate(-1788.871 -38.309)" fill="#b57f5f"/>
          <path id="Trazado_27970" data-name="Trazado 27970" d="M1829.357,97.08h-4.4a.988.988,0,0,1,.988.987v32.388l4.4-1.975V98.067A.987.987,0,0,0,1829.357,97.08Z" transform="translate(-1789.512 -38.309)" fill="#9f6e50"/>
          <path id="Trazado_27971" data-name="Trazado 27971" d="M1859.958,53.426h3.649v13.48h-3.649Z" transform="translate(-1791.167 -36.246)" fill="#deecf1"/>
          <path id="Trazado_27972" data-name="Trazado 27972" d="M1876.991,130.055h-84.3a4.936,4.936,0,0,0-4.936,4.936V137a.987.987,0,0,0,.987.987h92.2a.987.987,0,0,0,.987-.987v-2.012A4.937,4.937,0,0,0,1876.991,130.055Z" transform="translate(-1787.753 -39.868)" fill="#7f8c93"/>
          <path id="Trazado_27973" data-name="Trazado 27973" d="M1885.265,130.055h-6.022a4.936,4.936,0,0,1,4.936,4.936V137a.987.987,0,0,1-.987.987h6.021a.987.987,0,0,0,.987-.987v-2.012A4.936,4.936,0,0,0,1885.265,130.055Z" transform="translate(-1792.079 -39.868)" fill="#455b6b"/>
          <path id="Trazado_27974" data-name="Trazado 27974" d="M1869.433,88.767a6.577,6.577,0,0,1-7.3-7.1l-1.974-7.9h14.6v7.9c0,4.031-1.294,7.1-5.325,7.1Z" transform="translate(-1791.176 -37.207)" fill="#f26c72"/>
          <path id="Trazado_27975" data-name="Trazado 27975" d="M1873.146,73.767v7.9a7.3,7.3,0,0,1-5.325,7.026,7.3,7.3,0,0,0,9.273-7.026V75.742Z" transform="translate(-1791.538 -37.207)" fill="#e95059"/>
          <path id="Trazado_27976" data-name="Trazado 27976" d="M1862.452,56.229h-53.179a1.975,1.975,0,0,1-1.974-1.974V37.367a1.974,1.974,0,0,1,1.974-1.974h53.179a1.974,1.974,0,0,1,1.974,1.974V54.255A1.974,1.974,0,0,1,1862.452,56.229Z" transform="translate(-1788.677 -35.393)" fill="#f26c72"/>
          <path id="Trazado_27977" data-name="Trazado 27977" d="M1868.869,35.393h-5.179a1.973,1.973,0,0,1,1.974,1.974V54.255a1.974,1.974,0,0,1-1.974,1.974h5.179a1.974,1.974,0,0,0,1.974-1.974V37.367A1.974,1.974,0,0,0,1868.869,35.393Z" transform="translate(-1791.343 -35.393)" fill="#e95059"/>
          <path id="Trazado_27978" data-name="Trazado 27978" d="M1823.1,117.9h-6.239a.847.847,0,0,1-.848-.847v-4.07a.847.847,0,0,1,.848-.847h6.239a.848.848,0,0,1,.848.847v4.07A.848.848,0,0,1,1823.1,117.9Z" transform="translate(-1789.089 -39.021)" fill="#eef5f6"/>
          <path id="Trazado_27979" data-name="Trazado 27979" d="M1824.989,112.137h-2.37a.849.849,0,0,1,.848.848v4.069a.848.848,0,0,1-.848.848h2.37a.847.847,0,0,0,.847-.848v-4.069A.848.848,0,0,0,1824.989,112.137Z" transform="translate(-1789.401 -39.021)" fill="#deecf1"/>
          <path id="Trazado_27980" data-name="Trazado 27980" d="M1854.111,88.964a7.3,7.3,0,0,1-7.3-7.3l-1.974-7.9,16.572,1.975v5.923A7.3,7.3,0,0,1,1854.111,88.964Z" transform="translate(-1790.451 -37.207)" fill="#eef5f6"/>
          <path id="Trazado_27981" data-name="Trazado 27981" d="M1838.789,88.964a7.3,7.3,0,0,1-7.3-7.3l-1.975-7.9,16.573,1.975v5.923A7.3,7.3,0,0,1,1838.789,88.964Z" transform="translate(-1789.728 -37.207)" fill="#f26c72"/>
          <path id="Trazado_27982" data-name="Trazado 27982" d="M1823.466,88.964a7.3,7.3,0,0,1-7.3-7.3l-1.974-7.9,16.572,1.975v5.923A7.3,7.3,0,0,1,1823.466,88.964Z" transform="translate(-1789.003 -37.207)" fill="#eef5f6"/>
          <path id="Trazado_27983" data-name="Trazado 27983" d="M1808.242,88.964a7.3,7.3,0,0,1-7.3-7.3V75.742l14.6-1.975v7.9A7.3,7.3,0,0,1,1808.242,88.964Z" transform="translate(-1788.377 -37.207)" fill="#f26c72"/>
          <path id="Trazado_27984" data-name="Trazado 27984" d="M1869,65H1803.9a2.962,2.962,0,0,0-2.962,2.961v7.367h71.015V67.96A2.961,2.961,0,0,0,1869,65Z" transform="translate(-1788.377 -36.793)" fill="#b57f5f"/>
          <path id="Trazado_27985" data-name="Trazado 27985" d="M1874.25,65H1870.3a2.962,2.962,0,0,1,2.962,2.961v7.367h3.948V67.96A2.96,2.96,0,0,0,1874.25,65Z" transform="translate(-1791.656 -36.793)" fill="#9f6e50"/>
        </g>
      </g>
      <g id="Grupo_17556" data-name="Grupo 17556" transform="translate(0 0)">
        <path id="Trazado_27986" data-name="Trazado 27986" d="M1880.867,126.942h-10.1v-7.189a1.481,1.481,0,0,0-2.962,0v7.189h-37.817V97.994a2.471,2.471,0,0,0-2.468-2.468H1811.19a2.47,2.47,0,0,0-2.468,2.468v28.949h-3.05V101.751a1.481,1.481,0,1,0-2.961,0v25.191h-10.1a6.424,6.424,0,0,0-6.417,6.417v2.012a2.47,2.47,0,0,0,2.468,2.468h96.148a2.471,2.471,0,0,0,2.469-2.468v-2.012A6.425,6.425,0,0,0,1880.867,126.942Zm-69.183-28.455h15.346v28.439h-15.346Zm69.183,31.417a3.459,3.459,0,0,1,3.454,3.455v1.519H1789.16v-1.519a3.459,3.459,0,0,1,3.456-3.455Z" transform="translate(-1786.199 -36.754)" fill="#00223d"/>
        <path id="Trazado_27987" data-name="Trazado 27987" d="M1826.972,53.377a1.481,1.481,0,0,0,1.481-1.481V47.306h5.163V51.9a1.481,1.481,0,0,0,2.962,0V40.157a1.481,1.481,0,0,0-2.962,0v4.188h-5.163V40.157a1.481,1.481,0,1,0-2.961,0V51.9A1.481,1.481,0,0,0,1826.972,53.377Z" transform="translate(-1788.057 -34.067)" fill="#00223d"/>
        <path id="Trazado_27988" data-name="Trazado 27988" d="M1818.308,50.416a4.072,4.072,0,0,1-2.994-1.255,1.481,1.481,0,0,0-2.194,1.989,7.076,7.076,0,0,0,5.189,2.227,4.856,4.856,0,0,0,4.953-3.765c.293-1.642-.452-3.787-3.422-4.883-1.44-.531-2.78-1.109-3.193-1.29a.8.8,0,0,1-.282-.751,1.166,1.166,0,0,1,.925-.93,3.9,3.9,0,0,1,3.219.744,1.48,1.48,0,0,0,1.9-2.273,6.856,6.856,0,0,0-5.971-1.307,4.145,4.145,0,0,0-3,3.345,3.747,3.747,0,0,0,1.67,3.707,1.509,1.509,0,0,0,.206.111c.068.03,1.685.75,3.506,1.422.511.189,1.686.72,1.531,1.583a1.966,1.966,0,0,1-2.037,1.324Z" transform="translate(-1787.453 -34.067)" fill="#00223d"/>
        <path id="Trazado_27989" data-name="Trazado 27989" d="M1858.638,51.9V48.27c.655,0,1.373-.006,1.788-.006a4.795,4.795,0,1,0,0-9.588h-3.269a1.5,1.5,0,0,0-1.481,1.481V51.9a1.481,1.481,0,0,0,2.961,0Zm1.788-10.26a1.834,1.834,0,1,1,0,3.665c-.413,0-1.122,0-1.773.007,0-.674-.007-1.415-.007-1.839,0-.361,0-1.127,0-1.833Z" transform="translate(-1789.484 -34.067)" fill="#00223d"/>
        <path id="Trazado_27990" data-name="Trazado 27990" d="M1853.3,46.027a7.351,7.351,0,1,0-7.35,7.35A7.359,7.359,0,0,0,1853.3,46.027Zm-11.74,0a4.39,4.39,0,1,1,4.39,4.389A4.4,4.4,0,0,1,1841.561,46.027Z" transform="translate(-1788.676 -34.067)" fill="#00223d"/>
        <path id="Trazado_27991" data-name="Trazado 27991" d="M1837.5,95.526a2.47,2.47,0,0,0-2.468,2.468v22.412a2.47,2.47,0,0,0,2.468,2.468h27.1a2.47,2.47,0,0,0,2.468-2.468V97.994a2.471,2.471,0,0,0-2.468-2.468Zm26.609,12.193H1852.53V98.488h11.576Zm-14.538-9.231v9.231H1837.99V98.488ZM1837.99,110.68h11.577v9.232H1837.99Zm14.54,9.232V110.68h11.576v9.232Z" transform="translate(-1788.507 -36.754)" fill="#00223d"/>
        <path id="Trazado_27992" data-name="Trazado 27992" d="M1825.3,110.4l-2.745-4.761a2.073,2.073,0,0,0-3.716-.016l-2.9,4.833a2.329,2.329,0,0,0-1.479,2.166v4.07a2.33,2.33,0,0,0,2.328,2.328h7.819a2.33,2.33,0,0,0,2.328-2.328v-4.07A2.331,2.331,0,0,0,1825.3,110.4Zm-3.48-.107h-2.333l1.191-1.981Zm2.149,5.765h-6.553v-2.8h6.553Z" transform="translate(-1787.535 -37.178)" fill="#00223d"/>
        <path id="Trazado_27993" data-name="Trazado 27993" d="M1875.339,66.487a4.446,4.446,0,0,0-4.442-4.442h-8.673V57.637h3.6a3.459,3.459,0,0,0,3.455-3.456V37.294a3.459,3.459,0,0,0-3.455-3.456h-36.74a1.481,1.481,0,0,0,0,2.962h36.74a.494.494,0,0,1,.494.494V54.182a.494.494,0,0,1-.494.494H1808.9a.494.494,0,0,1-.494-.494V37.294a.494.494,0,0,1,.494-.494h13.867a1.481,1.481,0,1,0,0-2.962H1808.9a3.459,3.459,0,0,0-3.454,3.456V54.182a3.459,3.459,0,0,0,3.454,3.456h3.6v4.408h-8.674a4.446,4.446,0,0,0-4.441,4.442V79.777a8.774,8.774,0,0,0,3.946,7.324v5.28a1.48,1.48,0,1,0,2.961,0V88.354a10.728,10.728,0,0,1,16.47.2,8.773,8.773,0,0,1,14.6,0,8.772,8.772,0,0,1,14.6,0,8.772,8.772,0,0,1,14.6,0,8.779,8.779,0,0,0,1.872-.2v22.03a1.481,1.481,0,0,0,2.962,0V87.1a8.779,8.779,0,0,0,3.946-7.325V66.487ZM1808.168,85.6a5.826,5.826,0,0,1-5.818-5.818V75.335h11.637v4.443A5.825,5.825,0,0,1,1808.168,85.6Zm14.6,0a5.825,5.825,0,0,1-5.817-5.818V75.335h11.636v4.443A5.825,5.825,0,0,1,1822.766,85.6Zm14.6,0a5.825,5.825,0,0,1-5.818-5.818V75.335h11.636v4.443A5.824,5.824,0,0,1,1837.365,85.6Zm14.6,0a5.825,5.825,0,0,1-5.818-5.818V75.335h11.636v4.443A5.825,5.825,0,0,1,1851.962,85.6Zm14.6,0a5.825,5.825,0,0,1-5.818-5.818V75.335h11.637v4.443A5.825,5.825,0,0,1,1866.56,85.6Zm-7.3-23.55h-4.338V57.637h4.338Zm-36.5,0V57.637h29.2v4.408Zm-7.3-4.408h4.338v4.408h-4.338Zm-13.115,8.85a1.482,1.482,0,0,1,1.482-1.481H1870.9a1.482,1.482,0,0,1,1.481,1.481v5.886H1802.35Z" transform="translate(-1786.823 -33.838)" fill="#00223d"/>
      </g>
    </g>
  </g>
</svg>
