<svg xmlns="http://www.w3.org/2000/svg" width="105" height="105" viewBox="0 0 105 105">
  <g id="Grupo_61587" data-name="Grupo 61587" transform="translate(-266 -3161)">
    <rect id="Rectángulo_5987" data-name="Rectángulo 5987" width="105" height="105" transform="translate(266 3161)" fill="none"/>
    <g id="voto-positivo" transform="translate(273.107 3167.902)">
      <path id="Trazado_111364" data-name="Trazado 111364" d="M88.125,96.61A39.832,39.832,0,1,1,48.292,56.777,39.833,39.833,0,0,1,88.125,96.61Zm0,0" transform="translate(-6.542 -46.664)" fill="#c5cc00"/>
      <path id="Trazado_111365" data-name="Trazado 111365" d="M203.519,56.777a40.175,40.175,0,0,0-6.191.479,39.837,39.837,0,0,1,0,78.7,39.834,39.834,0,1,0,6.187-79.184Zm0,0" transform="translate(-161.77 -46.664)" fill="#a0a603"/>
      <path id="Trazado_111366" data-name="Trazado 111366" d="M235.14,54.4,212.394,69.46a7.745,7.745,0,0,1-5.5,1.193,7.771,7.771,0,0,0-5.515,1.19l-3.044,2.017L181.286,48.731l4.182-18.068A18.851,18.851,0,0,0,182.819,16a4.509,4.509,0,0,1,6.9-5.727l2.709,2.624a28.966,28.966,0,0,1,6.99,10.715l1.469,3.955,15.129-10a5.159,5.159,0,0,1,7.228,1.575,5.227,5.227,0,0,1-1.62,7.087.057.057,0,0,0-.021.072.058.058,0,0,0,.074.029,5.111,5.111,0,0,1,1.844-.342,5.156,5.156,0,0,1,5.065,6.16,5.273,5.273,0,0,1-2.163,3.267.111.111,0,0,0-.029.153,0,0,0,0,0,0,0,.108.108,0,0,0,.145.029,5.288,5.288,0,0,1,1.252-.147,5.438,5.438,0,0,1,2.91.843,5.068,5.068,0,0,1,1.5,1.476,5.157,5.157,0,0,1-1.454,7.149c-.058.04-.117.079-.175.117a.081.081,0,0,0-.026.1.049.049,0,0,0,.019.019.083.083,0,0,0,.1,0,5.051,5.051,0,0,1,4.377.564,5.238,5.238,0,0,1,1.54,1.528A5.161,5.161,0,0,1,235.14,54.4Zm0,0" transform="translate(-148.585 -7.397)" fill="#fdd7bd"/>
      <path id="Trazado_111367" data-name="Trazado 111367" d="M58.235,246.047l-9.6,6.354-13.853,9.174a39.875,39.875,0,0,1-24.224-31.339L26.64,219.59l9.787-6.481a2.448,2.448,0,0,1,3.393.692l19.108,28.85a2.451,2.451,0,0,1-.692,3.4Zm0,0" transform="translate(-8.27 -174.816)" fill="#529ad9"/>
      <path id="Trazado_111368" data-name="Trazado 111368" d="M132.42,246.047l-9.6,6.354-22-32.811,9.787-6.481A2.447,2.447,0,0,1,114,213.8l19.108,28.85a2.451,2.451,0,0,1-.692,3.4Zm0,0" transform="translate(-82.454 -174.816)" fill="#9cd1ff"/>
      <g id="Grupo_61585" data-name="Grupo 61585" transform="translate(67.05 18.593)">
        <path id="Trazado_111369" data-name="Trazado 111369" d="M384.829,105.215l-7.568,4.05a2.452,2.452,0,0,1-3.128-.7L380.1,104.7a.057.057,0,0,0,.074.029,5.111,5.111,0,0,1,1.844-.342A5.2,5.2,0,0,1,384.829,105.215Zm0,0" transform="translate(-374.133 -104.387)" fill="#fac5aa"/>
        <path id="Trazado_111370" data-name="Trazado 111370" d="M410.14,158.371l-7.4,3.959a2.45,2.45,0,0,1-3.127-.7l5.967-3.861.257-.121a.108.108,0,0,0,.145.029,5.3,5.3,0,0,1,1.252-.147,5.428,5.428,0,0,1,2.91.843Zm0,0" transform="translate(-395.071 -148.062)" fill="#fac5aa"/>
        <path id="Trazado_111371" data-name="Trazado 111371" d="M438.621,211.335l-6.521,3.489a2.453,2.453,0,0,1-3.127-.7l5.169-3.345a.083.083,0,0,0,.1,0A5.051,5.051,0,0,1,438.621,211.335Zm0,0" transform="translate(-419.205 -191.605)" fill="#fac5aa"/>
      </g>
      <path id="Trazado_111372" data-name="Trazado 111372" d="M89.189,39.068a6.532,6.532,0,0,0-4.045-2.784,6.569,6.569,0,0,0-4.381-9.47,6.585,6.585,0,0,0-.34-6.692,6.526,6.526,0,0,0-4.045-2.784A6.576,6.576,0,0,0,66.924,8.8l-6.547,4.336A40.913,40.913,0,0,0,49.323,9.391a30.4,30.4,0,0,0-4.218-5.1L42.4,1.663A5.927,5.927,0,0,0,33.329,9.19q.106.162.209.325a41.251,41.251,0,1,0,47.02,54.442,1.418,1.418,0,1,0-2.667-.963A38.465,38.465,0,0,1,29.62,86.405l11.537-7.64h0l9.588-6.35h0a3.868,3.868,0,0,0,1.09-5.359l-.127-.192,1.863-1.234a6.316,6.316,0,0,1,4.5-.973,9.143,9.143,0,0,0,6.516-1.409l15.449-10.23A38.5,38.5,0,0,1,79.518,57a1.417,1.417,0,0,0,1.135,1.653,1.383,1.383,0,0,0,.26.024,1.418,1.418,0,0,0,1.392-1.16,41.469,41.469,0,0,0,.678-6.449l4.353-2.883a6.578,6.578,0,0,0,1.852-9.115ZM57.624,14.955l-4.332,2.869-.853-2.3a30.344,30.344,0,0,0-1.217-2.819,38.063,38.063,0,0,1,6.4,2.247Zm-44.9,9.83A38.418,38.418,0,0,1,34.9,12.143a17.518,17.518,0,0,1,.884,10.61L32.322,37.688a3.86,3.86,0,0,0-4.949-.577L17.58,43.6h0L3.454,52.951c-.077-1-.118-2-.118-3a38.4,38.4,0,0,1,9.385-25.162Zm36.9,44.607a1.027,1.027,0,0,1-.443.655h0l-8.421,5.577-15.63-23.31a1.418,1.418,0,0,0-2.355,1.579L38.4,77.191,26.375,85.153a38.533,38.533,0,0,1-22.55-29.1l14.141-9.334,1.627,2.428a1.418,1.418,0,1,0,2.356-1.579l-1.616-2.411,8.607-5.681a1.032,1.032,0,0,1,1.429.292L49.475,68.619a1.022,1.022,0,0,1,.15.774ZM87.372,43.444a3.716,3.716,0,0,1-1.6,2.375l-4.977,3.3,0,0L63.026,60.882a6.313,6.313,0,0,1-4.5.973,9.148,9.148,0,0,0-6.516,1.409L50.147,64.5,34.5,40.867l4.045-17.474a20.373,20.373,0,0,0-1.492-13.374,1.39,1.39,0,0,0-.06-.126,20.059,20.059,0,0,0-1.3-2.269A3.091,3.091,0,0,1,40.422,3.7L43.13,6.324a27.705,27.705,0,0,1,6.649,10.189l1.475,3.973.008.021.011.028c.01.024.02.047.031.065a1.4,1.4,0,0,0,.1.175,1.417,1.417,0,0,0,1.965.4L68.49,11.161A3.741,3.741,0,1,1,72.622,17.4l-1.313.87h0l-2.928,1.94-.011.008c-.017.012-.033.023-.046.034a1.417,1.417,0,0,0,1.623,2.322l2.931-1.941A3.741,3.741,0,0,1,77,26.873l-4.243,2.81a1.418,1.418,0,1,0,1.565,2.364l.657-.435,2.272-1.5a3.741,3.741,0,0,1,4.131,6.239l-2.119,1.4-.033.022-2.09,1.384a1.418,1.418,0,1,0,1.565,2.365l.657-.435h0l2.272-1.5a3.74,3.74,0,0,1,5.731,3.864Zm0,0" transform="translate(0 0)" fill="#3a3c07"/>
    </g>
  </g>
</svg>
