<svg xmlns="http://www.w3.org/2000/svg" width="105" height="105" viewBox="0 0 105 105">
  <g id="Grupo_61649" data-name="Grupo 61649" transform="translate(-582 -3161)">
    <rect id="Rectángulo_6027" data-name="Rectángulo 6027" width="105" height="105" transform="translate(582 3161)" fill="none"/>
    <g id="eco-bag" transform="translate(520.398 3165)">
      <path id="Trazado_111607" data-name="Trazado 111607" d="M148.45,218.7H92.725a3.789,3.789,0,0,1-3.785-3.961l2.687-59.108a3.789,3.789,0,0,1,3.785-3.617h50.351a3.789,3.789,0,0,1,3.785,3.617l2.687,59.108A3.789,3.789,0,0,1,148.45,218.7Z" transform="translate(-6.485 -123.215)" fill="#faf0d3"/>
      <path id="Trazado_111608" data-name="Trazado 111608" d="M363.7,214.738a3.789,3.789,0,0,1-3.785,3.961h-7.4a3.789,3.789,0,0,0,3.785-3.961l-2.686-59.108a3.79,3.79,0,0,0-3.785-3.617h7.4a3.79,3.79,0,0,1,3.785,3.617Z" transform="translate(-217.95 -123.215)" fill="#f4e1a1"/>
      <path id="Trazado_111609" data-name="Trazado 111609" d="M262.068,283.716h-6.062v-4.547a15.156,15.156,0,0,1,15.156-15.156h6.062v4.547A15.156,15.156,0,0,1,262.068,283.716Z" transform="translate(-141.904 -213.996)" fill="#79cb9c"/>
      <path id="Trazado_111610" data-name="Trazado 111610" d="M277.224,264.013v4.547a15.157,15.157,0,0,1-15.156,15.156h-6.062a15.157,15.157,0,0,0,15.156-15.156v-4.547Z" transform="translate(-141.904 -213.996)" fill="#63ac7d"/>
      <path id="Trazado_111611" data-name="Trazado 111611" d="M159.162,283.716h6.062v-4.547a15.156,15.156,0,0,0-15.156-15.156h-6.062v4.547A15.156,15.156,0,0,0,159.162,283.716Z" transform="translate(-51.122 -213.996)" fill="#79cb9c"/>
      <path id="Trazado_111612" data-name="Trazado 111612" d="M165.224,279.169v4.547h-6.062v-4.547a15.157,15.157,0,0,0-15.156-15.156h6.062A15.157,15.157,0,0,1,165.224,279.169Z" transform="translate(-51.122 -213.996)" fill="#63ac7d"/>
      <path id="Trazado_111613" data-name="Trazado 111613" d="M151.584,35.294h-7.578V15.532a3.031,3.031,0,0,1,1.138-2.367l6.44-5.152Z" transform="translate(-51.122 -6.495)" fill="#f1cc76"/>
      <path id="Trazado_111614" data-name="Trazado 111614" d="M171.037,8.013V35.294h-3.031V10.438Z" transform="translate(-70.575 -6.495)" fill="#ebb15d"/>
      <path id="Trazado_111615" data-name="Trazado 111615" d="M328.006,35.294h7.578V15.532a3.031,3.031,0,0,0-1.138-2.367l-6.44-5.152Z" transform="translate(-200.263 -6.495)" fill="#f1cc76"/>
      <path id="Trazado_111616" data-name="Trazado 111616" d="M335.584,15.532V35.294h-3.031V15.532a3.03,3.03,0,0,0-1.137-2.366l-3.41-2.728V8.013l6.441,5.153A3.03,3.03,0,0,1,335.584,15.532Z" transform="translate(-200.263 -6.495)" fill="#ebb15d"/>
      <path id="Trazado_111617" data-name="Trazado 111617" d="M184.006,8.013h27.281v7.578H184.006Z" transform="translate(-83.544 -6.495)" fill="#f1cc76"/>
      <path id="Trazado_111618" data-name="Trazado 111618" d="M288.006,8.013h7.578v7.578h-7.578Z" transform="translate(-167.841 -6.495)" fill="#ebb15d"/>
      <path id="Trazado_111619" data-name="Trazado 111619" d="M147.264,91.454l-2.687-59.108a5.3,5.3,0,0,0-5.3-5.064h-2.442V9.037a4.524,4.524,0,0,0-1.706-3.55C128.223-.039,128.536.092,127.936.016c-.167-.022-27.5-.02-27.64,0-.626.07-.38,0-7.221,5.475a4.524,4.524,0,0,0-1.706,3.55V27.283H88.927a5.3,5.3,0,0,0-5.3,5.064L80.941,91.455A5.3,5.3,0,0,0,86.24,97h55.725A5.3,5.3,0,0,0,147.264,91.454ZM133.805,9.037V27.283h-4.547V4.671l3.978,3.182A1.508,1.508,0,0,1,133.805,9.037ZM101.978,27.283V10.611h24.249V27.283Zm24.249-19.7H101.978V3.033h24.249ZM94.4,9.037a1.508,1.508,0,0,1,.569-1.183l3.978-3.182V27.283H94.4Zm47.565,84.932H86.24a2.272,2.272,0,0,1-2.271-2.377l2.687-59.108a2.27,2.27,0,0,1,2.271-2.17h50.351a2.27,2.27,0,0,1,2.271,2.17l2.687,59.108A2.271,2.271,0,0,1,141.965,93.969Z" transform="translate(0 0)" fill="#3a3c07"/>
      <path id="Trazado_111620" data-name="Trazado 111620" d="M179.958,256.013H173.9a16.694,16.694,0,0,0-15.156,9.73,16.694,16.694,0,0,0-15.156-9.73h-6.062a1.516,1.516,0,0,0-1.516,1.516v4.547a16.69,16.69,0,0,0,16.671,16.672h4.547v6.062a1.516,1.516,0,1,0,3.031,0v-6.062H164.8a16.69,16.69,0,0,0,16.672-16.672v-4.547A1.515,1.515,0,0,0,179.958,256.013Zm-40.921,6.062v-3.031h4.547a13.656,13.656,0,0,1,13.64,13.64v1.207l-9.611-8.41a1.516,1.516,0,0,0-2,2.281l9.089,7.953h-2.029A13.656,13.656,0,0,1,139.037,262.075Zm39.405,0a13.656,13.656,0,0,1-13.64,13.64h-2.029l9.089-7.953a1.516,1.516,0,1,0-2-2.281l-9.611,8.41v-1.207a13.656,13.656,0,0,1,13.64-13.64h4.547Z" transform="translate(-44.638 -207.512)" fill="#3a3c07"/>
    </g>
  </g>
</svg>
