<svg xmlns="http://www.w3.org/2000/svg" width="105" height="105" viewBox="0 0 105 105">
  <g id="Grupo_61545" data-name="Grupo 61545" transform="translate(-582 -3161)">
    <rect id="Rectángulo_6027" data-name="Rectángulo 6027" width="105" height="105" transform="translate(582 3161)" fill="none"/>
    <g id="service" transform="translate(588.75 3167.75)">
      <path id="Trazado_115815" data-name="Trazado 115815" d="M10,3H74.167V52.584H10Z" transform="translate(3.667 0.458)" fill="#a0a603"/>
      <ellipse id="Elipse_7948" data-name="Elipse 7948" cx="18" cy="17" rx="18" ry="17" transform="translate(53 29)" fill="#529ad9"/>
      <path id="Trazado_115816" data-name="Trazado 115816" d="M80.687,42.014h-.3a5.066,5.066,0,0,0-3.364,1.279L67.084,55.844a5.833,5.833,0,0,1-4.572,2.212H54.4a5.1,5.1,0,1,0,0-10.208H36.167L24.054,43.19C19.674,41.505,11.271,41.53,7,43.473V65.348l23.333,4.375H66.89a2.917,2.917,0,0,0,2.234-1.043L84.108,50.811a5.064,5.064,0,0,0-3.421-8.8Z" transform="translate(2.292 18.319)" fill="#fff5e0"/>
      <path id="Trazado_115817" data-name="Trazado 115817" d="M27,3H41.583V20.5H27Z" transform="translate(11.459 0.458)" fill="#fff5e0"/>
      <path id="Trazado_115818" data-name="Trazado 115818" d="M8.833,41H3V70.167H8.833V41Z" transform="translate(0.458 17.875)" fill="#529ad9"/>
      <path id="Trazado_115819" data-name="Trazado 115819" d="M55.246,30.442,52.208,24l-3.16,6.442L42,31.292l5.225,5.1-2.309,8.021,7.292-4.74,7.292,4.74L56.827,36.4l5.59-5.1Z" transform="translate(18.334 10.084)" fill="#ffcd67"/>
      <path id="Trazado_115820" data-name="Trazado 115820" d="M14,27H40.25v8.75H14Z" transform="translate(5.5 11.459)" fill="#fff5e0"/>
      <path id="Trazado_115821" data-name="Trazado 115821" d="M22.75,18.208V13.833h2.917L19.833,8,14,13.833h2.917v4.375Z" transform="translate(5.5 2.75)" fill="#fff5e0"/>
      <path id="Trazado_115822" data-name="Trazado 115822" d="M79.292,28.949V3.458A1.458,1.458,0,0,0,77.834,2H13.667a1.458,1.458,0,0,0-1.458,1.458V53.042A1.458,1.458,0,0,0,13.667,54.5H53.741a18.842,18.842,0,0,0,21.81,9.516l-7.317,9.242a4.352,4.352,0,0,1-3.431,1.66H62.139a6.563,6.563,0,0,0-5.451-10.208H38.73l-11.859-4.56A29.976,29.976,0,0,0,10.75,59.74v-.865a1.458,1.458,0,0,0-1.458-1.458H3.458A1.458,1.458,0,0,0,2,58.875V88.042A1.458,1.458,0,0,0,3.458,89.5H9.292a1.458,1.458,0,0,0,1.458-1.458V85.417l21.605,4.051a1.535,1.535,0,0,0,.27.032H69.182a4.365,4.365,0,0,0,3.354-1.563l14.923-17.8a6.51,6.51,0,0,0-3.372-11.149,18.916,18.916,0,0,0-4.8-30.039ZM39.917,4.917H51.584V19.5H39.917ZM15.125,51.584V4.917H37V20.958a1.458,1.458,0,0,0,1.458,1.458H53.042A1.458,1.458,0,0,0,54.5,20.958V4.917H76.376v22.8A18.938,18.938,0,0,0,52.511,51.584ZM54.5,45.75A16.042,16.042,0,1,1,70.542,61.792,16.042,16.042,0,0,1,54.5,45.75ZM7.833,86.584H4.917V60.334H7.833ZM86.584,65.4a3.61,3.61,0,0,1-1.166,2.657,1.706,1.706,0,0,0-.133.139L70.3,86.063a1.458,1.458,0,0,1-1.117.521H32.761L10.75,82.457V62.785a26.979,26.979,0,0,1,15.072.085l12.113,4.667a1.458,1.458,0,0,0,.524.089H56.688a3.646,3.646,0,1,1,0,7.292H47.209v2.917H64.8a7.255,7.255,0,0,0,5.718-2.771L80.37,62.62a3.6,3.6,0,0,1,2.306-.828h.3A3.609,3.609,0,0,1,86.584,65.4Z" transform="translate(0 0)" fill="#3a3c07"/>
      <path id="Trazado_115823" data-name="Trazado 115823" d="M64.267,31.3a1.458,1.458,0,0,0-1.216-1l-6.369-.755-2.7-5.711A1.458,1.458,0,0,0,52.67,23a1.365,1.365,0,0,0-1.32.817l-2.812,5.73-6.264.755a1.458,1.458,0,0,0-.844,2.491l4.614,4.5-2.068,7.184a1.458,1.458,0,0,0,2.2,1.625l6.5-4.225,6.5,4.229a1.458,1.458,0,0,0,2.177-1.683l-2.373-7.13,4.89-4.465a1.458,1.458,0,0,0,.405-1.523Zm-7.961,4.474a1.458,1.458,0,0,0-.4,1.537L57.26,41.38l-3.792-2.466a1.458,1.458,0,0,0-1.59,0l-4.021,2.608,1.228-4.266a1.458,1.458,0,0,0-.382-1.445l-3.049-2.978,4.028-.487a1.458,1.458,0,0,0,1.133-.805l1.826-3.719,1.75,3.7a1.458,1.458,0,0,0,1.146.827l4.006.474Z" transform="translate(17.872 9.625)" fill="#3a3c07"/>
      <path id="Trazado_115824" data-name="Trazado 115824" d="M40.709,26H14.458A1.458,1.458,0,0,0,13,27.458v8.75a1.458,1.458,0,0,0,1.458,1.458h26.25a1.458,1.458,0,0,0,1.458-1.458v-8.75A1.458,1.458,0,0,0,40.709,26ZM39.25,34.75H15.917V28.917H39.25Z" transform="translate(5.042 11)" fill="#3a3c07"/>
      <path id="Trazado_115825" data-name="Trazado 115825" d="M14.458,15.75h1.458v2.917a1.458,1.458,0,0,0,1.458,1.458h5.833a1.458,1.458,0,0,0,1.458-1.458V15.75h1.458a1.458,1.458,0,0,0,1.031-2.489L21.323,7.427a1.458,1.458,0,0,0-2.062,0l-5.833,5.833a1.458,1.458,0,0,0,1.031,2.489Zm5.833-5.23,2.4,2.4a1.458,1.458,0,0,0-.946,1.366v2.917H18.833V14.292a1.458,1.458,0,0,0-.946-1.366Z" transform="translate(5.042 2.292)" fill="#3a3c07"/>
    </g>
  </g>
</svg>
