<svg xmlns="http://www.w3.org/2000/svg" width="105" height="105" viewBox="0 0 105 105">
  <g id="Grupo_61539" data-name="Grupo 61539" transform="translate(-582 -3161)">
    <rect id="Rectángulo_6027" data-name="Rectángulo 6027" width="105" height="105" transform="translate(582 3161)" fill="none"/>
    <g id="light-bulb" transform="translate(592.958 3165.833)">
      <path id="Trazado_111343" data-name="Trazado 111343" d="M192.613,475.4v2.84a2.579,2.579,0,0,0,2.579,2.579h6.148a2.543,2.543,0,0,0,2.543-2.543V475.4h-11.27Zm0,0" transform="translate(-156.749 -386.878)" fill="#fea82f"/>
      <path id="Trazado_111344" data-name="Trazado 111344" d="M196.337,478.234v-2.84h-3.724v2.84a2.579,2.579,0,0,0,2.579,2.579h3.724A2.58,2.58,0,0,1,196.337,478.234Zm0,0" transform="translate(-156.749 -386.878)" fill="#ff9052"/>
      <path id="Trazado_111345" data-name="Trazado 111345" d="M186.038,438.219v-7.172H164.179V438.2a1.478,1.478,0,0,0,1.479,1.478H184.58a1.457,1.457,0,0,0,1.458-1.458Zm0,0" transform="translate(-133.61 -350.787)" fill="#c2c7d0"/>
      <path id="Trazado_111346" data-name="Trazado 111346" d="M167.9,438.2v-7.152H164.18V438.2a1.478,1.478,0,0,0,1.479,1.478h3.724A1.479,1.479,0,0,1,167.9,438.2Zm0,0" transform="translate(-133.61 -350.788)" fill="#abb0b7"/>
      <path id="Trazado_111347" data-name="Trazado 111347" d="M125.455,98.943a28.9,28.9,0,1,0-48.677,21.079,12.833,12.833,0,0,1,4.084,9.351h31.38a12.83,12.83,0,0,1,4.082-9.349,28.821,28.821,0,0,0,9.131-21.08Zm0,0" transform="translate(-55.054 -56.999)" fill="#ffc850"/>
      <path id="Trazado_111348" data-name="Trazado 111348" d="M80.5,120.022A28.9,28.9,0,0,1,98.41,70.1q-.724-.046-1.457-.056A28.9,28.9,0,0,0,76.78,120.022a12.833,12.833,0,0,1,4.083,9.351h3.725a12.832,12.832,0,0,0-4.084-9.351Zm0,0" transform="translate(-55.054 -56.999)" fill="#fea82f"/>
      <path id="Trazado_111349" data-name="Trazado 111349" d="M138.609,388.695v3.633a4.625,4.625,0,0,0,4.624,4.625H165.37a4.62,4.62,0,0,0,4.62-4.62v-3.638H138.609Zm0,0" transform="translate(-112.801 -316.321)" fill="#e4eaf8"/>
      <path id="Trazado_111350" data-name="Trazado 111350" d="M142.367,392.328V388.7h-3.757v3.633a4.625,4.625,0,0,0,4.624,4.625h3.757A4.625,4.625,0,0,1,142.367,392.328Zm0,0" transform="translate(-112.801 -316.322)" fill="#c2c7d0"/>
      <path id="Trazado_111351" data-name="Trazado 111351" d="M172.2,153.882a2.873,2.873,0,0,0-2.962,0,21.605,21.605,0,0,0,0,37.007,2.873,2.873,0,0,0,2.962,0,21.605,21.605,0,0,0,0-37.007Zm0,0" transform="translate(-129.223 -124.895)" fill="#92e0c0"/>
      <path id="Trazado_111352" data-name="Trazado 111352" d="M162.51,172.386a21.58,21.58,0,0,1,10.071-18.265c-.127-.08-.252-.161-.381-.239a2.874,2.874,0,0,0-2.963,0,21.605,21.605,0,0,0,0,37.007,2.874,2.874,0,0,0,2.963,0c.128-.077.255-.158.381-.238A21.582,21.582,0,0,1,162.51,172.386Zm0,0" transform="translate(-129.22 -124.895)" fill="#6dc296"/>
      <g id="Grupo_61584" data-name="Grupo 61584" transform="translate(0 0)">
        <path id="Trazado_111353" data-name="Trazado 111353" d="M5.285,218.4H1.4a1.4,1.4,0,1,1,0-2.793H5.285a1.4,1.4,0,1,1,0,2.793Zm0,0" transform="translate(0 -175.463)" fill="#ff8031"/>
        <path id="Trazado_111354" data-name="Trazado 111354" d="M415.621,218.4h-3.888a1.4,1.4,0,1,1,0-2.793h3.888a1.4,1.4,0,1,1,0,2.793Zm0,0" transform="translate(-333.933 -175.463)" fill="#ff8031"/>
        <path id="Trazado_111355" data-name="Trazado 111355" d="M30.284,317.71a1.4,1.4,0,0,1-.7-2.606l3.368-1.944a1.4,1.4,0,1,1,1.4,2.419l-3.368,1.944A1.392,1.392,0,0,1,30.284,317.71Zm0,0" transform="translate(-23.507 -254.699)" fill="#ff8031"/>
        <path id="Trazado_111356" data-name="Trazado 111356" d="M385.644,112.542a1.4,1.4,0,0,1-.7-2.607l3.367-1.943a1.4,1.4,0,1,1,1.4,2.418l-3.368,1.944A1.385,1.385,0,0,1,385.644,112.542Zm0,0" transform="translate(-312.701 -87.732)" fill="#ff8031"/>
        <path id="Trazado_111357" data-name="Trazado 111357" d="M314.367,35.046a1.4,1.4,0,0,1-1.208-2.095l1.944-3.368a1.4,1.4,0,1,1,2.419,1.4l-1.944,3.368A1.4,1.4,0,0,1,314.367,35.046Zm0,0" transform="translate(-254.697 -23.507)" fill="#ff8031"/>
        <path id="Trazado_111358" data-name="Trazado 111358" d="M217.005,6.681a1.4,1.4,0,0,1-1.4-1.4V1.4a1.4,1.4,0,1,1,2.793,0V5.285A1.4,1.4,0,0,1,217.005,6.681Zm0,0" transform="translate(-175.463 0)" fill="#ff8031"/>
        <path id="Trazado_111359" data-name="Trazado 111359" d="M111.147,35.045a1.4,1.4,0,0,1-1.211-.7l-1.943-3.368a1.4,1.4,0,1,1,2.418-1.4l1.944,3.368a1.4,1.4,0,0,1-1.208,2.095Zm0,0" transform="translate(-87.732 -23.506)" fill="#ff8031"/>
        <path id="Trazado_111360" data-name="Trazado 111360" d="M389.011,317.709a1.4,1.4,0,0,1-.7-.187l-3.367-1.944a1.4,1.4,0,0,1,1.4-2.419l3.368,1.944a1.4,1.4,0,0,1-.7,2.606Zm0,0" transform="translate(-312.702 -254.697)" fill="#ff8031"/>
        <path id="Trazado_111361" data-name="Trazado 111361" d="M33.648,112.542a1.386,1.386,0,0,1-.7-.188l-3.368-1.944a1.4,1.4,0,1,1,1.4-2.418l3.368,1.943a1.4,1.4,0,0,1-.7,2.607Zm0,0" transform="translate(-23.507 -87.732)" fill="#ff8031"/>
      </g>
      <path id="Trazado_111362" data-name="Trazado 111362" d="M235,66.386a27.413,27.413,0,0,1,24.064,23.8,1.4,1.4,0,0,0,1.383,1.22,1.5,1.5,0,0,0,.179-.012,1.4,1.4,0,0,0,1.208-1.562,30.311,30.311,0,0,0-26.511-26.22A1.4,1.4,0,1,0,235,66.385Zm0,0" transform="translate(-190.237 -51.76)" fill="#3a3c07"/>
      <path id="Trazado_111363" data-name="Trazado 111363" d="M119.582,95.005a1.4,1.4,0,0,0-1.525,1.255,27.454,27.454,0,0,1-8.558,17.375,14.329,14.329,0,0,0-4.452,8.971H92.079V119.2a4.286,4.286,0,0,0,.807-.379,22.97,22.97,0,0,0,11.061-17.993,1.445,1.445,0,0,0,.012-.147q.052-.777.053-1.559a23.014,23.014,0,0,0-2.386-10.208c-.007-.016-.015-.031-.024-.047q-.308-.619-.653-1.22a23.139,23.139,0,0,0-8.062-8.223,4.25,4.25,0,0,0-4.407,0,23.151,23.151,0,0,0-8.062,8.223c-.177.307-.344.619-.506.934-.023.025-.045.049-.066.076a1.4,1.4,0,0,0-.271.6,23.023,23.023,0,0,0-2.221,9.863c0,.407.013.812.035,1.217a1.391,1.391,0,0,0,.056.8,22.966,22.966,0,0,0,11.035,17.685,4.259,4.259,0,0,0,.807.379v3.408H76.318a14.336,14.336,0,0,0-4.453-8.972A27.507,27.507,0,0,1,87.694,66.227a1.4,1.4,0,1,0-.3-2.778A30.3,30.3,0,0,0,69.953,115.67,11.489,11.489,0,0,1,73.6,124v3.636a6.03,6.03,0,0,0,4.761,5.887v5.517a2.878,2.878,0,0,0,2.874,2.875H83.65v1.071a3.981,3.981,0,0,0,3.976,3.976h6.149a3.944,3.944,0,0,0,3.939-3.94v-1.107h2.44a2.857,2.857,0,0,0,2.854-2.854v-5.536a6.025,6.025,0,0,0,4.76-5.883V124a11.484,11.484,0,0,1,3.64-8.331,30.242,30.242,0,0,0,9.427-19.142A1.4,1.4,0,0,0,119.582,95ZM80.146,99.12a20.284,20.284,0,0,1,1.38-7.385l7.759,6.043v7.9l-9.124-5.792C80.152,99.63,80.146,99.375,80.146,99.12Zm21.073,0c0,.244-.005.487-.014.73l-9.127,5.793V97.736L99.826,91.7a20.29,20.29,0,0,1,1.393,7.417Zm-9.14,16.906v-7.075l8.68-5.51a20.029,20.029,0,0,1-8.68,12.585Zm6.516-26.9L92.079,94.2V82.213A20.166,20.166,0,0,1,98.595,89.121Zm-9.309-6.908V94.237L82.753,89.15A20.178,20.178,0,0,1,89.286,82.213ZM80.615,103.48l8.671,5.5v7.041A20.032,20.032,0,0,1,80.615,103.48Zm14.307,39.542a1.148,1.148,0,0,1-1.146,1.146H87.626a1.184,1.184,0,0,1-1.183-1.183v-1.071h8.478Zm5.293-3.962a.06.06,0,0,1-.06.061H81.231a.082.082,0,0,1-.081-.081v-5.383h19.066v5.4Zm4.761-11.42a3.227,3.227,0,0,1-3.224,3.223H79.617a3.231,3.231,0,0,1-3.228-3.228V125.4h28.587Zm0,0" transform="translate(-49.14 -51.629)" fill="#3a3c07"/>
    </g>
  </g>
</svg>
