<svg xmlns="http://www.w3.org/2000/svg" width="105" height="105" viewBox="0 0 105 105">
  <g id="Grupo_61569" data-name="Grupo 61569" transform="translate(-582 -3161)">
    <rect id="Rectángulo_6027" data-name="Rectángulo 6027" width="105" height="105" transform="translate(582 3161)" fill="none"/>
    <g id="infografia" transform="translate(594 3171)">
      <path id="Trazado_111240" data-name="Trazado 111240" d="M7.636,23.009,17.693,7.864a.815.815,0,0,1,.679-.364H68.806a1.63,1.63,0,0,1,1.63,1.63V89.35a1.63,1.63,0,0,1-1.63,1.63H9.13A1.63,1.63,0,0,1,7.5,89.35V23.46A.815.815,0,0,1,7.636,23.009Z" transform="translate(-6.24 -6.24)" fill="#ededed"/>
      <path id="Trazado_111241" data-name="Trazado 111241" d="M355.54,9.13V89.35a1.63,1.63,0,0,1-1.63,1.63h-3.75a1.63,1.63,0,0,0,1.63-1.63V9.13a1.63,1.63,0,0,0-1.63-1.63h3.75A1.63,1.63,0,0,1,355.54,9.13Z" transform="translate(-291.344 -6.24)" fill="#d8d8d8"/>
      <path id="Trazado_111242" data-name="Trazado 111242" d="M7.828,23.648l.08-.12L17.885,8.5a.813.813,0,0,1,.242-.235V22.223a1.63,1.63,0,0,1-1.63,1.63H7.731A.819.819,0,0,1,7.828,23.648Z" transform="translate(-6.432 -6.879)" fill="#c1c1c1"/>
      <path id="Trazado_111243" data-name="Trazado 111243" d="M197.515,382.965H153.492a8.152,8.152,0,0,1-8.152-8.152h0a8.152,8.152,0,0,1,8.152-8.152h44.023a8.152,8.152,0,0,1,8.152,8.152h0A8.152,8.152,0,0,1,197.515,382.965Z" transform="translate(-120.927 -305.073)" fill="#f53737"/>
      <path id="Trazado_111244" data-name="Trazado 111244" d="M193.113,382.965H153.492a8.152,8.152,0,0,1-8.152-8.152h0a8.152,8.152,0,0,1,8.152-8.152h39.621a8.152,8.152,0,0,1,8.152,8.152h0A8.152,8.152,0,0,1,193.113,382.965Z" transform="translate(-120.927 -305.073)" fill="#fe5e47"/>
      <path id="Trazado_111245" data-name="Trazado 111245" d="M180.983,399.042a3.261,3.261,0,1,1-3.261-3.261A3.261,3.261,0,0,1,180.983,399.042Zm7.826-3.261a3.261,3.261,0,1,0,3.261,3.261A3.261,3.261,0,0,0,188.809,395.781Zm11.413,0a3.261,3.261,0,1,0,3.261,3.261A3.261,3.261,0,0,0,200.223,395.781Z" transform="translate(-145.157 -329.302)" fill="#af2b2b"/>
      <path id="Trazado_111246" data-name="Trazado 111246" d="M197.515,247.067H153.492a8.152,8.152,0,0,1-8.152-8.152h0a8.152,8.152,0,0,1,8.152-8.152h44.023a8.152,8.152,0,0,1,8.152,8.152h0A8.152,8.152,0,0,1,197.515,247.067Z" transform="translate(-120.927 -192.001)" fill="#61ae9f"/>
      <path id="Trazado_111247" data-name="Trazado 111247" d="M193.113,247.067H153.492a8.152,8.152,0,0,1-8.152-8.152h0a8.152,8.152,0,0,1,8.152-8.152h39.621a8.152,8.152,0,0,1,8.152,8.152h0A8.152,8.152,0,0,1,193.113,247.067Z" transform="translate(-120.927 -192.001)" fill="#7cc3ac"/>
      <path id="Trazado_111248" data-name="Trazado 111248" d="M180.983,263.144a3.261,3.261,0,1,1-3.261-3.261A3.261,3.261,0,0,1,180.983,263.144Zm7.826-3.261a3.261,3.261,0,1,0,3.261,3.261A3.261,3.261,0,0,0,188.809,259.883Z" transform="translate(-145.157 -216.231)" fill="#4a7273"/>
      <path id="Trazado_111249" data-name="Trazado 111249" d="M197.515,111.169H153.492a8.152,8.152,0,0,1-8.152-8.152h0a8.152,8.152,0,0,1,8.152-8.152h44.023a8.152,8.152,0,0,1,8.152,8.152h0A8.152,8.152,0,0,1,197.515,111.169Z" transform="translate(-120.927 -78.93)" fill="#ff904e"/>
      <path id="Trazado_111250" data-name="Trazado 111250" d="M193.113,111.169H153.492a8.152,8.152,0,0,1-8.152-8.152h0a8.152,8.152,0,0,1,8.152-8.152h39.621a8.152,8.152,0,0,1,8.152,8.152h0A8.152,8.152,0,0,1,193.113,111.169Z" transform="translate(-120.927 -78.93)" fill="#ffb05f"/>
      <path id="Trazado_111251" data-name="Trazado 111251" d="M180.983,127.245a3.261,3.261,0,1,1-3.261-3.261A3.261,3.261,0,0,1,180.983,127.245Zm7.826-3.261a3.261,3.261,0,1,0,3.261,3.261A3.261,3.261,0,0,0,188.809,123.984Zm11.413,0a3.261,3.261,0,1,0,3.261,3.261A3.261,3.261,0,0,0,200.223,123.984Zm11.413,0a3.261,3.261,0,1,0,3.261,3.261A3.261,3.261,0,0,0,211.636,123.984Z" transform="translate(-145.157 -103.159)" fill="#ff733d"/>
      <path id="Trazado_111252" data-name="Trazado 111252" d="M8.152,29.794a1.26,1.26,0,0,1,1.26-1.26H14.3a1.26,1.26,0,0,1,0,2.52H9.412A1.26,1.26,0,0,1,8.152,29.794Zm9.412-5.337H9.412a1.26,1.26,0,0,0,0,2.52h8.152a1.26,1.26,0,0,0,0-2.52ZM9.412,54.451h3.261a1.26,1.26,0,1,0,0-2.52H9.412a1.26,1.26,0,0,0,0,2.52ZM0,71.37V17.22a2.067,2.067,0,0,1,.1-.62h0a2.072,2.072,0,0,1,.25-.526L10.4.927A2.07,2.07,0,0,1,10.983.35a1.237,1.237,0,0,1,.107-.066A2.068,2.068,0,0,1,12.132,0H62.566a2.894,2.894,0,0,1,2.89,2.89v8.424a1.26,1.26,0,1,1-2.52,0V2.89a.371.371,0,0,0-.371-.371H12.955V15.343a2.894,2.894,0,0,1-2.89,2.89H2.52V71.37a1.26,1.26,0,0,1-2.52,0ZM3.609,15.714h6.456a.371.371,0,0,0,.371-.371V5.434ZM18.824,71.941a1.26,1.26,0,0,0-1.26-1.26H9.412a1.26,1.26,0,0,0,0,2.52h8.152A1.26,1.26,0,0,0,18.824,71.941Zm-1.26-24.087H9.412a1.26,1.26,0,0,0,0,2.52h8.152a1.26,1.26,0,0,0,0-2.52Zm-8.152,26.9a1.26,1.26,0,0,0,0,2.52H14.3a1.26,1.26,0,0,0,0-2.52ZM39.132,69.74a4.521,4.521,0,1,1,4.521,4.521A4.526,4.526,0,0,1,39.132,69.74Zm2.52,0a2,2,0,1,0,2-2A2,2,0,0,0,41.651,69.74Zm6.522-22.827a4.521,4.521,0,1,1-4.521-4.521A4.526,4.526,0,0,1,48.173,46.913Zm-2.52,0a2,2,0,1,0-2,2A2,2,0,0,0,45.653,46.913ZM37.086,24.086a4.521,4.521,0,1,1-4.521-4.521A4.526,4.526,0,0,1,37.086,24.086Zm-2.52,0a2,2,0,1,0-2,2A2,2,0,0,0,34.566,24.086Zm2.52,22.827a4.521,4.521,0,1,1-4.521-4.521A4.526,4.526,0,0,1,37.086,46.913Zm-2.52,0a2,2,0,1,0-2,2A2,2,0,0,0,34.566,46.913Zm30.89,9.412v4H76.588a9.412,9.412,0,0,1,0,18.824H65.456V83.11A2.893,2.893,0,0,1,62.566,86H2.89A2.894,2.894,0,0,1,0,83.11V76.262a1.26,1.26,0,0,1,2.52,0V83.11a.371.371,0,0,0,.371.371H62.566a.371.371,0,0,0,.371-.371V79.152H32.565a9.412,9.412,0,1,1,0-18.824H62.936v-4H32.565a9.412,9.412,0,1,1,0-18.824H62.936v-4H32.565a9.412,9.412,0,1,1,0-18.824H76.588a9.412,9.412,0,1,1,0,18.824H65.456v4H76.588a9.412,9.412,0,1,1,0,18.824ZM76.588,30.979a6.893,6.893,0,1,0,0-13.785H32.565a6.893,6.893,0,1,0,0,13.785ZM32.565,62.847a6.893,6.893,0,1,0,0,13.785H76.588a6.893,6.893,0,1,0,0-13.785Zm44.023-9.041a6.893,6.893,0,1,0,0-13.785H32.565a6.893,6.893,0,1,0,0,13.785ZM32.565,65.219a4.521,4.521,0,1,1-4.521,4.521A4.526,4.526,0,0,1,32.565,65.219Zm0,2.52a2,2,0,1,0,2,2A2,2,0,0,0,32.565,67.739ZM48.173,24.086a4.521,4.521,0,1,1-4.521-4.521A4.526,4.526,0,0,1,48.173,24.086Zm-2.52,0a2,2,0,1,0-2,2A2,2,0,0,0,45.653,24.086ZM50.545,69.74a4.521,4.521,0,1,1,4.521,4.521A4.526,4.526,0,0,1,50.545,69.74Zm2.52,0a2,2,0,1,0,2-2A2,2,0,0,0,53.064,69.74Zm6.522-45.653a4.521,4.521,0,1,1-4.521-4.521A4.526,4.526,0,0,1,59.586,24.086Zm-2.52,0a2,2,0,1,0-2,2A2,2,0,0,0,57.067,24.086Zm13.933,0a4.521,4.521,0,1,1-4.521-4.521A4.526,4.526,0,0,1,71,24.086Zm-2.52,0a2,2,0,1,0-2,2A2,2,0,0,0,68.48,24.086Z" fill="#3a3c07"/>
    </g>
  </g>
</svg>
