<svg xmlns="http://www.w3.org/2000/svg" width="399" height="234" viewBox="0 0 399 234">
  <g id="Grupo_68889" data-name="Grupo 68889" transform="translate(-1020 -4731)">
    <rect id="Rectángulo_6140" data-name="Rectángulo 6140" width="399" height="177" rx="10" transform="translate(1020 4788)" fill="#d3e6f6"/>
    <g id="Grupo_68846" data-name="Grupo 68846" transform="translate(-4 4019)">
      <rect id="Rectángulo_6149" data-name="Rectángulo 6149" width="213" height="213" transform="translate(1117 712)" fill="none"/>
      <g id="Grupo_68849" data-name="Grupo 68849" transform="translate(1136.391 725.688)">
        <path id="Trazado_115463" data-name="Trazado 115463" d="M3100.9-38.282s0-9.428-2.946-9.428l-.418-4.724h-20.982c-.067,0-.484,4.724-.484,4.724-2.574,0-2.947,9.428-2.947,9.428Z" transform="translate(-2936.524 223.034)" fill="#fff"/>
        <path id="Trazado_115464" data-name="Trazado 115464" d="M3097.957-46.1h-21.884c-2.574,0-2.947,9.428-2.947,9.428H3100.9S3100.9-46.1,3097.957-46.1Z" transform="translate(-2936.524 221.419)"/>
        <g id="Grupo_68797" data-name="Grupo 68797" transform="translate(79.824 163.26)">
          <path id="Trazado_115465" data-name="Trazado 115465" d="M3034.792-55.335l-4.546,14.73L2998.5-50.4a1,1,0,0,1-.786-1.265c2.519-8.314,14.313-4.371,14.313-4.371l2.667-5.515Z" transform="translate(-2997.123 62.098)" fill="#fff"/>
          <path id="Trazado_115466" data-name="Trazado 115466" d="M3030.06-40.248a.547.547,0,0,1-.161-.024l-31.745-9.8a1.53,1.53,0,0,1-1.146-1.942,7.354,7.354,0,0,1,3.726-4.6c3.9-2.013,9.227-.729,10.822-.271l2.463-5.1a.544.544,0,0,1,.651-.282l20.1,6.219a.544.544,0,0,1,.359.68l-4.546,14.73A.543.543,0,0,1,3030.06-40.248Zm-24.184-16.365a10.173,10.173,0,0,0-4.645.97,6.3,6.3,0,0,0-3.181,3.947c-.111.365.218.525.423.587l31.227,9.638,4.226-13.691-19.132-5.921-2.463,5.094a.543.543,0,0,1-.661.279A20.878,20.878,0,0,0,3005.875-56.613Z" transform="translate(-2996.937 62.284)"/>
        </g>
        <path id="Trazado_115467" data-name="Trazado 115467" d="M3030.245-39.039l-31.744-9.8a1,1,0,0,1-.786-1.265c2.519-8.314,14.313-4.371,14.313-4.371l.168-.347,20.926,6.458Z" transform="translate(-2917.299 223.792)"/>
        <path id="Trazado_115468" data-name="Trazado 115468" d="M3085.213-78.365s-2.155-46.648-2.12-62.208c.015-7.066-.859-18.226-7.233-21.078l-32.734,1.054-29.921,74.586,26.089,8.326,18.571-45.366.16,44.686Z" transform="translate(-2921.258 250.861)"/>
        <path id="Trazado_115469" data-name="Trazado 115469" d="M3039.109-77.327a.557.557,0,0,1-.165-.026l-26.089-8.326a.548.548,0,0,1-.328-.288.549.549,0,0,1-.011-.435l30.284-74.586a.543.543,0,0,1,.486-.339l32.372-1.054a.564.564,0,0,1,.24.047c5.039,2.256,7.581,9.515,7.554,21.576-.034,15.35,2.1,61.637,2.119,62.1a.54.54,0,0,1-.149.4.546.546,0,0,1-.392.169l-27.187.079a.543.543,0,0,1-.545-.542l-.15-41.949-17.534,42.833A.545.545,0,0,1,3039.109-77.327Zm-25.365-9.209,25.052,7.995,18.382-44.9a.544.544,0,0,1,.607-.328.544.544,0,0,1,.44.531l.157,44.143,26.077-.076c-.244-5.367-2.127-47.138-2.095-61.588.024-11.335-2.326-18.428-6.8-20.529l-31.89,1.039Z" transform="translate(-2921.072 251.047)"/>
        <path id="Trazado_115470" data-name="Trazado 115470" d="M3056.594-32.645H2899.76a.543.543,0,0,1-.544-.543.544.544,0,0,1,.544-.544h156.834a.544.544,0,0,1,.544.544A.543.543,0,0,1,3056.594-32.645Z" transform="translate(-2892.215 218.269)"/>
        <path id="Trazado_115471" data-name="Trazado 115471" d="M2940.114-35.321a.515.515,0,0,1-.489-.352l-2.619-7.775a.516.516,0,0,1,.325-.654.515.515,0,0,1,.653.324L2940.6-36a.515.515,0,0,1-.324.653A.506.506,0,0,1,2940.114-35.321Z" transform="translate(-2901.836 220.918)"/>
        <path id="Trazado_115472" data-name="Trazado 115472" d="M2957.6-36.923a.531.531,0,0,1-.131-.017.516.516,0,0,1-.368-.63l2.9-11.076a.517.517,0,0,1,.63-.369.517.517,0,0,1,.369.63l-2.9,11.077A.516.516,0,0,1,2957.6-36.923Z" transform="translate(-2906.958 222.167)"/>
        <path id="Trazado_115473" data-name="Trazado 115473" d="M3071.976-117.47a.543.543,0,0,1-.542-.525l-.958-27.734a.543.543,0,0,1,.524-.562.547.547,0,0,1,.562.525l.958,27.733a.545.545,0,0,1-.525.563Z" transform="translate(-2935.849 246.947)" fill="#fff"/>
        <g id="Grupo_68798" data-name="Grupo 68798">
          <rect id="Rectángulo_6151" data-name="Rectángulo 6151" width="60.957" height="60.957" transform="translate(61.501 60.957)" fill="#ffb743"/>
          <path id="Trazado_115474" data-name="Trazado 115474" d="M3033.305-281.361h-60.958V-220.4h26.125a10.686,10.686,0,0,0-6.061,9.636,10.685,10.685,0,0,0,10.685,10.686,10.685,10.685,0,0,0,10.686-10.686,10.686,10.686,0,0,0-6.062-9.636h25.585Z" transform="translate(-2910.847 281.361)" fill="#fd5f2f"/>
          <path id="Trazado_115475" data-name="Trazado 115475" d="M2961.143-179.771a10.687,10.687,0,0,0-9.636,6.062v-25.854h-60.956v60.956h60.956v-25.855a10.686,10.686,0,0,0,9.636,6.062,10.685,10.685,0,0,0,10.686-10.686A10.686,10.686,0,0,0,2961.143-179.771Z" transform="translate(-2890.007 260.52)" fill="#fff"/>
          <path id="Trazado_115476" data-name="Trazado 115476" d="M2951.322-138.249h-60.958a.543.543,0,0,1-.542-.544v-60.956a.543.543,0,0,1,.542-.544h60.958a.543.543,0,0,1,.542.544v23.891a11.308,11.308,0,0,1,9.094-4.642,11.241,11.241,0,0,1,11.229,11.229,11.242,11.242,0,0,1-11.229,11.23,11.309,11.309,0,0,1-9.094-4.642v23.891A.543.543,0,0,1,2951.322-138.249Zm-60.414-1.087h59.869v-25.311a.545.545,0,0,1,.423-.53.543.543,0,0,1,.61.294,10.205,10.205,0,0,0,9.147,5.754,10.153,10.153,0,0,0,10.142-10.142,10.153,10.153,0,0,0-10.142-10.142,10.2,10.2,0,0,0-9.147,5.754.542.542,0,0,1-.61.294.545.545,0,0,1-.423-.53v-25.311h-59.869Z" transform="translate(-2889.821 260.706)"/>
          <path id="Trazado_115477" data-name="Trazado 115477" d="M2961.143-261.568a10.687,10.687,0,0,0-9.636,6.062v-25.855h-60.956V-220.4H2916.4a10.686,10.686,0,0,0-6.061,9.636,10.685,10.685,0,0,0,10.686,10.686,10.685,10.685,0,0,0,10.686-10.686,10.685,10.685,0,0,0-6.062-9.636h25.854v-25.855a10.687,10.687,0,0,0,9.636,6.062,10.686,10.686,0,0,0,10.686-10.686A10.686,10.686,0,0,0,2961.143-261.568Z" transform="translate(-2890.007 281.361)"/>
        </g>
        <path id="Trazado_115478" data-name="Trazado 115478" d="M3048.2-199.5l.326-21.187c5.255-3.564,16.971-3.086,16.971-3.086l11.564.126c14.23,3.111,18.456,13.838,21.638,30.358,3.058,15.869.933,25.106-12.3,28.368-11.609,2.862-25.856-3.154-37.834-10.4a87.1,87.1,0,0,1-15.759-12.6l10.662-15.133Z" transform="translate(-2926.254 266.693)" fill="#fff"/>
        <path id="Trazado_115479" data-name="Trazado 115479" d="M3081.274-218.4c-.255,0-.511-.006-.768-.016a14.261,14.261,0,0,1-10.2-5.108.544.544,0,0,1,.052-.767.544.544,0,0,1,.768.052,13.2,13.2,0,0,0,9.426,4.736,16.009,16.009,0,0,0,10.381-3.25.544.544,0,0,1,.76.116.544.544,0,0,1-.116.76A17.1,17.1,0,0,1,3081.274-218.4Z" transform="translate(-2935.772 266.854)"/>
        <g id="Grupo_68800" data-name="Grupo 68800" transform="translate(7.327 107.108)">
          <g id="Grupo_68799" data-name="Grupo 68799">
            <path id="Trazado_115480" data-name="Trazado 115480" d="M2907.477-129.267a.539.539,0,0,1-.384-.159l-7.281-7.28a.544.544,0,0,1,0-.769.545.545,0,0,1,.769,0l7.28,7.281a.543.543,0,0,1,0,.768A.54.54,0,0,1,2907.477-129.267Z" transform="translate(-2899.653 137.634)"/>
            <path id="Trazado_115481" data-name="Trazado 115481" d="M2900.2-129.267a.539.539,0,0,1-.384-.159.543.543,0,0,1,0-.768l7.281-7.281a.545.545,0,0,1,.769,0,.544.544,0,0,1,0,.769l-7.28,7.28A.541.541,0,0,1,2900.2-129.267Z" transform="translate(-2899.653 137.634)"/>
          </g>
        </g>
        <path id="Trazado_115482" data-name="Trazado 115482" d="M3079.911-163.83c-8.817,0-19.477-3.754-31.8-11.213a88.471,88.471,0,0,1-15.871-12.693.544.544,0,0,1-.052-.689l10.663-15.133a.54.54,0,0,1,.36-.224.544.544,0,0,1,.411.1l3.873,2.917.31-20.118a.541.541,0,0,1,.238-.441c5.342-3.623,16.812-3.2,17.3-3.179l11.548.125c7.043,1.528,11.906,4.83,15.416,10.4,3.582,5.689,5.423,13.5,6.751,20.394,1.666,8.644,1.644,14.748-.067,19.209-1.9,4.96-6.034,8.162-12.633,9.789A26.844,26.844,0,0,1,3079.911-163.83Zm-46.576-24.338a87.315,87.315,0,0,0,15.336,12.2c15.243,9.224,27.835,12.7,37.422,10.339,11.841-2.92,15.176-10.7,11.893-27.737-3.3-17.1-7.648-26.938-21.167-29.917l-11.509-.125c-.129-.006-11.269-.417-16.426,2.839l-.322,20.9a.544.544,0,0,1-.3.48.546.546,0,0,1-.567-.054l-4.278-3.222Z" transform="translate(-2926.068 266.88)"/>
        <path id="Trazado_115483" data-name="Trazado 115483" d="M3071.832-246.847a10.466,10.466,0,0,0,10.466,10.466,10.466,10.466,0,0,0,10.466-10.466,10.466,10.466,0,0,0-10.466-10.466A10.466,10.466,0,0,0,3071.832-246.847Z" transform="translate(-2936.194 275.234)"/>
        <path id="Trazado_115484" data-name="Trazado 115484" d="M3086.55-229.373v-7.043c-5.246-.953-3.94-5.351-3.94-5.351-1.461-1.168-.817-4.147-.365-5.664a.815.815,0,0,0-.646-1.037c-4.43-.741-8.038-3.831-9.055-.293-.222.772-.262.888-.515,1.85-1.9,7.256-4.4,12.926,2.956,13.414l-.009,3.95Z" transform="translate(-2935.737 273.479)" fill="#fff"/>
        <path id="Trazado_115485" data-name="Trazado 115485" d="M3074.792-229.344a.544.544,0,0,1-.543-.545l.007-3.45c-2.014-.212-3.378-.854-4.16-1.957-1.522-2.147-.543-5.679.592-9.77.209-.752.425-1.528.633-2.324.2-.78.27-1.008.4-1.471l.114-.392c.1-.338.645-2.007,1.534-2.451a.544.544,0,0,1,.729.243.544.544,0,0,1-.243.73,3.86,3.86,0,0,0-.978,1.786l-.112.387c-.132.454-.2.679-.4,1.443-.209.8-.426,1.582-.636,2.339-1.061,3.823-1.976,7.125-.753,8.85.645.91,1.906,1.415,3.854,1.544a.544.544,0,0,1,.507.544l-.008,3.95A.544.544,0,0,1,3074.792-229.344Z" transform="translate(-2935.553 273.819)"/>
        <path id="Trazado_115486" data-name="Trazado 115486" d="M3092.009-224.788a.544.544,0,0,1-.544-.544v-6.48a.543.543,0,0,1,.544-.543.543.543,0,0,1,.543.543v6.48A.544.544,0,0,1,3092.009-224.788Z" transform="translate(-2941.197 268.875)"/>
        <path id="Trazado_115487" data-name="Trazado 115487" d="M3074.432-238.229a.564.564,0,0,1-.14-.018.543.543,0,0,1-.386-.665l1.076-4.06a.544.544,0,0,1,.665-.386.544.544,0,0,1,.386.665l-1.076,4.06A.545.545,0,0,1,3074.432-238.229Z" transform="translate(-2936.718 271.683)"/>
        <path id="Trazado_115488" data-name="Trazado 115488" d="M3074.072-241.87a.615.615,0,0,1-.7.522.615.615,0,0,1-.521-.7.615.615,0,0,1,.7-.522A.615.615,0,0,1,3074.072-241.87Z" transform="translate(-2936.454 271.478)"/>
        <g id="Grupo_68801" data-name="Grupo 68801" transform="translate(144.758 29.521)">
          <path id="Trazado_115489" data-name="Trazado 115489" d="M3088.978-237.748a2.642,2.642,0,0,1-3.623.91,2.642,2.642,0,0,1-.909-3.623,2.641,2.641,0,0,1,3.623-.91A2.641,2.641,0,0,1,3088.978-237.748Z" transform="translate(-3084.07 241.747)" fill="#fff"/>
          <path id="Trazado_115490" data-name="Trazado 115490" d="M3086.544-237.86a.542.542,0,0,1-.5-.326.543.543,0,0,1,.281-.715l1.525-.665a.544.544,0,0,1,.715.282.544.544,0,0,1-.281.715l-1.525.665A.535.535,0,0,1,3086.544-237.86Z" transform="translate(-3084.562 241.203)"/>
        </g>
        <path id="Trazado_115491" data-name="Trazado 115491" d="M3080.711-240.927a.612.612,0,0,1-.692.519.611.611,0,0,1-.519-.692.611.611,0,0,1,.692-.519A.612.612,0,0,1,3080.711-240.927Z" transform="translate(-2938.146 271.237)"/>
        <path id="Trazado_115492" data-name="Trazado 115492" d="M3058.787-243.34c-.256-4.319-3.158-15.109-3.7-17.5-.718-3.15-5.309-3.664-4.6,1.68.542,4.1,1.132,7.951,1.132,7.951-.255-.715-.51-1.431-.769-2.146a5.506,5.506,0,0,0-2.271-3.259c-2.59-1.385-4.11,1.206-3.8,3.517.274,2.033,1.349,3.824,1.864,5.789.566,2.155-.08,4.3.185,6.48a12.464,12.464,0,0,0,4.454,8.059c-.011.035.175,9.535.175,9.535a23.459,23.459,0,0,0,5.178-8.092A30.072,30.072,0,0,0,3058.787-243.34Z" transform="translate(-2929.29 276.734)" fill="#fff"/>
        <path id="Trazado_115493" data-name="Trazado 115493" d="M3051.265-222.877a.556.556,0,0,1-.209-.042.543.543,0,0,1-.334-.492c-.127-6.461-.168-8.567-.17-9.29a13.011,13.011,0,0,1-4.456-8.249,16.081,16.081,0,0,1-.008-2.89,11.064,11.064,0,0,0-.162-3.518,20.467,20.467,0,0,0-.807-2.309,15.237,15.237,0,0,1-1.07-3.544,4.276,4.276,0,0,1,1.477-4.06,2.884,2.884,0,0,1,3.116-.009,4.289,4.289,0,0,1,1.6,1.538c-.155-1.093-.322-2.3-.485-3.533-.4-3.052.829-4.386,2.115-4.617a3.306,3.306,0,0,1,3.557,2.744c.107.475.312,1.291.57,2.324,1.027,4.111,2.939,11.764,3.146,15.267a30.443,30.443,0,0,1-2.189,12.228,23.79,23.79,0,0,1-5.312,8.3A.546.546,0,0,1,3051.265-222.877Zm.368-10.056c0,.3.092,5.16.15,8.154a22.864,22.864,0,0,0,4.148-6.919,29.467,29.467,0,0,0,2.128-11.8c-.2-3.4-2.1-10.99-3.117-15.067-.259-1.039-.464-1.859-.575-2.345a2.246,2.246,0,0,0-2.3-1.916c-1.012.182-1.483,1.487-1.23,3.4.535,4.044,1.124,7.9,1.13,7.94a.544.544,0,0,1-.4.609.543.543,0,0,1-.646-.344c-.261-.734-.513-1.439-.767-2.143a5.044,5.044,0,0,0-2.017-2.965,1.81,1.81,0,0,0-1.982-.056,3.272,3.272,0,0,0-1.02,3.021,14.222,14.222,0,0,0,1,3.291,21.662,21.662,0,0,1,.847,2.432,12.092,12.092,0,0,1,.2,3.857,14.942,14.942,0,0,0,0,2.7,11.939,11.939,0,0,0,4.263,7.708A.546.546,0,0,1,3051.633-232.933Z" transform="translate(-2929.104 276.92)"/>
        <path id="Trazado_115494" data-name="Trazado 115494" d="M3055.727-242.053a.544.544,0,0,1-.5-.335l-1.948-4.7a.544.544,0,0,1,.294-.711.544.544,0,0,1,.71.294l1.949,4.7a.545.545,0,0,1-.294.711A.534.534,0,0,1,3055.727-242.053Z" transform="translate(-2931.456 272.82)"/>
        <path id="Trazado_115495" data-name="Trazado 115495" d="M3077.459-227.338a9.957,9.957,0,0,1-1.029-.042.543.543,0,0,1-.479-.6.542.542,0,0,1,.6-.48,29.6,29.6,0,0,0,3.556-.075.543.543,0,0,1,.583.5.543.543,0,0,1-.5.583C3080.108-227.446,3078.65-227.338,3077.459-227.338Z" transform="translate(-2937.243 267.903)"/>
        <path id="Trazado_115496" data-name="Trazado 115496" d="M3076.921-224.637a2.206,2.206,0,0,0,3.231-.634,3.785,3.785,0,0,0,.57-2.537l-4.044.073Z" transform="translate(-2937.429 267.717)"/>
        <path id="Trazado_115497" data-name="Trazado 115497" d="M3075.154-234.914a.544.544,0,0,1-.519-.38.542.542,0,0,1,.354-.682,2.989,2.989,0,0,0,.978-.847.544.544,0,0,1,.763-.089.543.543,0,0,1,.09.763,3.912,3.912,0,0,1-1.5,1.209A.524.524,0,0,1,3075.154-234.914Z" transform="translate(-2936.903 270.066)"/>
        <path id="Trazado_115498" data-name="Trazado 115498" d="M3079.751-255.8a4.671,4.671,0,0,1-4.671,4.671,4.672,4.672,0,0,1-4.672-4.671,4.672,4.672,0,0,1,4.672-4.672A4.671,4.671,0,0,1,3079.751-255.8Z" transform="translate(-2935.832 276.039)"/>
        <path id="Trazado_115499" data-name="Trazado 115499" d="M3073.085-250.773a5.221,5.221,0,0,1-5.215-5.215,5.221,5.221,0,0,1,5.215-5.215,5.221,5.221,0,0,1,5.215,5.215A5.221,5.221,0,0,1,3073.085-250.773Zm0-9.343a4.133,4.133,0,0,0-4.128,4.128,4.133,4.133,0,0,0,4.128,4.128,4.132,4.132,0,0,0,4.128-4.128A4.132,4.132,0,0,0,3073.085-260.116Z" transform="translate(-2935.185 276.225)"/>
        <path id="Trazado_115500" data-name="Trazado 115500" d="M3089.8-252.023a4.672,4.672,0,0,1-4.671,4.672,4.672,4.672,0,0,1-4.672-4.672,4.672,4.672,0,0,1,4.672-4.671A4.671,4.671,0,0,1,3089.8-252.023Z" transform="translate(-2938.393 275.076)"/>
        <path id="Trazado_115501" data-name="Trazado 115501" d="M3086.02-261.152a4.672,4.672,0,0,1-4.671,4.672,4.671,4.671,0,0,1-4.671-4.672,4.671,4.671,0,0,1,4.671-4.671A4.671,4.671,0,0,1,3086.02-261.152Z" transform="translate(-2937.429 277.402)"/>
        <circle id="Elipse_7940" data-name="Elipse 7940" cx="4.671" cy="4.671" r="4.671" transform="translate(146.141 13.467)"/>
        <path id="Trazado_115502" data-name="Trazado 115502" d="M3101.538-250.209a4.671,4.671,0,0,1-4.672,4.671,4.671,4.671,0,0,1-4.671-4.671,4.671,4.671,0,0,1,4.671-4.672A4.672,4.672,0,0,1,3101.538-250.209Z" transform="translate(-2941.383 274.614)"/>
        <path id="Trazado_115503" data-name="Trazado 115503" d="M3094.76-182.346a.542.542,0,0,1-.384-.159c-.067-.066-6.756-6.615-15.393-4.106-9.493,2.757-19.9-.181-26.008-4.316a.545.545,0,0,1-.146-.755.545.545,0,0,1,.756-.145c5.893,3.993,15.937,6.831,25.1,4.172,9.264-2.69,16.393,4.311,16.464,4.382a.544.544,0,0,1,0,.768A.542.542,0,0,1,3094.76-182.346Z" transform="translate(-2931.329 258.573)"/>
        <path id="Trazado_115504" data-name="Trazado 115504" d="M3086.022-189.384a.544.544,0,0,1-.54-.481l-1.525-13.233a.544.544,0,0,1,.478-.6.544.544,0,0,1,.6.478l1.524,13.234a.542.542,0,0,1-.478.6A.588.588,0,0,1,3086.022-189.384Z" transform="translate(-2939.283 261.575)"/>
        <path id="Trazado_115505" data-name="Trazado 115505" d="M3100.717-37.924h-27.778a.545.545,0,0,1-.392-.167.547.547,0,0,1-.151-.4c.062-1.562.487-8.978,2.985-9.864l.381-4.316a.544.544,0,0,1,.541-.5h21.048a.543.543,0,0,1,.542.5l.38,4.3c2.837.8,2.988,8.327,2.988,9.9A.544.544,0,0,1,3100.717-37.924Zm-27.208-1.087h26.659c-.07-3.635-.822-8.34-2.4-8.34a.543.543,0,0,1-.542-.5l-.374-4.228H3076.8l-.374,4.228a.544.544,0,0,1-.542.5C3074.675-47.352,3073.737-43.126,3073.509-39.012Z" transform="translate(-2936.338 223.22)"/>
        <path id="Trazado_115506" data-name="Trazado 115506" d="M3037.125-200.892l-7.119-5.717s-2.656-12-6.716-10.5-1.425,7.029-1.425,7.029-4.366-2.663-6.259-3.555-3.917-1.947-5.342-.362a2.058,2.058,0,0,0,.327,3.4s-2.681-.709-3.817.959,1.4,3.359,1.4,3.359-2.2-.332-2.567,1.57,8.124,7.685,8.124,7.685-5.2-.256-6.377-.18a1.854,1.854,0,0,0-1.877,1.827c-.112,1.057.144,2.1,4.578,2.465s8.84,1.22,8.84,1.22l7.015,5.256a9.148,9.148,0,0,0,12.623-1.6A9.147,9.147,0,0,0,3037.125-200.892Z" transform="translate(-2919.284 265.024)" fill="#fff"/>
        <path id="Trazado_115507" data-name="Trazado 115507" d="M3031.221-184.239a9.678,9.678,0,0,1-5.82-1.952l-6.913-5.181c-.739-.139-4.713-.864-8.66-1.189-2.577-.212-4.019-.66-4.674-1.45a2.059,2.059,0,0,1-.4-1.613,2.4,2.4,0,0,1,2.384-2.314c.736-.047,2.944.028,4.572.1-2.748-1.982-7.144-5.454-6.819-7.159a2.35,2.35,0,0,1,1.772-1.915,3.447,3.447,0,0,1-.867-1.587,2.1,2.1,0,0,1,.346-1.632,3.407,3.407,0,0,1,2.894-1.347,2.46,2.46,0,0,1-.2-.611,2.836,2.836,0,0,1,.838-2.456c1.639-1.824,3.919-.743,5.751.125l.227.108c1.258.593,3.544,1.928,4.993,2.791a6.645,6.645,0,0,1-.021-4.152,3.738,3.738,0,0,1,2.292-2.13,2.54,2.54,0,0,1,2.174.183c3.025,1.653,4.907,9.2,5.218,10.523l6.972,5.6a9.7,9.7,0,0,1,1.494,13.618A9.66,9.66,0,0,1,3031.221-184.239Zm-23.409-12.627c-.254,0-.463,0-.606.013a1.32,1.32,0,0,0-1.372,1.343.981.981,0,0,0,.156.806c.435.525,1.756.882,3.926,1.06,4.413.363,8.855,1.22,8.9,1.229a.544.544,0,0,1,.223.1l7.014,5.256a8.568,8.568,0,0,0,11.873-1.5,8.614,8.614,0,0,0-1.326-12.09l-7.119-5.717a.542.542,0,0,1-.19-.306c-.52-2.346-2.382-8.715-4.721-9.992a1.471,1.471,0,0,0-1.276-.117,2.66,2.66,0,0,0-1.66,1.517c-.788,1.929.525,4.74.538,4.767a.543.543,0,0,1-.128.637.543.543,0,0,1-.646.061c-.043-.027-4.363-2.658-6.208-3.529l-.229-.108c-2.041-.968-3.455-1.517-4.476-.382a1.82,1.82,0,0,0-.577,1.534,1.506,1.506,0,0,0,.75,1.017.545.545,0,0,1,.258.679.545.545,0,0,1-.647.329c-.022-.005-2.325-.587-3.228.739a1.018,1.018,0,0,0-.177.812,3.568,3.568,0,0,0,1.431,1.789.543.543,0,0,1,.2.648.543.543,0,0,1-.588.341c-.171-.025-1.7-.2-1.952,1.135-.161.841,3.456,4.108,7.9,7.133a.544.544,0,0,1,.208.622.538.538,0,0,1-.542.37C3013.476-196.673,3009.558-196.866,3007.812-196.866Z" transform="translate(-2919.098 265.21)"/>
        <g id="Grupo_68803" data-name="Grupo 68803" transform="translate(88.349 53.879)">
          <g id="Grupo_68802" data-name="Grupo 68802">
            <path id="Trazado_115508" data-name="Trazado 115508" d="M3022.517-201.6a.541.541,0,0,1-.284-.08l-10.356-6.37a.543.543,0,0,1-.178-.748.543.543,0,0,1,.747-.178l10.356,6.37a.544.544,0,0,1,.178.748A.543.543,0,0,1,3022.517-201.6Z" transform="translate(-3009.202 209.061)"/>
            <path id="Trazado_115509" data-name="Trazado 115509" d="M3029.968-205.591a.542.542,0,0,1-.29-.083l-3.321-2.09a.543.543,0,0,1-.171-.75.544.544,0,0,1,.75-.171l3.321,2.09a.544.544,0,0,1,.171.75A.542.542,0,0,1,3029.968-205.591Z" transform="translate(-3012.892 208.986)"/>
            <path id="Trazado_115510" data-name="Trazado 115510" d="M3018.61-195.869a.543.543,0,0,1-.3-.088l-9.691-6.311a.543.543,0,0,1-.159-.752.544.544,0,0,1,.752-.16l9.691,6.311a.543.543,0,0,1,.159.752A.543.543,0,0,1,3018.61-195.869Z" transform="translate(-3008.376 207.585)"/>
            <path id="Trazado_115511" data-name="Trazado 115511" d="M3017.7-189.226a.541.541,0,0,1-.2-.039l-1.2-.484a.543.543,0,0,1-.3-.707.543.543,0,0,1,.708-.3l1.2.484a.543.543,0,0,1,.3.707A.545.545,0,0,1,3017.7-189.226Z" transform="translate(-3010.307 204.408)"/>
          </g>
        </g>
      </g>
    </g>
  </g>
</svg>
