<svg xmlns="http://www.w3.org/2000/svg" width="167" height="167" viewBox="0 0 167 167">
  <g id="Grupo_68921" data-name="Grupo 68921" transform="translate(-249 -3467)">
    <rect id="Rectángulo_6159" data-name="Rectángulo 6159" width="167" height="167" transform="translate(249 3467)" fill="none"/>
    <g id="eco" transform="translate(257.06 3445.327)">
      <g id="Grupo_68916" data-name="Grupo 68916" transform="translate(0 44.366)">
        <g id="Grupo_68915" data-name="Grupo 68915" transform="translate(0 0)">
          <g id="Grupo_68888" data-name="Grupo 68888" transform="translate(75.467 105.999)">
            <path id="Trazado_115891" data-name="Trazado 115891" d="M262.527,424.97h-6.436v-6.436a9.179,9.179,0,0,1,9.179-9.179h6.436v6.436A9.179,9.179,0,0,1,262.527,424.97Z" transform="translate(-256.091 -409.355)" fill="#9ce3bf"/>
          </g>
          <g id="Grupo_68889" data-name="Grupo 68889" transform="translate(75.467 106.427)">
            <path id="Trazado_115892" data-name="Trazado 115892" d="M268.5,420.016h-6.436V413.58a9.177,9.177,0,0,1,.428-2.774,9.183,9.183,0,0,0-6.405,8.752v6.436h6.436a9.182,9.182,0,0,0,8.752-6.405A9.168,9.168,0,0,1,268.5,420.016Z" transform="translate(-256.09 -410.806)" fill="#52cd8d"/>
          </g>
          <g id="Grupo_68890" data-name="Grupo 68890" transform="translate(0 61.885)">
            <path id="Trazado_115893" data-name="Trazado 115893" d="M0,259.656H150.881v35.363H0Z" transform="translate(0 -259.656)" fill="#c4e5f9"/>
          </g>
          <g id="Grupo_68891" data-name="Grupo 68891" transform="translate(0 61.885)">
            <path id="Trazado_115894" data-name="Trazado 115894" d="M4.117,288.35V259.656H0v35.363H150.881V288.35Z" transform="translate(0 -259.656)" fill="#a4d7f5"/>
          </g>
          <g id="Grupo_68892" data-name="Grupo 68892" transform="translate(31.237)">
            <path id="Trazado_115895" data-name="Trazado 115895" d="M150.2,49.656a44.2,44.2,0,0,0-44.2,44.2v17.71h88.407V93.859a44.2,44.2,0,0,0-44.2-44.2Z" transform="translate(-106 -49.656)" fill="#f8e868"/>
          </g>
          <g id="Grupo_68893" data-name="Grupo 68893" transform="translate(31.237 9.997)">
            <path id="Trazado_115896" data-name="Trazado 115896" d="M112.546,128.868v-17.71a44.012,44.012,0,0,1,9.661-27.58A44.114,44.114,0,0,0,106,117.786V135.5h88.407v-6.627Z" transform="translate(-106 -83.579)" fill="#dec80e"/>
          </g>
          <g id="Grupo_68894" data-name="Grupo 68894" transform="translate(110.287 1.595)">
            <path id="Trazado_115897" data-name="Trazado 115897" d="M392.191,61.438l-6.371-6.371c-4.36,4.493-10.2,9.033-11.569,15.412a44.109,44.109,0,0,1,9.356,27.816l8.584-8.584A19.992,19.992,0,0,0,392.191,61.438Z" transform="translate(-374.251 -55.067)" fill="#9ce3bf"/>
          </g>
          <g id="Grupo_68895" data-name="Grupo 68895" transform="translate(110.287 10.487)">
            <path id="Trazado_115898" data-name="Trazado 115898" d="M396.462,89.057c-.052,6.957-3.326,11.916-8.533,16.636a49.853,49.853,0,0,0-10.545-20.45c-.665.9-1.766,2.8-1.766,2.8a15.026,15.026,0,0,0-1.367,3.722,44.208,44.208,0,0,1,9.356,27.816l8.584-8.584A20,20,0,0,0,396.462,89.057Z" transform="translate(-374.25 -85.243)" fill="#52cd8d"/>
          </g>
          <g id="Grupo_68896" data-name="Grupo 68896" transform="translate(16.711 1.595)">
            <path id="Trazado_115899" data-name="Trazado 115899" d="M62.564,61.438l6.371-6.371c4.36,4.493,10.2,9.033,11.569,15.412a44.108,44.108,0,0,0-9.356,27.816l-8.584-8.584a19.992,19.992,0,0,1,0-28.273Z" transform="translate(-56.708 -55.067)" fill="#9ce3bf"/>
          </g>
          <g id="Grupo_68897" data-name="Grupo 68897" transform="translate(16.712 1.594)">
            <path id="Trazado_115900" data-name="Trazado 115900" d="M71.9,89.528l-3.881-3.881a19.992,19.992,0,0,1,0-28.273l1.607-1.607c-.234-.234-.465-.468-.692-.7l-6.371,6.371a19.992,19.992,0,0,0,0,28.273l8.584,8.584A44.3,44.3,0,0,1,71.9,89.528Z" transform="translate(-56.709 -55.066)" fill="#52cd8d"/>
          </g>
          <g id="Grupo_68898" data-name="Grupo 68898" transform="translate(40.078 8.841)">
            <path id="Trazado_115901" data-name="Trazado 115901" d="M196.92,90.754a35.613,35.613,0,0,0-25.722-11.1A35.367,35.367,0,0,0,136,115.019v17.71h70.56v-17.71a35.239,35.239,0,0,0-9.64-24.264Z" transform="translate(-136 -79.656)" fill="#9ce3bf"/>
          </g>
          <g id="Grupo_68899" data-name="Grupo 68899" transform="translate(40.078 8.841)">
            <path id="Trazado_115902" data-name="Trazado 115902" d="M142.007,126.047V115.019A35.4,35.4,0,0,1,174.2,79.783c-.974-.083-1.975-.127-3-.127A35.367,35.367,0,0,0,136,115.019v17.71h70.56v-6.681Z" transform="translate(-136 -79.656)" fill="#52cd8d"/>
          </g>
          <g id="Grupo_68900" data-name="Grupo 68900" transform="translate(119.644 32.911)">
            <path id="Trazado_115903" data-name="Trazado 115903" d="M435,161.337h-9.01A19.992,19.992,0,0,0,406,181.329v9.01h9.01A19.992,19.992,0,0,0,435,170.347Z" transform="translate(-406 -161.337)" fill="#9ce3bf"/>
          </g>
          <g id="Grupo_68901" data-name="Grupo 68901" transform="translate(119.643 36.076)">
            <path id="Trazado_115904" data-name="Trazado 115904" d="M421.047,191.877h-9.01v-9.01a19.892,19.892,0,0,1,3.165-10.789A19.971,19.971,0,0,0,406,188.9v9.01h9.01a19.971,19.971,0,0,0,16.827-9.2,19.89,19.89,0,0,1-10.789,3.165Z" transform="translate(-405.999 -172.078)" fill="#52cd8d"/>
          </g>
          <g id="Grupo_68902" data-name="Grupo 68902" transform="translate(2.21 32.911)">
            <path id="Trazado_115905" data-name="Trazado 115905" d="M7.5,161.337h9.01A19.992,19.992,0,0,1,36.5,181.329v9.01h-9.01A19.992,19.992,0,0,1,7.5,170.347v-9.01Z" transform="translate(-7.501 -161.337)" fill="#9ce3bf"/>
          </g>
          <g id="Grupo_68903" data-name="Grupo 68903" transform="translate(2.21 32.911)">
            <path id="Trazado_115906" data-name="Trazado 115906" d="M27.943,183.92A14.023,14.023,0,0,1,13.92,169.9v-8.56H7.5v9.01a19.992,19.992,0,0,0,19.992,19.992H36.5V183.92Z" transform="translate(-7.501 -161.337)" fill="#52cd8d"/>
          </g>
          <g id="Grupo_68904" data-name="Grupo 68904" transform="translate(134.908 40.386)">
            <path id="Trazado_115907" data-name="Trazado 115907" d="M0,0H4.42V4.42H0Z" transform="translate(0 3.125) rotate(-45)" fill="#fff"/>
          </g>
          <g id="Grupo_68905" data-name="Grupo 68905" transform="translate(9.767 40.374)">
            <path id="Trazado_115908" data-name="Trazado 115908" d="M0,0H4.42V4.42H0Z" transform="translate(0 3.125) rotate(-45)" fill="#fff"/>
          </g>
          <g id="Grupo_68906" data-name="Grupo 68906" transform="translate(59.825 105.999)">
            <path id="Trazado_115909" data-name="Trazado 115909" d="M212.19,424.97h6.436v-6.436a9.179,9.179,0,0,0-9.179-9.179h-6.436v6.436A9.179,9.179,0,0,0,212.19,424.97Z" transform="translate(-203.011 -409.355)" fill="#9ce3bf"/>
          </g>
          <g id="Grupo_68907" data-name="Grupo 68907" transform="translate(59.825 105.999)">
            <path id="Trazado_115910" data-name="Trazado 115910" d="M212.871,419.431a4.322,4.322,0,0,1-4.322-4.322v-5.755H203.01v6.436a9.179,9.179,0,0,0,9.179,9.179h6.436V419.43h-5.755Z" transform="translate(-203.01 -409.354)" fill="#52cd8d"/>
          </g>
          <g id="Grupo_68908" data-name="Grupo 68908" transform="translate(97.542 110.426)">
            <path id="Trazado_115911" data-name="Trazado 115911" d="M331,424.378h4.42v4.42H331Z" transform="translate(-331 -424.378)" fill="#c4e5f9"/>
          </g>
          <g id="Grupo_68909" data-name="Grupo 68909" transform="translate(106.383 110.426)">
            <path id="Trazado_115912" data-name="Trazado 115912" d="M361,424.378h4.42v4.42H361Z" transform="translate(-361 -424.378)" fill="#c4e5f9"/>
          </g>
          <g id="Grupo_68910" data-name="Grupo 68910" transform="translate(40.078 110.426)">
            <path id="Trazado_115913" data-name="Trazado 115913" d="M136,424.378h4.42v4.42H136Z" transform="translate(-136 -424.378)" fill="#c4e5f9"/>
          </g>
          <g id="Grupo_68911" data-name="Grupo 68911" transform="translate(48.918 110.426)">
            <path id="Trazado_115914" data-name="Trazado 115914" d="M166,424.378h4.42v4.42H166Z" transform="translate(-166 -424.378)" fill="#c4e5f9"/>
          </g>
          <g id="Grupo_68912" data-name="Grupo 68912" transform="translate(73.23 19.81)">
            <path id="Trazado_115915" data-name="Trazado 115915" d="M248.5,116.878h4.42v4.42H248.5Z" transform="translate(-248.5 -116.878)" fill="#fff"/>
          </g>
          <g id="Grupo_68913" data-name="Grupo 68913" transform="translate(82.071 19.81)">
            <path id="Trazado_115916" data-name="Trazado 115916" d="M278.5,116.878h4.42v4.42H278.5Z" transform="translate(-278.5 -116.878)" fill="#fff"/>
          </g>
          <g id="Grupo_68914" data-name="Grupo 68914" transform="translate(64.389 19.81)">
            <path id="Trazado_115917" data-name="Trazado 115917" d="M218.5,116.878h4.42v4.42H218.5Z" transform="translate(-218.5 -116.878)" fill="#fff"/>
          </g>
        </g>
      </g>
      <g id="Grupo_68917" data-name="Grupo 68917" transform="translate(0 42.156)">
        <path id="Trazado_115918" data-name="Trazado 115918" d="M166,184.271h13.264v-4.42H170.42V175.44h4.424v-4.42H170.42v-4.411h8.844v-4.42H166Z" transform="translate(-117.082 -126.816)" fill="#3a3c07"/>
        <path id="Trazado_115919" data-name="Trazado 115919" d="M229.536,179.811a6.649,6.649,0,1,1-.012-13.3h4.429v-4.42h-4.429A11.07,11.07,0,0,0,221.7,181a10.945,10.945,0,0,0,7.818,3.222h4.435l-.008-4.415Z" transform="translate(-154.078 -126.748)" fill="#3a3c07"/>
        <path id="Trazado_115920" data-name="Trazado 115920" d="M294.841,162.106A8.851,8.851,0,0,0,286,170.947v4.45a8.841,8.841,0,1,0,17.681,0v-4.45A8.851,8.851,0,0,0,294.841,162.106Zm4.42,13.291a4.42,4.42,0,0,1-8.841,0v-4.45a4.42,4.42,0,1,1,8.841,0Z" transform="translate(-201.719 -126.758)" fill="#3a3c07"/>
        <path id="Trazado_115921" data-name="Trazado 115921" d="M86.479,286.49v-4.42H73.215v22.083H86.479v-4.42H77.635v-4.411h4.424V290.9H77.635V286.49Z" transform="translate(-51.639 -211.37)" fill="#3a3c07"/>
        <path id="Trazado_115922" data-name="Trazado 115922" d="M401.551,286.49v-4.42H388.287v22.083h13.264v-4.42h-8.844v-4.411h4.423V290.9h-4.423V286.49Z" transform="translate(-273.863 -211.37)" fill="#3a3c07"/>
        <path id="Trazado_115923" data-name="Trazado 115923" d="M16.918,286.394h4.429v-4.42H16.918a11.066,11.066,0,1,0,0,22.131h4.433l-.008-4.42-4.425.008a6.649,6.649,0,0,1,0-13.3Z" transform="translate(-4.125 -211.302)" fill="#3a3c07"/>
        <path id="Trazado_115924" data-name="Trazado 115924" d="M462.064,301.036a11.2,11.2,0,0,0,3.275-7.992,10.87,10.87,0,0,0-10.632-11.07h-6.42V304.1l6.4.012h.02a10.362,10.362,0,0,0,7.357-3.077Zm-7.368-1.343-1.989,0V286.394h2a6.449,6.449,0,0,1,6.212,6.649C461,296.494,458.172,299.748,454.7,299.693Z" transform="translate(-316.182 -211.302)" fill="#3a3c07"/>
        <path id="Trazado_115925" data-name="Trazado 115925" d="M193.287,286.313h6.63v17.7h4.42v-17.7h6.63v-4.42H193.287Z" transform="translate(-136.328 -211.245)" fill="#3a3c07"/>
        <path id="Trazado_115926" data-name="Trazado 115926" d="M311.551,286.531v-4.42H298.287v22.077h4.42v-8.825h4.423v-4.42h-4.423v-4.411Z" transform="translate(-210.385 -211.399)" fill="#3a3c07"/>
        <path id="Trazado_115927" data-name="Trazado 115927" d="M268.287,282.049h4.42v22.095h-4.42Z" transform="translate(-189.226 -211.355)" fill="#3a3c07"/>
        <path id="Trazado_115928" data-name="Trazado 115928" d="M358.287,282.049h4.42v22.095h-4.42Z" transform="translate(-252.704 -211.355)" fill="#3a3c07"/>
        <path id="Trazado_115929" data-name="Trazado 115929" d="M278.936,372.156h68.681v4.42H278.936Z" transform="translate(-196.737 -274.909)" fill="#3a3c07"/>
        <path id="Trazado_115930" data-name="Trazado 115930" d="M248.936,372.156h4.42v4.42h-4.42Z" transform="translate(-175.577 -274.909)" fill="#3a3c07"/>
        <path id="Trazado_115931" data-name="Trazado 115931" d="M0,372.156H68.938v4.42H0Z" transform="translate(0 -274.909)" fill="#3a3c07"/>
        <path id="Trazado_115932" data-name="Trazado 115932" d="M150.855,86.287V75.067h-11.22a22.153,22.153,0,0,0-5.356.657,22.228,22.228,0,0,0-4.489-24.955l-7.934-7.934-7.934,7.934a22.248,22.248,0,0,0-4.42,6.31,46.337,46.337,0,0,0-68.076-.053,22.247,22.247,0,0,0-4.4-6.257L29.1,42.835l-7.934,7.934a22.006,22.006,0,0,0-5.219,8.246L20.109,60.5a17.625,17.625,0,0,1,4.18-6.6L29.1,49.086l4.808,4.808a17.789,17.789,0,0,1,4.31,6.984A46.164,46.164,0,0,0,29.251,84l-4.962-4.962A17.7,17.7,0,0,1,19.2,64.427l-4.391-.5a22.145,22.145,0,0,0,1.866,11.8,22.162,22.162,0,0,0-5.353-.657H.1v11.22a22.182,22.182,0,0,0,8.886,17.754H0v4.42h150.88v-4.42H141.97a22.182,22.182,0,0,0,8.886-17.754ZM117.049,53.895l4.808-4.808,4.808,4.808a17.782,17.782,0,0,1,0,25.147l-5.03,5.03a46.16,46.16,0,0,0-8.918-23.123A17.794,17.794,0,0,1,117.049,53.895ZM4.519,86.287v-6.8h6.8a17.912,17.912,0,0,1,17.708,16.2v5.178L19.253,91.1l-3.125,3.125,9.819,9.819H21.321a17.8,17.8,0,0,1-16.8-17.753Zm28.928,2.282a41.993,41.993,0,1,1,83.986,0v15.471h-4.42V88.569a37.3,37.3,0,0,0-7.1-21.991l-3.582,2.59a32.908,32.908,0,0,1,6.266,19.4V104.04h-66.3V88.569A33.153,33.153,0,0,1,99.443,65.7l3.2-3.05A37.573,37.573,0,0,0,37.867,88.569v15.471h-4.42Zm91.56,15.471,9.819-9.819L131.7,91.1l-9.847,9.847V97.269a17.9,17.9,0,0,1,17.782-17.782h6.8v6.8a17.8,17.8,0,0,1-16.8,17.754h-4.625Z" transform="translate(0 -42.156)" fill="#3a3c07"/>
        <path id="Trazado_115933" data-name="Trazado 115933" d="M213.336,406.511a11.379,11.379,0,0,0-9.179-4.657h-8.646V410.5A11.4,11.4,0,0,0,206.9,421.89h12.872A11.4,11.4,0,0,0,231.162,410.5v-8.646h-8.646A11.379,11.379,0,0,0,213.336,406.511Zm-2.21,10.958H206.9a6.977,6.977,0,0,1-6.969-6.969v-4.226h4.226a6.977,6.977,0,0,1,6.969,6.969Zm15.615-6.969a6.977,6.977,0,0,1-6.969,6.969h-4.226v-4.226a6.977,6.977,0,0,1,6.969-6.969h4.226Z" transform="translate(-137.896 -295.855)" fill="#3a3c07"/>
        <path id="Trazado_115934" data-name="Trazado 115934" d="M141.771,294.981a6.625,6.625,0,0,0-2.06-12.922H133v22.073h4.42v-8.007l3.908,8.02,5.01-.009Zm-4.352-8.5h2.292a2.206,2.206,0,0,1,0,4.411h-2.292Z" transform="translate(-93.806 -211.362)" fill="#3a3c07"/>
      </g>
    </g>
  </g>
</svg>
